<?xml version="1.0" standalone="no"?>
<!DOCTYPE svg PUBLIC "-//W3C//DTD SVG 1.1//EN" "http://www.w3.org/Graphics/SVG/1.1/DTD/svg11.dtd" >
<svg xmlns="http://www.w3.org/2000/svg" xmlns:xlink="http://www.w3.org/1999/xlink" version="1.1">
<metadata></metadata>
<defs>
<font id="the_seasonslight_italic" horiz-adv-x="579" >
<font-face units-per-em="2048" ascent="1638" descent="-410" />
<missing-glyph horiz-adv-x="409" />
<glyph horiz-adv-x="0" />
<glyph horiz-adv-x="682" />
<glyph unicode=" "  horiz-adv-x="409" />
<glyph unicode="&#x09;" horiz-adv-x="409" />
<glyph unicode="&#xa0;" horiz-adv-x="409" />
<glyph unicode="!" horiz-adv-x="475" d="M127 350q115 242 207.5 453t132.5 313t77.5 204t37.5 103q24 60 80 60q42 0 58.5 -16t6.5 -46q-8 -25 -54.5 -106.5t-113.5 -194.5t-179 -325t-226 -451zM-80 47q0 41 42.5 87t80.5 46q24 0 48 -26.5t24 -53.5q0 -39 -41.5 -84t-73.5 -45q-22 0 -51 23.5t-29 52.5z" />
<glyph unicode="&#x22;" horiz-adv-x="423" d="M266 1022q17 37 71.5 162t61.5 139q23 55 74 55q63 0 31 -59q-8 -16 -49.5 -73.5t-97.5 -133t-70 -94.5zM471 1022q17 37 71.5 162t61.5 139q23 55 74 55q63 0 31 -59q-8 -16 -49.5 -73.5t-97.5 -133t-70 -94.5z" />
<glyph unicode="#" horiz-adv-x="1402" d="M600 -2l246 442h-406l-245 -442h-37l245 442h-436l17 29h436l278 500h-436l14 28h437l243 437h37l-243 -437h405l244 437h37l-244 -437h438l-14 -28h-438l-279 -500h438l-16 -29h-438l-246 -442h-37zM457 469h405l279 500h-406z" />
<glyph unicode="$" horiz-adv-x="940" d="M190 -12h-6l-57 -129l-29 2l58 129q-107 7 -168.5 56t-55.5 147q7 111 154 241l14 -10q-30 -62 -30 -123q0 -66 32.5 -122t98.5 -87l331 754q-73 157 -73 244q0 123 96 215t240 139l61 139l29 -2l-56 -127q95 27 187 27q81 0 146 -19t65 -49q0 -35 -39.5 -65.5 t-75.5 -30.5q-24 0 -54.5 6.5t-54.5 14t-88 28.5t-110 35l-193 -438q22 -50 82 -162t91.5 -193t31.5 -151q0 -133 -88 -242t-231 -168t-308 -59zM225 82q61 -23 135 -23q145 0 249 85.5t104 220.5q0 39 -8.5 80.5t-30.5 96.5t-34.5 83t-48.5 100l-44 88zM559 1208 q-8 -94 39 -211l180 410q-206 -72 -219 -199z" />
<glyph unicode="%" horiz-adv-x="1198" d="M420 813q-55 0 -94 37t-39 111q0 76 38.5 162.5t100.5 158t149 119t175 47.5q56 0 93.5 -32t37.5 -89q0 -53 -24 -121t-68 -136.5t-100 -126t-127 -94t-142 -36.5zM41 -10l1272 1468l20 -16l-1272 -1469zM383 975q0 -56 26 -89.5t68 -33.5q62 0 120.5 50.5t97.5 123 t63 150t26 135.5q0 46 -23.5 74t-66.5 28q-65 0 -125 -46t-99.5 -114t-63 -143t-23.5 -135zM508 100q0 61 24.5 129.5t69 131.5t101 114t127 82t141.5 31q56 0 93.5 -32t37.5 -89q0 -53 -24 -121t-68 -136.5t-100 -126t-127 -94t-142 -36.5q-55 0 -94 36.5t-39 110.5z M604 115q0 -56 26 -89.5t68 -33.5q62 0 120.5 50.5t98 123t63.5 150t26 135.5q0 46 -24 74t-67 28q-65 0 -125 -46t-99.5 -114t-63 -143t-23.5 -135z" />
<glyph unicode="&#x26;" horiz-adv-x="1865" d="M1331 0q-166 0 -360 260q-105 -122 -263 -198t-278 -76q-163 0 -268 97.5t-105 260.5q0 123 83 246.5t218 214.5t289 133q-26 98 -26 180q0 107 35 197.5t93 152t134 104.5t156.5 62.5t160.5 18.5q79 0 134 -16t55 -38t-34.5 -51.5t-76.5 -29.5q-9 0 -19.5 1t-24 4 t-25 5.5t-29 8.5t-29.5 9.5t-34 11t-34 12t-38 14t-39 13.5q-46 -12 -86.5 -30.5t-82 -51t-71 -74t-48 -102.5t-18.5 -133q0 -87 30.5 -206t82 -244.5t123.5 -248.5t150 -219.5t167 -156t170 -59.5q74 0 137.5 92t95.5 215t32 235q0 143 -48 216t-167 85l-62 3h-33 q-12 0 -16.5 7t2.5 17q25 34 45 45q25 14 51 14h502q21 0 30 -3t3 -11q-36 -51 -78 -72q-25 -14 -47 -14l-291 10q213 -65 213 -262q0 -92 -38.5 -205t-100.5 -211.5t-148.5 -165.5t-173.5 -67zM178 397q0 -158 95.5 -251t248.5 -93q147 0 256 76q51 35 95.5 86.5t62.5 91.5 q-92 133 -167 293.5t-114 304.5q-126 -18 -234.5 -87.5t-175.5 -181.5t-67 -239z" />
<glyph unicode="'" horiz-adv-x="321" d="M266 1022q17 37 71.5 162t61.5 139q23 55 74 55q63 0 31 -59q-8 -16 -49.5 -73.5t-97.5 -133t-70 -94.5z" />
<glyph unicode="(" horiz-adv-x="585" d="M203 -555q-158 234 -158 590q0 328 136.5 636t394.5 555.5t602 389.5l8 -21q-194 -79 -363.5 -210.5t-296.5 -294.5t-219.5 -352.5t-142 -390t-55.5 -400.5q-3 -65 2 -135t32.5 -174.5t77.5 -180.5z" />
<glyph unicode=")" horiz-adv-x="544" d="M354 1610q166 -229 178 -584q12 -328 -113 -641t-374 -569t-588 -410l-10 21q191 85 356 222.5t286 305t207 359.5t129 394t42 402q0 66 -7.5 135.5t-38.5 172.5t-83 177z" />
<glyph unicode="*" horiz-adv-x="784" d="M770 993q-28 0 -41 24t-6 62l43 236l-182 -154q-29 -25 -57 -26t-42 24q-14 23 0.5 47t51.5 37l225 80l-225 80q-37 13 -51.5 37t-0.5 47q14 25 42 24t57 -26l182 -154l-43 236q-7 38 6 62t41 24t41 -24t6 -62l-43 -236l182 154q29 25 57 26t42 -24q14 -23 -0.5 -47 t-50.5 -37l-226 -80l226 -80q36 -13 50.5 -37t0.5 -47q-14 -25 -42 -24t-57 26l-182 154l43 -236q7 -38 -6 -62t-41 -24z" />
<glyph unicode="+" horiz-adv-x="831" d="M809 657l-10 -24h-318l-110 -301h-27l111 301h-324l10 24h322l110 301l27 3l-111 -304h320z" />
<glyph unicode="," horiz-adv-x="368" d="M-211 -195q130 90 133 148q1 23 -21.5 48.5t-23.5 47.5q-2 31 37.5 81t77.5 50q32 0 54 -35t22 -73q0 -33 -23.5 -71t-69 -78.5t-81.5 -68.5t-91 -67z" />
<glyph unicode="-" horiz-adv-x="645" d="M236 504q-66 0 -96.5 -12t-71.5 -46l-17 17q43 43 65.5 62t64 36t93.5 17h129q81 0 114.5 13t80.5 56l16 -16q-73 -73 -117.5 -100t-119.5 -27h-141z" />
<glyph unicode="." horiz-adv-x="315" d="M-66 -29q-22 0 -50.5 23.5t-28.5 52.5q0 41 42 87t80 46q24 0 48 -26.5t24 -53.5q0 -39 -41.5 -84t-73.5 -45z" />
<glyph unicode="/" d="M-520 -553l1591 2191h37l-1591 -2191h-37z" />
<glyph unicode="0" horiz-adv-x="1064" d="M207 -14q-91 0 -152 62t-61 185q0 125 44 270.5t118 282.5t174 265.5t208 223.5t225.5 152.5t221.5 57.5q92 0 150.5 -57.5t58.5 -157.5q0 -122 -43.5 -268.5t-116 -287t-172 -273.5t-207 -233.5t-225.5 -161t-223 -60.5zM127 287q0 -122 45 -185t131 -63q75 0 163 57.5 t170.5 151.5t160 218.5t135 254t92.5 262t35 238.5q0 117 -44 167t-126 50q-73 0 -161 -56t-171 -148t-162 -213t-138 -247t-94.5 -255t-35.5 -232z" />
<glyph unicode="1" horiz-adv-x="647" d="M41 0q-10 0 -14.5 7t0.5 18l622 1331l-227 -105l-8 21q313 150 405 225q21 15 28 3q5 -7 -7 -15q-46 -28 -76 -92l-635 -1379q-6 -14 -23 -14h-65z" />
<glyph unicode="2" horiz-adv-x="1163" d="M-115 0l-12 20l92 62q172 114 316.5 220t248.5 191t187.5 165.5t136.5 141t92 119.5t58 98.5t30 81t13 63.5t2 50q0 81 -56 133t-157 52q-185 0 -371 -189l-14 19q240 254 458 258q131 0 201 -62.5t70 -162.5q0 -148 -106.5 -303.5t-356 -362t-694.5 -506.5h557 q102 0 159.5 10.5t88 28t75.5 59.5l17 -12q-12 -13 -49 -57.5t-60 -69.5q-36 -47 -100 -47h-826z" />
<glyph unicode="3" horiz-adv-x="985" d="M156 -14q-95 0 -163.5 21.5t-68.5 49.5q0 21 37.5 50.5t75.5 29.5q35 0 80.5 -13t123 -43t113.5 -42q85 17 163.5 63.5t139.5 113.5t97.5 157.5t36.5 187.5q0 102 -56.5 157.5t-171.5 55.5q-66 0 -131 -26q-58 -22 -68 -19q-4 1 -6 4q-7 10 0.5 21.5t30.5 15.5 q75 14 151.5 42.5t150 72t130.5 96t92 120t35 138.5q0 78 -52.5 125t-152.5 47q-167 0 -333 -147l-15 18q219 200 412 203q121 0 187.5 -57t66.5 -146q0 -73 -32.5 -141t-89.5 -123t-123 -98.5t-144 -79.5h10q113 0 172 -65.5t59 -162.5q0 -113 -62.5 -226.5t-164.5 -201.5 t-242.5 -143t-287.5 -55z" />
<glyph unicode="4" horiz-adv-x="1179" d="M506 0q-10 0 -14.5 7t0.5 18l172 358q-32 3 -114.5 12t-135.5 14t-125.5 10t-126.5 5q-88 0 -137 -33l-11 19q4 4 11.5 10t19.5 16t23 19l1181 1018q12 12 25 12q8 0 16 -5.5t8 -11.5q0 -4 -8 -24l-477 -991q16 -2 43 -2q120 0 205 94l14 -15q-75 -79 -138 -119t-130 -40 l-31 2l-172 -359q-6 -14 -24 -14h-74zM139 481q78 19 146 19q51 0 115 -4.5t98 -8t114 -13.5t90 -11l414 856z" />
<glyph unicode="5" horiz-adv-x="933" d="M106 -14q-97 0 -163 18.5t-66 46.5q0 25 36 55.5t75 30.5q35 0 81.5 -13.5t126.5 -44t109 -40.5q176 35 303 181.5t127 340.5q1 62 -22.5 113.5t-65 88t-103.5 64.5t-132 45t-156 29l-6 10l377 574q197 -33 344 -33q145 0 225 80l16 -16q-13 -12 -40.5 -39t-41.5 -40 t-40 -32.5t-47.5 -28.5t-52.5 -16.5t-66 -7.5q-162 0 -326 37l-254 -390q252 -35 386 -124.5t134 -245.5q0 -113 -62.5 -229t-164.5 -207t-243.5 -149t-287.5 -58z" />
<glyph unicode="6" horiz-adv-x="1134" d="M379 -14q-130 0 -202.5 85.5t-72.5 241.5q0 209 99 413.5t262 362.5t384.5 264t455.5 128l2 -23q-187 -19 -350.5 -87.5t-279 -162t-207 -211.5t-144.5 -229.5t-82 -222.5q156 191 333.5 314.5t317.5 123.5q94 0 151.5 -56t57.5 -165q0 -82 -35.5 -185.5t-103.5 -206.5 t-155 -189.5t-200.5 -140.5t-230.5 -54zM217 354q0 -152 61 -233.5t185 -81.5q74 0 144.5 35t124.5 92.5t99.5 130t75 148t46 145t16.5 123.5q0 116 -43.5 162.5t-126.5 46.5q-108 0 -272 -128t-296 -307q-14 -69 -14 -133z" />
<glyph unicode="7" horiz-adv-x="927" d="M115 0q-12 0 -16 7t3 18l1104 1341q-84 -12 -182 -12q-59 0 -218 17.5t-222 17.5q-129 0 -254 -142l-21 15q210 232 381 227q52 -1 230 -20t243 -19q82 0 129 27l11 -17l-1074 -1448q-7 -12 -26 -12h-88z" />
<glyph unicode="8" horiz-adv-x="1032" d="M324 -14q-54 0 -109.5 15t-106 44t-82.5 80t-32 115q0 78 32 149t82.5 125t123 103t145 84t155.5 65q-68 61 -105.5 121.5t-37.5 138.5q0 123 72.5 229.5t191 168t250.5 61.5q124 0 197.5 -59.5t73.5 -147.5q0 -320 -486 -490q45 -35 68.5 -54.5t58.5 -54t52.5 -63 t31.5 -68t14 -81.5q0 -122 -83 -233.5t-220 -179.5t-286 -68zM100 256q0 -105 76.5 -173.5t200.5 -68.5q169 0 294.5 119t125.5 283q0 32 -7 60.5t-22.5 55.5t-30 47.5t-42 46t-44 40.5t-50 42t-48.5 40q-98 -33 -177 -77.5t-142.5 -104.5t-98.5 -139t-35 -171zM479 1085 q0 -44 14.5 -83t46 -76t57.5 -61t73 -62q179 65 290 186.5t111 255.5q0 97 -61.5 151t-163.5 54q-152 0 -259.5 -106t-107.5 -259z" />
<glyph unicode="9" horiz-adv-x="1134" d="M973 1483q129 0 201.5 -86t72.5 -242q0 -167 -63 -333.5t-176.5 -307t-262 -253.5t-329.5 -184.5t-369 -88.5l-2 22q157 16 297.5 66t247.5 123.5t195.5 161.5t151.5 186.5t105 192t66 184.5q-156 -191 -333.5 -315t-317.5 -124q-94 0 -151.5 56t-57.5 166 q0 82 35.5 185.5t103.5 206.5t155 189.5t200.5 140.5t230.5 54zM383 756q0 -116 43.5 -162.5t126.5 -46.5q108 0 271.5 127.5t295.5 306.5q15 73 15 133q0 152 -61 234t-185 82q-74 0 -144.5 -35t-124.5 -92.5t-99.5 -130t-75 -148t-46 -145t-16.5 -123.5z" />
<glyph unicode=":" horiz-adv-x="399" d="M-12 -29q-22 0 -51 23.5t-29 52.5q0 41 42.5 87t80.5 46q24 0 47.5 -26.5t23.5 -53.5q0 -39 -41 -84t-73 -45zM274 852q0 41 42.5 87t80.5 46q24 0 48 -26.5t24 -53.5q0 -39 -41.5 -84t-73.5 -45q-22 0 -51 23.5t-29 52.5z" />
<glyph unicode=";" horiz-adv-x="399" d="M-158 -195q130 90 133 148q1 23 -21.5 48.5t-23.5 47.5q-2 31 37.5 81t77.5 50q32 0 54 -35t22 -73q0 -33 -23.5 -71t-68.5 -78.5t-81 -68.5t-91 -67zM274 852q0 41 42.5 87t80.5 46q24 0 48 -26.5t24 -53.5q0 -39 -41.5 -84t-73.5 -45q-22 0 -51 23.5t-29 52.5z" />
<glyph unicode="&#x3c;" horiz-adv-x="929" d="M963 854l4 -25l-787 -200l633 -201l-8 -25l-674 213l2 25z" />
<glyph unicode="=" horiz-adv-x="847" d="M858 780l-10 -24h-668l10 24h668zM96 510l10 25h668l-10 -25h-668z" />
<glyph unicode="&#x3e;" horiz-adv-x="929" d="M61 403l-4 25l787 201l-633 200l8 25l674 -213l-2 -25z" />
<glyph unicode="?" horiz-adv-x="774" d="M193 289q22 85 71 165t148 181q40 40 112.5 101t129.5 111.5t114.5 111t90 125t32.5 128.5q0 81 -56 133t-157 52q-185 0 -371 -189l-14 19q240 254 459 258q131 0 200.5 -62.5t69.5 -162.5q0 -72 -31.5 -139t-80 -117t-115.5 -103.5t-130.5 -95.5t-132.5 -96.5 t-114 -102.5q-69 -73 -95 -142t-38 -175h-92zM84 47q0 41 42.5 87t80.5 46q24 0 48 -26.5t24 -53.5q0 -39 -41.5 -84t-73.5 -45q-22 0 -51 23.5t-29 52.5z" />
<glyph unicode="@" horiz-adv-x="1906" d="M694 -350q-137 0 -255.5 39.5t-208.5 112.5t-141.5 187t-51.5 255q0 170 59 333t159.5 295t234.5 244t282 187.5t303.5 118t298.5 42.5q271 0 433.5 -132.5t162.5 -360.5q0 -116 -34 -223.5t-90.5 -190t-129.5 -154t-150.5 -121t-154 -85t-139.5 -52t-107 -16.5 q-46 0 -70 30t-24 79q0 102 96 299q-340 -416 -536 -416q-72 0 -108 54t-31 138q4 78 37.5 167t87.5 174t128.5 163.5t156.5 137.5t175.5 95t182.5 37q166 0 299 -49l34 -14q-70 -79 -157.5 -216t-158.5 -294t-71 -248q0 -36 16.5 -54.5t59.5 -18.5q40 0 94.5 19.5 t118.5 56.5t126 100t113 141.5t82 189t31 234.5q0 101 -32.5 183.5t-86 136.5t-126 91.5t-150 53.5t-160.5 16q-108 0 -222 -26t-223.5 -76.5t-211.5 -121t-188 -164.5t-149.5 -201t-99.5 -236.5t-36 -265.5t38.5 -242t102 -172.5t151.5 -108.5t179.5 -58t193.5 -13 q97 3 192 27t169.5 59.5t146 84t122 93t97.5 94.5l17 -14q-46 -56 -100 -108.5t-137.5 -112t-175 -102.5t-213.5 -72t-251 -29zM627 350q-12 -151 90 -151q85 0 211 116t299 334q81 145 192 305q-162 64 -274 64q-76 0 -147.5 -35t-125.5 -92t-99.5 -128.5t-75.5 -147 t-48 -143.5t-22 -122z" />
<glyph unicode="A" horiz-adv-x="2203" d="M262 -29q-89 0 -159 29.5t-110.5 78t-61.5 106.5t-21 120q0 116 58.5 226.5t152 191t215 129.5t242.5 49q95 0 198.5 -21t164 -42t172.5 -65.5t149 -57.5q331 363 682 825l-400 -6q-53 -1 -92.5 -9t-74 -29t-55 -38t-60.5 -55l-17 14q127 141 187 189q40 32 110 32h524 q25 0 19 -24q-118 -525 -189 -913.5t-71 -485.5q0 -129 94 -129q78 0 205 115l16 -21q-214 -194 -319 -194q-50 0 -85.5 52t-27.5 167q15 171 80 512q-150 -125 -338 -125q-113 0 -238 33q-112 -120 -195 -203t-189 -175t-193 -147.5t-185 -92t-188 -36.5zM12 367 q0 -145 91 -237.5t229 -92.5q92 0 196 45.5t216.5 134t213.5 185.5t226 231q-92 26 -227.5 84.5t-246 95.5t-206.5 37q-107 0 -200.5 -41t-156.5 -109t-99 -155t-36 -178zM1290 707q153 -54 266 -54q131 0 238 99q62 327 160 751q-364 -474 -664 -796z" />
<glyph unicode="B" horiz-adv-x="1523" d="M561 -14q-365 0 -559 24q-22 2 -22 15q0 14 57 45l43 28l8 6q32 24 57 58t64 104q88 154 262.5 508t267.5 514q74 132 203 215l53 35h-383q-53 -1 -92 -9t-75 -31t-54 -38.5t-61 -56.5l-17 14q127 141 187 189q40 32 108 32h600q203 0 297 -66t94 -179 q0 -132 -98.5 -242.5t-245.5 -171.5q84 -19 139.5 -79.5t55.5 -160.5q0 -111 -51.5 -223.5t-141 -206t-201.5 -167t-242 -115t-253 -41.5zM141 113q59 -9 229.5 -20t297.5 -11q291 -5 468 159t177 449q0 105 -56.5 174.5t-160.5 69.5h-269l19 29h250q94 0 186 56.5 t147.5 139t55.5 158.5q0 221 -361 221h-82q-12 -9 -23 -17.5t-21.5 -19l-17.5 -17.5t-17 -20.5t-14.5 -19t-15 -22.5t-13 -21.5t-15 -25.5t-14.5 -25q-93 -160 -265.5 -509t-256.5 -497q-38 -68 -71.5 -107t-80.5 -73z" />
<glyph unicode="C" horiz-adv-x="1398" d="M680 -14q-108 0 -198 29.5t-150.5 79.5t-102 117t-60.5 140.5t-19 151.5q0 145 44.5 289.5t124 271t193.5 236t247.5 187.5t291.5 122.5t321 44.5q147 0 284.5 -38t137.5 -77q0 -32 -39 -66t-90 -34q-95 0 -510 164q-128 -20 -255.5 -79.5t-240.5 -154t-200 -212 t-138 -266t-51 -304.5q0 -102 30.5 -192.5t89 -162.5t153.5 -114t215 -41q258 0 469 196l16 -20q-132 -127 -268.5 -197.5t-294.5 -70.5z" />
<glyph unicode="D" horiz-adv-x="1761" d="M627 -12q-316 0 -494 22q-22 2 -22 15q0 4 3.5 8.5t11.5 10.5t14.5 10.5t19 12t18.5 11.5l29 20l4 4q32 25 59.5 60.5t65.5 103.5q88 154 253.5 491.5t258.5 497.5q74 132 203 215l88 58l14 -21q-13 -9 -24 -17.5t-22 -19.5t-18 -17.5t-17 -20.5t-14.5 -19.5t-15.5 -23 t-13.5 -21.5t-15 -25.5t-14.5 -25.5q-93 -160 -256 -492.5t-247 -480.5q-38 -68 -71.5 -107t-80.5 -73l-74 -51h2q59 -9 209.5 -20t276.5 -11q277 0 488 101t323.5 279.5t111.5 405.5q-1 153 -53 283t-147 224.5t-237.5 148t-315.5 53.5q-238 0 -461 -156l-12 21 q291 209 598 209q172 0 315 -58t234.5 -153.5t141.5 -214.5t50 -244q0 -176 -67 -334.5t-181.5 -277t-263 -206t-317.5 -132t-338 -43.5z" />
<glyph unicode="E" horiz-adv-x="1296" d="M-35 0q-22 0 -22 18q0 5 4 10.5t14.5 13.5t16 12t20.5 14l43 30q35 26 62 61.5t67 106.5q100 178 293 578h-207v28h221q133 275 217 418q82 145 203 215l57 33h-344q-31 0 -58.5 -4.5t-46 -7.5t-43 -17t-33.5 -18t-35 -27t-30.5 -27t-35.5 -34l-17 14q127 141 187 189 q40 32 110 32h998q123 0 123 -73q0 -53 -57 -112.5t-185 -156.5l-12 19q91 74 127 113.5t36 66.5q0 21 -19 32t-71 11h-555q-14 -9 -26.5 -20t-21 -19t-20 -22.5t-16.5 -20.5t-16.5 -25t-14.5 -23.5t-16.5 -28t-15.5 -27.5q-95 -162 -248 -480h664v-28h-678 q-173 -358 -254 -500q-38 -68 -71.5 -107t-80.5 -73l-92 -64h791q116 0 193 56q25 19 89 80l17 -15q-124 -137 -187 -188q-42 -33 -123 -33h-901z" />
<glyph unicode="F" horiz-adv-x="1497" d="M113 0q-23 0 -23 14q0 13 53 52l43 32q35 26 62 61.5t67 106.5q87 151 295 578h-151v28h166q136 279 225 435q74 132 203 215l24 16h-323q-53 0 -92 -8t-75.5 -31.5t-54 -38.5t-61.5 -57l-16 14q6 6 28 31t31 34.5t29 31t33 34t31 29t34 29.5q40 32 111 32h997 q123 0 123 -73q0 -53 -57 -112.5t-185 -156.5l-12 19q91 75 127.5 114t36.5 66q0 21 -19 32t-71 11h-564q-12 -10 -22.5 -19.5t-21.5 -23t-17 -21t-17.5 -26t-15 -23.5t-17.5 -29t-16 -28q-93 -159 -256 -496h637v-28h-651q-186 -376 -256 -500q-39 -68 -71.5 -107.5 t-79.5 -72.5l-95 -64h23h233q17 0 17 -12q0 -9 -17.5 -32t-38.5 -42q-16 -14 -59 -14h-274z" />
<glyph unicode="G" horiz-adv-x="1531" d="M668 -14q-108 0 -198 29.5t-150.5 79.5t-102.5 117t-61 140.5t-19 151.5q0 173 62.5 344t173.5 312.5t255.5 252t318.5 174t351 68.5q167 5 303 -28.5t136 -82.5q0 -27 -38 -63.5t-87 -36.5q-22 0 -55 8t-84.5 27t-91.5 35t-119.5 49t-124.5 51q-126 -23 -252.5 -84 t-239 -157t-199 -214t-137.5 -266.5t-51 -304.5q0 -101 32 -192t92 -163t156 -114t216 -41q145 0 272.5 66t249.5 233q54 124 139 338q-80 -1 -202 -3t-211 -3.5t-107 -1.5q-23 0 -23 14q0 28 56 80q12 10 59 10q16 0 221.5 -1.5t307.5 -0.5h22q7 0 9.5 -2.5t1.5 -8 t-5 -16.5q-97 -256 -189 -462.5t-135.5 -290.5t-108.5 -201l-15 -27q-57 -105 -162 -188q-123 -95 -279 -150l-12 25q113 38 180.5 99t141.5 177q138 218 268 512q-120 -147 -264.5 -218.5t-300.5 -71.5z" />
<glyph unicode="H" horiz-adv-x="1767" d="M1264 -14q-41 0 -64.5 27t-23.5 73q0 87 143 381l186 377h-760q-178 -356 -245 -475q-81 -145 -252 -258.5t-342 -122.5q-56 -2 -99 6.5t-43 30.5q0 24 36 54t85 30q42 0 240 -35q39 18 67.5 36.5t71.5 64t84 112.5q86 145 285 557h-195v28h207q160 329 234 455 q39 69 85.5 116t116.5 91l19 12l-363 -12q-70 -2 -122 -20t-80.5 -40t-79.5 -71l-17 14q127 141 187 189q40 32 108 32h461q25 0 25 -14q0 -9 -24 -33t-44 -37q-9 -6 -17.5 -13t-18.5 -19t-15.5 -19t-17 -25.5t-15.5 -25t-18.5 -31.5t-18.5 -32q-93 -160 -272 -517h762 l151 310q146 296 345.5 463t445.5 167q135 0 135 -34q0 -25 -29 -51.5t-65 -26.5q-34 0 -134.5 18t-142.5 23q-96 -35 -180 -120.5t-166 -250.5l-446 -907q-136 -276 -136 -342q0 -49 50 -49q84 0 233 155l16 -20q-221 -221 -333 -221z" />
<glyph unicode="I" horiz-adv-x="770" d="M-186 0q-23 0 -23 16q0 12 24.5 38t47.5 38q16 8 47 8h143q52 39 85.5 75.5t64.5 92.5q97 162 276 535.5t266 523.5q39 69 84.5 113t118.5 84l27 14h-144q-46 0 -86 -4t-67 -8t-57 -16.5t-44 -17.5t-39 -25t-30.5 -24.5t-32 -30t-29.5 -28.5l-16 15q2 3 23.5 26.5 t27 29.5t24 26t28.5 29.5t25.5 25t29.5 28t28 23.5q20 16 35.5 24.5t63.5 17.5t119 9h479q16 0 16 -10t-18.5 -35t-38.5 -43q-14 -12 -53 -12h-191q-45 -37 -74 -68t-57 -81q-99 -170 -287 -552t-250 -493q-31 -55 -48.5 -81.5t-47.5 -57.5t-69 -53l-91 -52h152q46 0 86 4 t67 8t57 16.5t44 17.5t39 25t30.5 24.5t32 30t29.5 28.5l16 -14q-6 -6 -28 -31t-31 -34.5t-29 -31t-33 -34t-31 -29t-34 -29.5q-20 -16 -35.5 -24.5t-63 -17.5t-118.5 -9h-440z" />
<glyph unicode="J" horiz-adv-x="1058" d="M-29 -365q-93 0 -153 59.5t-60 188.5q0 95 45.5 204t127.5 214t206.5 200.5t270.5 157.5l12 -22q-123 -54 -227 -144.5t-167.5 -188.5t-99 -194t-35.5 -171q0 -121 45.5 -184.5t131.5 -63.5q63 0 128.5 32.5t121 84.5t114 128.5t105 151t96.5 166.5q92 161 270.5 529.5 t270.5 527.5q38 68 85 115t117 92l41 26l-667 -6q-53 -1 -92 -9t-75 -31t-55 -39t-61 -56l-16 14q6 6 28 31t31 34.5t29 31t33 34t31 29t34 29.5q40 32 115 32l757 -2q25 0 25 -14q0 -9 -24 -33t-44 -37q-14 -9 -25.5 -18.5t-23.5 -23t-19 -21.5t-19 -27.5t-16.5 -25.5 t-19 -32t-18.5 -32q-92 -158 -270.5 -525.5t-266.5 -520.5q-84 -141 -171.5 -256.5t-192 -217.5t-221 -159.5t-232.5 -57.5z" />
<glyph unicode="K" horiz-adv-x="1632" d="M-207 -12q-56 -2 -98.5 6.5t-42.5 30.5q0 24 36 54t85 30q41 0 239 -35q39 18 67.5 36.5t72 64t84.5 112.5q89 149 265 517.5t265 522.5q38 68 85.5 115.5t117.5 91.5l18 12l-362 -12q-70 -2 -122 -20t-81 -40t-80 -71l-16 14q6 6 28 31t31 34.5t29 31t33 34t31 29 t34 29.5q40 32 109 32h460q25 0 25 -14q0 -9 -24 -33t-44 -37q-11 -7 -22 -18t-18 -19t-19.5 -27.5t-17.5 -27.5t-21.5 -36t-21.5 -37q-47 -80 -104 -187.5t-95.5 -184.5l-106 -212l-94.5 -189q245 226 531.5 463t433.5 342q166 122 302.5 177t266.5 55q51 0 89 -11t38 -32 q0 -28 -37.5 -66.5t-83.5 -38.5q-65 0 -280 58q-99 -34 -279 -164q-178 -134 -485 -389q26 -256 60 -442t72.5 -292.5t78 -156t82.5 -49.5q40 0 90.5 33t128.5 102l16 -21q-221 -198 -325 -198q-46 0 -92 70t-85 193t-70 301t-46 384q-246 -208 -445 -393q-57 -112 -92 -172 q-81 -145 -252 -258.5t-342 -122.5z" />
<glyph unicode="L" horiz-adv-x="1247" d="M745 -18q-23 0 -147 2t-209 4l-565 12q-23 0 -23 18q0 11 31 35.5t57 38.5q12 6 27 6l121 -2q80 52 146.5 140t119.5 206t91 224t88 253.5t85 235.5q54 137 129 235t167 154t194 81.5t223 25.5q135 0 232.5 -18.5t97.5 -49.5q0 -33 -39.5 -61.5t-73.5 -28.5 q-62 0 -156.5 24.5t-279.5 84.5q-41 -10 -70.5 -23t-68 -43.5t-72 -77.5t-75 -127t-85.5 -190q-198 -502 -307 -695q-128 -229 -299 -352l309 -6q85 -2 208.5 -4t146.5 -2q46 -1 85.5 2.5t67.5 8t57 16t44.5 18t38.5 25t31 25.5t31 30t30 29l16 -15q-2 -3 -23.5 -26.5 t-27 -29.5t-24 -26t-28.5 -29.5t-25.5 -25t-29.5 -28t-28 -23.5q-21 -17 -36 -25t-63 -17.5t-119 -8.5z" />
<glyph unicode="M" horiz-adv-x="2236" d="M1808 -14q-39 0 -59 26.5t-20 65.5q0 134 167.5 571t362.5 819l-1190 -1345q-22 -22 -39 -76q-3 -13 -48 -31q-54 -21 -54 0q110 833 178 1504q-245 -446 -490 -793q-522 -731 -882 -739q-74 -2 -137.5 12t-63.5 39q0 28 35.5 60t87.5 32q22 0 57 -7.5t99 -24t112 -27.5 q269 118 666 669q282 397 502 809l-428 -12q-53 -1 -92.5 -10t-74.5 -30.5t-55 -38.5t-61 -56l-16 14q6 6 28 31t31 34.5t29 31t33 34t31 29t34 29.5q40 32 117 32h526q11 0 14.5 -5.5t3.5 -18.5q-46 -567 -163 -1473l1308 1485q9 12 25 12h61q11 0 16 -7t-1 -17 q-225 -412 -407.5 -864t-182.5 -625q0 -49 45 -49q72 0 217 151l16 -20q-106 -106 -194.5 -163.5t-143.5 -57.5z" />
<glyph unicode="N" horiz-adv-x="1830" d="M1366 -23q-7 0 -10 19l-228 1511q-12 -24 -56.5 -115.5t-66 -136t-66.5 -133t-77.5 -150t-76.5 -140.5t-85 -148q-91 -150 -179 -268t-187 -218.5t-203 -155t-205 -54.5q-76 0 -138 13.5t-62 37.5q0 28 35 60t87 32q22 0 57.5 -7.5t99.5 -24t112 -27.5q250 108 559 628 q32 53 65.5 112t60 107.5t61 115.5t55 106.5t56 111.5t49 99.5t49 101.5t42.5 88l-448 -4q-53 -1 -92 -9t-75 -31t-55 -39t-61 -56l-16 14q6 6 28 31t31 34.5t29 31t33 34t31 29t34 29.5q40 32 115 32h526q22 0 25 -24l219 -1452q88 197 393 825q37 76 62 126t58 111.5 t58.5 101t58.5 85.5t62.5 74.5t66.5 59t75.5 48t84.5 33t97 21.5t110 6q166 0 166 -43q0 -26 -33 -57t-71 -31q-24 0 -67 7t-113 19.5t-132 20.5q-97 -15 -196.5 -141t-221.5 -373q-334 -682 -413 -867q-36 -83 -70 -147t-47 -64z" />
<glyph unicode="O" horiz-adv-x="1822" d="M918 -14q-167 0 -300.5 55t-218 150t-129.5 219.5t-45 267.5q0 126 38.5 251.5t105 231.5t158 198t194 156.5t216 101t222.5 36.5q133 0 244 -36t189 -99.5t132 -151t79.5 -188.5t25.5 -213q0 -141 -49.5 -285.5t-137.5 -267.5t-201 -219.5t-249.5 -151.5t-273.5 -55z M332 805q0 -213 86.5 -383.5t244 -267.5t357.5 -97q144 0 275.5 70t223 184t145.5 260.5t54 296.5q0 206 -78 367t-228.5 254.5t-352.5 93.5q-129 0 -259.5 -61.5t-234 -164.5t-168.5 -249t-65 -303z" />
<glyph unicode="P" horiz-adv-x="1540" d="M217 0q-22 0 -22 14q0 13 53 52l43 32q35 26 62 61.5t67 106.5q89 156 241 524t244 527q74 132 203 215l10 6h-393q-53 0 -92 -8t-75.5 -31.5t-54 -38.5t-61.5 -57l-16 14q6 6 28 31t31 34.5t29 31t33 34t31 29t34 29.5q40 32 109 32h520q120 0 215.5 -22t157.5 -59.5 t103.5 -90.5t59 -111t17.5 -124q0 -85 -30.5 -170.5t-91 -162t-143.5 -135.5t-196.5 -93.5t-240.5 -34.5h-371q-69 -165 -141 -291q-38 -68 -71.5 -107t-80.5 -73l-100 -70l262 6q16 0 16 -12q0 -9 -17 -32t-38 -42q-16 -14 -59 -14h-275zM733 664h344q148 0 265.5 40 t189.5 108.5t109.5 156t37.5 186.5q0 374 -508 383q-12 -11 -23.5 -23.5t-19.5 -22.5t-19 -26.5t-16.5 -26t-17.5 -30.5t-18 -31q-43 -74 -90 -172t-77 -167t-82 -195.5t-75 -179.5z" />
<glyph unicode="Q" horiz-adv-x="1822" d="M2085 -508q-66 0 -129 16t-113.5 39t-106 65.5t-94.5 78.5t-91 95.5t-83.5 99.5t-83.5 107t-81 103q-187 -110 -385 -110q-197 0 -343.5 74.5t-234.5 207.5q-18 -13 -47 -30l-10 18l45 31q-103 171 -103 391q0 126 38.5 251.5t105 231.5t158 198t194 156.5t216 101 t222.5 36.5q133 0 244 -36t189 -99.5t132 -151t79.5 -188.5t25.5 -213q0 -222 -116 -438.5t-304 -358.5q33 -39 84 -103t85 -106.5t85 -99.5t92 -95t96 -79t107 -65.5t116.5 -40t131.5 -15.5q82 0 158 33t118 75l17 -16q-71 -66 -185.5 -115t-228.5 -49zM332 805 q0 -249 119 -438q232 137 399 137q83 0 159 -24t143.5 -70t123 -98.5t115.5 -123.5q150 114 238.5 298.5t88.5 381.5q0 206 -78 367t-228.5 254.5t-352.5 93.5q-129 0 -259.5 -61.5t-234 -164.5t-168.5 -249t-65 -303zM463 346q94 -137 237.5 -213t319.5 -76q136 0 264 64 q-62 75 -114 127.5t-117 100.5t-137 72.5t-150 24.5q-127 0 -303 -100z" />
<glyph unicode="R" horiz-adv-x="1665" d="M125 0q-23 0 -23 14q0 12 54 52l43 32q35 26 62 61.5t67 106.5q89 156 241 524t244 527q74 132 203 215l10 6h-301q-53 0 -92 -8t-75.5 -31.5t-54 -38.5t-61.5 -57l-16 14q6 6 28 31t31 34.5t29 31t33 34t31 29t34 29.5q40 32 109 32h520q135 0 227.5 -18.5t145.5 -56 t75.5 -88t22.5 -121.5q0 -98 -46.5 -193t-124 -167t-185.5 -116t-223 -44h-35q56 -298 98.5 -460.5t82.5 -231t89 -68.5q32 0 68.5 21t93.5 69l16 -21q-75 -65 -105 -89.5t-69 -46t-72 -21.5q-182 0 -313 848h-274q-134 -328 -226 -490q-39 -68 -71.5 -107.5t-79.5 -72.5 l-94 -64h22h254q17 0 17 -12q0 -9 -17.5 -32t-38.5 -42q-16 -14 -59 -14h-295zM725 862h422q193 0 321.5 118.5t128.5 297.5q0 75 -33.5 127t-97.5 80.5t-142.5 40.5t-182.5 12h-62q-12 -11 -23.5 -23.5t-19.5 -22.5t-19 -26.5t-16.5 -26t-17.5 -30.5t-18 -31 q-94 -161 -240 -516z" />
<glyph unicode="S" horiz-adv-x="1288" d="M406 -14q-108 0 -215 19t-172.5 48t-63.5 58t38.5 61.5t80.5 32.5q23 0 99 -23.5t212 -68.5t236 -74q97 14 181.5 47.5t153 85t108.5 128t40 169.5q0 55 -22.5 102t-56.5 80t-84 62.5t-95 50t-99 42.5q-19 7 -28 11q-49 20 -73 30.5t-70 33t-70.5 39t-58 43.5t-51 53.5 t-30 61.5t-12.5 73q0 143 122 259.5t317.5 179.5t416.5 63q167 0 258 -32t91 -87q0 -43 -59 -104t-183 -154l-12 18q91 75 123 109t32 61q0 32 -46.5 55t-118 33.5t-129 14.5t-105.5 4q-276 0 -445.5 -94t-169.5 -250q0 -42 14 -79t41.5 -66.5t59.5 -53.5t77 -47t83.5 -40 t89.5 -38q13 -5 20 -8q65 -27 108 -47.5t97.5 -55t86.5 -69t54.5 -85t22.5 -108.5q0 -147 -102.5 -271.5t-285.5 -198.5t-406 -74z" />
<glyph unicode="T" horiz-adv-x="1175" d="M410 0q-23 0 -23 14q0 13 53 52l43 32q35 26 62 61.5t67 106.5q89 156 264.5 514t262.5 508q76 131 202 213l58 37h-649q-53 -1 -92 -9t-75 -31t-55 -39t-61 -56l-16 14q6 6 28 31t31 34.5t29 31t33 34t31 29t34 29.5q40 32 113 32h1286q16 0 20 -3.5t4 -10.5 q0 -21 -55 -72q-16 -14 -59 -14h-502q-13 -9 -24 -17.5t-22 -19.5t-18 -17.5t-17 -20.5t-14.5 -19.5t-15.5 -23t-13.5 -21.5t-15 -25.5t-14.5 -25.5q-88 -149 -260.5 -502t-257.5 -502q-39 -68 -71.5 -107.5t-79.5 -72.5l-101 -70l262 6q17 0 17 -12q0 -9 -17.5 -32 t-38.5 -42q-16 -14 -59 -14h-274z" />
<glyph unicode="U" horiz-adv-x="1722" d="M539 -16q-124 0 -205.5 81.5t-81.5 200.5q0 82 33 180.5t85 193t115.5 192t127 190.5t115.5 176t85 159.5t33 131.5q0 50 -29 85.5t-88 35.5q-56 0 -125 -33.5t-127 -87.5l-16 18q170 146 315 146q94 0 138 -56t44 -127q0 -69 -59.5 -184.5t-144 -242.5t-169.5 -258 t-144.5 -265t-59.5 -231q0 -108 59 -168t158 -60q308 0 879 740q132 234 274 472t215 353q9 12 25 12h75q12 0 16.5 -7t-1.5 -17q-151 -240 -360 -598t-302 -553q-110 -232 -110 -303q0 -37 16.5 -55.5t44.5 -18.5q83 0 211 113l14 -21q-99 -85 -185 -138.5t-130 -53.5 q-55 0 -82 35.5t-27 82.5q0 120 101 318q42 82 125 233q-537 -671 -858 -671z" />
<glyph unicode="V" horiz-adv-x="1748" d="M918 -14q-10 0 -15.5 6.5t-3.5 15.5l242 1292q8 42 10 74.5t-3 66t-20 55.5t-46 35.5t-76 12.5l-236 -6q-53 -1 -92.5 -10t-74.5 -30.5t-55 -38.5t-61 -56l-16 14q6 6 28 31t31 34.5t29 31t33 34t31 29t34 29.5q40 32 115 32h660q13 0 19 -7t-1 -17l-31 -47 q-10 -13 -24 -13l-287 -8q41 -15 69.5 -32.5t43.5 -42t22.5 -45.5t5 -59t-6 -64t-13.5 -78l-195 -1078l959 1203q15 34 43.5 99t46.5 105t40 85.5t38 70.5q56 86 147 86q23 0 36 -8.5t13 -18.5q0 -7 -3 -15.5t-13.5 -23t-17.5 -23.5t-27 -34q-47 -59 -140.5 -172 t-138.5 -168l-1065 -1335q-9 -12 -24 -12h-10z" />
<glyph unicode="W" horiz-adv-x="2631" d="M860 -14q-21 0 -18 22l243 1292q10 63 11 116.5t-31 89.5t-98 38l-224 -6q-43 -1 -78.5 -9t-59 -16.5t-52.5 -29.5t-43.5 -34.5t-48.5 -45.5l-17 14q127 141 187 189q40 32 114 32h627q13 0 19.5 -7t-0.5 -17l-31 -47q-10 -13 -25 -13l-280 -8q41 -15 69.5 -32.5t44 -42 t23 -45.5t5.5 -58.5t-5.5 -64.5t-13.5 -78l-203 -1073l1073 1472q7 12 27 12h8q9 0 14.5 -6.5t3.5 -15.5l-190 -1473l966 1209q15 34 43.5 99t46.5 105t40 85.5t38 70.5q56 86 148 86q23 0 36 -8.5t13 -18.5q0 -7 -3 -15.5t-13.5 -23t-17.5 -23.5t-27 -34 q-47 -59 -140.5 -172t-138.5 -168l-1067 -1335q-9 -12 -25 -12h-10q-20 0 -20 22l205 1477l-1088 -1487q-7 -12 -27 -12h-10z" />
<glyph unicode="X" horiz-adv-x="1353" d="M971 -14q-40 0 -58 28.5t-26 94.5l-70 624l-708 -725q-2 -2 -10.5 -11.5t-12 -13l-12 -12l-13 -13t-12 -11.5t-12.5 -10.5t-11 -7.5t-11 -5.5t-9 -1.5q-20 0 -31.5 22.5t-11.5 43.5q0 71 60 121l790 661l-68 621q-4 35 -7 55.5t-9.5 48t-15.5 43t-24.5 26.5t-35.5 11 q-39 0 -98.5 -43.5t-112.5 -104.5l-22 19q92 96 172.5 151.5t130.5 55.5q26 0 46.5 -9.5t34 -29.5t22.5 -39t15.5 -50.5t9 -50t5.5 -51.5l62 -561l741 815q3 3 14 15t16 17t15 15.5t16.5 15.5t14.5 11.5t14.5 9t11.5 2.5q20 0 31.5 -22t11.5 -43q0 -67 -59 -121l-823 -754 l75 -678q6 -69 45 -69q32 0 89 38t129 113l16 -20q-221 -221 -305 -221z" />
<glyph unicode="Y" horiz-adv-x="1400" d="M684 0q-22 0 -22 14q0 13 53 52l43 32q41 31 74.5 72t82.5 135q159 303 152 404q-23 346 -96 682q-7 33 -10 45.5t-11 38t-16 36t-22.5 20.5t-32.5 11l-127 -4q-53 -1 -92.5 -10t-74.5 -30.5t-55 -38.5t-61 -56l-16 14q6 6 28 31t31 34.5t29 31t33 34t31 29t34 29.5 q40 32 115 32h444q13 0 19 -7t0 -17l-31 -51q-10 -13 -25 -13l-221 -6q109 -25 135 -149q64 -277 96 -705l762 1008q66 86 95 86q20 0 31.5 -22.5t11.5 -43.5q0 -32 -7 -53t-30 -47l-873 -983q-60 -168 -114 -291q-30 -66 -63.5 -103.5t-88.5 -76.5l-88 -62l16 2h246 q25 0 25 -14q0 -24 -56 -76q-16 -14 -59 -14h-295z" />
<glyph unicode="Z" horiz-adv-x="1376" d="M-164 0q-22 0 -22 18q0 7 3.5 14.5t13 17.5t14.5 15t19 18t17 15l938 758l864 680l-872 2q-21 0 -41 -3.5t-35.5 -8t-33.5 -15t-28.5 -17t-28.5 -21.5t-25 -21.5t-25.5 -25t-24.5 -23.5l-16 14q14 15 43.5 47t47.5 51.5t44.5 45.5t50.5 45q40 32 105 32h1018 q7 0 10.5 -2.5t4 -5t0 -8t-0.5 -6.5q0 -5 -18.5 -18t-44.5 -29.5t-37 -26.5q-545 -394 -942 -711q-490 -389 -863 -729h963q24 0 45 3.5t42 13t34 15.5t34 23.5t28 23.5t30 28.5t27 26.5l16 -15q-12 -13 -43 -46.5t-48 -52t-44 -44.5t-51 -45q-42 -33 -105 -33h-1063z" />
<glyph unicode="[" horiz-adv-x="495" d="M717 1579q6 16 24 16h500l-12 -22h-414q-10 0 -18 -19l-1037 -2086q-3 -8 1 -12.5t18 -4.5l401 2l-10 -22h-492q-16 0 -10 16z" />
<glyph unicode="\" d="M414 -553h-31l-215 2191h31z" />
<glyph unicode="]" horiz-adv-x="495" d="M-758 -569l13 22h413q11 0 19 19l1036 2087q3 8 -0.5 12t-17.5 4l-402 -2l10 22h492q16 0 10 -16l-1048 -2132q-6 -16 -25 -16h-500z" />
<glyph unicode="^" horiz-adv-x="741" d="M788 1018q-45 148 -77 344l-379 -326l-17 23l449 381q20 17 27 -10q38 -200 88 -375z" />
<glyph unicode="_" horiz-adv-x="706" d="M-182 -313l20 43h723l-16 -43h-727z" />
<glyph unicode="a" horiz-adv-x="1150" d="M725 -14q-52 0 -74 31.5t-22 72.5q0 194 262 608q-295 -349 -484 -530.5t-280 -181.5q-39 0 -66.5 16t-41 42t-19.5 51t-6 50q0 101 47.5 223.5t130.5 239t185 214t222.5 157t231.5 59.5q182 0 338 -51l16 -6q30 -10 11 -35q-169 -244 -263 -416q-145 -268 -145 -387 q0 -57 55 -57q75 0 203 113l14 -21q-99 -85 -185 -138.5t-130 -53.5zM125 197q0 -53 21 -87t61 -34q68 0 275 205.5t526 592.5l20 31q-180 68 -321 68q-108 0 -217 -76t-187.5 -191t-128 -252t-49.5 -257z" />
<glyph unicode="b" horiz-adv-x="1089" d="M272 -14q-73 0 -129 34.5t-83.5 88.5t-26.5 122.5t35 133.5l319 606q172 326 414.5 504t554.5 178q188 0 188 -43q0 -28 -37.5 -66.5t-83.5 -38.5q-31 0 -88 11.5t-106 24t-160 42.5q-165 -54 -275 -155t-216 -308l-379 -733q174 214 393 416q260 235 371 235 q58 0 86 -44.5t28 -106.5q0 -100 -33 -208.5t-90 -207.5t-135.5 -188t-166.5 -154.5t-187 -104t-193 -38.5zM170 313q-11 -70 3 -125t45.5 -85.5t67.5 -46t74 -15.5q100 0 194 53.5t164 139.5t123 190t80 210t27 195q0 119 -74 119q-78 0 -266 -164q-221 -193 -438 -471z " />
<glyph unicode="c" horiz-adv-x="911" d="M272 -14q-106 0 -169.5 70.5t-63.5 187.5q0 82 30 174t82.5 179.5t127 168t158.5 140.5t183 96t195 36q83 0 146 -17t63 -42q0 -32 -33 -61t-71 -29q-42 0 -97.5 19t-181.5 71q-111 -22 -222.5 -142t-179 -274t-67.5 -278q0 -98 48.5 -156.5t141.5 -58.5q160 0 361 178 l14 -19q-130 -125 -255.5 -184t-209.5 -59z" />
<glyph unicode="d" horiz-adv-x="964" d="M231 -8q-89 0 -140.5 65t-51.5 170q0 96 39.5 209t111.5 218t162 192t200.5 139.5t217.5 52.5q114 0 215 -24q68 229 68 393q0 182 -125 182q-132 0 -314 -170l-16 19q91 89 206.5 152t199.5 63q173 0 176 -215q1 -108 -42 -260.5t-115 -311.5t-170 -316.5t-201.5 -281 t-215 -200t-205.5 -76.5zM174 274q0 -204 141 -204q83 0 176 72.5t176 192t156 266.5t127 304q-153 68 -293 68q-78 0 -148 -36.5t-121.5 -96t-93 -134t-67.5 -153.5t-39.5 -150.5t-13.5 -128.5z" />
<glyph unicode="e" horiz-adv-x="892" d="M262 -14q-111 0 -172 64t-61 171t49.5 226.5t132.5 223t182.5 188.5t207.5 134t200 49q78 0 120 -28.5t42 -81.5q0 -65 -65.5 -144.5t-242.5 -211.5t-487 -326q5 -78 50 -127t138 -49q159 0 351 170l14 -17q-131 -125 -253 -183t-206 -58zM168 274q139 87 233 149.5 t179.5 127.5t134.5 116.5t77.5 104t28.5 102.5q0 51 -33.5 75t-82.5 24q-89 0 -174 -46.5t-148.5 -122t-113 -167.5t-75 -187t-26.5 -176z" />
<glyph unicode="f" horiz-adv-x="655" d="M-555 -424q-33 0 -47 7t-14 24q0 30 31 68t77 38q76 0 236 -20q47 29 82.5 59t82 85t97.5 143.5t106 212.5l348 782h-163l14 29h162q53 118 107 209.5t127.5 176.5t156 141t190.5 89t234 33q215 0 215 -49q0 -32 -36.5 -66.5t-80.5 -34.5q-15 0 -30.5 1.5t-37 6t-36.5 8 t-47.5 13t-51 15t-65 20t-72.5 22.5q-86 -23 -152.5 -79.5t-115.5 -136.5t-109 -214l-69 -155h268l-14 -29h-267l-286 -639q-72 -161 -171.5 -301t-210 -241.5t-230 -159.5t-228.5 -58z" />
<glyph unicode="g" horiz-adv-x="1101" d="M-55 -565q-89 0 -148 35.5t-55 109.5q4 79 129 174l12 -10q-22 -42 -22 -86q0 -69 50.5 -113.5t145.5 -44.5q53 0 115 20.5t113 57.5q52 38 100 99.5t105 163t109 205t144 283.5t179 339l53 98q-317 -377 -525 -578.5t-303 -201.5q-39 0 -66.5 16t-41 42t-19.5 51t-6 50 q0 101 47.5 223.5t130.5 239t185 214t222.5 157t231.5 59.5q193 0 343 -49l16 -6q15 -6 6 -25l-258 -489q-217 -413 -347.5 -604t-295.5 -309q-169 -121 -350 -121zM145 197q0 -53 21 -87t61 -34q69 0 280 207t527 591l17 29q-178 70 -324 70q-108 0 -217 -76t-187.5 -191 t-128 -252t-49.5 -257z" />
<glyph unicode="h" horiz-adv-x="1132" d="M-78 0q-10 0 -14.5 7t0.5 18l528 981q78 145 175.5 261t216 203.5t261.5 135t300 47.5q188 0 188 -41q0 -30 -41.5 -68.5t-95.5 -38.5q-44 0 -107 15t-231 61q-163 -44 -270.5 -146t-221.5 -315l-399 -751q150 196 334 370q141 137 263.5 218t192.5 81q51 0 74 -31 t23 -71q0 -59 -58.5 -177.5t-129 -230.5t-129 -228t-58.5 -171q0 -53 57 -53q67 0 207 123l14 -21q-96 -86 -183 -139t-132 -53q-52 0 -76 31.5t-24 72.5q0 52 39 140.5t94.5 182t111.5 185.5t95 172.5t39 122.5q0 25 -15 41t-45 16q-58 0 -143 -58.5t-203 -170.5 q-240 -227 -430 -508l-104 -197q-10 -16 -25 -16h-78z" />
<glyph unicode="i" d="M123 -14q-52 0 -76 31.5t-24 72.5q0 64 63 186.5t138.5 235.5t138.5 222.5t63 150.5q0 26 -14.5 41.5t-40.5 15.5q-74 0 -207 -117l-14 21q224 192 319 192q49 0 72.5 -32t23.5 -72q0 -48 -41 -132.5t-100 -175.5t-117.5 -182t-99.5 -173t-41 -128q0 -57 55 -57 q75 0 203 113l14 -21q-99 -85 -185 -138.5t-130 -53.5zM535 1188l395 348q35 33 43 33q10 0 10 -21q0 -26 -25 -45l-411 -332z" />
<glyph unicode="j" horiz-adv-x="538" d="M-551 -424q-33 0 -47 7t-14 24q0 30 31 68t77 38q62 0 238 -22q44 27 80 59.5t80.5 88.5t95.5 143.5t112 210.5q188 385 246 518t58 174q0 26 -15 41.5t-41 15.5q-74 0 -207 -117l-14 21q100 86 186 139t134 53q49 0 72.5 -32t23.5 -72q0 -28 -16.5 -78.5t-65 -155.5 t-77.5 -164.5t-110 -226.5q-157 -324 -383 -528.5t-444 -204.5zM551 1196l395 348q35 33 43 33q10 0 10 -21q0 -17 -5 -25.5t-19 -19.5l-412 -331z" />
<glyph unicode="k" horiz-adv-x="1130" d="M-78 0q-10 0 -14.5 7t0.5 18l528 981q78 145 175.5 261t216 203.5t261.5 135t300 47.5q188 0 188 -41q0 -30 -41.5 -68.5t-95.5 -38.5q-44 0 -107 15t-231 61q-163 -44 -270.5 -146t-221.5 -315l-297 -557q178 212 374.5 344t305.5 135q77 1 119.5 -31.5t42.5 -88.5 q0 -33 -17 -71.5t-61.5 -88.5t-112.5 -99t-180 -102t-254 -98q4 -11 18 -52t24.5 -70t27.5 -73t33.5 -75t35.5 -61.5t39 -46t40 -15.5q68 0 219 135l16 -21q-221 -198 -293 -198q-121 0 -254 448l-33 -8l-6 25q307 81 462 196.5t155 224.5q0 44 -29 70.5t-74 26.5 q-70 0 -204.5 -87.5t-267 -216.5t-197.5 -239l-217 -410q-10 -16 -25 -16h-78z" />
<glyph unicode="l" horiz-adv-x="526" d="M86 -14q-44 0 -72 35.5t-28 80.5q0 125 135 365l299 539q66 119 135 213t157.5 177t187 138.5t223 87t266.5 31.5q170 0 170 -43q0 -29 -41 -68t-88 -39q-19 0 -41.5 3t-59.5 11.5t-62.5 15.5t-88 23.5t-99.5 26.5q-149 -40 -258 -142.5t-227 -320.5l-356 -657 q-119 -221 -119 -326q0 -61 61 -61q67 0 207 123l14 -21q-99 -85 -185 -138.5t-130 -53.5z" />
<glyph unicode="m" horiz-adv-x="1814" d="M643 -2q-11 0 -15.5 7.5t-0.5 17.5q225 419 268 505q86 168 117.5 246t31.5 119q0 57 -59 57q-58 0 -143 -58.5t-203 -170.5q-214 -202 -414 -496q-79 -147 -119 -211q-8 -14 -24 -14h-76q-11 0 -14.5 7t2.5 18q412 725 412 860q0 26 -15 41.5t-41 15.5q-74 0 -207 -117 l-14 21q100 86 186 139t134 53q49 0 72.5 -32t23.5 -74q0 -99 -236 -549q158 208 316 356q141 137 263.5 218t192.5 81q51 0 74 -31t23 -71q0 -41 -35 -130t-139 -296q-7 -14 -68 -129q205 271 421.5 464t336.5 193q49 0 72.5 -32t23.5 -72q0 -52 -39.5 -138.5t-96 -178.5 t-113.5 -184t-96.5 -174.5t-39.5 -129.5q0 -53 57 -53q67 0 207 123l14 -21q-96 -86 -183 -139t-132 -53q-52 0 -76 31.5t-24 72.5q0 52 40 140t97 182t114 186t97 174t39 125q0 53 -56 53q-109 0 -333.5 -225.5t-419.5 -511.5q-58 -107 -103 -199q-8 -14 -24 -14z" />
<glyph unicode="n" horiz-adv-x="1220" d="M6 0q-11 0 -14.5 7t2.5 18q412 725 412 860q0 26 -15 41.5t-41 15.5q-74 0 -207 -117l-14 21q100 86 186 139t134 53q49 0 72.5 -32t23.5 -74q0 -89 -238 -555q151 198 326 362q141 136 263.5 217.5t193.5 81.5q51 0 73.5 -31t22.5 -71q0 -59 -58.5 -177.5t-129 -230.5 t-129 -228t-58.5 -171q0 -53 57 -53q67 0 207 123l15 -21q-96 -85 -183.5 -138.5t-132.5 -53.5q-52 0 -76 31.5t-24 72.5q0 52 39 140.5t94.5 182t111.5 185.5t95 172.5t39 122.5q0 25 -15 41t-45 16q-58 0 -143 -58.5t-203 -170.5q-237 -224 -422 -496q-79 -147 -119 -211 q-8 -14 -24 -14h-76z" />
<glyph unicode="o" horiz-adv-x="997" d="M260 -14q-97 0 -162 59t-65 184q0 75 29 165t78 179.5t119 173.5t148 148.5t168.5 103.5t176.5 39q104 0 160.5 -66t56.5 -165q0 -98 -40.5 -212.5t-111.5 -220.5t-159 -194t-193.5 -141t-204.5 -53zM162 287q0 -126 53 -181t156 -55q80 0 156.5 51.5t132.5 131.5t99 174 t65 182.5t22 154.5q0 109 -54 168.5t-149 59.5q-82 0 -159.5 -50t-134 -128t-100 -171t-65.5 -181t-22 -156z" />
<glyph unicode="p" horiz-adv-x="1146" d="M-295 -553q-10 0 -14.5 7.5t0.5 17.5l530 1036q156 303 156 393q0 24 -8 35.5t-29 11.5q-28 0 -82.5 -38.5t-140.5 -112.5l-17 20q113 98 207 159.5t139 61.5q33 0 50.5 -22.5t17.5 -54.5q0 -116 -166 -437l-49 -96q203 250 418 430t311 180q58 0 86.5 -44.5t28.5 -106.5 q0 -120 -46 -250.5t-126.5 -244.5t-181 -206.5t-218.5 -146t-229 -53.5q-71 0 -125 31.5t-84 86.5l-330 -643q-6 -14 -24 -14h-74zM203 242q28 -94 93.5 -147.5t133.5 -53.5q100 0 193.5 53.5t163 139.5t122 190t79 210t26.5 195q0 119 -74 119q-87 0 -301.5 -198 t-419.5 -478z" />
<glyph unicode="q" horiz-adv-x="1181" d="M455 -567q-51 0 -73 31t-22 73q0 106 191 482.5t391 709.5q-311 -367 -504.5 -555t-285.5 -188q-39 0 -67 16t-41.5 42t-19.5 51t-6 50q0 84 34.5 185t92.5 199t139 190.5t169.5 163t189 113t193.5 42.5q182 0 338 -51l20 -6q10 -3 12 -11.5t-4 -15.5 q-139 -206 -256 -424q-14 -25 -93.5 -169.5t-124 -229t-107 -208.5t-93 -207t-30.5 -126q0 -57 55 -57q75 0 203 113l14 -21q-99 -85 -185 -138.5t-130 -53.5zM150 197q0 -54 20.5 -87.5t60.5 -33.5q67 0 274.5 205.5t524.5 588.5l23 35q-173 68 -322 68q-87 0 -175.5 -49.5 t-159.5 -131.5t-127.5 -182.5t-87.5 -209t-31 -203.5z" />
<glyph unicode="r" horiz-adv-x="933" d="M6 0q-11 0 -14.5 7t2.5 18q412 725 412 860q0 26 -15 41.5t-41 15.5q-74 0 -207 -117l-14 21q100 86 186 139t134 53q49 0 72.5 -32t23.5 -74q0 -64 -105 -283q56 85 113.5 150.5t129 122t158 86.5t181.5 30q96 0 96 -34q0 -39 -44.5 -79t-94.5 -40q-114 0 -246 41 q-178 -99 -403 -502q-67 -131 -133.5 -251.5t-90.5 -158.5q-8 -14 -24 -14h-76z" />
<glyph unicode="s" horiz-adv-x="757" d="M102 -14q-89 0 -147.5 35.5t-54.5 109.5q4 79 129 174l12 -10q-23 -44 -23 -86q0 -70 52.5 -120t150.5 -50q99 0 170.5 59t71.5 154q0 45 -20.5 99.5t-49 105.5t-56.5 102.5t-46 105t-15 97.5q7 83 75.5 148t162.5 96.5t191 31.5q69 0 128.5 -17t59.5 -42 q0 -31 -36 -58.5t-71 -27.5q-42 0 -93 18t-175 72q-139 -49 -149 -137q-4 -47 14 -101.5t47.5 -105.5t59 -102.5t49.5 -109.5t18 -110q-5 -94 -69 -170.5t-166.5 -118.5t-219.5 -42z" />
<glyph unicode="t" horiz-adv-x="663" d="M158 -14q-55 0 -82 35.5t-27 82.5q0 59 30 141.5t105 221.5l275 508h-191v24l451 289l18 -10l-147 -274h241l-14 -29h-244l-276 -512q-115 -214 -115 -309q0 -32 19 -50t47 -18q83 0 211 113l14 -21q-99 -85 -185 -138.5t-130 -53.5z" />
<glyph unicode="u" horiz-adv-x="1232" d="M786 -14q-51 0 -72.5 32.5t-21.5 75.5q0 160 217 539q-146 -186 -299 -348q-279 -299 -422 -299q-55 0 -91 34t-36 91q0 56 56.5 167.5t124 217t124 217t56.5 168.5t-55 57q-75 0 -203 -113l-14 21q99 85 185 138.5t130 53.5q52 0 76 -31.5t24 -72.5q0 -47 -38.5 -134 t-93.5 -182t-110.5 -188.5t-94 -173t-38.5 -115.5q0 -71 72 -71q58 0 138 59t194 176q250 260 430 522l106 164q10 13 25 13h78q12 0 15.5 -7t-3.5 -18q-147 -233 -266 -449q-75 -139 -112.5 -241t-37.5 -146q0 -61 58 -61q67 0 200 117l15 -21q-91 -85 -180 -138.5 t-136 -53.5z" />
<glyph unicode="v" horiz-adv-x="1054" d="M332 -14q-38 0 -73.5 13t-67.5 39t-51 74t-19 111q0 155 131.5 356t314.5 351q-141 6 -196 6q-78 0 -132 -32t-106 -89l-16 14q66 82 184 177q40 32 111 32q23 0 122 -7t154 -7v-18q-128 -95 -229.5 -238.5t-150 -273.5t-48.5 -224q0 -106 45.5 -159.5t122.5 -53.5 q65 0 138 46.5t141 126.5t130 178t115 208q-41 198 -30 324q4 45 42.5 71.5t77.5 26.5q35 0 35 -39q0 -72 -34 -199.5t-95 -246.5q-60 -116 -127.5 -213.5t-146 -179t-167 -128t-175.5 -46.5z" />
<glyph unicode="w" horiz-adv-x="1529" d="M872 -14q-83 0 -131.5 56t-48.5 181q0 41 13 111q-96 -176 -212 -262t-217 -86q-73 0 -125.5 54t-52.5 163q0 118 73.5 256t178 253t230.5 216q-90 8 -209 8q-78 0 -132 -32t-106 -89l-16 14q66 82 184 177q40 32 111 32q21 0 123 -7t167 -7v-18q-203 -150 -341 -374.5 t-138 -402.5q0 -82 39 -128t111 -46q84 0 186.5 111t177.5 276q54 155 164 299q27 35 105 68q51 22 48 9q-1 -2 -3 -5q-72 -86 -122 -173t-73 -160t-32 -126.5t-9 -101.5q0 -100 42 -148.5t108 -48.5q106 0 232.5 160t229.5 403q-39 199 -28 322q4 45 43 71.5t78 26.5 q19 0 26.5 -9.5t7.5 -29.5q0 -63 -33.5 -184.5t-80.5 -230.5q-54 -123 -115 -225.5t-133 -189t-154.5 -135t-165.5 -48.5z" />
<glyph unicode="x" horiz-adv-x="933" d="M522 -14q-41 0 -61 30t-23 93l-12 356l-465 -526q-45 -52 -67 -52q-14 0 -22.5 14t-8.5 29q0 54 39 88l522 469l-12 349q-3 100 -58 100q-33 0 -91.5 -33t-131.5 -100l-18 18q61 51 97 80t85 65.5t81.5 54t51.5 17.5q37 0 61 -36t27 -109l14 -315l357 409q44 51 67 51 q14 0 22.5 -14t8.5 -29q0 -54 -39 -88l-416 -362l19 -400q3 -69 45 -69q72 0 217 151l16 -20q-221 -221 -305 -221z" />
<glyph unicode="y" horiz-adv-x="1077" d="M-328 -424q-69 0 -69 37q0 31 37 77t90 46q68 0 290 -55q70 27 117.5 70.5t83.5 117.5q60 127 120 421.5t60 485.5q0 77 -13.5 117.5t-49.5 40.5q-70 0 -193 -109l-14 21q114 98 180.5 145t108.5 47q57 0 78.5 -47.5t21.5 -134.5q0 -179 -47 -459.5t-133 -505.5 q329 292 565 709q-7 242 15 340q10 45 51.5 71.5t81.5 26.5q37 0 37 -32q0 -42 -23.5 -114.5t-68.5 -166t-107 -200.5t-143 -217.5t-172.5 -216.5t-199.5 -199.5t-219 -163.5t-237 -111t-248 -41z" />
<glyph unicode="z" horiz-adv-x="960" d="M483 -14q-36 0 -82 16t-86.5 36t-102 36t-124.5 16q-123 0 -219 -61q-10 -7 -21 -16t-17 -13.5t-13 -8t-13 -3.5t-10 5t-4 11q0 5 3 10.5t13.5 14.5t23.5 18.5t38.5 27.5t52.5 37t73 52t93 67q196 146 412 312q205 155 374 311q-210 84 -387 84q-130 0 -254 -141l-20 14 q210 232 381 227q206 -4 418 -94l104 82l17 -16q-113 -94 -350 -278.5t-267 -207.5q-90 -71 -247.5 -201t-229.5 -188q118 60 203 60q43 0 93 -18t87.5 -39.5t81.5 -39.5t78 -18q98 0 217 143l20 -16q-190 -221 -336 -221z" />
<glyph unicode="{" horiz-adv-x="634" d="M-92 -332q4 68 42 149.5t90 156t103.5 148.5t89 149.5t41.5 136.5q4 51 -27.5 95.5t-101.5 45.5l5 29q93 0 168 55.5t116 154.5q45 99 91 297t87 293q55 123 210 192.5t366 69.5q9 0 13 -3.5t3 -10.5q-7 -20 -24 -20q-223 0 -332 -41q-102 -42 -148 -144 q-33 -77 -85.5 -300.5t-92.5 -305.5q-40 -86 -124 -156.5t-181 -99.5q57 -26 84.5 -91.5t22.5 -131.5q-4 -53 -41.5 -126.5t-89.5 -148.5t-103.5 -152.5t-90 -159.5t-42.5 -148q-6 -81 55.5 -122.5t200.5 -41.5q10 0 13 -5.5t-5 -19.5q-7 -12 -41 -12q-121 0 -200 72 t-72 196z" />
<glyph unicode="|" horiz-adv-x="413" d="M606 1642l25 -8l-783 -2048l-24 8z" />
<glyph unicode="}" horiz-adv-x="634" d="M-561 -586q7 21 24 21q223 0 332 41q102 42 148 143q33 77 85.5 300.5t92.5 305.5q40 86 124 156.5t181 99.5q-57 26 -84.5 92t-22.5 132q4 53 41.5 126.5t89.5 148.5t103.5 152.5t90 159.5t42.5 148q6 81 -55.5 122.5t-200.5 41.5q-24 0 -8 24q7 12 41 12q121 0 200 -72 t72 -196q-4 -68 -42 -149t-90 -156t-103.5 -148.5t-89 -149t-41.5 -136.5q-2 -31 7.5 -61t38 -54t72.5 -24l-2 -29q-88 -2 -161.5 -58.5t-114.5 -154.5q-45 -99 -91 -297t-87 -293q-55 -123 -210 -192.5t-366 -69.5q-9 0 -13 3.5t-3 10.5z" />
<glyph unicode="&#xa2;" horiz-adv-x="892" d="M348 334q-104 0 -160.5 64.5t-56.5 172.5q0 90 49 197t130.5 203t198.5 170t241 96l90 205l26 -2l-88 -197q50 4 74 4q83 0 143 -16t60 -43q0 -21 -34.5 -49.5t-72.5 -28.5q-20 0 -44.5 8t-42 16.5t-52 27t-53.5 28.5l-340 -772h10q151 0 352 178l15 -18 q-230 -219 -414 -242l-84 -191l-29 2zM262 618q0 -175 125 -196l346 780l-8 4q-97 -15 -186 -81t-148 -153.5t-94 -182t-35 -171.5z" />
<glyph unicode="&#xa3;" horiz-adv-x="1003" d="M520 -18q-23 0 -147 2t-209 4l-381 12q-23 0 -23 18q0 11 31 35.5t57 38.5q12 6 27 6l100 -4q89 62 170 170q42 55 78.5 134.5t55.5 137t55 179.5h-223l10 24h221q63 201 102 299q49 123 116 210.5t149.5 138.5t173.5 73.5t200 22.5q92 0 173 -17.5t81 -44.5 q0 -31 -39 -62.5t-77 -31.5q-23 0 -52.5 8t-56.5 18t-96.5 37.5t-128.5 49.5q-46 -12 -79 -29.5t-75.5 -59.5t-86 -122.5t-91.5 -202.5q-54 -139 -117 -287h350l-10 -24h-350q-87 -205 -147 -309q-109 -198 -265 -312l152 -6q85 -2 208.5 -4t145.5 -2q46 -1 85.5 2.5t67.5 8 t57 16t44.5 18t38.5 25t31 25.5t31 30t30 29l17 -15q-124 -137 -187 -188q-21 -17 -35.5 -25t-62.5 -17.5t-119 -8.5z" />
<glyph unicode="&#xa5;" horiz-adv-x="980" d="M346 0q-11 0 -15.5 7t1.5 18q125 258 192 424h-280l10 24h281q28 79 34 98h-274l10 25h270l3 20q0 186 -36 373t-87.5 300.5t-96.5 113.5q-21 0 -51.5 -28t-52.5 -56.5t-56 -76.5q-8 -11 -12 -17l-16 12q42 59 62 86t59 73.5t70 67.5t57 21q35 0 78 -65t82.5 -176 t69.5 -280.5t36 -355.5l588 828q44 59 69 59q13 0 21 -13.5t8 -29.5q0 -24 -9 -41t-34 -47l-618 -768h264l-10 -25h-273l-2 -2q-9 -24 -41 -96h275l-11 -24h-274q-49 -110 -199 -435q-6 -14 -22 -14h-70z" />
<glyph unicode="&#xa9;" horiz-adv-x="823" d="M731 954q-141 0 -241.5 100.5t-100.5 241.5t100.5 241.5t241.5 100.5t241.5 -100.5t100.5 -241.5t-100.5 -241.5t-241.5 -100.5zM422 1296q0 -131 89.5 -222t219.5 -91t219.5 91t89.5 222t-89.5 222.5t-219.5 91.5t-219.5 -91.5t-89.5 -222.5zM537 1200q0 98 91.5 191.5 t194.5 93.5q80 0 80 -19q0 -16 -18.5 -29.5t-36.5 -13.5q-12 0 -40 14.5t-50 14.5q-54 0 -104.5 -78.5t-47.5 -152.5q3 -62 60 -62q43 0 102 51l8 -10q-94 -82 -162 -82q-38 0 -57.5 25t-19.5 57z" />
<glyph unicode="&#xab;" horiz-adv-x="1191" d="M762 -10q-6 2 -27 45l-254 487l684 465q42 29 45 29q15 0 15 -41q0 -40 -6.5 -56t-22.5 -24l-692 -375l301 -418q12 -11 10 -29.5t-22 -54.5q-6 -13 -13 -21t-11 -8t-7 1zM72 522l684 465q42 29 45 29q14 0 14 -41q0 -40 -6.5 -56t-22.5 -24l-692 -375l301 -418 q12 -11 10 -29.5t-22 -54.5q-6 -13 -13 -21t-11 -8t-7 1q-5 2 -26 45z" />
<glyph unicode="&#xad;" horiz-adv-x="645" d="M236 504q-66 0 -96.5 -12t-71.5 -46l-17 17q43 43 65.5 62t64 36t93.5 17h129q81 0 114.5 13t80.5 56l16 -16q-73 -73 -117.5 -100t-119.5 -27h-141z" />
<glyph unicode="&#xae;" horiz-adv-x="821" d="M731 954q-141 0 -241.5 100.5t-100.5 241.5t100.5 241.5t241.5 100.5t240.5 -99.5t99.5 -240.5t-99.5 -242.5t-240.5 -101.5zM422 1296q0 -131 89.5 -222t219.5 -91t219.5 91t89.5 222t-89.5 222.5t-219.5 91.5t-219.5 -91.5t-89.5 -222.5zM545 1139l143 356h64 q23 3 50 1t50 -7t37.5 -20.5t13.5 -38.5q-5 -68 -149 -134q31 -50 71 -94.5t60 -44.5q11 0 20 12l10 -8q-34 -39 -71 -39q-22 0 -44.5 14t-43 41t-33 47t-29.5 50l-4 10q61 25 95.5 63t37.5 78q1 17 -2.5 28t-21 20.5t-51.5 9.5l-138 -344h-65z" />
<glyph unicode="&#xbb;" horiz-adv-x="1191" d="M420 1014q5 -2 26 -45l254 -488l-684 -465q-40 -28 -45 -28q-14 0 -14 41q0 40 6.5 56t22.5 24l692 374l-301 418q-12 11 -10 29.5t22 54.5q6 13 13 21t11 8.5t7 -0.5zM367 29q0 41 6 56.5t22 23.5l692 374l-301 418q-12 11 -10 29.5t23 54.5q6 13 13 21t10.5 8.5 t6.5 -0.5q6 -2 27 -45l254 -488l-684 -465q-40 -28 -45 -28q-14 0 -14 41z" />
<glyph unicode="&#xc9;" horiz-adv-x="1296" d="M-35 0q-22 0 -22 18q0 5 4 10.5t14.5 13.5t16 12t20.5 14l43 30q35 26 62 61.5t67 106.5q100 178 293 578h-207v28h221q133 275 217 418q82 145 203 215l57 33h-344q-31 0 -58.5 -4.5t-46 -7.5t-43 -17t-33.5 -18t-35 -27t-30.5 -27t-35.5 -34l-17 14q127 141 187 189 q40 32 110 32h998q123 0 123 -73q0 -53 -57 -112.5t-185 -156.5l-12 19q91 74 127 113.5t36 66.5q0 21 -19 32t-71 11h-555q-14 -9 -26.5 -20t-21 -19t-20 -22.5t-16.5 -20.5t-16.5 -25t-14.5 -23.5t-16.5 -28t-15.5 -27.5q-95 -162 -248 -480h664v-28h-678 q-173 -358 -254 -500q-38 -68 -71.5 -107t-80.5 -73l-92 -64h791q116 0 193 56q25 19 89 80l17 -15q-124 -137 -187 -188q-42 -33 -123 -33h-901zM940 1722l371 273q38 28 45 28q14 0 14 -41q0 -40 -6.5 -55.5t-22.5 -23.5l-391 -195z" />
<glyph unicode="&#xe9;" horiz-adv-x="892" d="M262 -14q-111 0 -172 64t-61 171t49.5 226.5t132.5 223t182.5 188.5t207.5 134t200 49q78 0 120 -28.5t42 -81.5q0 -65 -65.5 -144.5t-242.5 -211.5t-487 -326q5 -78 50 -127t138 -49q159 0 351 170l14 -17q-131 -125 -253 -183t-206 -58zM168 274q139 87 233 149.5 t179.5 127.5t134.5 116.5t77.5 104t28.5 102.5q0 51 -33.5 75t-82.5 24q-89 0 -174 -46.5t-148.5 -122t-113 -167.5t-75 -187t-26.5 -176zM537 1184l342 291q23 18 34 18t20 -14t9 -39q0 -21 -5.5 -34.5t-11 -18.5t-18.5 -13l-358 -205z" />
<glyph unicode="&#x131;" d="M123 -14q-52 0 -76 31.5t-24 72.5q0 64 63 186.5t138.5 235.5t138.5 222.5t63 150.5q0 26 -14.5 41.5t-40.5 15.5q-74 0 -207 -117l-14 21q224 192 319 192q49 0 72.5 -32t23.5 -72q0 -48 -41 -132.5t-100 -175.5t-117.5 -182t-99.5 -173t-41 -128q0 -57 55 -57 q75 0 203 113l14 -21q-99 -85 -185 -138.5t-130 -53.5z" />
<glyph unicode="&#x237;" horiz-adv-x="538" d="M-551 -424q-33 0 -47 7t-14 24q0 30 31 68t77 38q62 0 238 -22q44 27 80 59.5t80.5 88.5t95.5 143.5t112 210.5q188 385 246 518t58 174q0 26 -15 41.5t-41 15.5q-74 0 -207 -117l-14 21q100 86 186 139t134 53q49 0 72.5 -32t23.5 -72q0 -28 -16.5 -78.5t-65 -155.5 t-77.5 -164.5t-110 -226.5q-157 -324 -383 -528.5t-444 -204.5z" />
<glyph unicode="&#x2000;" horiz-adv-x="1018" />
<glyph unicode="&#x2001;" horiz-adv-x="2036" />
<glyph unicode="&#x2002;" horiz-adv-x="1018" />
<glyph unicode="&#x2003;" horiz-adv-x="2036" />
<glyph unicode="&#x2004;" horiz-adv-x="678" />
<glyph unicode="&#x2005;" horiz-adv-x="509" />
<glyph unicode="&#x2006;" horiz-adv-x="339" />
<glyph unicode="&#x2007;" horiz-adv-x="339" />
<glyph unicode="&#x2008;" horiz-adv-x="254" />
<glyph unicode="&#x2009;" horiz-adv-x="407" />
<glyph unicode="&#x200a;" horiz-adv-x="113" />
<glyph unicode="&#x2010;" horiz-adv-x="645" d="M236 504q-66 0 -96.5 -12t-71.5 -46l-17 17q43 43 65.5 62t64 36t93.5 17h129q81 0 114.5 13t80.5 56l16 -16q-73 -73 -117.5 -100t-119.5 -27h-141z" />
<glyph unicode="&#x2011;" horiz-adv-x="645" d="M236 504q-66 0 -96.5 -12t-71.5 -46l-17 17q43 43 65.5 62t64 36t93.5 17h129q81 0 114.5 13t80.5 56l16 -16q-73 -73 -117.5 -100t-119.5 -27h-141z" />
<glyph unicode="&#x2012;" horiz-adv-x="645" d="M236 504q-66 0 -96.5 -12t-71.5 -46l-17 17q43 43 65.5 62t64 36t93.5 17h129q81 0 114.5 13t80.5 56l16 -16q-73 -73 -117.5 -100t-119.5 -27h-141z" />
<glyph unicode="&#x2013;" horiz-adv-x="827" d="M236 504q-66 0 -96.5 -12t-71.5 -46l-17 17q43 43 65.5 62t64 36t93.5 17h334q81 0 114.5 13t80.5 56l16 -16q-73 -73 -117.5 -100t-119.5 -27h-346z" />
<glyph unicode="&#x2014;" horiz-adv-x="1042" d="M236 504q-66 0 -96.5 -12t-71.5 -46l-17 17q43 43 65.5 62t64 36t93.5 17h539q81 0 114.5 13t80.5 56l16 -16q-73 -73 -118 -100t-120 -27h-550z" />
<glyph unicode="&#x2018;" horiz-adv-x="221" d="M674 1628q-129 -108 -129 -266q0 -53 -51 -62q-26 -4 -41 8.5t-15 37.5q0 67 65 150t161 142z" />
<glyph unicode="&#x2019;" horiz-adv-x="237" d="M455 1311q129 107 129 266q0 52 51 61q26 4 40.5 -8t14.5 -37q0 -67 -64.5 -150.5t-160.5 -142.5z" />
<glyph unicode="&#x201a;" horiz-adv-x="282" d="M-201 -231q129 107 129 266q0 52 52 61q26 4 40.5 -8t14.5 -37q0 -67 -64.5 -150.5t-160.5 -142.5z" />
<glyph unicode="&#x201c;" horiz-adv-x="442" d="M905 1628q-129 -108 -129 -266q0 -53 -51 -62q-26 -4 -40.5 8.5t-14.5 37.5q0 67 64.5 150t160.5 142zM477 1346q0 67 64.5 150t160.5 142l11 -10q-129 -108 -129 -266q0 -53 -52 -62q-26 -4 -40.5 8.5t-14.5 37.5z" />
<glyph unicode="&#x201d;" horiz-adv-x="466" d="M434 1321q129 107 129 266q0 53 51 62q26 4 41 -8t15 -37q0 -67 -65 -150.5t-161 -142.5zM627 1321q129 107 129 266q0 53 51 62q26 4 40.5 -8t14.5 -37q0 -67 -64.5 -150.5t-160.5 -142.5z" />
<glyph unicode="&#x201e;" horiz-adv-x="497" d="M-201 -231q129 107 129 266q0 52 52 61q26 4 40.5 -8t14.5 -37q0 -67 -64.5 -150.5t-160.5 -142.5zM-8 -231q129 107 129 266q0 52 51 61q26 4 40.5 -8t14.5 -37q0 -67 -64.5 -150.5t-160.5 -142.5z" />
<glyph unicode="&#x2022;" horiz-adv-x="401" d="M238 500q-32 0 -74.5 34.5t-42.5 77.5q0 60 61.5 127.5t118.5 67.5q34 0 69.5 -39t35.5 -78q0 -57 -61 -123.5t-107 -66.5z" />
<glyph unicode="&#x2026;" horiz-adv-x="911" d="M231 -29q-22 0 -50.5 23.5t-28.5 52.5q0 41 42 87t80 46q24 0 48 -26.5t24 -53.5q0 -39 -41.5 -84t-73.5 -45zM-145 47q0 41 42 87t80 46q24 0 48 -26.5t24 -53.5q0 -39 -41.5 -84t-73.5 -45q-22 0 -50.5 23.5t-28.5 52.5zM451 47q0 41 42 87t80 46q24 0 48 -26.5 t24 -53.5q0 -39 -41.5 -84t-73.5 -45q-22 0 -50.5 23.5t-28.5 52.5z" />
<glyph unicode="&#x202f;" horiz-adv-x="407" />
<glyph unicode="&#x2039;" horiz-adv-x="782" d="M352 -10q-5 2 -26 45l-254 487l684 465q42 29 45 29q14 0 14 -41q0 -40 -6.5 -56t-22.5 -24l-692 -375l301 -418q12 -11 10 -29.5t-22 -54.5q-6 -13 -13 -21t-11 -8t-7 1z" />
<glyph unicode="&#x203a;" horiz-adv-x="782" d="M-29 -12q-14 0 -14 41q0 40 6.5 56t22.5 24l692 374l-301 418q-12 11 -10 29.5t22 54.5q6 13 13 21t11 8.5t7 -0.5q5 -2 26 -45l254 -488l-684 -465q-40 -28 -45 -28z" />
<glyph unicode="&#x205f;" horiz-adv-x="509" />
<glyph unicode="&#x20ac;" horiz-adv-x="1290" d="M631 -16q-117 0 -208.5 42t-146 112t-82.5 154.5t-28 176.5q0 110 31 225h-127l10 25h125q11 38 37 98h-131l10 25h133q130 276 404.5 458.5t578.5 182.5q92 0 167 -16.5t75 -43.5q0 -31 -42 -60.5t-85 -29.5q-62 0 -144.5 18t-251.5 64q-189 -56 -362.5 -212 t-255.5 -361h676l-10 -25h-676q-26 -86 -29 -98h612l-10 -25h-606q-14 -66 -14 -147q1 -139 51.5 -250t153 -178.5t241.5 -67.5q111 0 203.5 40.5t187.5 129.5l15 -18q-109 -105 -237.5 -162t-264.5 -57z" />
<glyph unicode="&#x2122;" horiz-adv-x="948" d="M1022 1022l98 326l-252 -301h-26l-56 303l-145 -326h-20l186 422h45l59 -320l269 320h59l-119 -422zM334 1024l186 403h-127l8 19h332l-8 -19h-141l-185 -403h-65z" />
<glyph unicode="&#x25fc;" horiz-adv-x="1034" d="M0 1034h1034v-1034h-1034v1034z" />
<glyph horiz-adv-x="1058" d="M-29 -365q-93 0 -153 59.5t-60 188.5q0 95 45.5 204t127.5 214t206.5 200.5t270.5 157.5l12 -22q-123 -54 -227 -144.5t-167.5 -188.5t-99 -194t-35.5 -171q0 -121 45.5 -184.5t131.5 -63.5q63 0 128.5 32.5t121 84.5t114 128.5t105 151t96.5 166.5q92 161 270.5 529.5 t270.5 527.5q38 68 85 115t117 92l41 26l-667 -6q-53 -1 -92 -9t-75 -31t-55 -39t-61 -56l-16 14q6 6 28 31t31 34.5t29 31t33 34t31 29t34 29.5q40 32 115 32l757 -2q25 0 25 -14q0 -9 -24 -33t-44 -37q-14 -9 -25.5 -18.5t-23.5 -23t-19 -21.5t-19 -27.5t-16.5 -25.5 t-19 -32t-18.5 -32q-92 -158 -270.5 -525.5t-266.5 -520.5q-84 -141 -171.5 -256.5t-192 -217.5t-221 -159.5t-232.5 -57.5zM1294 1722l371 273q38 28 45 28q14 0 14 -41t-6 -56t-22 -23l-391 -195z" />
<glyph horiz-adv-x="2203" d="M242 -29q-89 1 -159 30.5t-111 78t-62 106t-21 119.5q0 116 58.5 226.5t152 191t215 129.5t242.5 49q94 0 198 -20t172.5 -42.5t183.5 -63.5t167 -58l127 143q220 245 452.5 432.5t413.5 245.5l-514 -4q-53 -1 -92.5 -9t-74 -29t-55 -38t-60.5 -55l-17 14 q127 141 187 189q40 32 110 32h801q22 0 22 -18q0 -10 -18.5 -24t-45 -30.5t-36.5 -25.5q-55 -37 -87.5 -79.5t-66.5 -110.5l-448 -887q-111 -217 -111 -313q0 -64 58 -64q74 0 202 113l15 -21q-99 -85 -185.5 -138.5t-130.5 -53.5q-52 0 -76 31.5t-24 72.5q0 63 30.5 147 t104.5 230l121 242q-153 -127 -369 -127q-130 0 -278 41q-105 -115 -189 -200t-190.5 -175t-200 -147t-201 -93.5t-210.5 -36.5zM-8 367q0 -147 95 -239t249 -91q77 0 163.5 32t168 84t175.5 132t175.5 160.5t179.5 185.5q-81 24 -191 66t-187.5 73.5t-170 55.5t-166.5 24 q-107 0 -200.5 -41t-156 -109t-98.5 -155t-36 -178zM1311 707q178 -54 323 -54q159 0 273 105l266 530q35 69 84 119.5t119 95.5l57 37h-61q-122 -20 -289 -123.5t-333 -251.5t-323 -325z" />
<glyph horiz-adv-x="1681" d="M719 -14q-365 0 -559 24q-23 2 -23 15t58 45l43 28l8 6q32 24 57 58t64 104q88 154 250 483.5t255 489.5q74 132 203 215l88 57l15 -20q-14 -10 -27.5 -21t-22.5 -19t-21 -23.5t-17 -21.5t-17.5 -25.5t-15 -24t-17 -28.5t-16.5 -28q-93 -160 -253.5 -484t-244.5 -472 q-39 -68 -71.5 -107.5t-79.5 -72.5l-76 -51q59 -9 229 -20t297 -11q291 -5 468 159t177 449q0 105 -56.5 174.5t-160.5 69.5h-268l19 29h249q94 0 186 56.5t147.5 139t55.5 158.5q0 64 -28.5 113.5t-72.5 78.5t-106 47t-121 24.5t-126 6.5q-370 0 -647 -221 q-11 -28 -30 -79.5t-28.5 -76t-26 -65t-27 -60t-26 -47.5t-29 -40.5t-30.5 -27t-36 -19.5t-40 -5q-16 0 -28.5 8.5t-12.5 22.5q0 49 86.5 176.5t208.5 230.5q342 285 762 285q84 0 162.5 -14.5t151 -45.5t116 -89t43.5 -136q0 -128 -98.5 -236t-245.5 -169 q84 -19 139.5 -79.5t55.5 -160.5q0 -111 -51.5 -223.5t-141 -206t-201.5 -167t-242 -115t-253 -41.5z" />
<glyph horiz-adv-x="1927" d="M793 -12q-316 0 -494 22q-23 2 -23 15q0 4 3.5 8.5t11.5 10.5t15 10.5t19.5 12t18.5 11.5l29 20l4 4q32 25 59.5 60.5t65.5 103.5q88 154 253.5 491.5t258.5 497.5q74 132 203 215l88 58l14 -21q-13 -9 -24 -17.5t-22 -19.5t-18 -17.5t-17 -20.5t-14.5 -19.5t-15.5 -23 t-13.5 -21.5t-15 -25.5t-14.5 -25.5q-93 -160 -256 -492.5t-247 -480.5q-38 -68 -71.5 -107t-80.5 -73l-74 -51h2q59 -9 209.5 -20t276.5 -11q277 0 488 101t323.5 279.5t111.5 405.5q-1 152 -52.5 282.5t-144 225t-228.5 148t-298 53.5q-336 0 -575 -191q-84 -218 -96 -246 q-56 -127 -117 -159q-27 -14 -60 -14q-16 0 -28 8t-12 22q0 49 86 177t208 231q136 114 317.5 181t381.5 67q133 -1 250.5 -39t204 -103.5t149.5 -151t95 -182.5t32 -196q0 -176 -67 -334.5t-181.5 -277t-263 -206t-317.5 -132t-338 -43.5z" />
<glyph horiz-adv-x="1609" d="M279 0q-23 0 -23 18q0 5 4 10.5t14.5 13.5t16 12t20.5 14l43 30q35 26 62 61.5t67 106.5q100 178 293 578h-207v28h222q133 275 217 418q82 145 202 215l58 33h-297q-131 0 -238 -42.5t-219 -143.5q-19 -50 -43 -119t-37 -106.5t-33 -82t-37.5 -66.5t-43 -37t-56.5 -15 q-16 0 -28.5 8t-12.5 22q0 54 92.5 194.5t176.5 217.5q159 149 343 209.5t418 60.5h666q123 0 123 -73q0 -53 -57 -112.5t-185 -156.5l-12 19q91 75 127.5 114t36.5 66q0 21 -19 32t-71 11h-555q-11 -8 -21 -16t-18 -15t-17.5 -17.5t-14.5 -16t-14 -18.5t-12.5 -18 t-13 -20.5t-12 -19.5t-13 -22.5t-12.5 -22.5q-95 -162 -248 -480h664v-28h-678q-173 -358 -254 -500q-39 -68 -71.5 -107.5t-79.5 -72.5l-93 -64h791q43 0 79.5 8t58 15.5t53.5 31.5t43 34.5t49 46.5l16 -15q-2 -3 -23.5 -26.5t-27 -29.5t-24 -26t-28.5 -29.5t-25.5 -25 t-29.5 -28t-28 -23.5q-42 -33 -123 -33h-901z" />
<glyph horiz-adv-x="1667" d="M283 0q-23 0 -23 14q0 13 53 52l43 32q35 26 62 61.5t67 106.5q87 151 295 578h-151v28h166q136 279 225 435q74 132 203 215l24 16h-276q-131 0 -238 -42.5t-219 -143.5q-19 -50 -43 -119t-37 -106.5t-33 -82t-37.5 -66.5t-43 -37t-56.5 -15q-16 0 -28.5 8t-12.5 22 q0 54 92.5 194.5t176.5 217.5q159 149 343 209.5t418 60.5h666q123 0 123 -73q0 -53 -57 -112.5t-185 -156.5l-12 19q91 75 127.5 114t36.5 66q0 21 -19 32t-71 11h-564q-12 -10 -22.5 -19.5t-21.5 -23t-17 -21t-17.5 -26t-15 -23.5t-17.5 -29t-16 -28q-93 -159 -256 -496 h637v-28h-651q-186 -376 -256 -500q-39 -68 -71.5 -107.5t-79.5 -72.5l-95 -64h23h233q17 0 17 -12q0 -9 -17.5 -32t-38.5 -42q-16 -14 -59 -14h-274z" />
<glyph horiz-adv-x="995" d="M92 -12q-79 2 -144 16.5t-65 42.5q0 27 33.5 58.5t73.5 31.5q31 0 73 -9t126 -32t133 -35q52 14 113 65t116 142q97 162 276.5 535.5t266.5 523.5q39 69 85.5 116t116.5 91l23 14l-565 -10q-53 -1 -92 -9t-75 -31t-55 -39t-61 -56l-16 14q6 6 28 31t31 34.5t29 31t33 34 t31 29t34 29.5q40 32 111 32h657q25 0 25 -14q0 -9 -24 -33t-44 -37q-9 -6 -17.5 -13t-18.5 -19t-15.5 -19t-17 -25.5t-15.5 -25t-18.5 -31.5t-18.5 -32q-98 -169 -271.5 -528t-236.5 -472q-94 -166 -274 -285t-371 -116z" />
<glyph horiz-adv-x="1683" d="M2044 -487q-69 0 -142 19t-137.5 48.5t-138 78.5t-132 95.5t-133 113t-128 118t-129.5 125t-125 118.5q-127 -169 -274 -284q-267 -207 -490 -207q-89 1 -159 30.5t-111 78t-61.5 106t-20.5 119.5q0 115 54.5 220t141 177t195 115t215.5 43q124 0 255 -67.5t282 -190.5 q50 96 97 211t114 295.5t106 279.5q54 137 129 235t167 154t194 81.5t223 25.5q134 0 231.5 -18.5t97.5 -49.5q0 -33 -39 -61.5t-73 -28.5q-62 0 -156.5 24.5t-279.5 84.5q-41 -10 -70.5 -23t-68 -43.5t-72 -77.5t-75 -127t-85.5 -190q-101 -256 -194 -452t-201 -359 q66 -56 176.5 -156.5t185 -167.5t182 -149.5t194 -132.5t192 -84.5t204.5 -34.5q168 0 256 88l17 -17q-71 -66 -185.5 -114.5t-228.5 -48.5zM-35 133q0 -147 95 -239t249 -91q178 3 379 164q146 118 256 293q-161 147 -296.5 228t-262.5 81q-192 0 -306 -124t-114 -312z" />
<glyph horiz-adv-x="1540" d="M217 0q-22 0 -22 14q0 13 53 52l43 32q35 26 62 61.5t67 106.5q89 156 224.5 485t227.5 488q74 132 203 215l88 57l15 -20q-14 -10 -27.5 -21t-22.5 -19t-21 -23.5t-17 -21.5t-17.5 -25.5t-15 -24t-17 -28.5t-16.5 -28q-42 -72 -85 -161.5t-68 -148t-71.5 -171.5 t-64.5 -155h342q148 0 265.5 40t189.5 108.5t109.5 156t37.5 186.5q0 198 -156.5 315t-416.5 117q-370 0 -647 -221q-11 -28 -30 -79.5t-28.5 -76t-26 -65t-27 -60t-26 -47.5t-29 -40.5t-30.5 -27t-36 -19.5t-40 -5q-16 0 -28.5 8.5t-12.5 22.5q0 49 86.5 176.5t208.5 230.5 q342 285 762 285q148 0 265 -38t186.5 -101.5t105 -139.5t35.5 -159q0 -85 -30.5 -170.5t-91 -162t-143.5 -135.5t-196.5 -93.5t-240.5 -34.5h-371q-66 -159 -141 -291q-38 -68 -71.5 -107t-80.5 -73l-100 -70l262 6q16 0 16 -12q0 -9 -17 -32t-38 -42q-16 -14 -59 -14h-275 z" />
<glyph horiz-adv-x="1665" d="M125 0q-23 0 -23 14q0 12 54 52l43 32q35 26 62 61.5t67 106.5q89 156 224.5 485t227.5 488q74 132 203 215l88 57l14 -20q-16 -11 -30 -22t-27 -26t-20.5 -23t-20.5 -29t-17 -26.5t-19.5 -32.5t-18.5 -32q-88 -152 -207 -438h422q214 0 330 110.5t116 278.5 q0 84 -45.5 149.5t-125.5 105.5t-183.5 60.5t-224.5 20.5q-370 0 -647 -221q-11 -28 -30 -79.5t-28.5 -76t-26 -65t-27 -60t-26 -47.5t-29 -40.5t-30.5 -27t-36 -19.5t-40 -5q-16 0 -28.5 8.5t-12.5 22.5q0 49 86.5 176.5t208.5 230.5q342 285 801 285q259 0 411 -94 t152 -260q0 -85 -41.5 -170t-114 -154.5t-184 -113t-239.5 -43.5h-35q56 -298 98.5 -460.5t82.5 -231t89 -68.5q32 0 68.5 21t93.5 69l16 -21q-75 -65 -105 -89.5t-69 -46t-72 -21.5q-182 0 -313 848h-274q-136 -332 -226 -490q-39 -68 -71.5 -107.5t-79.5 -72.5l-94 -64h22 h254q17 0 17 -12q0 -9 -17.5 -32t-38.5 -42q-16 -14 -59 -14h-295z" />
<glyph horiz-adv-x="1040" d="M-4 -10q-73 0 -133 15.5t-60 47.5q0 28 28.5 56t68.5 28q28 0 67 -9.5t117.5 -33t120.5 -35.5q51 15 99 51.5t108.5 110.5t133 203t156.5 313q173 363 279 551q75 130 203 213l57 37h-440q-131 0 -238 -42.5t-219 -143.5q-19 -50 -43 -119t-37 -106.5t-33 -82 t-37.5 -66.5t-43 -37t-56.5 -15q-16 0 -28.5 8t-12.5 22q0 54 92.5 194.5t176.5 217.5q159 149 343 209.5t418 60.5h768q25 0 25 -14q0 -21 -55 -72q-16 -14 -60 -14h-475q-14 -10 -27 -21t-22.5 -19.5t-21 -22.5t-17 -21t-17 -25t-15 -24t-16.5 -28.5t-17 -28.5 q-100 -172 -308 -603q-30 -65 -61 -125.5t-79.5 -139t-99 -144t-118 -131.5t-137.5 -112t-157 -74.5t-177 -28.5z" />
<glyph horiz-adv-x="1019" d="M-4 -10q-73 0 -133 15.5t-60 47.5q0 28 28.5 56t68.5 28q28 0 67 -9.5t117.5 -33t120.5 -35.5q51 15 99 51.5t108.5 110.5t133 203t156.5 313q173 363 279 551q75 130 203 213l57 37h-432q-131 0 -238 -42.5t-219 -143.5q-19 -50 -43 -119t-37 -106.5t-33 -82 t-37.5 -66.5t-43 -37t-56.5 -15q-16 0 -28.5 8t-12.5 22q0 54 92.5 194.5t176.5 217.5q158 148 342 208t418 62l688 4q176 0 256 101l16 -17q-77 -81 -118 -111q-103 -77 -226 -77h-420q-14 -10 -27 -21t-22.5 -19.5t-21 -22.5t-17 -21t-17 -25t-15 -24t-16.5 -28.5 t-17 -28.5q-100 -172 -308 -603q-30 -65 -61 -125.5t-79.5 -139t-99 -144t-118 -131.5t-137.5 -112t-157 -74.5t-177 -28.5z" />
<glyph horiz-adv-x="1196" d="M258 926q-16 0 -28.5 8t-12.5 22q0 54 92.5 194.5t175.5 217.5q159 149 343.5 209.5t418.5 60.5h768q25 0 25 -14q0 -21 -55 -72q-16 -14 -60 -14h-481q-13 -9 -24 -17.5t-22 -19.5t-18 -17.5t-17 -20.5t-14.5 -19.5t-15.5 -23t-13.5 -21.5t-15 -25.5t-14.5 -25.5 q-88 -149 -260.5 -502t-257.5 -502q-39 -68 -71.5 -107.5t-79.5 -72.5l-101 -70l262 6q17 0 17 -12q0 -9 -17.5 -32t-38.5 -42q-16 -14 -59 -14h-274q-23 0 -23 14q0 13 53 52l43 32q35 26 62 61.5t67 106.5q89 156 264.5 514t262.5 508q76 131 202 213l58 37h-434 q-131 0 -238 -42.5t-219 -143.5q-19 -50 -43 -119t-37 -106.5t-33 -82t-37.5 -66.5t-43 -37t-56.5 -15z" />
<glyph horiz-adv-x="2203" d="M262 -29q-89 0 -159 29.5t-110.5 78t-61.5 106.5t-21 120q0 116 58.5 226.5t152 191t215 129.5t242.5 49q95 0 198.5 -21t164 -42t172.5 -65.5t149 -57.5q322 352 682 825l-560 -14q-113 -3 -209 -43.5t-156.5 -116t-60.5 -170.5q0 -88 58 -138t153 -50q93 0 179 61 l12 -18q-151 -109 -299 -109q-103 0 -161 57.5t-58 137.5q0 68 48 140.5t132 136t189 114.5t227.5 80.5t238.5 29.5h389q25 0 19 -24q-118 -525 -189 -913.5t-71 -485.5q0 -129 94 -129q78 0 205 115l16 -21q-214 -194 -319 -194q-50 0 -85.5 52t-27.5 167q15 171 80 512 q-150 -125 -338 -125q-113 0 -238 33q-112 -120 -195 -203t-189 -175t-193 -147.5t-185 -92t-188 -36.5zM12 367q0 -145 91 -237.5t229 -92.5q92 0 196 45.5t216.5 134t213.5 185.5t226 231q-92 26 -227.5 84.5t-246 95.5t-206.5 37q-107 0 -200.5 -41t-156.5 -109t-99 -155 t-36 -178zM1290 707q153 -54 266 -54q131 0 238 99q62 327 160 751q-364 -474 -664 -796z" />
<glyph horiz-adv-x="1927" d="M965 -14q-365 0 -559 24q-23 2 -23 15q0 14 57 45l43 28l9 6q32 23 56 57t64 105q88 154 263 507.5t268 514.5q74 132 203 215l53 35h-303q-189 0 -364 -79t-285.5 -216.5t-110.5 -294.5q0 -127 56 -190.5t153 -63.5q91 0 178 62l12 -19q-149 -108 -299 -108 q-106 0 -164.5 67.5t-58.5 173.5q0 114 67.5 230t180.5 210.5t251.5 169.5t290.5 116.5t287 41.5h322q203 0 297 -66t94 -179q0 -132 -98.5 -242.5t-245.5 -171.5q84 -19 139 -79.5t55 -160.5q0 -111 -51.5 -223.5t-140.5 -206t-201 -167t-242 -115t-253 -41.5zM545 113 q59 -9 229 -20t297 -11q291 -5 468 159t177 449q0 105 -56.5 174.5t-160.5 69.5h-268l18 29h250q94 0 186 56.5t147.5 139t55.5 158.5q0 221 -360 221h-82q-36 -25 -65 -58.5t-41 -53t-46 -76.5q-93 -160 -265.5 -509t-256.5 -497q-39 -68 -71.5 -107.5t-79.5 -72.5z" />
<glyph horiz-adv-x="2027" d="M893 -12q-316 0 -494 22q-22 2 -22 15q0 4 3.5 8.5t11.5 10.5t14.5 10.5t19 12t18.5 11.5l29 20l4 4q32 25 59.5 60.5t65.5 103.5q88 154 253.5 491.5t258.5 497.5q74 132 203 215l88 58l14 -21q-14 -10 -27 -21t-22.5 -19.5t-21 -22.5t-17 -21t-17 -25t-15 -24 t-16.5 -28.5t-17 -28.5q-93 -160 -256.5 -492.5t-247.5 -480.5q-38 -68 -71.5 -107t-80.5 -73l-73 -51h2q59 -9 209 -20t276 -11q208 0 381.5 59t292.5 162.5t185 249t65 315.5q-1 153 -53 282t-147.5 222.5t-238 146t-315.5 52.5q-169 0 -326 -50t-271.5 -132.5 t-183.5 -194.5t-69 -231q0 -127 56 -190.5t153 -63.5q92 0 178 61l12 -18q-151 -109 -299 -109q-105 0 -164 67.5t-59 174.5q0 114 67.5 230t180.5 210.5t251.5 169.5t290.5 116.5t287 41.5q144 -1 269 -39t214 -103.5t153 -151t95 -182t31 -196.5q0 -176 -67 -334.5 t-181.5 -277t-263 -206t-317.5 -132t-338 -43.5z" />
<glyph horiz-adv-x="1787" d="M449 629q-107 0 -172.5 68t-65.5 173q0 95 50 193t134.5 181t196.5 157t233.5 125.5t249 81.5t240.5 30h782q123 0 123 -73q0 -53 -57 -112.5t-185 -156.5l-12 19q91 75 127.5 114t36.5 66q0 21 -19 32t-71 11h-555q-11 -8 -21 -16t-18 -15t-17.5 -17.5t-14.5 -16 t-14 -18.5t-12.5 -18t-13 -20.5t-12 -19.5t-13 -22.5t-12.5 -22.5q-89 -152 -247 -480h663v-28h-678q-173 -358 -254 -500q-39 -68 -71.5 -107.5t-79.5 -72.5l-92 -64h790q43 0 79.5 8t58 15.5t53.5 31.5t43 34.5t49 46.5l16 -15q-2 -3 -23.5 -26.5t-27 -29.5t-24 -26 t-28.5 -29.5t-25.5 -25t-29.5 -28t-28 -23.5q-42 -33 -123 -33h-901q-23 0 -23 18q0 5 4 10.5t14.5 13.5t16 12t20.5 14l43 30q35 26 62.5 61.5t67.5 106.5q93 166 292 578h-206v28h221q133 275 217 418q82 145 203 215l57 33h-338q-141 0 -281.5 -49.5t-249 -130.5 t-176 -193.5t-67.5 -230.5q0 -124 61 -182t162 -58q91 0 178 62l13 -19q-149 -108 -299 -108z" />
<glyph horiz-adv-x="1787" d="M449 629q-107 0 -172.5 68t-65.5 173q0 95 50 193t134.5 181t196.5 157t233.5 125.5t249 81.5t240.5 30h782q123 0 123 -73q0 -53 -57 -112.5t-185 -156.5l-12 19q91 75 127.5 114t36.5 66q0 21 -19 32t-71 11h-555q-11 -8 -21 -16t-18 -15t-17.5 -17.5t-14.5 -16 t-14 -18.5t-12.5 -18t-13 -20.5t-12 -19.5t-13 -22.5t-12.5 -22.5q-89 -152 -247 -480h663v-28h-678q-173 -358 -254 -500q-39 -68 -71.5 -107.5t-79.5 -72.5l-92 -64h790q43 0 79.5 8t58 15.5t53.5 31.5t43 34.5t49 46.5l16 -15q-2 -3 -23.5 -26.5t-27 -29.5t-24 -26 t-28.5 -29.5t-25.5 -25t-29.5 -28t-28 -23.5q-42 -33 -123 -33h-901q-23 0 -23 18q0 5 4 10.5t14.5 13.5t16 12t20.5 14l43 30q35 26 62.5 61.5t67.5 106.5q93 166 292 578h-206v28h221q133 275 217 418q82 145 203 215l57 33h-338q-141 0 -281.5 -49.5t-249 -130.5 t-176 -193.5t-67.5 -230.5q0 -124 61 -182t162 -58q91 0 178 62l13 -19q-149 -108 -299 -108zM1432 1722l370 273q38 28 45 28q15 0 15 -41q0 -40 -6.5 -55.5t-22.5 -23.5l-391 -195z" />
<glyph horiz-adv-x="1497" d="M80 629q-107 0 -172.5 68t-65.5 173q0 95 50 193t134.5 181t196.5 157t233.5 125.5t249 81.5t240.5 30h783q122 0 122 -73q0 -53 -57 -113t-184 -156l-13 19q91 75 127.5 114t36.5 66q0 21 -19 32t-71 11h-543q-12 -10 -22.5 -19.5t-21.5 -23t-17 -21t-17.5 -26 t-15 -23.5t-17.5 -29t-16 -28q-93 -159 -256 -496h637v-28h-651q-186 -376 -256 -500q-39 -68 -71.5 -107.5t-79.5 -72.5l-95 -64h23h233q17 0 17 -12q0 -9 -17.5 -32t-38.5 -42q-16 -14 -59 -14h-274q-23 0 -23 14q0 13 53 52l43 32q35 26 62 61.5t67 106.5q87 151 295 578 h-151v28h166q136 279 225 435q74 132 203 215l24 16h-338q-141 0 -281.5 -49.5t-249 -130.5t-176 -193.5t-67.5 -230.5q0 -124 61 -182t162 -58q92 0 179 62l12 -19q-149 -108 -299 -108z" />
<glyph horiz-adv-x="1767" d="M1264 -14q-41 0 -64.5 27t-23.5 73q0 87 143 381l186 377h-760q-178 -356 -245 -475q-81 -145 -252 -258.5t-342 -122.5q-56 -2 -99 6.5t-43 30.5q0 24 36 54t85 30q42 0 240 -35q39 18 67.5 36.5t71.5 64t84 112.5q86 145 285 557h-195v28h207q160 329 234 455 q73 130 188 199l20 12h-446q-188 0 -365.5 -82.5t-289 -223.5t-111.5 -298q0 -124 61 -182t162 -58q91 0 178 62l13 -19q-149 -108 -299 -108q-107 0 -172.5 68t-65.5 173q0 95 50 193t134.5 181t196.5 157t233.5 125.5t249 81.5t240.5 30h342q25 0 25 -14q0 -9 -25 -33.5 t-47 -38.5l-21 -14q-22 -17 -100 -149q-93 -160 -272 -517h762l151 310q146 296 345.5 463t445.5 167q135 0 135 -34q0 -25 -29 -51.5t-65 -26.5q-34 0 -134.5 18t-142.5 23q-96 -35 -180 -120.5t-166 -250.5l-446 -907q-136 -276 -136 -342q0 -49 50 -49q84 0 233 155 l16 -20q-221 -221 -333 -221z" />
<glyph horiz-adv-x="1058" d="M-29 -365q-93 0 -153 59.5t-60 188.5q0 192 176.5 390t473.5 325l12 -23q-124 -54 -227 -134.5t-167.5 -167t-99.5 -173.5t-35 -161q0 -121 45.5 -184.5t131.5 -63.5q63 0 128.5 32.5t121 84.5t114 128.5t105 151t96.5 166.5q92 161 270.5 529.5t270.5 527.5 q38 68 85 115t117 92l31 20h-614q-188 0 -365.5 -82.5t-289 -223.5t-111.5 -298q0 -124 61 -182t162 -58q91 0 178 62l12 -19q-149 -108 -299 -108q-107 0 -172 68t-65 173q0 95 50 193t134.5 181t196.5 157t233.5 125.5t249 81.5t240.5 30h505q25 0 25 -14q0 -9 -25 -33.5 t-47 -38.5l-14 -10q-9 -7 -17 -14t-16.5 -16.5t-14 -15t-14.5 -18.5t-12.5 -17.5t-13 -21t-12 -20.5t-14 -24t-13.5 -23q-92 -158 -270.5 -525.5t-266.5 -520.5q-84 -141 -171.5 -256.5t-192 -217.5t-221 -159.5t-232.5 -57.5z" />
<glyph horiz-adv-x="2103" d="M264 -12q-56 -2 -98.5 6.5t-42.5 30.5q0 24 36 54t85 30q41 0 239 -35q39 18 67.5 36.5t72 64t84.5 112.5q89 149 265 517.5t265 522.5q73 130 188 199l21 12h-447q-188 0 -365.5 -82.5t-289 -223.5t-111.5 -298q0 -124 61.5 -182t162.5 -58q91 0 178 62l12 -19 q-149 -108 -299 -108q-107 0 -172 68t-65 173q0 95 50 193t134 181t196 157t233.5 125.5t249 81.5t240.5 30h342q25 0 25 -14q0 -9 -25 -33.5t-47 -38.5l-20 -14q-22 -17 -100 -149q-47 -80 -104 -187.5t-95.5 -184.5l-106 -212l-94.5 -189q245 226 531.5 463t433.5 342 q166 122 302.5 177t266.5 55q51 0 89 -11t38 -32q0 -28 -37.5 -66.5t-83.5 -38.5q-65 0 -280 58q-99 -34 -279 -164q-178 -134 -485 -389q26 -256 60 -442t72.5 -292.5t78 -156t82.5 -49.5q40 0 90.5 33t128.5 102l16 -21q-221 -198 -325 -198q-46 0 -92 70t-85 193t-70 301 t-46 384q-246 -208 -445 -393q-57 -112 -92 -172q-81 -145 -252 -258.5t-342 -122.5z" />
<glyph horiz-adv-x="2590" d="M2163 -14q-39 0 -59.5 27t-20.5 65q0 134 167.5 571t362.5 819l-1190 -1345q-22 -22 -39 -76q-3 -13 -48 -31q-54 -21 -54 0q110 833 178 1504q-248 -452 -489 -793q-522 -731 -883 -739q-74 -2 -137.5 12t-63.5 39q0 28 35.5 60t87.5 32q22 0 57.5 -7.5t99.5 -24 t112 -27.5q268 117 665 669q273 381 502 809h-330q-141 -2 -282 -53.5t-250 -134.5t-177.5 -196.5t-68.5 -231.5q0 -124 61 -182t162 -58q91 0 178 62l13 -19q-149 -108 -299 -108q-107 0 -172.5 68t-65.5 173q0 95 50 193t134.5 181t196.5 157t233.5 125.5t249 81.5 t240.5 30h229q19 0 19 -24q-44 -546 -164 -1473l1309 1485q9 12 24 12h62q11 0 15.5 -7t-1.5 -17q-225 -412 -407.5 -864t-182.5 -625q0 -49 45 -49q72 0 217 151l17 -20q-106 -106 -194.5 -163.5t-143.5 -57.5z" />
<glyph horiz-adv-x="1830" d="M1366 -23q-7 0 -10 19l-226 1513q-4 -8 -55.5 -114.5t-68 -139.5t-65.5 -130t-79.5 -153.5t-75.5 -137.5t-86 -150q-91 -150 -179 -268t-187 -218.5t-203 -155t-205 -54.5q-76 0 -138 13.5t-62 37.5q0 28 35 60t87 32q22 0 57.5 -7.5t99.5 -24t112 -27.5q250 108 559 628 q36 60 72.5 123.5t74 135t64.5 123t67 132.5t57 115.5t58 119.5t49 101h-391q-188 0 -368.5 -85.5t-295 -229.5t-114.5 -301q0 -124 61 -182t162 -58q91 0 178 62l12 -19q-149 -108 -299 -108q-107 0 -172 68t-65 173q0 95 50 193t134.5 181t196.5 157t233.5 125.5t249 81.5 t240.5 30h264q22 0 25 -24l219 -1452q88 197 393 825q37 76 62 126t58 111.5t58.5 101t58.5 85.5t62.5 74.5t66.5 59t75.5 48t84.5 33t97 21.5t110 6q166 0 166 -43q0 -26 -33 -57t-71 -31q-24 0 -67 7t-113 19.5t-132 20.5q-97 -15 -196.5 -141t-221.5 -373 q-334 -682 -413 -867q-36 -83 -70 -147t-47 -64z" />
<glyph horiz-adv-x="1744" d="M371 629q-107 0 -172.5 68t-65.5 173q0 95 50 193t134.5 181t196.5 157t233.5 125.5t249 81.5t240.5 30h209q120 0 215.5 -22t157.5 -59.5t103.5 -90.5t59 -111t17.5 -124q0 -85 -30.5 -170.5t-91.5 -162t-144 -135.5t-196.5 -93.5t-240.5 -34.5h-370q-67 -158 -142 -291 q-39 -68 -71.5 -107.5t-79.5 -72.5l-101 -70l263 6q16 0 16 -12q0 -9 -17 -32t-38 -42q-16 -14 -60 -14h-274q-23 0 -23 14q0 12 54 52l43 32q35 26 62 61.5t67 106.5q75 131 155.5 323t161 383.5t156.5 323.5q75 133 202 215l41 27h-317q-188 0 -366 -82.5t-290 -223.5 t-112 -298q0 -124 61 -182t162 -58q91 0 178 62l13 -19q-149 -108 -299 -108zM938 664h344q148 0 265.5 40t189.5 108.5t109.5 156t37.5 186.5q0 367 -495 383q-30 -22 -55.5 -52t-37 -48t-38.5 -65l-9 -15q-43 -73 -88 -167.5t-74.5 -165.5t-76.5 -186t-72 -175z" />
<glyph horiz-adv-x="1665" d="M84 629q-107 0 -172.5 68t-65.5 173q0 95 50.5 193t135 181t197 157t234.5 125.5t250 81.5t241 30h287q135 0 227.5 -18.5t145.5 -56t75.5 -88t22.5 -121.5q0 -98 -46.5 -193t-124 -167t-185.5 -116t-223 -44h-35q56 -298 98.5 -460.5t82.5 -231t89 -68.5q32 0 68.5 21 t93.5 69l16 -21q-75 -65 -105 -89.5t-69 -46t-72 -21.5q-182 0 -313 848h-274q-134 -328 -226 -490q-39 -68 -71.5 -107.5t-79.5 -72.5l-94 -64h22h254q17 0 17 -12q0 -9 -17.5 -32t-38.5 -42q-16 -14 -59 -14h-295q-23 0 -23 14q0 12 54 52l43 32q35 26 62 61.5t67 106.5 q89 156 241 524t244 527q74 132 203 215l10 6h-289q-188 0 -366 -82.5t-290 -223.5t-112 -298q0 -124 61.5 -182t162.5 -58q91 0 178 62l12 -19q-149 -108 -299 -108zM725 862h422q193 0 321.5 118.5t128.5 297.5q0 75 -33.5 127t-97.5 80.5t-142.5 40.5t-182.5 12h-62 q-12 -11 -23.5 -23.5t-19.5 -22.5t-19 -26.5t-16.5 -26t-17.5 -30.5t-18 -31q-94 -161 -240 -516z" />
<glyph horiz-adv-x="1175" d="M313 629q-106 0 -164.5 67.5t-58.5 173.5q0 114 67.5 230t180.5 210.5t251.5 169.5t290.5 116.5t287 41.5h869q16 0 20 -3.5t4 -10.5q0 -21 -55 -72q-16 -14 -59 -14h-502q-13 -9 -24 -17.5t-22 -19.5t-18 -17.5t-17 -20.5t-14.5 -19.5t-15.5 -23t-13.5 -21.5t-15 -25.5 t-14.5 -25.5q-88 -149 -260.5 -502t-257.5 -502q-39 -68 -71.5 -107.5t-79.5 -72.5l-101 -70l262 6q17 0 17 -12q0 -9 -17.5 -32t-38.5 -42q-16 -14 -59 -14h-274q-23 0 -23 14q0 13 53 52l43 32q35 26 62 61.5t67 106.5q89 156 264.5 514t262.5 508q76 131 202 213l58 37 h-426q-189 0 -364 -79t-285.5 -216.5t-110.5 -294.5q0 -127 56 -190.5t153 -63.5q91 0 178 62l12 -19q-149 -108 -299 -108z" />
<glyph horiz-adv-x="1851" d="M1020 -14q-10 0 -15.5 6.5t-3.5 15.5l242 1292q10 53 10.5 92t-10.5 76.5t-45 57.5t-90 20q-92 0 -206.5 -56t-212 -141.5t-164 -198.5t-66.5 -216q0 -124 61 -182t162 -58q91 0 178 62l12 -19q-149 -108 -299 -108q-107 0 -172 68t-65 173q0 86 54 187t142 190.5 t191.5 164.5t212 119t194.5 44q68 0 113.5 -19t68.5 -49.5t30.5 -78t4 -94t-15.5 -109.5l-194 -1078l958 1203q15 34 43.5 99t46.5 105t40 85.5t38 70.5q56 86 147 86q23 0 36.5 -8.5t13.5 -18.5q0 -18 -53 -84q-3 -4 -5 -6.5t-4 -5.5q-47 -59 -140.5 -172t-137.5 -168 l-1065 -1335q-9 -12 -25 -12h-10z" />
<glyph horiz-adv-x="2631" d="M860 -14q-21 0 -18 22l243 1292q10 53 10.5 92t-10.5 76.5t-45 57.5t-90 20q-92 0 -206.5 -56t-212 -141.5t-164 -198.5t-66.5 -216q0 -124 61 -182t162 -58q91 0 178 62l13 -19q-149 -108 -299 -108q-107 0 -172.5 68t-65.5 173q0 86 54 187t142 190.5t192 164.5 t212.5 119t194.5 44q68 0 114 -19t69 -49.5t31.5 -78t5.5 -94.5t-15 -109l-203 -1073l1073 1472q7 12 27 12h8q9 0 14.5 -6.5t3.5 -15.5l-190 -1473l966 1209q15 34 43.5 99t46.5 105t40 85.5t38 70.5q56 86 148 86q23 0 36 -8.5t13 -18.5q0 -7 -3 -15.5t-13.5 -23 t-17.5 -23.5t-27 -34q-47 -59 -140.5 -172t-138.5 -168l-1067 -1335q-9 -12 -25 -12h-10q-20 0 -20 22l205 1477l-1088 -1487q-7 -12 -27 -12h-10z" />
<glyph horiz-adv-x="1742" d="M1026 0q-22 0 -22 14q0 13 53 52l43 32q41 31 74.5 72t82.5 135q159 303 152 404q-11 161 -35.5 336t-42.5 262q-27 122 -93.5 171.5t-166.5 49.5q-92 0 -201 -53t-200 -135.5t-152 -192.5t-61 -213q0 -124 61 -182t162 -58q91 0 178 62l12 -19q-149 -108 -299 -108 q-107 0 -172 68t-65 173q0 108 83 236.5t204.5 232t269 174t268.5 70.5q120 0 181.5 -60t86.5 -175q54 -240 86 -658l762 1008q66 86 95 86q20 0 31.5 -22.5t11.5 -43.5q0 -32 -7 -53t-30 -47l-873 -983q-60 -168 -114 -291q-30 -66 -63.5 -103.5t-88.5 -76.5l-88 -62l16 2 h246q25 0 25 -14q0 -24 -56 -76q-16 -14 -59 -14h-295z" />
<glyph horiz-adv-x="2588" d="M1696 -98q-84 0 -161 23.5t-139.5 62t-128.5 102.5t-119.5 129.5t-121.5 159.5l-6 8q-103 -124 -229 -221q-266 -203 -484 -203q-86 0 -155 28t-111 74.5t-64 104t-22 119.5q0 109 50.5 213t133 180.5t194.5 123t228 46.5q148 0 263.5 -77.5t240.5 -229.5 q49 89 90.5 184.5t97 242.5t70.5 183q55 138 130 236t167 154t193.5 81t222.5 25q134 0 231.5 -18.5t97.5 -49.5q0 -33 -39 -61.5t-73 -28.5q-62 0 -156.5 24.5t-279.5 84.5q-41 -10 -70 -22.5t-67.5 -43t-72 -77.5t-75.5 -127t-86 -191q-160 -399 -340 -645l37 -47 q131 -166 190 -227q166 -171 348 -213q68 -15 142 -15q75 0 152.5 31t117.5 71l16 -16q-186 -178 -413 -178zM57 369q0 -153 95.5 -247t248.5 -93q175 3 373 159q122 97 217 238q-48 66 -81.5 107.5t-88 97t-104 87t-117 54.5t-139.5 23q-169 0 -286.5 -119.5t-117.5 -306.5 zM1550 432q0 101 47.5 223.5t130.5 239t185 214t222.5 157t231.5 59.5q182 0 338 -51l17 -6q29 -10 10 -35q-165 -237 -262 -416q-146 -270 -146 -387q0 -57 56 -57q76 0 203 112l14 -20q-100 -86 -186 -139.5t-130 -53.5q-51 0 -73.5 31.5t-22.5 73.5q0 194 262 608 q-295 -349 -484 -531t-280 -182q-39 0 -66.5 16t-41 42.5t-19.5 51.5t-6 50zM1681 483q0 -53 21 -87t61 -34q68 0 274.5 205.5t526.5 593.5l21 31q-180 68 -322 68q-108 0 -217 -76.5t-187.5 -191t-128 -252t-49.5 -257.5z" />
<glyph horiz-adv-x="2322" d="M1696 -98q-84 0 -161 23.5t-139.5 62t-128.5 102.5t-119.5 129.5t-121.5 159.5l-6 8q-103 -124 -229 -221q-266 -203 -484 -203q-86 0 -155 28t-111 74.5t-64 104t-22 119.5q0 109 50.5 213t133 180.5t194.5 123t228 46.5q148 0 263.5 -77.5t240.5 -229.5 q49 89 90.5 184.5t97 242.5t70.5 183q55 138 130 236t167 154t193.5 81t222.5 25q134 0 231.5 -18.5t97.5 -49.5q0 -33 -39 -61.5t-73 -28.5q-62 0 -156.5 24.5t-279.5 84.5q-41 -10 -70 -22.5t-67.5 -43t-72 -77.5t-75.5 -127t-86 -191q-160 -399 -340 -645l37 -47 q131 -166 190 -227q166 -171 348 -213q68 -15 142 -15q75 0 152.5 31t117.5 71l16 -16q-186 -178 -413 -178zM57 369q0 -153 95.5 -247t248.5 -93q175 3 373 159q122 97 217 238q-48 66 -81.5 107.5t-88 97t-104 87t-117 54.5t-139.5 23q-169 0 -286.5 -119.5t-117.5 -306.5 zM1589 510q0 106 47.5 225t127.5 222.5t175.5 188.5t199.5 134t192 49q68 0 97.5 -32.5t29.5 -75.5q0 -45 -29 -90.5t-107 -113t-223 -160.5t-370 -222q-7 -47 -7 -76q0 -207 156 -207q157 0 358 178l15 -16q-132 -126 -247.5 -184t-197.5 -58q-104 0 -160.5 65t-56.5 173z M1733 664q324 192 413 256q132 94 162 168q12 31 12 63q0 48 -31.5 76t-82.5 28q-81 0 -162 -55t-142.5 -141.5t-106.5 -190.5t-62 -204z" />
<glyph horiz-adv-x="2365" d="M1190 0q-10 0 -14.5 7t0.5 18l544 1058q59 112 152 256q-50 15 -138 42t-162.5 49.5t-139.5 39.5q-14 -16 -25.5 -33t-30 -48.5t-24.5 -40.5q-88 -149 -260.5 -502t-257.5 -502q-38 -68 -71.5 -107t-80.5 -73l-100 -70l262 6q16 0 16 -12q0 -9 -17 -32t-38 -42 q-16 -14 -60 -14h-274q-22 0 -22 14q0 13 53 52l43 32q35 26 62 61.5t67 106.5q89 156 264 514t262 508q67 119 178 197q-228 56 -403 53q-156 0 -267 -42t-225 -144q-19 -50 -43 -119t-37 -106.5t-33 -82t-37.5 -66.5t-43 -37t-56.5 -15q-16 0 -28 8t-12 22 q0 54 92.5 194.5t175.5 217.5q161 151 345.5 216t412.5 67q77 0 151 -12.5t151.5 -39t132 -49t144.5 -63t137 -60.5q92 125 191.5 229.5t212 192t235 137.5t238.5 50q148 0 230.5 -70.5t82.5 -191.5q0 -108 -63.5 -208.5t-164 -171t-228.5 -113t-254 -42.5q-180 0 -459 76 q-50 -90 -76 -141l-416 -820q159 209 344 385q141 136 263.5 217.5t193.5 81.5q51 0 73.5 -31t22.5 -71q0 -59 -58.5 -177.5t-128.5 -230.5t-128.5 -228t-58.5 -171q0 -53 57 -53q67 0 207 123l14 -21q-96 -86 -183 -139t-132 -53q-52 0 -76.5 32t-24.5 72q0 52 39 140.5 t95 182t111.5 185.5t94.5 172.5t39 122.5q0 57 -59 57q-58 0 -143 -58.5t-203 -170.5q-240 -227 -430 -508l-101 -197q-8 -16 -24 -16h-78zM2005 1399q272 -107 510 -107q207 0 349 120t142 312q0 111 -77 177.5t-199 66.5q-381 0 -725 -569z" />
<glyph d="M123 -14q-52 0 -76 31.5t-24 72.5q0 64 63 186.5t138.5 235.5t138.5 222.5t63 150.5q0 26 -14.5 41.5t-40.5 15.5q-74 0 -207 -117l-14 21q224 192 319 192q49 0 72.5 -32t23.5 -72q0 -48 -41 -132.5t-100 -175.5t-117.5 -182t-99.5 -173t-41 -128q0 -57 55 -57 q75 0 203 113l14 -21q-99 -85 -185 -138.5t-130 -53.5zM575 1337q0 35 23 76q22 39 49.5 65.5t52.5 26.5q22 0 39 -20t17 -53q0 -38 -21 -78q-18 -34 -46.5 -64t-55.5 -30q-21 0 -39.5 22t-18.5 55z" />
<glyph horiz-adv-x="538" d="M-551 -424q-33 0 -47 7t-14 24q0 30 31 68t77 38q62 0 238 -22q44 27 80 59.5t80.5 88.5t95.5 143.5t112 210.5q188 385 246 518t58 174q0 26 -15 41.5t-41 15.5q-74 0 -207 -117l-14 21q100 86 186 139t134 53q49 0 72.5 -32t23.5 -72q0 -28 -16.5 -78.5t-65 -155.5 t-77.5 -164.5t-110 -226.5q-157 -324 -383 -528.5t-444 -204.5zM399 1192l342 291q23 18 35 18q11 0 20 -14t9 -39q0 -21 -5.5 -34.5t-11 -18.5t-18.5 -13l-358 -204z" />
<glyph horiz-adv-x="1075" d="M272 -14q-73 0 -128.5 34.5t-82.5 88.5t-26 122.5t33 133.5l405 809q27 52 49.5 90t66.5 93.5t95 99.5t130 93t175 88l10 -20q-103 -43 -198.5 -138t-167.5 -237l-436 -858q205 259 441.5 456t344.5 197q51 0 77.5 -36.5t26.5 -94.5q0 -110 -47 -238.5t-129.5 -247.5 t-184.5 -217.5t-222 -158t-232 -59.5zM170 313q-11 -70 3 -125t45.5 -85.5t67.5 -46t74 -15.5q84 0 164.5 41.5t144 109t117.5 153.5t89 176t54.5 176t18.5 153q0 98 -69 98q-86 0 -303.5 -194t-405.5 -441z" />
<glyph horiz-adv-x="1226" d="M152 -14q-39 0 -67 16t-41.5 42t-19.5 51t-6 50q0 84 34.5 185t92.5 199t139 190.5t169.5 163t189 113t193.5 42.5q141 0 266 -30l49 90q25 46 42.5 75t50 76.5t69.5 84t87.5 78.5t118 80t148.5 71l10 -21q-101 -42 -195.5 -137t-170.5 -238l-381 -704 q-119 -218 -119 -326q0 -61 61 -61q67 0 207 123l15 -21q-99 -85 -185.5 -138.5t-130.5 -53.5t-72 35.5t-28 80.5q0 115 135 365l160 299q-156 -186 -275.5 -319.5t-228.5 -242.5t-188.5 -163.5t-128.5 -54.5zM150 197q0 -54 20.5 -87.5t60.5 -33.5q67 0 274.5 205.5 t522.5 588.5l21 37q-179 66 -318 66q-87 0 -175.5 -49.5t-159.5 -131.5t-127.5 -182.5t-87.5 -209t-31 -203.5z" />
<glyph horiz-adv-x="1140" d="M-66 0q-11 0 -15.5 7t1.5 18l602 1149q28 54 50.5 90.5t67 93t94.5 99.5t129 92.5t175 88.5l11 -20q-102 -43 -197.5 -138t-169.5 -237l-457 -866q154 199 328 362q141 136 263.5 217.5t193.5 81.5q51 0 73.5 -31t22.5 -71q0 -59 -58.5 -177.5t-129 -230.5t-129 -228 t-58.5 -171q0 -53 57 -53q67 0 207 123l15 -21q-96 -85 -183.5 -138.5t-132.5 -53.5q-52 0 -76 31.5t-24 72.5q0 52 39 140.5t94.5 182t111.5 185.5t95 172.5t39 122.5q0 25 -15 41t-45 16q-58 0 -143 -58.5t-203 -170.5q-235 -222 -420 -494l-112 -213q-8 -14 -25 -14h-76z " />
<glyph d="M123 -14q-52 0 -76 31.5t-24 72.5q0 64 63 186.5t138.5 235.5t138.5 222.5t63 150.5q0 26 -14.5 41.5t-40.5 15.5q-74 0 -207 -117l-14 21q224 192 319 192q49 0 72.5 -32t23.5 -72q0 -48 -41 -132.5t-100 -175.5t-117.5 -182t-99.5 -173t-41 -128q0 -57 55 -57 q75 0 203 113l14 -21q-99 -85 -185 -138.5t-130 -53.5zM504 1159q60 45 85 74.5t27 56.5q1 23 -21.5 48.5t-23.5 47.5q-2 30 37.5 81t77.5 51q31 0 50.5 -30.5t19.5 -64.5q0 -35 -22 -74t-65 -80.5t-73 -66t-78 -61.5z" />
<glyph horiz-adv-x="1138" d="M-66 0q-11 0 -15.5 7t1.5 18l602 1149q28 54 50.5 90.5t67 93t94.5 99.5t129 92.5t175 88.5l11 -20q-102 -43 -197.5 -138t-169.5 -237l-356 -678q176 212 371 343t304 134q77 1 119.5 -31.5t42.5 -88.5q0 -33 -17 -71.5t-61.5 -88.5t-112 -99t-179.5 -102t-254 -98 q4 -12 17.5 -52t24.5 -69.5t27.5 -73.5t33 -75t35.5 -61t39 -46t40 -16q68 0 219 135l16 -21q-221 -198 -293 -198q-121 0 -254 448l-32 -8l-6 25q307 81 461.5 196.5t154.5 224.5q0 44 -28.5 70.5t-73.5 26.5q-68 0 -198 -83.5t-260.5 -208.5t-201.5 -235l-225 -428 q-8 -14 -25 -14h-76z" />
<glyph horiz-adv-x="534" d="M86 -14q-44 0 -72 35.5t-28 80.5q0 115 135 365l338 631q25 46 42.5 75t50 76.5t69.5 84t87.5 78.5t118 80t148.5 71l10 -21q-101 -43 -196 -138t-171 -237l-380 -704q-119 -218 -119 -326q0 -61 61 -61q67 0 207 123l14 -21q-99 -85 -185 -138.5t-130 -53.5z" />
<glyph horiz-adv-x="935" d="M6 0q-11 0 -14.5 7t2.5 18q412 725 412 860q0 26 -15 41.5t-41 15.5q-74 0 -207 -117l-14 21q100 86 186 139t134 53q49 0 72.5 -32t23.5 -74q0 -55 -92 -258q115 165 224.5 265.5t184.5 100.5q44 0 113 -17t96 -17q46 0 105 43l12 -17q-9 -8 -27.5 -24t-26 -22.5 t-23 -19.5t-22.5 -18t-19.5 -13.5t-20 -12t-17.5 -8t-19 -6t-18 -1.5q-40 0 -254 56q-68 -42 -166 -159t-192 -276q-75 -150 -160.5 -307t-116.5 -207q-8 -14 -24 -14h-76z" />
<glyph horiz-adv-x="1140" d="M-47 -567q-75 0 -121.5 35.5t-42.5 109.5q4 79 129 174l12 -10q-22 -39 -23 -81t16 -76t56 -56.5t91 -22.5q112 0 239 97q44 33 88 88.5t98.5 150t100 179.5t128 244t146.5 276l74 137q-151 -194 -334 -393q-279 -299 -422 -299q-55 0 -91 34t-36 91q0 56 56.5 167.5 t124 217t124 217t56.5 168.5t-55 57q-75 0 -203 -113l-14 21q99 85 185 138.5t130 53.5q52 0 76 -31.5t24 -72.5q0 -47 -38.5 -134t-93.5 -182t-110.5 -188.5t-94 -173t-38.5 -115.5q0 -71 72 -71q58 0 138 59t194 176q257 268 432 522l98 183q8 14 25 14h80q12 0 16 -7 t-2 -18l-303 -548q-17 -32 -57 -104.5t-58 -104.5t-54.5 -96.5t-57 -97t-55.5 -88t-60.5 -88.5t-61 -79t-67 -78t-69 -67.5t-76.5 -65.5q-80 -62 -182 -105.5t-189 -43.5z" />
<glyph horiz-adv-x="1214" d="M152 -14q-39 0 -67 16t-41.5 42t-19.5 51t-6 50q0 84 34.5 185t92.5 199t139 190.5t169.5 163t189 113t193.5 42.5q136 0 272 -32q66 119 135 213t157.5 177t187 138.5t223 87t266.5 31.5q170 0 170 -43q0 -29 -41 -68t-88 -39q-19 0 -41.5 3t-59.5 11.5t-62.5 15.5 t-88 23.5t-99.5 26.5q-149 -40 -258 -142.5t-227 -320.5l-356 -657q-119 -221 -119 -326q0 -61 61 -61q67 0 207 123l15 -21q-99 -85 -185.5 -138.5t-130.5 -53.5t-72 35.5t-28 80.5q0 125 135 365l170 305q-329 -389 -531 -587.5t-296 -198.5zM150 197q0 -54 20.5 -87.5 t60.5 -33.5q68 0 277.5 208.5t531.5 600.5l13 20q-173 68 -322 68q-87 0 -175.5 -49.5t-159.5 -131.5t-127.5 -182.5t-87.5 -209t-31 -203.5z" />
<glyph horiz-adv-x="1056" d="M-86 -567q-111 0 -180.5 50t-69.5 140q0 209 404 367q-52 13 -74.5 59.5t-22.5 95.5q0 101 47.5 223.5t130.5 239t185 214t222.5 157t231.5 59.5q192 0 342 -49l15 -6q15 -6 6 -25l-258 -489q-169 -320 -256 -460q-253 -403 -498 -522q-111 -54 -225 -54zM-199 -309 q0 -92 66.5 -138.5t173.5 -46.5q153 0 255 131.5t342 584.5q146 275 239 446l49 92q-281 -334 -471 -526.5t-297 -235.5q-19 -8 -31 -10q-149 -49 -237.5 -127t-88.5 -170zM102 197q0 -53 21 -87t61 -34q68 0 278.5 206t522.5 584l21 39q-173 68 -322 68q-108 0 -217 -76 t-187.5 -191t-128 -252t-49.5 -257z" />
<glyph horiz-adv-x="1132" d="M-78 0q-10 0 -14.5 7t0.5 18l528 981q78 145 175.5 261t216 203.5t261.5 135t300 47.5q188 0 188 -41q0 -30 -41.5 -68.5t-95.5 -38.5q-44 0 -107 15t-231 61q-163 -44 -270.5 -146t-221.5 -315l-399 -751q150 196 334 370q141 137 263.5 218t192.5 81q51 0 74 -31 t23 -71q0 -59 -58.5 -177.5t-129 -230.5t-129 -228t-58.5 -171q0 -53 57 -53q67 0 207 123l14 -21q-96 -86 -183 -139t-132 -53q-52 0 -76 31.5t-24 72.5q0 52 39 140.5t94.5 182t111.5 185.5t95 172.5t39 122.5q0 25 -15 41t-45 16q-58 0 -143 -58.5t-203 -170.5 q-240 -227 -430 -508l-104 -197q-10 -16 -25 -16h-78z" />
<glyph d="M123 -14q-52 0 -76 31.5t-24 72.5q0 64 63 186.5t138.5 235.5t138.5 222.5t63 150.5q0 26 -14.5 41.5t-40.5 15.5q-74 0 -207 -117l-14 21q224 192 319 192q49 0 72.5 -32t23.5 -72q0 -48 -41 -132.5t-100 -175.5t-117.5 -182t-99.5 -173t-41 -128q0 -57 55 -57 q75 0 203 113l14 -21q-99 -85 -185 -138.5t-130 -53.5zM575 1337q0 35 23 76q22 39 49.5 65.5t52.5 26.5q22 0 39 -20t17 -53q0 -38 -21 -78q-18 -34 -46.5 -64t-55.5 -30q-21 0 -39.5 22t-18.5 55z" />
<glyph horiz-adv-x="489" d="M-379 -403q104 44 200.5 138.5t166.5 235.5q180 359 272.5 553.5t119 263t26.5 97.5q0 26 -15 41.5t-41 15.5q-74 0 -207 -117l-14 21q100 86 186 139t134 53q49 0 72.5 -32t23.5 -72q0 -13 -8.5 -40t-25.5 -69.5t-36 -86.5t-49 -107.5t-53.5 -114t-59.5 -124.5t-59 -121 t-59.5 -121.5t-53.5 -108.5q-21 -39 -34.5 -63.5t-40.5 -65.5t-52 -70.5t-65 -68.5t-84 -70t-104.5 -65t-129.5 -62zM551 1196l395 348q35 33 43 33q10 0 10 -21q0 -17 -5 -25.5t-19 -19.5l-412 -331z" />
<glyph horiz-adv-x="1120" d="M-78 0q-10 0 -14.5 7t0.5 18l528 981q78 145 175.5 261t216 203.5t261.5 135t300 47.5q188 0 188 -41q0 -30 -41.5 -68.5t-95.5 -38.5q-44 0 -107 15t-231 61q-163 -44 -270.5 -146t-221.5 -315l-387 -729q68 81 176.5 188t229.5 211.5t235.5 176t177.5 71.5 q55 0 80 -31.5t25 -68.5q0 -106 -116.5 -195t-444.5 -270l4 -12q6 -20 31.5 -122t54.5 -206q52 -187 96 -292t81.5 -143t82.5 -38q42 0 83 24.5t111 88.5l15 -19q-109 -98 -171 -138t-114 -40q-64 0 -108.5 44.5t-86.5 156.5t-90 321q-61 253 -79 310q-9 26 -29 26 q-21 0 -68 -28l-10 18q121 80 160 80q12 0 22 -10q266 144 362 222t97 158q0 32 -20.5 54t-55.5 22q-62 0 -185 -85.5t-245.5 -200t-225.5 -225t-136 -163.5l-137 -260q-10 -16 -25 -16h-78z" />
<glyph horiz-adv-x="1140" d="M-25 -567q-96 0 -158.5 50t-62.5 138q0 110 98 196t302 173q-42 9 -67.5 41.5t-25.5 79.5q0 56 56.5 167.5t124 217t124 217t56.5 168.5t-55 57q-75 0 -203 -113l-14 21q99 85 185 138.5t130 53.5q52 0 76 -31.5t24 -72.5q0 -47 -38.5 -134t-93.5 -182t-110.5 -188.5 t-94 -173t-38.5 -115.5q0 -71 72 -71q58 0 138 59t194 176q253 264 430 518l100 187q8 14 25 14h80q12 0 16 -7t-2 -18l-293 -530q-85 -154 -130.5 -235t-108.5 -187t-103.5 -164t-93 -125t-101.5 -113.5t-106 -88.5q-58 -43 -154.5 -83t-177.5 -40zM-113 -313 q0 -72 55 -126.5t150 -54.5q108 0 201 70q52 39 100.5 100t107 164.5t111 204.5t147 284t179.5 339l2 6q-151 -199 -330 -389q-260 -280 -403 -297q-165 -58 -242.5 -131t-77.5 -170z" />
<glyph horiz-adv-x="1218" d="M152 -14q-39 0 -67 16t-41.5 42t-19.5 51t-6 50q0 84 34.5 185t92.5 199t139 190.5t169.5 163t189 113t193.5 42.5q142 0 278 -34q78 127 163 239t195 222.5t223.5 189.5t249.5 127.5t273 48.5q184 0 298.5 -80.5t117.5 -210.5q5 -193 -224 -358l-12 18q51 48 83 115.5 t32 144.5q0 82 -37 143.5t-97.5 95.5t-127 50t-137.5 16q-119 0 -224.5 -38t-193.5 -104t-178.5 -177t-168 -234t-173.5 -299l-246 -450q-119 -218 -119 -326q0 -61 61 -61q67 0 207 123l15 -21q-99 -85 -185.5 -138.5t-130.5 -53.5t-72 35.5t-28 80.5q0 125 135 365 l176 317q-330 -393 -535.5 -595.5t-301.5 -202.5zM150 197q0 -54 20.5 -87.5t60.5 -33.5q68 0 278.5 210t534.5 603l3 -2l8 16q-174 70 -324 70q-87 0 -175.5 -49.5t-159.5 -131.5t-127.5 -182.5t-87.5 -209t-31 -203.5z" />
<glyph horiz-adv-x="964" d="M231 -8q-89 0 -140.5 65t-51.5 170q0 96 39.5 209t111.5 218t162 192t200.5 139.5t217.5 52.5q120 0 219 -26q64 211 64 354q0 408 -400 408q-73 0 -156.5 -24t-164.5 -71t-146.5 -108.5t-106 -144.5t-40.5 -171q0 -107 56 -155.5t143 -48.5q92 0 178 61l12 -18 q-151 -109 -299 -109q-93 0 -153 57.5t-60 145.5q0 93 50 187.5t136 173.5t194 141.5t233 97.5t243 35q183 0 294 -104.5t114 -284.5q2 -107 -41 -258.5t-115 -310t-170 -316.5t-202 -281t-215.5 -199.5t-205.5 -76.5zM174 274q0 -204 141 -204q84 0 177.5 73.5t177.5 194 t157 266t127 299.5q-156 70 -297 70q-78 0 -148 -36.5t-121.5 -96t-93 -134t-67.5 -153.5t-39.5 -150.5t-13.5 -128.5z" />
<glyph horiz-adv-x="1089" d="M272 -14q-73 0 -129 34.5t-83.5 88.5t-26.5 122.5t35 133.5l274 520q73 137 159.5 263.5t202.5 253.5t239 220t272.5 151t300.5 58q184 0 298 -80.5t117 -210.5q5 -194 -223 -358l-12 18q51 48 82.5 115t31.5 145q0 82 -37 143.5t-97.5 95.5t-127 50t-137.5 16 q-119 0 -225 -37t-196 -103.5t-179.5 -175.5t-168 -235.5t-169.5 -300.5l-272 -524q163 204 391 414q260 235 371 235q58 0 86 -44.5t28 -106.5q0 -100 -33 -208.5t-90 -207.5t-135.5 -188t-166.5 -154.5t-187 -104t-193 -38.5zM170 313q-11 -70 3 -125t45.5 -85.5t67.5 -46 t74 -15.5q100 0 194 53.5t164 139.5t123 190t80 210t27 195q0 119 -74 119q-78 0 -266 -164q-221 -193 -438 -471z" />
<glyph horiz-adv-x="964" d="M231 -8q-89 0 -140.5 65t-51.5 170q0 96 39.5 209t111.5 218t162 192t200.5 139.5t217.5 52.5q113 0 201 -22q51 196 51 350q0 108 -29 187.5t-81 124.5t-116 66t-141 21q-133 0 -251.5 -54.5t-191.5 -151.5t-73 -213q0 -100 52 -146.5t137 -46.5q92 0 178 61l12 -18 q-151 -109 -299 -109q-105 0 -160 55.5t-55 147.5q0 67 39.5 142t111.5 144t164 124.5t207.5 89t231.5 33.5q179 0 287.5 -105t111.5 -270q2 -116 -39 -272.5t-110.5 -316.5t-164.5 -317t-196 -278.5t-211.5 -196.5t-204.5 -75zM174 274q0 -204 141 -204q69 0 143 47.5 t142 129t132 189t116.5 228t91.5 245.5q-145 64 -283 64q-78 0 -148 -36.5t-121.5 -96t-93 -134t-67.5 -153.5t-39.5 -150.5t-13.5 -128.5z" />
<glyph horiz-adv-x="1607" d="M549 -260q-82 0 -156 17t-140.5 54.5t-114.5 93t-76.5 136.5t-28.5 180q0 90 33 189t88.5 188.5t130.5 171.5t156 141.5t168 95t163 35.5q78 0 120 -28.5t42 -81.5q0 -48 -35 -103t-121.5 -133t-238 -184.5t-379.5 -249.5q2 -144 73 -246t189 -149.5t272 -46.5 q165 1 325.5 81t279 207.5t191.5 296.5t73 340q0 109 -54 168.5t-149 59.5q-91 0 -178 -62l-13 19q149 108 299 108q104 0 161 -66t57 -165q0 -93 -40 -208.5t-110.5 -234t-176 -231t-227.5 -200t-274.5 -140.5t-308.5 -53zM160 289q168 104 275 178t193.5 147.5 t125.5 136.5t39 123q0 51 -34 75t-83 24q-87 0 -168.5 -45t-142 -118t-107 -163.5t-71.5 -183t-27 -174.5z" />
<glyph horiz-adv-x="1607" d="M549 -260q-82 0 -156 17t-140.5 54.5t-114.5 93t-76.5 136.5t-28.5 180q0 90 33 189t88.5 188.5t130.5 171.5t156 141.5t168 95t163 35.5q78 0 120 -28.5t42 -81.5q0 -48 -35 -103t-121.5 -133t-238 -184.5t-379.5 -249.5q2 -144 73 -246t189 -149.5t272 -46.5 q165 1 325.5 81t279 207.5t191.5 296.5t73 340q0 109 -54 168.5t-149 59.5q-91 0 -178 -62l-13 19q149 108 299 108q104 0 161 -66t57 -165q0 -93 -40 -208.5t-110.5 -234t-176 -231t-227.5 -200t-274.5 -140.5t-308.5 -53zM160 289q168 104 275 178t193.5 147.5 t125.5 136.5t39 123q0 51 -34 75t-83 24q-87 0 -168.5 -45t-142 -118t-107 -163.5t-71.5 -183t-27 -174.5zM508 1184l342 291q23 18 35 18q11 0 19.5 -14t8.5 -39q0 -31 -8 -43t-26 -23l-359 -205z" />
<glyph horiz-adv-x="655" d="M-555 -424q-33 0 -47 7t-14 24q0 30 31 68t77 38q76 0 236 -20q47 29 82.5 59t82.5 85t97.5 143.5t105.5 212.5l324 731l24 51h-163l14 29h162q59 118 133.5 230t175.5 222t210 192t242.5 132.5t268.5 50.5q184 0 298.5 -80.5t117.5 -210.5q5 -193 -224 -358l-12 18 q51 48 83 115.5t32 144.5q0 82 -37 143.5t-98 95.5t-127.5 50t-137.5 16q-110 0 -207.5 -36t-176.5 -98.5t-153.5 -160.5t-135.5 -208.5t-127 -257.5h270l-14 -29h-271l-282 -639q-96 -215 -236 -388t-299 -272.5t-305 -99.5z" />
<glyph horiz-adv-x="1118" d="M-508 -788q-223 0 -337.5 78t-117.5 212q-5 194 224 359l12 -19q-115 -138 -115 -260q0 -82 37 -143.5t98 -95.5t127.5 -50t137.5 -16q355 0 670 274t603 865l185 379q-330 -393 -543 -601t-309 -208q-39 0 -66.5 16t-41 42t-19.5 51t-6 50q0 101 47.5 223.5t130.5 239 t185 214t222.5 157t231.5 59.5q192 0 342 -49l16 -6q15 -6 6 -25l-251 -520q-123 -254 -295.5 -479t-365.5 -390t-404.5 -261t-403.5 -96zM162 197q0 -53 21 -87t61 -34q69 0 282.5 210.5t532.5 598.5l10 18q-178 70 -326 70q-87 0 -175.5 -49.5t-159.5 -131.5 t-127.5 -182.5t-87.5 -209t-31 -203.5z" />
<glyph horiz-adv-x="1132" d="M-78 0q-10 0 -14.5 7t0.5 18l463 860q73 137 159.5 263.5t202.5 253.5t238.5 220t272 151t300.5 58q184 0 298.5 -80.5t117.5 -210.5q5 -194 -223 -358l-13 18q51 48 83 115.5t32 144.5q0 82 -37 143.5t-97.5 95.5t-127 50t-137.5 16q-119 0 -225 -37.5t-195 -103.5 t-178.5 -176t-168 -235.5t-171.5 -299.5l-289 -542q150 195 332 368q141 137 263.5 218t192.5 81q51 0 74 -31t23 -71q0 -59 -58.5 -177.5t-129 -230.5t-129 -228t-58.5 -171q0 -53 57 -53q67 0 207 123l14 -21q-96 -86 -183 -139t-132 -53q-52 0 -76 31.5t-24 72.5 q0 52 39 140.5t94.5 182t111.5 185.5t95 172.5t39 122.5q0 25 -15 41t-45 16q-58 0 -143 -58.5t-203 -170.5q-240 -227 -430 -508l-104 -197q-10 -16 -25 -16h-78z" />
<glyph horiz-adv-x="1130" d="M-78 0q-10 0 -14.5 7t0.5 18l463 860q73 137 159.5 263.5t202.5 253.5t238.5 220t272 151t300.5 58q184 0 298.5 -80.5t117.5 -210.5q5 -194 -223 -358l-13 18q51 48 83 115.5t32 144.5q0 82 -37 143.5t-97.5 95.5t-127 50t-137.5 16q-119 0 -225 -37.5t-195 -103.5 t-178.5 -176t-168 -235.5t-171.5 -299.5l-187 -348q178 212 373.5 343t304.5 134q77 1 119.5 -31.5t42.5 -88.5q0 -33 -17 -71.5t-61.5 -88.5t-112.5 -99t-180 -102t-254 -98q4 -11 18 -52t24.5 -70t27.5 -73t33.5 -75t35.5 -61.5t39 -46t40 -15.5q68 0 219 135l16 -21 q-221 -198 -293 -198q-121 0 -254 448l-33 -8l-6 25q307 81 462 196.5t155 224.5q0 44 -29 70.5t-74 26.5q-69 0 -201 -85.5t-263.5 -212.5t-200.5 -237l-221 -418q-10 -16 -25 -16h-78z" />
<glyph horiz-adv-x="526" d="M86 -14q-44 0 -72 35.5t-28 80.5q0 125 135 365l231 418q77 137 163 262t202 253t238 221t271.5 151.5t299.5 58.5q184 0 298.5 -80.5t117.5 -210.5q5 -193 -224 -358l-12 18q51 48 83 115.5t32 144.5q0 82 -37 143.5t-98 95.5t-127.5 50t-137.5 16q-119 0 -224.5 -38 t-193.5 -104t-178.5 -177t-168 -234t-173.5 -299l-245 -450q-119 -218 -119 -326q0 -61 61 -61q67 0 207 123l14 -21q-99 -85 -185 -138.5t-130 -53.5z" />
<glyph horiz-adv-x="1077" d="M-752 -625q-145 0 -235 54.5t-90 160.5q0 116 147 232l15 -15q-43 -62 -43 -147q0 -93 89 -155t271 -62q100 0 220.5 38t234.5 101q119 66 192 125.5t106 108t60 116.5q62 154 124 410t62 434q0 77 -13.5 117.5t-49.5 40.5q-70 0 -193 -109l-14 21q114 98 180.5 145 t108.5 47q57 0 78.5 -47.5t21.5 -134.5q0 -162 -58.5 -446t-148.5 -519q344 304 598 715q-5 179 29 334q10 45 51.5 71.5t81.5 26.5q37 0 37 -32q0 -69 -73 -218.5t-190 -325t-288 -363.5t-344 -314q-54 -39 -88 -63t-107.5 -72t-131.5 -80t-143 -72t-160 -64.5 t-164.5 -41.5t-172.5 -17z" />
<glyph horiz-adv-x="1724" d="M-555 -424q-33 0 -47 7t-14 24q0 30 31 68t77 38q72 0 232 -20q48 30 83 59t83 84t99.5 144t106.5 213l346 782h-163l14 29h162q53 118 107 210t127.5 177t156 140.5t190.5 88.5t234 33q81 0 185.5 -16.5t191.5 -47.5q165 64 344 64q188 0 188 -43q0 -28 -37.5 -66.5 t-83.5 -38.5q-31 0 -88 11.5t-106 24t-160 42.5q-165 -54 -275.5 -155.5t-216.5 -307.5l-378 -733q174 214 393 416q260 235 370 235q58 0 86.5 -44.5t28.5 -106.5q0 -100 -33 -208.5t-90 -207.5t-135.5 -188t-166.5 -154.5t-187 -104t-193 -38.5q-73 0 -129 34.5 t-83.5 88.5t-27 122.5t34.5 133.5l320 606q191 362 463 536l-428 95q-61 -16 -110.5 -43.5t-88 -63t-75.5 -90t-66 -109.5t-66 -137l-69 -155h268l-14 -29h-269l-288 -639q-98 -216 -236 -388.5t-295 -272t-303 -99.5zM805 313q-11 -70 3 -125t45.5 -85.5t67.5 -46t74 -15.5 q100 0 194 53.5t164 139.5t123 190t80 210t27 195q0 119 -74 119q-78 0 -266 -164q-221 -193 -438 -471z" />
<glyph horiz-adv-x="1748" d="M-555 -424q-33 0 -47 7t-14 24q0 30 31 68t77 38q72 0 232 -20q48 30 83 59t83 84t99.5 144t106.5 213l346 782h-163l14 29h162q53 118 107 210t127.5 177t156 140.5t190.5 88.5t234 33q202 0 381 -68q172 68 354 68q188 0 188 -41q0 -30 -41.5 -68.5t-95.5 -38.5 q-44 0 -107 15t-231 61q-162 -44 -269.5 -146t-221.5 -315l-400 -751q150 196 334 370q141 136 263.5 217.5t193.5 81.5q51 0 73.5 -31t22.5 -71q0 -59 -58.5 -177.5t-129 -230.5t-129 -228t-58.5 -171q0 -26 15.5 -39.5t42.5 -13.5q67 0 207 123l14 -21q-96 -86 -183 -139 t-132 -53q-52 0 -76.5 32t-24.5 72q0 52 39 140.5t95 182t111.5 185.5t94.5 172.5t39 122.5q0 57 -59 57q-58 0 -143 -58.5t-203 -170.5q-243 -230 -431 -508l-104 -197q-10 -16 -25 -16h-77q-11 0 -15 7.5t0 17.5l529 981q178 329 442 499l-438 97q-61 -16 -110.5 -43.5 t-88 -63t-75.5 -90t-66 -109.5t-66 -137l-69 -155h268l-14 -29h-269l-288 -639q-98 -216 -236 -388.5t-295 -272t-303 -99.5z" />
<glyph horiz-adv-x="1193" d="M-555 -424q-33 0 -47 7t-14 24q0 28 29.5 63t68.5 35q22 0 104 -5t138 -7q47 29 82.5 59t83.5 85t99.5 144t106.5 212l348 782h-163l14 29h162q53 118 107 209.5t127.5 176.5t156 141t190.5 89t234 33q78 0 172 -20.5t149 -49.5q32 -17 4 -41l-444 -371l-12 13l346 309 l-424 106q-75 -20 -133.5 -55t-107 -94t-86 -124.5t-83.5 -166.5l-71 -155h209l-15 -29h-207l-290 -639q-98 -216 -236 -388t-295.5 -272t-302.5 -100zM43 -393q0 30 31.5 68t77.5 38q61 0 237 -22q59 37 107 84.5t115 151.5t147 266q187 382 245 516t58 176 q0 26 -14.5 41.5t-40.5 15.5q-74 0 -207 -117l-15 21q100 86 186 139t134 53q49 0 72.5 -32t23.5 -72q0 -28 -17.5 -80t-63 -152t-78.5 -168.5t-109 -224.5q-157 -324 -383.5 -528.5t-444.5 -204.5q-33 0 -47 7t-14 24z" />
<glyph horiz-adv-x="1746" d="M-555 -424q-33 0 -47 7t-14 24q0 30 31 68t77 38q72 0 232 -20q48 30 83 59t83 84t99.5 144t106.5 213l346 782h-163l14 29h162q53 118 107 210t127.5 177t156 140.5t190.5 88.5t234 33q84 0 185 -17.5t185 -54.5q178 72 365 72q188 0 188 -41q0 -30 -41.5 -68.5 t-95.5 -38.5q-44 0 -107 15t-231 61q-162 -44 -269.5 -146t-221.5 -315l-297 -557q178 212 374.5 344t305.5 135q77 1 119.5 -31.5t42.5 -88.5q0 -33 -17 -71.5t-61.5 -88.5t-112.5 -99t-180 -102t-254 -98q4 -12 17.5 -52t24.5 -69.5t27.5 -73.5t33 -75t35.5 -61t39 -46 t40 -16q68 0 219 135l16 -21q-221 -198 -292 -198q-121 0 -254 448l-33 -8l-6 25q307 81 461.5 196.5t154.5 224.5q0 44 -28.5 70.5t-73.5 26.5q-70 0 -204.5 -87.5t-267.5 -216.5t-198 -239l-217 -410q-10 -16 -25 -16h-77q-11 0 -15 7.5t0 17.5l529 981q179 327 430 491 l-426 105q-61 -16 -110.5 -43.5t-88 -63t-75.5 -90t-66 -109.5t-66 -137l-69 -155h268l-14 -29h-269l-288 -639q-98 -216 -236 -388.5t-295 -272t-303 -99.5z" />
<glyph horiz-adv-x="1144" d="M96 -14q-51 0 -79.5 41.5t-28.5 83.5q0 65 28.5 140t106.5 216l297 539q66 119 135 213.5t158 177.5t188.5 137.5t224.5 86t267 30.5q141 -7 198 -35q15 -7 15.5 -19t-11.5 -22l-485 -404l-12 13l368 329l-391 74q-152 -51 -257.5 -151t-221.5 -316l-356 -657 q-119 -221 -119 -309q0 -35 18 -51.5t47 -16.5q75 0 203 113l14 -21q-224 -192 -307 -192zM588 90q0 64 63 186.5t138.5 235.5t138.5 222.5t63 150.5q0 26 -14.5 41.5t-40.5 15.5q-74 0 -207 -117l-14 21q224 192 319 192q49 0 72.5 -32t23.5 -72q0 -48 -41 -132.5 t-100 -175.5t-117.5 -182t-99.5 -173t-41 -128q0 -57 55 -57q75 0 203 113l15 -21q-99 -85 -185.5 -138.5t-130.5 -53.5q-52 0 -76 31.5t-24 72.5z" />
<glyph horiz-adv-x="1064" d="M96 -14q-51 0 -79.5 41.5t-28.5 83.5q0 63 28.5 138t106.5 218l293 539q46 85 80.5 143.5t85 131.5t96 122.5t107.5 100.5t127 81t147 49t174 19q72 0 169 -17.5t169 -42.5q160 60 356 60q170 0 170 -43q0 -29 -41 -68t-88 -39q-19 0 -41.5 3t-59 11.5t-63 15.5 t-87.5 23.5t-99 26.5q-149 -40 -258 -142.5t-227 -320.5l-357 -657q-119 -221 -119 -326q0 -31 17 -46t45 -15q67 0 207 123l14 -21q-99 -85 -185 -138.5t-130 -53.5t-72.5 35.5t-28.5 80.5q0 125 135 365l299 539q196 350 445 507l-383 89q-55 -14 -101 -42t-81.5 -63.5 t-75 -94t-72.5 -116t-82 -147.5q-6 -13 -10 -19l-358 -657q-119 -221 -119 -309q0 -35 18 -51.5t47 -16.5q75 0 203 113l14 -21q-224 -192 -307 -192z" />
<glyph horiz-adv-x="1185" d="M158 -14q-55 0 -82 35.5t-27 82.5q0 59 30 141.5t105 221.5l275 508h-191v24l451 289l18 -10l-147 -274h721l-15 -29h-4q-52 0 -111.5 -49t-95.5 -113q-4 -7 -34.5 -61t-47 -83.5t-50 -91t-54 -102.5t-47.5 -97t-42.5 -95t-26.5 -77.5t-11 -62.5q0 -57 55 -57 q75 0 203 113l14 -21q-99 -85 -185 -138.5t-130 -53.5q-52 0 -76 31.5t-24 72.5q0 22 13 63t31.5 85.5t49 108t55 112t60.5 116t55 101.5t48.5 88t31.5 57q69 123 248 154h-648l-276 -512q-115 -214 -115 -309q0 -32 19 -50t47 -18q83 0 211 113l14 -21q-99 -85 -185 -138.5 t-130 -53.5zM1176 1188l395 348q35 33 43 33q10 0 10 -21q0 -26 -25 -45l-411 -332z" />
<glyph horiz-adv-x="1114" d="M322 -14q-97 0 -162.5 59t-65.5 184q0 75 29 165t78 179.5t119 173.5t148 148.5t168.5 103.5t176.5 39q104 0 160.5 -66t56.5 -165q0 -98 -40 -212.5t-111 -220.5t-159 -194t-193.5 -141t-204.5 -53zM223 285q0 -118 54 -176t155 -58q80 0 156.5 51.5t132.5 131.5t99 174 t65 182.5t22 154.5q0 109 -53.5 168.5t-148.5 59.5q-82 0 -159.5 -50t-134.5 -128t-100.5 -171t-65.5 -182t-22 -157z" />
<glyph horiz-adv-x="548" d="M14 0q-10 0 -14.5 7t0.5 18l403 860l-227 -105l-8 21q313 150 405 225q21 15 28 3q5 -7 -7 -15q-46 -28 -76 -92l-416 -908q-6 -14 -22 -14h-66z" />
<glyph horiz-adv-x="968" d="M-180 25q46 25 129 67.5t154 78t161 85t161.5 93.5t144 99t120.5 106.5t78.5 110.5t30.5 115q0 51 -19.5 86.5t-53.5 52.5t-68 24t-74 7q-83 0 -179 -45.5t-192 -142.5l-14 18q244 258 458 258q47 0 90.5 -12t83 -37t63.5 -70t24 -104q0 -47 -17.5 -95t-46.5 -89.5 t-74.5 -85.5t-92 -80t-109 -76t-116 -70t-123 -66t-119 -60t-115 -55.5t-101.5 -49.5h473q102 0 159.5 10t88.5 28t76 60l16 -12q-12 -14 -48.5 -58t-59.5 -69q-36 -47 -101 -47h-782z" />
<glyph horiz-adv-x="985" d="M-84 -440q-95 0 -163 21.5t-68 49.5q0 20 36.5 43t75.5 23q35 0 80 -12t116 -35.5t122 -36.5q175 35 305.5 178.5t130.5 323.5q0 213 -221 213q-64 0 -131 -27q-59 -22 -70 -18l-4 4q-7 10 0.5 21.5t30.5 15.5q74 14 149.5 42.5t146.5 72.5t126 97.5t88.5 122.5t33.5 142 q0 75 -46.5 121.5t-143.5 46.5q-79 0 -154.5 -32t-167.5 -116l-14 19q97 99 200 147.5t199 50.5q122 0 188 -56.5t66 -145.5q0 -73 -32.5 -141.5t-89.5 -123.5t-123 -98.5t-144 -79.5h11q112 0 170.5 -63.5t58.5 -153.5q0 -109 -63 -220.5t-166 -198.5t-244.5 -142 t-288.5 -55z" />
<glyph horiz-adv-x="1048" d="M281 -424q-11 0 -15 7.5t0 17.5l174 379q-16 2 -75 8.5t-88 10t-85.5 9t-94 8t-84.5 5t-85 2.5q-87 0 -137 -33l-10 18q4 4 11 10t19.5 16t22.5 19l1149 975q12 12 25 12q8 0 16 -5t8 -11q0 -5 -8 -25l-434 -948q18 -2 51 -2q66 0 105.5 16t78.5 58l13 -14 q-69 -72 -132 -106t-133 -34h-20l-174 -379q-6 -14 -25 -14h-73zM-86 86q76 16 162 16q33 0 71 -2t66 -4.5t73 -7.5t64.5 -7.5t68.5 -9.5t60 -8l373 814z" />
<glyph horiz-adv-x="995" d="M-53 -444q-97 0 -163.5 18.5t-66.5 46.5q0 24 35.5 48t75.5 24q28 0 66.5 -8t64 -15.5t90.5 -29t92 -29.5q181 44 314 187.5t133 328.5q0 80 -35 141t-101 101t-149 64.5t-192 39.5l-7 10l359 531q197 -33 344 -33q145 0 225 80l17 -17q-12 -11 -40.5 -39t-42 -40 t-40 -32t-48 -28.5t-52.5 -16t-66 -7.5q-165 0 -326 37l-233 -347q506 -71 506 -376q0 -111 -63 -226.5t-165 -206t-244 -148.5t-288 -58z" />
<glyph horiz-adv-x="1134" d="M379 -14q-130 0 -202.5 85.5t-72.5 241.5q0 208 104 413.5t273 362.5t395 263.5t461 128.5l2 -23q-134 -14 -257.5 -53t-222.5 -94.5t-187 -127t-154.5 -149t-120.5 -162t-89.5 -164t-57.5 -157.5q151 197 314.5 314.5t301.5 117.5q96 0 152.5 -52.5t56.5 -168.5 q0 -68 -27.5 -152.5t-75 -170.5t-115 -168t-142.5 -145t-163.5 -101.5t-172.5 -38.5zM217 354q0 -152 62 -235.5t184 -83.5q96 0 187.5 74t153 181t99 222t37.5 201q0 105 -42.5 157t-111.5 52q-117 0 -266.5 -122t-286.5 -308q-16 -82 -16 -138z" />
<glyph horiz-adv-x="972" d="M-63 -424q-13 0 -17 7t4 18l1114 1312q-85 -10 -180 -10q-59 0 -218 17.5t-222 17.5q-130 0 -254 -141l-21 14q210 232 381 227q52 -1 230 -20t243 -19q82 0 129 27l11 -16l-1074 -1422q-10 -12 -26 -12h-100z" />
<glyph horiz-adv-x="1032" d="M324 -14q-54 0 -109.5 15t-106 44t-82.5 80t-32 115q0 78 32 149t82.5 125t123 103t145 84t155.5 65q-68 61 -105.5 121.5t-37.5 138.5q0 123 72.5 229.5t191 168t250.5 61.5q124 0 197.5 -59.5t73.5 -147.5q0 -320 -486 -490q45 -35 68.5 -54.5t58.5 -54t52.5 -63 t31.5 -68t14 -81.5q0 -122 -83 -233.5t-220 -179.5t-286 -68zM100 256q0 -105 76.5 -173.5t200.5 -68.5q169 0 294.5 119t125.5 283q0 32 -7 60.5t-22.5 55.5t-30 47.5t-42 46t-44 40.5t-50 42t-48.5 40q-98 -33 -177 -77.5t-142.5 -104.5t-98.5 -139t-35 -171zM479 1085 q0 -44 14.5 -83t46 -76t57.5 -61t73 -62q179 65 290 186.5t111 255.5q0 97 -61.5 151t-163.5 54q-152 0 -259.5 -106t-107.5 -259z" />
<glyph horiz-adv-x="1132" d="M762 1034q130 0 202 -85.5t72 -241.5q0 -208 -104 -413.5t-273 -362.5t-395 -263.5t-461 -128.5l-2 23q185 19 350 86.5t283.5 160t214 209t153 228.5t89.5 223q-151 -197 -314.5 -314.5t-302.5 -117.5q-208 0 -208 221q0 68 27.5 152.5t75 170.5t115 168t142.5 145 t163.5 101.5t172.5 38.5zM201 307q0 -105 42 -157t111 -52q117 0 266.5 122t286.5 308q17 87 17 138q0 152 -62 235.5t-184 83.5q-96 0 -187.5 -74t-153 -181t-99 -222t-37.5 -201z" />
</font>
</defs>
</svg>
