<?xml version="1.0" standalone="no"?>
<!DOCTYPE svg PUBLIC "-//W3C//DTD SVG 20010904//EN"
 "http://www.w3.org/TR/2001/REC-SVG-20010904/DTD/svg10.dtd">
<svg version="1.0" xmlns="http://www.w3.org/2000/svg"
 width="268.000000pt" height="268.000000pt" viewBox="0 0 268.000000 268.000000"
 preserveAspectRatio="xMidYMid meet">
<metadata>
Created by potrace 1.14, written by Peter Selinger 2001-2017
</metadata>
<g transform="translate(0.000000,268.000000) scale(0.100000,-0.100000)"
fill="#000000" stroke="none">
<path d="M2260 2650 c25 -17 65 -42 90 -55 41 -21 95 -71 131 -120 13 -18 13
-19 -3 -6 -10 7 -18 10 -18 5 0 -5 -8 5 -16 23 -11 22 -21 30 -31 26 -14 -6
-14 -8 1 -18 9 -7 16 -19 16 -27 0 -9 6 -21 14 -27 8 -7 12 -21 8 -33 -4 -16
-2 -19 8 -13 10 6 12 4 7 -7 -3 -9 -1 -20 6 -27 6 -6 12 -25 13 -43 4 -51 5
-55 14 -28 8 24 8 24 9 -7 1 -17 4 -38 7 -47 3 -9 1 -16 -4 -16 -6 0 -13 10
-15 23 -3 14 -4 11 -4 -9 1 -22 5 -30 14 -27 9 4 11 0 7 -11 -4 -9 -1 -16 6
-16 9 0 11 -15 7 -52 -5 -41 -3 -49 5 -34 21 37 14 177 -11 231 -5 11 -12 34
-14 50 -2 17 -7 39 -12 50 -5 16 -5 17 4 5 51 -70 71 -227 47 -365 -13 -79
-86 -363 -103 -405 -3 -8 -7 -19 -8 -25 -6 -42 -19 -85 -25 -85 -4 0 -8 -10
-8 -22 0 -20 -54 -217 -244 -888 -18 -63 -35 -117 -38 -120 -3 -3 -6 -14 -8
-25 -6 -46 -45 -175 -53 -175 -13 0 -11 14 3 28 9 9 9 12 -2 12 -13 0 -13 2 0
10 8 5 11 10 6 10 -4 0 -1 12 9 26 14 22 15 28 4 35 -16 10 -17 9 -22 -21 -2
-14 -6 -32 -9 -40 -3 -8 -11 -35 -17 -60 -10 -38 -63 -158 -92 -210 -5 -8 -13
-25 -19 -37 -20 -47 -49 -55 -222 -60 -90 -3 -165 -7 -167 -9 -2 -2 54 -4 125
-5 71 0 168 -1 216 -2 93 -1 127 10 153 49 8 12 82 260 165 551 83 290 160
557 172 593 11 36 28 94 38 130 10 36 40 144 68 240 53 183 97 351 107 410 3
19 10 51 14 71 12 54 13 207 2 266 -30 156 -159 311 -283 343 -95 24 -96 23
-48 -10z m-208 -2371 c-8 -29 -11 -31 -17 -15 -5 12 -3 21 6 27 8 5 10 9 6 9
-5 0 -5 5 -2 11 13 19 16 1 7 -32z m-19 -77 c-3 -12 -9 -22 -14 -22 -12 0 -11
7 3 30 15 24 19 21 11 -8z m-18 -54 c-15 -52 -37 -88 -53 -87 -14 0 -13 2 3 9
11 5 16 9 11 9 -5 1 -3 8 4 16 7 8 10 15 6 15 -4 0 0 10 9 23 8 13 12 27 8 30
-3 4 -1 7 6 7 8 0 10 -8 6 -22z"/>
<path d="M1981 2651 c-117 -44 -205 -142 -262 -294 l-20 -52 5 43 c2 23 2 42
0 42 -2 0 -33 -14 -69 -32 -54 -27 -67 -38 -77 -68 -12 -38 -31 -74 -85 -162
-20 -33 -32 -62 -27 -69 4 -8 3 -10 -4 -5 -7 4 -12 0 -13 -11 -4 -57 -3 -85 1
-88 3 -2 5 -19 5 -39 -1 -19 2 -33 7 -30 4 3 6 -8 4 -23 -2 -15 -1 -22 1 -15
2 6 9 12 14 12 6 0 7 -5 4 -10 -10 -17 -14 -100 -4 -94 5 3 9 24 9 47 0 27 3
37 9 28 5 -7 6 -22 3 -34 -4 -15 -2 -18 9 -12 11 7 11 5 -1 -10 -8 -10 -10
-16 -4 -12 7 4 15 0 18 -9 3 -8 2 -12 -4 -9 -6 4 -10 -8 -9 -27 0 -30 1 -31 9
-10 5 12 11 22 13 22 6 0 0 -42 -8 -62 -4 -10 -3 -18 3 -18 6 0 12 6 15 13 2
6 6 0 9 -15 3 -16 1 -28 -5 -28 -6 0 -3 -6 6 -12 9 -7 19 -31 21 -54 5 -36 24
-99 25 -82 1 3 -6 42 -14 85 -9 43 -18 94 -21 113 -8 44 -12 65 -14 65 0 0 -3
29 -5 65 -3 44 11 -11 44 -170 69 -331 180 -789 191 -790 8 0 30 62 25 70 -5
7 -109 419 -119 470 -3 14 -19 90 -36 170 -18 80 -33 154 -35 165 -30 158 -38
209 -42 257 -5 56 -4 60 34 111 46 59 80 123 99 182 l14 40 -7 -50 c-12 -90
-5 -217 16 -296 40 -153 126 -282 197 -295 27 -5 94 2 94 10 0 1 -24 27 -54
58 -93 96 -142 220 -134 338 8 114 60 185 134 182 71 -3 123 -50 155 -143 15
-44 18 -76 15 -169 -3 -63 -10 -135 -18 -159 l-14 -45 -35 55 c-52 79 -71 134
-76 226 -5 69 -3 88 16 125 25 52 26 64 7 71 -19 7 -32 -9 -51 -63 -15 -42
-22 -155 -12 -195 3 -11 8 -33 12 -50 11 -44 49 -116 89 -168 42 -55 45 -71
14 -62 -21 6 -22 5 -5 -8 22 -18 22 -16 -12 -122 -16 -49 -50 -155 -75 -235
-49 -157 -149 -476 -199 -633 -36 -113 -30 -118 -83 73 -116 416 -169 637
-241 1005 -55 285 -55 273 6 361 52 74 101 185 101 228 l0 24 -79 -34 c-99
-43 -209 -65 -326 -65 -90 0 -110 4 -375 76 -212 58 -403 9 -555 -141 -190
-188 -208 -482 -40 -649 64 -65 131 -96 216 -103 77 -5 125 7 192 51 144 95
157 293 27 410 -129 116 -311 74 -392 -92 l-23 -46 -3 51 c-12 200 213 357
413 290 167 -57 286 -222 376 -520 17 -56 45 -146 61 -201 103 -339 107 -423
26 -512 l-21 -22 29 -7 c43 -10 90 -49 120 -99 46 -79 54 -105 176 -550 22
-82 42 -152 44 -154 2 -2 93 -6 201 -8 219 -4 241 0 267 50 13 25 152 497 171
577 1 8 24 87 50 175 26 88 53 183 60 210 7 28 27 100 45 160 17 61 33 117 35
125 8 33 45 156 52 170 8 18 7 17 17 60 4 19 25 96 46 170 109 381 119 536 45
697 -83 180 -259 271 -414 214z m-331 -353 c0 -7 -4 -19 -9 -27 -7 -10 -9 -7
-8 12 2 26 17 39 17 15z m-60 -18 c0 -5 -5 -10 -11 -10 -5 0 -7 5 -4 10 3 6 8
10 11 10 2 0 4 -4 4 -10z m-19 -83 c-10 -9 -11 -8 -5 6 3 10 9 15 12 12 3 -3
0 -11 -7 -18z m-24 -9 c-3 -8 -6 -5 -6 6 -1 11 2 17 5 13 3 -3 4 -12 1 -19z
m3 -22 c0 -2 -8 -10 -17 -17 -16 -13 -17 -12 -4 4 13 16 21 21 21 13z m-49
-59 c-10 -9 -11 -8 -5 6 3 10 9 15 12 12 3 -3 0 -11 -7 -18z m-11 -21 c0 -3
-4 -8 -10 -11 -5 -3 -10 -1 -10 4 0 6 5 11 10 11 6 0 10 -2 10 -4z m-4 -48 c4
-7 3 -8 -5 -4 -7 4 -15 -2 -20 -16 -6 -14 -10 -17 -10 -7 -1 8 4 20 11 27 15
15 15 15 24 0z m27 -93 c4 -27 3 -35 -3 -25 -5 8 -10 28 -10 44 0 39 6 30 13
-19z m-35 -18 c15 4 15 3 2 -6 -22 -15 -30 -14 -29 7 0 9 3 12 5 5 3 -7 13 -9
22 -6z m0 -41 c-7 -8 -15 -12 -17 -11 -5 6 10 25 20 25 5 0 4 -6 -3 -14z"/>
<path d="M2372 2550 c7 -11 22 -20 33 -20 19 1 19 2 -4 20 -30 26 -45 26 -29
0z"/>
<path d="M780 2370 c0 -6 174 -59 240 -74 114 -24 109 -11 -10 24 -145 43
-230 62 -230 50z"/>
<path d="M1890 2195 c-11 -13 -10 -14 4 -9 9 3 16 10 16 15 0 13 -6 11 -20 -6z"/>
<path d="M1920 2155 c-8 -9 -8 -15 -2 -15 12 0 26 19 19 26 -2 2 -10 -2 -17
-11z"/>
<path d="M1885 2139 c-4 -6 -5 -12 -2 -15 2 -3 7 2 10 11 7 17 1 20 -8 4z"/>
<path d="M1837 2110 c-3 -11 -5 -49 -4 -83 2 -50 10 -78 41 -142 46 -95 100
-164 126 -162 22 1 16 20 -21 66 -16 19 -26 38 -23 43 3 4 0 8 -6 8 -7 0 -10
7 -6 15 3 8 -2 21 -10 30 -9 8 -12 15 -8 15 3 0 0 8 -7 17 -12 15 -12 16 1 8
12 -6 13 -5 3 6 -7 7 -13 21 -13 31 0 10 -4 18 -10 18 -5 0 -7 6 -5 13 9 23
13 107 5 102 -9 -6 -22 -79 -20 -119 1 -36 -7 -31 -12 6 -2 15 -7 30 -11 34
-4 4 -7 12 -7 18 0 6 5 4 10 -4 6 -9 10 -10 10 -3 0 6 -4 15 -10 18 -5 3 -10
15 -10 26 0 12 4 17 11 13 7 -4 7 2 -1 17 -17 33 -17 32 -23 9z"/>
<path d="M455 2104 c-14 -7 -28 -13 -30 -13 -11 0 -95 -40 -95 -45 0 -3 21 4
46 15 46 21 74 20 36 0 -12 -6 -31 -25 -43 -42 l-22 -31 24 7 c13 4 28 8 33 9
5 0 20 11 33 23 28 24 105 63 128 63 24 0 17 20 -7 21 -13 1 -35 2 -51 3 -15
2 -39 -3 -52 -10z"/>
<path d="M314 2014 c-18 -14 -18 -14 6 -3 31 14 36 19 24 19 -6 0 -19 -7 -30
-16z"/>
<path d="M562 1981 c-11 -6 -10 -10 5 -15 38 -14 107 -69 101 -81 -2 -2 4 -12
12 -22 22 -25 44 -102 43 -143 l-2 -35 9 30 c5 16 7 48 5 70 l-5 40 14 -35 c7
-19 11 -38 9 -42 -2 -4 3 -5 13 -1 13 5 15 2 10 -15 -4 -11 -2 -23 4 -27 16
-10 12 46 -5 65 -13 14 -13 17 0 17 8 0 12 -4 9 -8 -2 -4 2 -9 8 -11 9 -3 13
-26 13 -69 0 -56 -4 -71 -32 -114 -33 -51 -74 -85 -128 -105 -25 -10 -21 -3
28 44 31 31 57 59 57 63 0 4 -17 -9 -37 -29 -21 -20 -58 -48 -83 -63 -24 -16
-51 -34 -58 -42 -7 -7 -24 -16 -38 -19 -43 -11 -16 -22 45 -18 110 7 221 77
267 170 28 57 26 174 -4 235 -43 87 -124 149 -212 163 -19 3 -41 1 -48 -3z
m158 -131 c6 -11 7 -20 2 -20 -6 0 -12 9 -15 20 -3 11 -3 20 -1 20 2 0 8 -9
14 -20z"/>
<path d="M740 1720 c0 -5 5 -10 10 -10 6 0 10 5 10 10 0 6 -4 10 -10 10 -5 0
-10 -4 -10 -10z"/>
<path d="M736 1685 c-3 -8 -1 -15 4 -15 6 0 10 7 10 15 0 8 -2 15 -4 15 -2 0
-6 -7 -10 -15z"/>
<path d="M756 1660 c-9 -17 -14 -30 -9 -30 8 0 35 51 30 56 -2 2 -11 -10 -21
-26z"/>
<path d="M2301 1478 c-8 -35 -15 -74 -17 -87 -2 -13 -7 -27 -11 -30 -4 -3 -9
-13 -9 -21 -4 -38 -16 -90 -35 -148 -11 -35 -17 -68 -13 -74 4 -7 3 -8 -4 -4
-11 7 -17 -6 -13 -28 1 -4 -4 -15 -11 -24 -11 -13 -11 -14 2 -7 13 8 13 7 0
-10 -8 -10 -14 -25 -12 -34 1 -10 -4 -36 -13 -60 -18 -51 -18 -54 -5 -46 11 7
14 -18 3 -29 -4 -3 -8 -16 -10 -28 -2 -12 -8 -27 -14 -35 -6 -7 -8 -13 -4 -13
4 0 3 -6 -2 -12 -6 -7 -11 -26 -11 -43 0 -16 -14 -70 -30 -120 -38 -114 -48
-160 -33 -151 6 4 11 2 11 -3 0 -6 4 -11 10 -11 8 0 22 35 25 60 0 3 5 19 11
35 22 57 45 182 39 207 -3 13 -1 37 6 53 7 17 11 34 10 38 -1 5 3 6 8 2 6 -3
8 -12 4 -20 -3 -8 -1 -15 5 -15 6 0 9 11 7 25 -1 14 2 28 7 31 5 3 7 13 4 21
-4 8 -1 11 5 8 6 -4 9 -1 8 6 -1 8 9 52 24 99 41 133 74 282 71 325 -1 22 1
54 6 70 10 37 21 105 13 88 -9 -24 -20 -13 -15 17 8 53 -4 32 -17 -32z m-158
-760 l-11 -33 2 42 c0 25 5 38 10 33 5 -6 5 -22 -1 -42z m-23 -83 c-7 -9 -10
-18 -7 -21 3 -3 -1 -24 -9 -46 -7 -22 -11 -44 -8 -49 3 -5 1 -9 -4 -9 -6 0
-12 7 -16 15 -3 8 -1 15 5 15 6 0 9 7 5 15 -3 8 -1 15 4 15 6 0 10 13 10 28 0
15 5 33 12 40 17 17 23 15 8 -3z"/>
<path d="M1580 1439 c0 -13 5 -31 10 -39 7 -11 8 -5 4 20 -8 43 -14 51 -14 19z"/>
<path d="M1595 1371 c-3 -5 -2 -12 3 -15 5 -3 9 1 9 9 0 17 -3 19 -12 6z"/>
<path d="M1630 1085 c0 -14 4 -25 9 -25 4 0 6 11 3 25 -2 14 -6 25 -8 25 -2 0
-4 -11 -4 -25z"/>
<path d="M1620 1039 c0 -5 5 -7 10 -4 6 3 10 8 10 11 0 2 -4 4 -10 4 -5 0 -10
-5 -10 -11z"/>
<path d="M1652 1015 c-1 -23 4 -38 16 -44 10 -6 12 -11 5 -11 -8 0 -12 -12
-12 -27 2 -25 2 -26 6 -5 3 13 10 22 16 19 8 -3 12 7 13 27 1 17 0 23 -3 14
-7 -29 -31 -9 -27 22 3 15 1 31 -4 34 -5 3 -9 -10 -10 -29z"/>
<path d="M1630 981 c0 -6 4 -13 10 -16 6 -3 7 1 4 9 -7 18 -14 21 -14 7z"/>
<path d="M1663 865 c11 -36 27 -47 27 -19 0 8 5 12 10 9 6 -3 10 -21 10 -39 0
-22 5 -33 15 -33 8 0 15 9 15 19 0 12 -4 16 -12 12 -8 -5 -9 -2 -5 9 3 9 2 19
-4 22 -5 4 -7 11 -4 16 4 5 0 9 -8 9 -8 0 -17 7 -21 15 -3 8 -12 15 -20 15
-12 0 -12 -6 -3 -35z m22 5 c3 -5 1 -10 -4 -10 -6 0 -11 5 -11 10 0 6 2 10 4
10 3 0 8 -4 11 -10z"/>
<path d="M2140 879 c0 -5 5 -7 10 -4 6 3 10 8 10 11 0 2 -4 4 -10 4 -5 0 -10
-5 -10 -11z"/>
<path d="M2166 795 c-9 -26 -7 -32 5 -12 6 10 9 21 6 23 -2 3 -7 -2 -11 -11z"/>
</g>
</svg>
