<?xml version="1.0" standalone="no"?>
<!DOCTYPE svg PUBLIC "-//W3C//DTD SVG 1.1//EN" "http://www.w3.org/Graphics/SVG/1.1/DTD/svg11.dtd" >
<svg xmlns="http://www.w3.org/2000/svg" xmlns:xlink="http://www.w3.org/1999/xlink" version="1.1">
<metadata></metadata>
<defs>
<font id="the_seasonsbold" horiz-adv-x="747" >
<font-face units-per-em="2048" ascent="1638" descent="-410" />
<missing-glyph horiz-adv-x="409" />
<glyph horiz-adv-x="0" />
<glyph horiz-adv-x="682" />
<glyph unicode=" "  horiz-adv-x="409" />
<glyph unicode="&#x09;" horiz-adv-x="409" />
<glyph unicode="&#xa0;" horiz-adv-x="409" />
<glyph unicode="!" horiz-adv-x="464" d="M221 326l-129 962l236 139l12 -8l-90 -1093h-29zM113 111q0 51 35 86.5t85 35.5t84.5 -35.5t34.5 -86.5t-35 -88t-84 -37t-84.5 37t-35.5 88z" />
<glyph unicode="&#x22;" horiz-adv-x="606" d="M78 1296q-12 67 10.5 109.5t71.5 42.5t71.5 -42.5t10.5 -109.5l-74 -374h-16zM365 1296q-12 67 10 109.5t71 42.5t71.5 -42.5t10.5 -109.5l-73 -374h-17z" />
<glyph unicode="#" horiz-adv-x="1656" d="M1067 -2v442h-487v-442h-37v442h-437v29h437v500h-437v28h437v437h37v-437h487v437h37v-437h438v-28h-438v-500h438v-29h-438v-442h-37zM580 469h487v500h-487v-500z" />
<glyph unicode="$" horiz-adv-x="1105" d="M547 -20q-121 0 -238.5 29t-179.5 81l-25 350l27 2q61 -221 157.5 -318t258.5 -106v566q-177 87 -234 123q-173 107 -213 239q-14 46 -14 96q0 73 29 141t84 124.5t145 94t203 44.5v192h37v-190h18q211 0 363 -86l22 -260l-22 -4q-48 114 -110 183.5t-126 96.5t-145 31 v-571q181 -85 247 -127q171 -109 196 -250q5 -27 5 -55q0 -181 -123.5 -298t-324.5 -128v-246h-37v246zM244 1169q0 -54 23 -100t69 -84.5t93.5 -66.5t117.5 -62v553q-149 -1 -226 -72t-77 -168zM584 18q76 0 132.5 22.5t87 60.5t44.5 80t14 89q0 49 -20.5 91.5t-63 79 t-86 63.5t-108.5 61v-547z" />
<glyph unicode="%" horiz-adv-x="1591" d="M186 -10l-20 20l1218 1434l21 -21zM35 1063q0 89 34.5 162.5t91.5 120t125.5 71.5t139.5 25q91 0 170.5 -37t132.5 -113.5t53 -177.5q0 -78 -24 -144.5t-63 -111t-90 -76t-103.5 -45.5t-104.5 -14q-65 0 -128.5 22t-116 62.5t-85 107t-32.5 148.5zM166 1178 q0 -168 89 -288t210 -120q90 0 137 60.5t47 177.5q0 99 -36 189t-102.5 148t-145.5 58q-84 0 -141.5 -59.5t-57.5 -165.5zM813 319q0 89 34.5 162.5t91.5 120t125.5 71.5t139.5 25q67 0 130 -22t114 -62t82 -103.5t31 -139.5q0 -78 -24 -144.5t-63 -111t-90 -76 t-103.5 -45.5t-104.5 -14q-66 0 -129 21.5t-116 62t-85.5 107t-32.5 148.5zM944 434q0 -168 89 -287.5t210 -119.5q90 0 137 60.5t47 176.5q0 99 -36 189t-102.5 148t-145.5 58q-84 0 -141.5 -59.5t-57.5 -165.5z" />
<glyph unicode="&#x26;" horiz-adv-x="1761" d="M1307 -14q-157 0 -433 266q-69 -124 -173.5 -198t-231.5 -74q-96 0 -175.5 37.5t-129 97.5t-76.5 131.5t-27 142.5q0 139 97 245t270 171q-96 169 -96 297q0 40 13 83.5t46.5 91.5t82.5 85t129.5 61.5t180.5 24.5q73 0 156.5 -15.5t144.5 -50.5l23 -260l-23 -4 q-39 90 -85 151t-94 89.5t-88 39.5t-85 11q-60 0 -105.5 -20.5t-69.5 -52.5t-35 -64.5t-11 -63.5q0 -115 92 -267.5t252 -338.5q182 -207 365 -356.5t266 -149.5q102 0 102 301q0 66 -14.5 142.5t-43 134t-61.5 57.5h-458l8 33h758l-9 -33h-237q91 -39 149 -121.5t58 -179.5 q0 -88 -61.5 -191.5t-164.5 -178t-206 -74.5zM240 475q0 -66 22.5 -130.5t63 -117.5t105 -85.5t142.5 -32.5q91 0 163 47t116 118q-87 87 -158 172q-171 202 -252 334q-202 -86 -202 -305z" />
<glyph unicode="'" horiz-adv-x="315" d="M78 1296q-12 67 10.5 109.5t71.5 42.5t71.5 -42.5t10.5 -109.5l-74 -374h-16z" />
<glyph unicode="(" horiz-adv-x="819" d="M731 -555q-251 167 -413 473.5t-162 609.5q0 305 165.5 608t448.5 502l14 -18q-124 -90 -216 -217.5t-143.5 -273.5t-76 -295t-24.5 -306q0 -156 22 -302.5t69.5 -290t131.5 -267t198 -207.5z" />
<glyph unicode=")" horiz-adv-x="819" d="M92 -539q114 84 198 207.5t131.5 267t70 290.5t22.5 302q0 157 -24.5 306t-76.5 295t-144 273.5t-216 217.5l15 18q283 -199 448.5 -502t165.5 -608q0 -303 -162.5 -609.5t-413.5 -473.5z" />
<glyph unicode="*" horiz-adv-x="718" d="M354 764q-39 0 -58.5 34t-6.5 85l57 215l-158 -158q-39 -37 -77.5 -37t-59.5 35q-19 33 1 67.5t71 47.5l215 59l-215 59q-51 13 -71 47.5t-1 67.5q21 35 59.5 35t77.5 -37l158 -158l-57 215q-13 51 6.5 85t58.5 34t59 -34t7 -85l-58 -215l158 158q39 37 77.5 37t59.5 -35 q20 -32 0 -67t-71 -48l-215 -59l215 -59q51 -13 71 -48t0 -67q-21 -35 -59.5 -35t-77.5 37l-158 158l58 -215q13 -51 -7 -85t-59 -34z" />
<glyph unicode="+" horiz-adv-x="1142" d="M553 319v347h-350l14 32h336v334l33 15v-349h344l-15 -32h-329v-332z" />
<glyph unicode="," horiz-adv-x="493" d="M102 -283q75 36 119.5 113t50.5 162q-32 -8 -51 -8q-50 0 -82.5 32.5t-32.5 81.5q0 59 34.5 97t92.5 38q68 0 108 -43t40 -129q0 -117 -84.5 -223t-183.5 -141z" />
<glyph unicode="-" d="M106 494v32h535v-32h-535z" />
<glyph unicode="." horiz-adv-x="464" d="M233 -14q-49 0 -84.5 37t-35.5 88t35 86.5t85 35.5t84.5 -35.5t34.5 -86.5t-35 -88t-84 -37z" />
<glyph unicode="/" horiz-adv-x="800" d="M-43 -559l-31 12l918 2192l30 -13z" />
<glyph unicode="0" horiz-adv-x="1409" d="M707 -20q-88 0 -175.5 28t-171 88t-147.5 145.5t-102.5 210t-38.5 271.5q0 133 36 250.5t97.5 203t142 147.5t171 93t183.5 31q88 0 175.5 -28t171 -88t147.5 -145.5t102.5 -210t38.5 -271.5q0 -133 -36 -250.5t-97.5 -203t-142 -147.5t-171 -93t-183.5 -31zM283 846 q0 -150 35.5 -296t99 -264t161 -190.5t212.5 -72.5q157 0 246 151t89 406q0 151 -35 297.5t-98.5 264.5t-161.5 190.5t-213 72.5q-155 0 -245 -152.5t-90 -406.5z" />
<glyph unicode="1" horiz-adv-x="653" d="M127 0v29q59 17 78.5 66.5t19.5 164.5v977l-180 -76l-4 15l385 268h16v-1184q0 -115 20 -164.5t79 -66.5v-29h-414z" />
<glyph unicode="2" horiz-adv-x="1038" d="M2 29q101 97 180 179t175.5 197.5t160.5 216.5t108 217t44 216q0 52 -13 97.5t-41 83t-76.5 59.5t-113.5 22q-157 0 -281 -135l-18 18q99 124 205.5 186t238.5 62q142 0 237.5 -90.5t96.5 -249.5q0 -70 -23.5 -145.5t-57.5 -139.5t-94 -140t-109 -129.5t-126.5 -126 t-122.5 -112t-121 -103.5q-37 -31 -54 -46h450q104 0 156.5 9.5t78.5 32t46 71.5l22 -3l-30 -276h-918v29z" />
<glyph unicode="3" horiz-adv-x="954" d="M39 -266q147 75 266.5 178t193.5 209t113 208.5t39 188.5q0 81 -18.5 139t-51.5 90.5t-73.5 47t-89.5 14.5q-62 0 -129 -37l-10 23q140 69 212 152.5t72 193.5q0 84 -55.5 132t-151.5 48q-161 0 -288 -139l-19 18q102 123 206.5 185.5t233.5 62.5q123 0 198 -69.5 t75 -166.5q0 -67 -24 -122t-73 -100t-105.5 -79t-139.5 -73q54 14 117 14q44 0 89 -8.5t92 -30.5t83 -54.5t59 -86t23 -119.5q0 -100 -45 -198t-117.5 -180.5t-184 -168t-224.5 -154.5t-259 -147z" />
<glyph unicode="4" horiz-adv-x="1048" d="M31 362l-11 21l768 1065h39v-942h193l2 -4l-14 -109q-2 -28 -50 -28h-131v-105q0 -115 16.5 -164.5t65.5 -66.5v-29h-377v29q49 17 65.5 66.5t16.5 164.5v102h-583zM152 506h462v645z" />
<glyph unicode="5" horiz-adv-x="985" d="M35 -262q121 78 225 168t191.5 193.5t137.5 219.5t50 228q0 129 -82 194.5t-225 63.5q-33 -1 -69.5 -5t-57 -8t-52.5 -10.5t-36 -7.5l-21 14l111 646h315q129 0 192 33t91 100l26 -13q-14 -32 -23.5 -52t-28.5 -53t-37 -54t-47.5 -47t-61 -40.5t-75 -25t-93.5 -10.5h-254 l-53 -330q116 35 270 35q94 0 170 -22t124.5 -57t81.5 -82.5t46.5 -96t13.5 -98.5q0 -229 -202.5 -448t-606.5 -462z" />
<glyph unicode="6" horiz-adv-x="1101" d="M557 -20q-215 0 -350 151t-135 404q0 121 45.5 258.5t133.5 282t235 289.5t333 261l19 -27q-122 -78 -216.5 -177t-152 -203t-90.5 -197t-51 -191q149 107 313 107q180 0 289.5 -118.5t109.5 -325.5q0 -105 -31 -193t-80.5 -146t-114 -98.5t-129.5 -58.5t-128 -18z M305 592q0 -116 18.5 -217.5t54 -182t94.5 -127.5t134 -47q116 0 172 93t56 254q0 233 -76.5 360t-227.5 127q-111 0 -211 -61q-14 -93 -14 -199z" />
<glyph unicode="7" horiz-adv-x="837" d="M166 0q0 187 135 483q47 103 116.5 231t170.5 301t145 253l-454 6q-83 3 -130 1t-71 -21.5t-49 -77.5l-25 2l39 256h813v-17q-136 -239 -239.5 -503t-153.5 -445q-35 -127 -46.5 -255.5t3.5 -213.5h-254z" />
<glyph unicode="8" horiz-adv-x="1079" d="M524 -20q-81 0 -159 21t-144.5 60.5t-107.5 106t-41 149.5q0 233 276 418q-95 67 -148 150.5t-53 199.5q0 63 28.5 127t79.5 117t130.5 86t173.5 33q162 0 261.5 -83t99.5 -200q0 -191 -242 -360q62 -35 100.5 -59.5t87 -62.5t76 -73.5t47 -84t19.5 -101.5 q0 -197 -139 -320.5t-345 -123.5zM279 410q0 -103 27.5 -180.5t74 -120.5t98.5 -63.5t109 -20.5q65 0 116 22.5t80 59.5t43.5 79.5t14.5 87.5q0 55 -21.5 103.5t-53 83t-82.5 70.5t-96 61t-108 60.5t-104 62.5q-98 -98 -98 -305zM303 1198q0 -37 10 -71t25.5 -62t42.5 -56.5 t51.5 -49t63 -46.5t66.5 -42.5t73 -41.5q38 62 63 144.5t25 156.5q0 51 -9 95.5t-30.5 89t-66 70.5t-107.5 26q-100 0 -153.5 -61.5t-53.5 -151.5z" />
<glyph unicode="9" horiz-adv-x="1101" d="M545 1448q215 0 350 -151t135 -404q0 -121 -45.5 -259t-133.5 -282.5t-235 -289.5t-333 -261l-19 27q122 78 216.5 177t152 203t90.5 197t51 191q-149 -107 -313 -107q-180 0 -290 119t-110 326q0 105 31 193t81 146t114 98.5t129.5 58.5t128.5 18zM268 1063 q0 -234 76 -361t227 -127q110 0 211 62q15 100 15 199q0 116 -18.5 217t-54 182t-94.5 127.5t-134 46.5q-116 0 -172 -92.5t-56 -253.5z" />
<glyph unicode=":" horiz-adv-x="354" d="M233 -14q-49 0 -84.5 37t-35.5 88t35 86.5t85 35.5t84.5 -35.5t34.5 -86.5t-35 -88t-84 -37zM113 786q0 51 35 87t85 36q49 0 84 -36t35 -87t-35 -87.5t-84 -36.5t-84.5 36.5t-35.5 87.5z" />
<glyph unicode=";" horiz-adv-x="354" d="M125 -283q75 36 119.5 113t50.5 162q-32 -8 -51 -8q-50 0 -82.5 32.5t-32.5 81.5q0 59 34.5 97t92.5 38q68 0 107.5 -43t39.5 -129q0 -117 -84.5 -223t-183.5 -141zM113 786q0 51 35 87t85 36q49 0 84 -36t35 -87t-35 -87.5t-84 -36.5t-84.5 36.5t-35.5 87.5z" />
<glyph unicode="&#x3c;" horiz-adv-x="1142" d="M887 397l-602 269v41l602 268l12 -29l-575 -260l575 -260z" />
<glyph unicode="=" horiz-adv-x="1142" d="M203 825l14 33h713l-15 -33h-712zM203 498l14 32h713l-15 -32h-712z" />
<glyph unicode="&#x3e;" horiz-adv-x="1142" d="M297 397l-12 29l575 260l-575 260l12 29l602 -268v-41z" />
<glyph unicode="?" horiz-adv-x="802" d="M293 311l-12 6l-2 410q148 74 214 178.5t66 212.5q0 107 -59 168.5t-156 61.5q-90 0 -168 -54t-127 -153l-29 14q61 126 172 209.5t259 83.5q133 0 222 -73.5t89 -205.5q0 -242 -309 -389l12 -397zM248 111q0 51 35.5 86.5t85.5 35.5q49 0 83.5 -35.5t34.5 -86.5 t-34.5 -88t-83.5 -37t-85 37t-36 88z" />
<glyph unicode="@" horiz-adv-x="1974" d="M688 -406q-94 0 -178.5 14.5t-168.5 52.5t-144.5 96.5t-98 154.5t-37.5 219q0 129 50 269.5t135.5 268.5t205 244t252.5 201.5t285 135.5t297 50q132 0 239.5 -27.5t178 -72.5t119 -105.5t69.5 -123.5t21 -129q0 -132 -54.5 -265.5t-142.5 -238.5t-192.5 -188t-211 -128 t-192.5 -45q-59 0 -90 35t-31 84q0 128 160 486q-62 -94 -115 -168.5t-120 -158.5t-123 -139.5t-115 -92.5t-106 -37q-60 0 -102 61t-42 137q0 78 31.5 173.5t84 189t124.5 183t150.5 157.5t165 109.5t163.5 41.5q48 0 104.5 -29t98.5 -89l94 116l21 -10q-38 -64 -84 -158 v-2l-3 -2q-67 -128 -145 -323q-131 -312 -131 -416q0 -17 1.5 -27t8 -28t25 -27.5t47.5 -9.5q94 0 181.5 51t150.5 133t111 183t72 204.5t24 194.5q0 70 -10 128t-41.5 120.5t-83.5 105.5t-142.5 70.5t-212.5 27.5q-144 0 -281 -46.5t-247 -126t-203.5 -186.5t-156 -226.5 t-97.5 -246.5t-35 -247q0 -95 20 -173.5t52.5 -131t78.5 -92t92.5 -61.5t100.5 -36t95.5 -18t84.5 -4q188 0 382.5 76.5t340.5 195.5l13 -18q-63 -52 -143 -103t-183.5 -101t-226.5 -81t-240 -31zM635 209q0 -123 59 -123q35 0 106 72t156 187.5t154 216t133 200.5l2 6 q-40 86 -92.5 143t-126.5 56q-73 -1 -147 -86t-126 -204.5t-85 -248t-33 -219.5z" />
<glyph unicode="A" horiz-adv-x="1316" d="M-43 0v29q102 38 172 213l383 950q22 57 -4 111l-27 57l201 90l508 -1210q71 -168 158 -211v-29h-373v29q23 8 33 19.5t5 37.5t-13 47.5t-30 73.5q-9 21 -14 33l-122 295h-547l-119 -293q-40 -103 -33 -152t60 -61v-29h-238zM299 567h520l-264 633z" />
<glyph unicode="B" horiz-adv-x="1294" d="M96 0v29q49 17 65.5 66.5t16.5 164.5v914q0 115 -16.5 164.5t-65.5 66.5v29h506q242 0 350.5 -70t108.5 -201q0 -114 -82 -196.5t-264 -114.5q246 -7 378 -109t134 -262q1 -74 -21 -142t-74 -130.5t-130 -108.5t-196.5 -73t-264.5 -27h-445zM395 211q0 -110 20.5 -144 t86.5 -34h57q213 0 318.5 101t105.5 272q0 193 -110.5 306t-331.5 113h-146v-614zM395 858h183q109 0 174 73.5t65 184.5q0 134 -90 209.5t-248 75.5h-84v-543z" />
<glyph unicode="C" horiz-adv-x="1538" d="M901 -20q-370 0 -580 185.5t-210 526.5q0 155 59.5 293t166 240.5t263 162.5t340.5 60q130 0 262.5 -25t206.5 -75l8 -271l-24 -6q-62 155 -203 246.5t-303 91.5q-124 0 -226 -41t-176.5 -118.5t-115.5 -196.5t-41 -269q0 -119 27 -231t81 -208t129 -168t177 -113 t219 -41q167 0 285 93.5t175 258.5l27 -4l-33 -293q-218 -98 -514 -98z" />
<glyph unicode="D" horiz-adv-x="1497" d="M96 0v29q49 17 65.5 66.5t16.5 164.5v914q0 115 -16.5 164.5t-65.5 66.5v29h512q170 0 307 -43t224 -112.5t146 -161.5t83 -184.5t25 -187.5q1 -220 -89.5 -389t-259 -262.5t-391.5 -93.5h-557zM395 182q0 -79 26.5 -114t106.5 -35h111q255 0 383.5 146t128.5 466 q0 160 -42 295.5t-123 239.5t-211.5 162.5t-297.5 58.5h-82v-1219z" />
<glyph unicode="E" horiz-adv-x="1218" d="M96 0v29q49 17 65.5 66.5t16.5 164.5v914q0 115 -16.5 164.5t-65.5 66.5v29h983l23 -289l-27 -6q-60 147 -161.5 204.5t-278.5 57.5h-240v-615h197q123 0 196 17.5t106.5 50t51.5 88.5h29v-344h-29q-18 56 -51.5 88.5t-106.5 50t-196 17.5h-197v-619q0 -49 26.5 -75.5 t76.5 -26.5h196q164 0 267 60t159 210l27 -4l-14 -299h-1037z" />
<glyph unicode="F" horiz-adv-x="1148" d="M96 0v29q49 17 65.5 66.5t16.5 164.5v914q0 115 -16.5 164.5t-65.5 66.5v29h989l15 -228l-27 -6q-58 109 -139.5 153t-231.5 44h-307v-594h166q123 0 196 17.5t106.5 49.5t51.5 88h29v-348h-29q-18 56 -51.5 88.5t-106.5 50t-196 17.5h-166v-506q0 -115 16.5 -164.5 t65.5 -66.5v-29h-381z" />
<glyph unicode="G" horiz-adv-x="1544" d="M883 -20q-352 0 -562 202.5t-210 540.5q0 147 56 279t155.5 231t244.5 157t314 58q112 0 241.5 -25.5t202.5 -74.5l8 -271l-24 -6q-61 154 -203.5 246t-300.5 92q-102 0 -187.5 -34.5t-150.5 -101.5t-102.5 -173t-38.5 -242q-1 -117 25 -235t80 -224.5t128 -189 t175.5 -131.5t215.5 -49q100 0 180 40t117 115v187q0 123 -21 173t-85 68v29h317v-377q-73 -95 -179.5 -161.5t-205.5 -94.5t-190 -28z" />
<glyph unicode="H" horiz-adv-x="1503" d="M96 0v29q49 17 65.5 66.5t16.5 164.5v914q0 115 -16.5 164.5t-65.5 66.5v29h381v-29q-49 -17 -65.5 -66.5t-16.5 -164.5v-396h713v396q0 115 -16.5 164.5t-65.5 66.5v29h381v-29q-49 -17 -65.5 -66.5t-16.5 -164.5v-914q0 -115 16.5 -164.5t65.5 -66.5v-29h-381v29 q49 17 65.5 66.5t16.5 164.5v481h-713v-481q0 -115 16.5 -164.5t65.5 -66.5v-29h-381z" />
<glyph unicode="I" horiz-adv-x="573" d="M96 0v29q49 17 65.5 66.5t16.5 164.5v914q0 115 -16.5 164.5t-65.5 66.5v29h381v-29q-49 -17 -65.5 -66.5t-16.5 -164.5v-914q0 -115 16.5 -164.5t65.5 -66.5v-29h-381z" />
<glyph unicode="J" horiz-adv-x="581" d="M-162 -246q-52 0 -75 11t-23 45q0 41 35.5 75.5t93.5 34.5q14 0 28.5 -1t26 -2.5t33.5 -6t35.5 -7.5t48.5 -10t57 -12q19 13 31.5 27t27.5 42.5t23 79t8 120.5v1024q0 115 -16.5 164.5t-65.5 66.5v29h379v-29q-49 -17 -65.5 -66.5t-16.5 -164.5v-676q0 -157 -47 -297 t-125 -237t-180.5 -153.5t-212.5 -56.5z" />
<glyph unicode="K" horiz-adv-x="1320" d="M96 0v29q49 17 65.5 66.5t16.5 164.5v914q0 115 -16.5 164.5t-65.5 66.5v29h381v-29q-49 -17 -65.5 -66.5t-16.5 -164.5v-482l498 510q186 189 49 211v21h322v-29q-54 -15 -88.5 -28t-89.5 -47t-103 -83l-436 -446l51 2q116 6 188 -9.5t127.5 -72.5t90 -125t88.5 -207 q64 -164 96.5 -234.5t58.5 -98t60 -27.5q18 0 30 2v-31q-55 -14 -139 -14q-27 0 -47 1t-39.5 7t-33 10t-29.5 19t-26 24.5t-25 35.5t-24.5 44t-27 57.5t-29 68t-34.5 83.5q-14 35 -35.5 88t-31.5 79t-27 65t-27 57t-25.5 44.5t-28 37.5t-30.5 25.5t-36.5 20t-41.5 9.5t-51 4 h-37l-117 -121v-385q0 -115 16.5 -164.5t65.5 -66.5v-29h-381z" />
<glyph unicode="L" horiz-adv-x="1124" d="M96 0v29q49 17 65.5 66.5t16.5 164.5v914q0 115 -16.5 164.5t-65.5 66.5v29h381v-29q-49 -17 -65.5 -66.5t-16.5 -164.5v-1035q0 -49 26.5 -75.5t76.5 -26.5h168q159 0 247 48t148 177l26 -4l-16 -258h-975z" />
<glyph unicode="M" horiz-adv-x="1710" d="M86 0v29q49 17 65.5 66.5t16.5 164.5v791q0 123 -16 196t-44.5 106.5t-78.5 51.5v29h307l506 -840l481 840h291v-29q-50 -18 -78.5 -51.5t-44.5 -106.5t-16 -196v-791q0 -115 16 -164.5t65 -66.5v-29h-380v29q49 17 65 66.5t16 164.5v991l-491 -862h-47l-514 844v-850 q0 -123 17.5 -196t49.5 -106.5t88 -51.5v-29h-274z" />
<glyph unicode="N" horiz-adv-x="1355" d="M1176 -16l-961 1212v-813q0 -123 17.5 -196t50 -106.5t88.5 -51.5v-29h-275v29q49 17 65.5 66.5t16.5 164.5v914q0 115 -21 164.5t-85 66.5v29h231l860 -1078v695q0 123 -17.5 196t-49.5 106.5t-88 51.5v29h276v-29q-49 -17 -65.5 -66.5t-16.5 -164.5v-1190h-26z" />
<glyph unicode="O" horiz-adv-x="1679" d="M844 -20q-107 0 -210 27.5t-198 87t-167 144.5t-115 210t-43 274q0 151 54 284.5t149 231.5t232.5 154.5t297.5 56.5q106 0 209 -28t197.5 -88t166.5 -145.5t115 -208.5t43 -269q0 -145 -43 -267.5t-115 -206.5t-167 -143t-198 -86.5t-208 -27.5zM324 848 q9 -122 43.5 -240.5t93 -220t133.5 -179t170 -121.5t197 -44q91 0 164 27t120 73.5t77 111t41 138t5 156.5q-16 221 -97 412.5t-222 313.5t-312 122q-208 0 -319 -149.5t-94 -399.5z" />
<glyph unicode="P" horiz-adv-x="1144" d="M96 0v29q49 17 65.5 66.5t16.5 164.5v914q0 115 -16.5 164.5t-65.5 66.5v29h430q113 0 204.5 -17.5t152.5 -49t105 -70t67.5 -85t34 -89t10.5 -87.5q0 -98 -36 -182t-107.5 -150t-189.5 -103.5t-271 -37.5h-101v-303q0 -115 16.5 -164.5t65.5 -66.5v-29h-381zM395 596h90 q194 0 288.5 103t94.5 284q0 57 -11 111.5t-40 111.5t-73.5 99t-118 69t-166.5 27q-36 0 -64 -4v-801z" />
<glyph unicode="Q" horiz-adv-x="1679" d="M1421 -387q-65 0 -130 33t-126 94.5t-105.5 116.5t-96.5 131q-55 -8 -119 -8q-107 0 -210 27.5t-198 87t-167 144.5t-115 210t-43 274q0 151 54 284.5t149 231.5t232.5 154.5t297.5 56.5q106 0 209 -28t197.5 -88t166.5 -145.5t115 -208.5t43 -269q0 -123 -31 -230 t-84.5 -186.5t-127 -141.5t-155.5 -100t-173 -57q140 -108 255 -162.5t234 -54.5q142 0 219 80l19 -17q-33 -41 -43.5 -53.5t-39.5 -45.5t-42.5 -44.5t-40 -33.5t-46 -29.5t-45.5 -15t-53 -7.5zM324 848q9 -122 43.5 -240.5t93 -220t133.5 -179t170 -121.5t197 -44 q91 0 164 27t120 73.5t77 111t41 138t5 156.5q-16 221 -97 412.5t-222 313.5t-312 122q-208 0 -319 -149.5t-94 -399.5z" />
<glyph unicode="R" horiz-adv-x="1265" d="M1139 -14q-50 0 -88 15.5t-63 34t-55 72t-46 90t-53 126.5q-3 8 -5 12q-16 39 -37 92t-31.5 80t-27 64t-27 54.5t-26.5 40t-30.5 32t-35.5 20t-44.5 13.5t-53.5 3h-121v-475q0 -115 16.5 -164.5t65.5 -66.5v-29h-381v29q49 17 65.5 66.5t16.5 164.5v914 q0 115 -16.5 164.5t-65.5 66.5v29h430q129 0 226.5 -18.5t156 -48.5t94.5 -74t49 -88.5t13 -98.5q0 -146 -101.5 -242.5t-299.5 -120.5q44 -5 78.5 -13t64 -22.5t51.5 -29t44.5 -42t37.5 -50.5t35.5 -66t35 -77.5t38.5 -94.5q86 -215 118.5 -268t87.5 -53q21 0 31 2v-29 q-55 -14 -147 -14zM395 768h131q165 0 243.5 80t78.5 209q0 65 -21.5 124.5t-63.5 109.5t-114 80t-164 30q-43 0 -90 -6v-627z" />
<glyph unicode="S" horiz-adv-x="1132" d="M586 -20q-151 0 -287 41.5t-219 103.5l-8 307l26 4q68 -186 207 -299.5t334 -113.5q112 0 192 69t80 189q0 54 -26.5 102.5t-66.5 83.5t-95.5 66.5t-106 53t-104.5 43.5q-7 2 -10.5 3.5t-9 3.5t-9.5 4q-165 69 -226 108q-128 81 -154 209q-7 36 -7 78q0 190 142.5 301 t384.5 111q221 0 393 -86l8 -266l-23 -9q-62 156 -183.5 241t-272.5 85q-127 0 -210 -70t-83 -188q0 -36 11.5 -68.5t28 -57t47.5 -49.5t55 -41t66.5 -36t67 -30.5t70.5 -28.5q17 -7 25 -10q185 -71 263 -118q189 -123 193 -300q0 -82 -28.5 -153t-77 -122t-112 -88 t-134 -55t-141.5 -18z" />
<glyph unicode="T" horiz-adv-x="1146" d="M385 0v29q49 17 65.5 66.5t16.5 164.5v1137h-64q-138 0 -216 -47t-134 -168l-24 4l12 248h1067l12 -248l-24 -4q-56 121 -134.5 168t-216.5 47h-59v-1137q0 -115 16.5 -164.5t65.5 -66.5v-29h-383z" />
<glyph unicode="U" horiz-adv-x="1406" d="M756 -20q-93 0 -176 17.5t-161.5 59.5t-135 106.5t-91 165t-34.5 228.5v617q0 115 -16.5 164.5t-65.5 66.5v29h381v-29q-49 -17 -65.5 -66.5t-16.5 -164.5v-633q0 -512 463 -512q45 0 89 11.5t89.5 35.5t83.5 66t68.5 98t47.5 136.5t17 176.5v498q0 123 -17.5 196 t-50 106.5t-88.5 51.5v29h275v-29q-49 -17 -65.5 -66.5t-16.5 -164.5v-617q0 -151 -38 -263.5t-107.5 -180t-161.5 -100.5t-207 -33z" />
<glyph unicode="V" horiz-adv-x="1327" d="M145 1192q-66 170 -153 213v29h377v-29q-23 -8 -33 -21t-7 -36.5t12.5 -51t27.5 -74.5l12 -30l377 -956l370 956q39 103 31 152t-61 61v29h237v-29q-49 -19 -89.5 -67.5t-78.5 -145.5l-462 -1192h-78z" />
<glyph unicode="W" horiz-adv-x="1910" d="M748 1192q-68 170 -156 213v29h371v-29q-23 -8 -32.5 -20t-6.5 -36t12.5 -49.5t28.5 -73.5q9 -22 14 -34l100 -244l90 242q37 103 28.5 153t-62.5 62v29h237v-29q-48 -18 -88 -67.5t-78 -147.5l-108 -291l262 -637l338 928q37 103 28 153t-63 62v29h238v-29 q-49 -18 -88 -67.5t-74 -147.5l-432 -1190h-74l-270 662l-269 -662h-78l-454 1190q-63 173 -150 215v29h371v-29q-19 -6 -28 -16.5t-12 -23t3 -36.5t13.5 -45.5t23.5 -62.5q8 -20 12 -31l359 -932l188 457z" />
<glyph unicode="X" horiz-adv-x="1173" d="M827 0v29q40 14 32 46q-5 21 -59 107q-15 23 -26 41l-262 436l-295 -442q-60 -92 -55 -134t74 -54v-29h-265v29q49 16 97 58.5t106 129.5l318 477l-312 516q-97 158 -180 195v29h381v-29q-41 -14 -32 -47q5 -22 60 -109q15 -22 25 -39l221 -366l248 373q60 92 55.5 134 t-73.5 54v29h264v-29q-49 -16 -97 -58.5t-106 -129.5l-270 -408l352 -586q96 -157 180 -194v-29h-381z" />
<glyph unicode="Y" horiz-adv-x="1153" d="M377 0v29q49 17 65.5 66.5t16.5 164.5l-2 397l-303 549q-81 149 -183 199v29h383v-29q-22 -7 -30.5 -17t-2.5 -31.5t15 -39t34 -60.5q6 -10 9.5 -16t9 -16t10.5 -19l271 -487l276 487q53 97 47.5 142t-69.5 57v29h264v-29q-114 -43 -201 -199l-309 -551v-395 q0 -115 16.5 -164.5t65.5 -66.5v-29h-383z" />
<glyph unicode="Z" horiz-adv-x="1073" d="M33 0v31l725 1366h-271q-159 0 -248 -60t-149 -219h-27l39 316h914v-31l-735 -1366h325q160 0 249 59.5t149 218.5h26l-39 -315h-958z" />
<glyph unicode="[" horiz-adv-x="757" d="M199 -551v2189h516v-24h-371v-2140h371v-25h-516z" />
<glyph unicode="\" horiz-adv-x="729" d="M815 -559l-917 2191l30 13l918 -2192z" />
<glyph unicode="]" horiz-adv-x="755" d="M559 -551h-516v25h371v2140h-371v24h516v-2189z" />
<glyph unicode="^" horiz-adv-x="811" d="M182 956l-28 17l227 461h37l227 -461l-29 -17l-217 441z" />
<glyph unicode="_" horiz-adv-x="1024" d="M-57 -195v33h1149v-33h-1149z" />
<glyph unicode="a" horiz-adv-x="1085" d="M840 0q-82 0 -82 82v338q-46 -190 -156 -315t-262 -125q-119 0 -199 71.5t-80 196.5q0 61 25.5 112t65 86.5t105 67.5t125.5 52.5t148 45.5l228 66q-3 145 -74 212.5t-192 67.5q-187 0 -332 -174l-21 19q90 110 207 172.5t252 62.5q365 0 365 -383v-395q0 -115 16 -164.5 t65 -66.5v-29h-204zM252 319q0 -94 56 -142t134 -48q58 0 109.5 31t88 80.5t64 111.5t40.5 125t14 119v53l-219 -63q-36 -10 -67.5 -22t-74 -35t-72.5 -50.5t-51.5 -69.5t-21.5 -90z" />
<glyph unicode="b" horiz-adv-x="1232" d="M594 -18q-107 0 -201 42t-153 109l-84 -133h-23v1346q0 58 -11 91.5t-26 45.5t-45 26v29l271 119l20 -17v-722q185 120 340 120q140 0 248.5 -71t163.5 -182t55 -240q0 -157 -67 -284.5t-194.5 -203t-293.5 -75.5zM342 360q0 -78 50 -156.5t128 -128.5t154 -50 q63 0 111.5 20.5t79 54t49.5 81.5t26.5 98.5t7.5 109.5q0 50 -8 106.5t-25 122t-48.5 124.5t-72.5 107.5t-102.5 77.5t-134.5 29q-103 0 -215 -71v-525z" />
<glyph unicode="c" horiz-adv-x="1081" d="M549 -20q-95 0 -182 33t-155 94t-108.5 156t-40.5 210q0 125 46 232.5t123 179.5t176.5 112.5t207.5 40.5q158 0 263.5 -35.5t105.5 -80.5q0 -47 -46.5 -90.5t-92.5 -43.5q-43 0 -116 51.5t-191 164.5q-131 -20 -212 -134.5t-81 -265.5q0 -203 115.5 -331t308.5 -128 q209 0 354 162l18 -20q-39 -59 -84.5 -109t-106.5 -97t-139 -74t-163 -27z" />
<glyph unicode="d" horiz-adv-x="1181" d="M500 -25q-126 2 -227.5 73.5t-155.5 184t-54 240.5q0 157 67.5 284t199.5 203t305 76q119 0 219 -51v361q0 58 -11 91.5t-26 45.5t-45 26v29l270 119l21 -17v-1380q0 -115 16.5 -164.5t65.5 -66.5v-29h-209q-82 0 -82 82v86q-171 -198 -354 -193zM264 639q0 -53 6.5 -108 t21.5 -118.5t43 -117.5t66.5 -99.5t96.5 -71.5t129 -26q121 0 227 113v453q0 76 -39.5 152t-111.5 126.5t-154 50.5q-65 0 -116 -21.5t-82 -56t-51 -82t-28 -95t-8 -99.5z" />
<glyph unicode="e" horiz-adv-x="1093" d="M549 -20q-69 0 -137.5 19t-131.5 59.5t-111 97.5t-77 139t-29 178q0 101 30.5 192t83 158t121 116t146.5 74t158 25q100 0 182 -32.5t134 -85t80 -117.5t28 -133h-776q-4 -46 -4 -66q0 -203 115.5 -331t308.5 -128q209 0 354 162l18 -20q-39 -59 -84.5 -109t-106.5 -97 t-139 -74t-163 -27zM252 698h567q-21 129 -98.5 215.5t-181.5 87.5q-122 1 -194 -85t-93 -218z" />
<glyph unicode="f" horiz-adv-x="645" d="M72 0v29q49 17 65.5 66.5t16.5 164.5v705h-119l10 32h109q7 149 101.5 288t248.5 226.5t321 87.5q146 0 146 -57q0 -39 -45.5 -88t-108.5 -49q-74 0 -146 18t-175 58q-27 -15 -46 -31t-41.5 -48.5t-34.5 -87.5t-12 -130v-187h256l-10 -32h-246v-705q0 -115 16.5 -164.5 t65.5 -66.5v-29h-372z" />
<glyph unicode="g" horiz-adv-x="1093" d="M356 -567q-40 0 -81.5 7t-86 25t-78 45t-55.5 71.5t-22 99.5q0 162 252 313q-138 40 -138 158q0 55 39 100t125 96q-190 91 -190 299q0 160 125 275.5t293 115.5q79 0 149 -18q45 67 109 110q104 74 221 74q51 0 85 -13.5t34 -41.5q0 -36 -36 -80.5t-93 -44.5t-228 57 q-31 -25 -61 -71q106 -35 169.5 -115t63.5 -205q0 -82 -41 -157t-103 -124.5t-133.5 -78.5t-135.5 -29q-111 0 -199 35q-30 -20 -44.5 -37t-14.5 -41q0 -17 8 -29.5t29.5 -26t67 -22t112.5 -12.5l274 -16q167 -10 240 -51.5t73 -145.5q0 -83 -62 -175.5t-160.5 -169 t-234.5 -127t-272 -50.5zM201 -219q0 -115 84.5 -170t216.5 -55q208 0 346.5 87t138.5 199q0 53 -44.5 80t-160.5 33l-329 16q-50 2 -134 15q-118 -85 -118 -205zM311 760q0 -66 16.5 -137.5t48 -137t85.5 -107.5t121 -42q50 0 86.5 19.5t57 54t29.5 75t9 88.5 q0 70 -20.5 147.5t-56.5 145t-93 108t-123 34.5q-160 -18 -160 -248z" />
<glyph unicode="h" horiz-adv-x="1189" d="M41 0v29q49 17 65.5 66.5t16.5 164.5v1086q0 58 -11 91.5t-26 45.5t-45 26v29l270 119l21 -17v-786q226 184 420 184q148 0 231.5 -82.5t83.5 -255.5v-440q0 -115 16.5 -164.5t65.5 -66.5v-29h-373v29q49 17 65.5 66.5t16.5 164.5v404q0 140 -59 216t-172 76 q-70 0 -139 -33.5t-156 -103.5v-559q0 -115 16.5 -164.5t65.5 -66.5v-29h-373z" />
<glyph unicode="i" horiz-adv-x="491" d="M57 0v29q49 17 65.5 66.5t16.5 164.5v471q0 83 -18.5 113.5t-63.5 50.5v29l271 118l20 -16v-766q0 -115 16.5 -164.5t65.5 -66.5v-29h-373zM92 1251q0 60 40 101t99 41q61 0 100.5 -40.5t39.5 -101.5q0 -58 -40.5 -98.5t-99.5 -40.5t-99 40t-40 99z" />
<glyph unicode="j" horiz-adv-x="497" d="M-199 -569q-57 0 -93 14t-36 43q0 36 39 80.5t90 44.5q25 0 61.5 -4.5t58.5 -8.5t78 -15.5t71 -14.5q17 13 30.5 26.5t23 31.5t16.5 30t11 38t6.5 39.5t3.5 48.5t1 51.5v62.5v32v801q0 83 -18.5 113.5t-63.5 50.5v29l270 118l21 -16v-938q0 -103 -50 -220t-128.5 -213.5 t-184 -160t-207.5 -63.5zM106 1251q0 60 40.5 101t99.5 41q61 0 100 -40.5t39 -101.5q0 -59 -40.5 -99t-98.5 -40q-59 0 -99.5 40.5t-40.5 98.5z" />
<glyph unicode="k" horiz-adv-x="1105" d="M61 0v29q49 17 65.5 66.5t16.5 164.5v1086q0 58 -11 91.5t-26 45.5t-45 26v29l271 119l20 -17v-1177l322 319q61 61 89 112t24.5 77.5t-25.5 34.5v18h260v-29q-63 -19 -121.5 -52t-128.5 -103l-131 -131l244 -441q70 -125 122 -182t119 -57v-29h-163q-79 0 -151 57 t-142 189l-170 323l-148 -147v-162q0 -115 16.5 -164.5t65.5 -66.5v-29h-373z" />
<glyph unicode="l" horiz-adv-x="503" d="M61 0v29q49 17 65.5 66.5t16.5 164.5v1086q0 58 -11 91.5t-26 45.5t-45 26v29l271 119l20 -17v-1380q0 -115 16.5 -164.5t65.5 -66.5v-29h-373z" />
<glyph unicode="m" horiz-adv-x="1875" d="M57 0v29q49 17 65.5 66.5t16.5 164.5v471q0 83 -18.5 113.5t-63.5 50.5v29l271 118l20 -16v-172q226 184 420 184q221 0 276 -186q228 186 424 186q145 0 220 -81.5t75 -256.5v-440q0 -115 16.5 -164.5t65.5 -66.5v-29h-372v29q49 17 65 66.5t16 164.5v404 q0 143 -50 217.5t-161 74.5q-69 0 -137.5 -32.5t-154.5 -100.5q12 -55 12 -123v-440q0 -115 16.5 -164.5t65.5 -66.5v-29h-373v29q49 17 65.5 66.5t16.5 164.5v404q0 143 -50 217.5t-161 74.5q-70 0 -139 -33.5t-156 -103.5v-559q0 -115 16.5 -164.5t65.5 -66.5v-29h-373z " />
<glyph unicode="n" horiz-adv-x="1206" d="M57 0v29q49 17 65.5 66.5t16.5 164.5v471q0 83 -18.5 113.5t-63.5 50.5v29l271 118l20 -16v-172q226 184 420 184q148 0 231.5 -82.5t83.5 -255.5v-440q0 -115 16.5 -164.5t65.5 -66.5v-29h-372v29q49 17 65 66.5t16 164.5v404q0 140 -59 216t-172 76q-70 0 -139 -33.5 t-156 -103.5v-559q0 -115 16.5 -164.5t65.5 -66.5v-29h-373z" />
<glyph unicode="o" horiz-adv-x="1239" d="M610 -20q-103 0 -198.5 31t-174.5 90.5t-126.5 159t-47.5 224.5q0 121 46 226t122 175.5t175 111t204 40.5q78 0 154 -18t147.5 -58t125 -98.5t86 -145t32.5 -190.5q0 -126 -51 -232.5t-131.5 -173.5t-175 -104.5t-187.5 -37.5zM268 639q0 -94 27.5 -198.5t77.5 -198.5 t131.5 -155.5t177.5 -61.5q72 0 125.5 29.5t83 80t43.5 110t14 128.5q0 79 -20 167.5t-60 172.5t-92 150.5t-123 104t-147 29.5q-64 -7 -111.5 -38.5t-74.5 -82t-39.5 -109.5t-12.5 -128z" />
<glyph unicode="p" horiz-adv-x="1245" d="M614 -18q-134 0 -252 67v-342q0 -115 16.5 -164.5t65.5 -66.5v-29h-372v29q49 17 65.5 66.5t16.5 164.5v1024q0 83 -18.5 113.5t-63.5 50.5v29l270 118l20 -16v-133q208 145 383 145q188 0 302 -139.5t114 -353.5q0 -117 -38.5 -220t-108.5 -179t-173.5 -120t-226.5 -44z M362 342q0 -51 31 -109.5t78.5 -105t108.5 -77t116 -30.5q273 0 273 369q0 51 -6.5 106t-20.5 121.5t-42 124.5t-67 107t-98.5 77.5t-132.5 28.5q-114 0 -240 -96v-516z" />
<glyph unicode="q" horiz-adv-x="1167" d="M500 -25q-126 2 -227.5 73.5t-155.5 184t-54 240.5q0 157 67.5 284t199.5 203t305 76q187 0 321 -123l95 111h14v-1317q0 -115 16.5 -164.5t65.5 -66.5v-29h-373v29q49 17 65.5 66.5t16.5 164.5v463q-174 -200 -356 -195zM264 639q0 -53 6.5 -108t21.5 -118.5t43 -117.5 t66.5 -99.5t96.5 -71.5t129 -26q123 0 229 115l-2 451q0 57 -24 115.5t-65 106t-99.5 77.5t-122.5 30t-113.5 -21.5t-80 -56t-50.5 -82t-27.5 -95t-7.5 -99.5z" />
<glyph unicode="r" horiz-adv-x="923" d="M57 0v29q49 17 65.5 66.5t16.5 164.5v471q0 83 -18.5 113.5t-63.5 50.5v29l271 118l20 -16v-248q47 110 150 180q115 80 252 80q57 0 94 -15.5t37 -45.5q0 -42 -38.5 -87.5t-101.5 -45.5q-71 0 -266 61q-46 -39 -84.5 -103t-42.5 -134v-408q0 -115 16.5 -164.5 t65.5 -66.5v-29h-373z" />
<glyph unicode="s" horiz-adv-x="917" d="M453 -16q-107 0 -207 27.5t-162 68.5l-21 268l21 4q68 -153 177 -244t241 -92q92 -1 150.5 51.5t58.5 125.5q0 92 -67 141.5t-216 95.5q-92 28 -147 51t-105.5 58.5t-73 84t-22.5 115.5q0 127 101 213t298 86q86 0 172 -14.5t140 -36.5l10 -225l-25 -4 q-55 113 -146 182.5t-200 69.5q-95 0 -154 -44.5t-59 -111.5q0 -80 66.5 -127t220.5 -98q142 -48 191 -74q133 -70 150 -197q3 -21 3 -43q0 -49 -12 -94.5t-41.5 -89t-73.5 -76t-113 -52t-155 -19.5z" />
<glyph unicode="t" horiz-adv-x="729" d="M385 -20q-107 0 -160 73.5t-53 235.5v702h-131v33l307 270h33v-270h317l-8 -33h-309v-704q0 -183 137 -183q99 0 182 103l21 -21q-88 -101 -168.5 -153.5t-167.5 -52.5z" />
<glyph unicode="u" horiz-adv-x="1169" d="M430 -20q-160 0 -233.5 95.5t-73.5 286.5v369q0 83 -18.5 113.5t-63.5 50.5v29l270 118l21 -16v-637q0 -175 39.5 -251.5t152.5 -76.5q137 0 293 156v514q0 83 -18.5 113.5t-63.5 50.5v29l271 118l20 -16v-766q0 -115 16.5 -164.5t65.5 -66.5v-29h-209q-82 0 -82 82v92 q-92 -89 -193 -141.5t-194 -52.5z" />
<glyph unicode="v" horiz-adv-x="978" d="M121 784q-76 180 -146 211v29h351v-29q-24 -8 -33 -21.5t-6 -35t15.5 -53.5t31.5 -75q8 -17 12 -26l244 -575l221 571q25 69 29.5 114t-11 69t-51.5 32v29h219v-29q-45 -15 -79.5 -63t-73.5 -152l-299 -780h-96z" />
<glyph unicode="w" horiz-adv-x="1449" d="M92 774q-31 106 -57 156t-60 65v29h351v-29q-46 -16 -47 -63q0 -35 34 -158l156 -549l274 799h125l271 -791l161 541q29 106 16 157.5t-67 63.5v29h219v-29q-43 -15 -72.5 -64t-60.5 -157l-233 -774h-105l-284 838l-291 -838h-105z" />
<glyph unicode="x" horiz-adv-x="944" d="M612 0v29q40 14 31 44q-7 20 -62 101q-17 24 -30 43l-158 240l-180 -248q-64 -86 -73 -109q-15 -39 29 -56q22 -8 62 -15v-29h-270v29q107 36 213 180l201 274l-213 324q-99 148 -189 188v29h359v-29q-40 -14 -31 -44q7 -20 62 -101q17 -24 30 -43l125 -191l137 195 q61 88 69 111q15 40 -29 58q-22 8 -62 15v29h268v-29q-106 -36 -209 -184l-155 -223l243 -371q99 -148 189 -188v-29h-357z" />
<glyph unicode="y" horiz-adv-x="1034" d="M74 -395q-64 -2 -107 16.5t-43 48.5q0 37 43.5 83t108.5 46q60 0 278 -37q72 78 144 228l-344 794q-69 167 -160 211v29h362v-29q-23 -8 -32 -20t-5.5 -33.5t13.5 -46.5t29 -69q12 -26 18 -40l233 -532l230 530q42 103 36 151t-59 60v29h234v-29q-50 -19 -94 -66.5 t-85 -142.5l-313 -725q-58 -132 -115 -221.5t-117.5 -140t-120.5 -71.5t-134 -23z" />
<glyph unicode="z" horiz-adv-x="868" d="M45 0v23l514 968h-188q-102 0 -168 -52t-117 -185l-25 4l39 266h697v-23l-510 -968h223q114 0 190 68t95 221h22l-8 -322h-764z" />
<glyph unicode="{" horiz-adv-x="911" d="M723 -608q-116 0 -212 40.5t-157 124t-61 197.5q0 62 19 140t42.5 139.5t42.5 132.5t19 121q0 95 -43.5 154t-122.5 59v26q79 0 122.5 59t43.5 154q0 52 -19 123t-42.5 131.5t-42.5 138t-19 140.5q0 85 44.5 155.5t113.5 113.5t145.5 66t146.5 23v-22q-147 -5 -232 -82.5 t-85 -210.5q0 -65 19 -142t42.5 -136.5t42.5 -134.5t19 -136q0 -80 -68.5 -151.5t-163.5 -100.5q99 -31 165.5 -102.5t66.5 -151.5q0 -61 -19 -136.5t-41.5 -135.5t-41.5 -137t-19 -140q0 -147 70.5 -218t226.5 -77z" />
<glyph unicode="|" horiz-adv-x="546" d="M264 -553v2191h37v-2191h-37z" />
<glyph unicode="}" horiz-adv-x="911" d="M195 -584q156 6 226.5 77t70.5 218q0 63 -19 140t-41.5 137t-41.5 135.5t-19 136.5q0 80 66 151.5t165 102.5q-94 29 -162.5 100t-68.5 152q0 61 19 136t42.5 134.5t42.5 136.5t19 142q0 133 -85.5 210.5t-232.5 82.5v22q70 0 146.5 -23t146 -66t114 -113.5t44.5 -155.5 q0 -63 -19 -140.5t-42.5 -138t-42.5 -131.5t-19 -123q0 -95 43.5 -154t122.5 -59v-26q-79 0 -122.5 -59t-43.5 -154q0 -50 19 -121t42.5 -132.5t42.5 -139.5t19 -140q0 -114 -61 -197.5t-157 -124t-212 -40.5z" />
<glyph unicode="~" horiz-adv-x="954" d="M688 633q-51 0 -230 38t-243 38q-74 0 -109 -45l-14 8q10 15 28.5 44.5t28.5 44.5t26.5 36t29.5 31t31.5 18t37.5 8q50 0 225.5 -38t252.5 -38q68 0 98 56l16 -7q-45 -93 -85.5 -143.5t-92.5 -50.5z" />
<glyph unicode="&#xa2;" horiz-adv-x="1083" d="M559 -266v450q-70 2 -139.5 22.5t-134 62t-114 99t-79 141t-29.5 181.5q0 110 40.5 207t108.5 166.5t158 115t189 58.5v401h37v-397q14 2 43 2q172 0 275.5 -49.5t103.5 -116.5q0 -43 -31 -84t-69 -41q-25 0 -50 24.5t-49 60t-52.5 72t-73 64.5t-97.5 33v-864 q62 -8 98 -8q216 0 330 141l23 -16q-33 -45 -62 -78t-72 -71.5t-87 -63t-104 -42.5t-126 -20v-450h-37zM264 809q0 -178 78.5 -298t216.5 -159v856q-98 -3 -166.5 -63t-98.5 -147t-30 -189z" />
<glyph unicode="&#xa3;" horiz-adv-x="1312" d="M899 -55q-68 0 -144.5 30t-133.5 67.5t-124.5 79.5t-109.5 58q-17 -31 -59 -96q-63 -90 -146 -90q-58 0 -97.5 29.5t-39.5 89.5q0 55 42 94t124 39q35 0 137 -17q11 89 39 426h-293l17 33h278l8 96q27 301 166 482.5t361 181.5q65 0 125.5 -12.5t106.5 -44.5t46 -78 q0 -48 -25 -81.5t-57 -33.5q-33 0 -61 21t-49 50.5t-43.5 59.5t-56 51t-74.5 21q-95 0 -141 -111q-33 -79 -65 -301q-21 -149 -24 -170q-9 -65 -24 -131h385l-17 -33h-377q-56 -224 -163 -436q12 -2 56 -9t58 -9.5t53.5 -8.5t56 -8.5t51.5 -7.5t54.5 -7t49.5 -5t51.5 -4.5 t46.5 -2.5t47 -1q219 0 311 133l17 -8q-36 -68 -70.5 -120t-81 -105t-100.5 -82t-111 -29z" />
<glyph unicode="&#xa5;" horiz-adv-x="1069" d="M127 635l16 33h308l-297 538q-81 149 -183 199v29h383v-29q-22 -7 -30.5 -17t-2.5 -31.5t15 -39t34 -60.5q6 -10 9.5 -16t9 -16t10.5 -19l271 -487l276 487q53 97 47.5 142t-69.5 57v29h264v-29q-114 -43 -201 -199l-303 -538h295l-16 -33h-285v-248h301l-16 -33h-285 v-94q0 -115 16.5 -164.5t65.5 -66.5v-29h-383v29q49 17 65.5 66.5t16.5 164.5v94h-332l16 33h316l-2 248h-330z" />
<glyph unicode="&#xa9;" horiz-adv-x="1671" d="M793 -27q-156 0 -290 51.5t-228 142.5t-147.5 220t-53.5 279q0 128 45.5 248.5t125 214t181 164t218.5 108t233 37.5q201 0 364 -84t258.5 -242.5t95.5 -363.5q0 -138 -47 -262.5t-126.5 -216.5t-182 -159.5t-217.5 -102t-229 -34.5zM158 698q0 -142 53 -268.5 t144 -216.5t218 -142.5t269 -52.5q141 0 265 53.5t212.5 146t140 223t51.5 278.5q0 145 -53 271.5t-144 215t-215.5 139t-264.5 50.5t-265 -53.5t-215.5 -145.5t-143 -222t-52.5 -276zM424 684q0 202 140 325.5t358 123.5q65 0 130 -17t97 -37l18 -170l-14 -2 q-49 92 -123.5 139.5t-165.5 47.5q-127 0 -199 -96.5t-75 -245.5q-2 -110 43.5 -191t120 -120.5t166.5 -39.5q197 0 299 164l16 -8q-58 -131 -157.5 -206t-235.5 -75q-187 0 -302.5 111.5t-115.5 296.5z" />
<glyph unicode="&#xaa;" horiz-adv-x="937" d="M666 711q-51 0 -76 28t-25 90v37q-126 -157 -266 -157q-82 0 -139.5 51t-57.5 131q0 97 77.5 158.5t240.5 107.5l145 41q-5 184 -174 184q-107 0 -223 -96l-14 19q161 141 309 141q125 0 191.5 -68t66.5 -198v-314q0 -38 7 -58t30 -20q25 0 63 33l15 -18 q-103 -92 -170 -92zM106 502v33h691v-33h-691zM254 950q0 -65 37 -104t102 -39q99 0 172 94v273l-141 -44q-170 -52 -170 -180z" />
<glyph unicode="&#xab;" horiz-adv-x="1126" d="M655 49l-542 463l542 463l21 -25l-514 -438l514 -438zM461 512l543 463l20 -25l-514 -438l514 -438l-20 -25z" />
<glyph unicode="&#xad;" d="M106 494v32h535v-32h-535z" />
<glyph unicode="&#xae;" horiz-adv-x="1646" d="M793 -27q-156 0 -290 51.5t-228 142.5t-147.5 220t-53.5 279q0 128 45.5 248.5t125 214t181 164t218.5 108t233 37.5q201 0 364 -84t258.5 -242.5t95.5 -363.5q0 -138 -47 -262.5t-126.5 -216.5t-182 -159.5t-217.5 -102t-229 -34.5zM158 698q0 -142 53 -268.5 t144 -216.5t218 -142.5t269 -52.5q141 0 265 53.5t212.5 146t140 223t51.5 278.5q0 145 -53 271.5t-144 215t-215.5 139t-264.5 50.5t-265 -53.5t-215.5 -145.5t-143 -222t-52.5 -276zM483 303v16q28 10 37.5 39.5t9.5 96.5v536q0 67 -9.5 96t-37.5 39v17h228 q198 0 304.5 -61t106.5 -179q0 -100 -81.5 -179t-233.5 -101q166 -20 233 -144l29 -53q53 -96 115 -113v-10h-113q-63 0 -98.5 26.5t-67.5 84.5l-28 51q-10 18 -24 45.5t-20.5 39t-18.5 27.5t-24 22t-31.5 11.5t-45.5 5.5h-4h-21v-161q0 -67 9.5 -96.5t37.5 -39.5v-16h-252z M688 637h27q79 0 133.5 20.5t82 59t38 80.5t10.5 96q0 112 -61 170.5t-207 58.5h-23v-485z" />
<glyph unicode="&#xb2;" horiz-adv-x="733" d="M2 518q83 80 147.5 151t136.5 165.5t112 190t40 181.5q0 183 -143 183q-50 0 -93.5 -15.5t-97.5 -60.5l-14 20q75 62 137 90.5t142 28.5q96 0 170 -61.5t75 -165.5q0 -47 -17 -97t-42.5 -94t-67 -94t-78.5 -88t-90 -84.5t-87.5 -75t-83.5 -68.5l-15 -12l313 -2 q98 0 128.5 17.5t50.5 83.5l20 -4l-22 -211h-621v22z" />
<glyph unicode="&#xb3;" horiz-adv-x="684" d="M39 324q188 95 294.5 243.5t106.5 272.5q0 186 -141 186q-44 0 -92 -31l-10 25q70 33 111 72t54 76t13 85q0 60 -30.5 98.5t-86.5 39.5q-90 4 -180 -72l-17 20q136 113 273 113q93 0 147 -49t54 -119q0 -79 -48.5 -127t-148.5 -96q12 2 39 2q39 0 77 -10.5t75 -32 t60 -62.5t23 -96q0 -66 -30 -131t-79 -119.5t-124 -111.5t-151.5 -103.5t-174.5 -97.5z" />
<glyph unicode="&#xb9;" horiz-adv-x="491" d="M88 496v18q37 10 50.5 44t13.5 108v645l-101 -49l-10 22l248 166h26v-784q0 -74 13.5 -108t50.5 -44v-18h-291z" />
<glyph unicode="&#xba;" horiz-adv-x="962" d="M481 711q-71 0 -137 21.5t-121 63t-88 111t-33 156.5q0 166 113.5 274.5t265.5 108.5q54 0 107 -12.5t102.5 -40.5t87 -68t60 -100.5t22.5 -132.5q0 -88 -35.5 -162t-91.5 -120.5t-122 -72.5t-130 -26zM156 502v33h690v-33h-690zM262 1167q0 -65 16.5 -135.5t48 -134.5 t85 -105.5t118.5 -41.5q46 0 79.5 19.5t51 54t25.5 74t8 87.5q0 69 -19.5 144.5t-54.5 141.5t-90.5 106t-119.5 34q-148 -15 -148 -244z" />
<glyph unicode="&#xbb;" horiz-adv-x="1126" d="M483 49l-20 25l514 438l-514 438l20 25l543 -463zM115 74l514 438l-514 438l20 25l543 -463l-543 -463z" />
<glyph unicode="&#xc9;" horiz-adv-x="1218" d="M96 0v29q49 17 65.5 66.5t16.5 164.5v914q0 115 -16.5 164.5t-65.5 66.5v29h983l23 -289l-27 -6q-60 147 -161.5 204.5t-278.5 57.5h-240v-615h197q123 0 196 17.5t106.5 50t51.5 88.5h29v-344h-29q-18 56 -51.5 88.5t-106.5 50t-196 17.5h-197v-619q0 -49 26.5 -75.5 t76.5 -26.5h196q164 0 267 60t159 210l27 -4l-14 -299h-1037zM342 1548l207 178q41 37 60 47.5t42 10.5q38 0 83.5 -26t45.5 -48q0 -23 -15 -39.5t-63 -30.5l-352 -106z" />
<glyph unicode="&#xe9;" horiz-adv-x="1093" d="M549 -20q-69 0 -137.5 19t-131.5 59.5t-111 97.5t-77 139t-29 178q0 101 30.5 192t83 158t121 116t146.5 74t158 25q100 0 182 -32.5t134 -85t80 -117.5t28 -133h-776q-4 -46 -4 -66q0 -203 115.5 -331t308.5 -128q209 0 354 162l18 -20q-39 -59 -84.5 -109t-106.5 -97 t-139 -74t-163 -27zM252 698h567q-21 129 -98.5 215.5t-181.5 87.5q-122 1 -194 -85t-93 -218zM385 1200l207 219q36 37 56 47.5t46 10.5q38 0 83.5 -26t45.5 -48q0 -20 -15.5 -34.5t-62.5 -35.5l-352 -147z" />
<glyph unicode="&#x131;" horiz-adv-x="491" d="M57 0v29q49 17 65.5 66.5t16.5 164.5v471q0 83 -18.5 113.5t-63.5 50.5v29l271 118l20 -16v-766q0 -115 16.5 -164.5t65.5 -66.5v-29h-373z" />
<glyph unicode="&#x237;" horiz-adv-x="497" d="M-199 -569q-57 0 -93 14t-36 43q0 36 39 80.5t90 44.5q25 0 61.5 -4.5t58.5 -8.5t78 -15.5t71 -14.5q17 13 30.5 26.5t23 31.5t16.5 30t11 38t6.5 39.5t3.5 48.5t1 51.5v62.5v32v801q0 83 -18.5 113.5t-63.5 50.5v29l270 118l21 -16v-938q0 -103 -50 -220t-128.5 -213.5 t-184 -160t-207.5 -63.5z" />
<glyph unicode="&#x2000;" horiz-adv-x="892" />
<glyph unicode="&#x2001;" horiz-adv-x="1784" />
<glyph unicode="&#x2002;" horiz-adv-x="892" />
<glyph unicode="&#x2003;" horiz-adv-x="1784" />
<glyph unicode="&#x2004;" horiz-adv-x="594" />
<glyph unicode="&#x2005;" horiz-adv-x="446" />
<glyph unicode="&#x2006;" horiz-adv-x="297" />
<glyph unicode="&#x2007;" horiz-adv-x="297" />
<glyph unicode="&#x2008;" horiz-adv-x="223" />
<glyph unicode="&#x2009;" horiz-adv-x="356" />
<glyph unicode="&#x200a;" horiz-adv-x="99" />
<glyph unicode="&#x2010;" d="M106 494v32h535v-32h-535z" />
<glyph unicode="&#x2011;" d="M106 494v32h535v-32h-535z" />
<glyph unicode="&#x2012;" d="M106 494v32h535v-32h-535z" />
<glyph unicode="&#x2013;" horiz-adv-x="1157" d="M106 494v32h945v-32h-945z" />
<glyph unicode="&#x2014;" horiz-adv-x="1976" d="M106 494v32h1764v-32h-1764z" />
<glyph unicode="&#x2018;" horiz-adv-x="442" d="M381 1468q-75 -36 -119.5 -112.5t-50.5 -161.5q32 8 51 8q50 0 82.5 -33t32.5 -82q0 -59 -34.5 -97t-92.5 -38q-68 0 -108 43t-40 129q0 117 85 223.5t184 141.5z" />
<glyph unicode="&#x2019;" horiz-adv-x="442" d="M61 932q75 36 119.5 112.5t50.5 161.5q-32 -8 -51 -8q-49 0 -81.5 32.5t-32.5 82.5q0 59 34.5 97t92.5 38q68 0 107.5 -43t39.5 -129q0 -117 -84.5 -223.5t-183.5 -141.5z" />
<glyph unicode="&#x201a;" horiz-adv-x="493" d="M102 -283q75 36 119.5 113t50.5 162q-32 -8 -51 -8q-50 0 -82.5 32.5t-32.5 81.5q0 59 34.5 97t92.5 38q68 0 108 -43t40 -129q0 -117 -84.5 -223t-183.5 -141z" />
<glyph unicode="&#x201c;" horiz-adv-x="786" d="M684 1468q-75 -36 -119.5 -112.5t-50.5 -161.5q32 8 51 8q49 0 82 -33t33 -82q0 -59 -34.5 -97t-92.5 -38q-68 0 -107.5 43t-39.5 129q0 117 84.5 223.5t183.5 141.5zM61 1124q0 117 85 223.5t184 141.5l10 -21q-75 -36 -119.5 -112.5t-50.5 -161.5q32 8 51 8 q49 0 82 -33t33 -82q0 -59 -34.5 -97t-92.5 -38q-68 0 -108 43t-40 129z" />
<glyph unicode="&#x201d;" horiz-adv-x="786" d="M61 946q75 36 119.5 113t50.5 162q-36 -9 -51 -9q-49 0 -81.5 32.5t-32.5 82.5q0 59 34.5 97t92.5 38q68 0 107.5 -43t39.5 -129q0 -117 -84.5 -223t-183.5 -141zM406 946q75 36 119 112.5t50 162.5q-36 -9 -51 -9q-49 0 -81.5 32.5t-32.5 82.5q0 59 34.5 97t92.5 38 q68 0 107.5 -43t39.5 -129q0 -117 -84.5 -223t-183.5 -141z" />
<glyph unicode="&#x201e;" horiz-adv-x="786" d="M102 -283q75 36 119.5 113t50.5 162q-32 -8 -51 -8q-50 0 -82.5 32.5t-32.5 81.5q0 59 34.5 97t92.5 38q68 0 108 -43t40 -129q0 -117 -84.5 -223t-183.5 -141zM446 -283q75 36 119.5 113t50.5 162q-32 -8 -51 -8q-49 0 -81.5 32t-32.5 82q0 59 34.5 97t92.5 38 q68 0 107.5 -43t39.5 -129q0 -117 -84.5 -223t-183.5 -141z" />
<glyph unicode="&#x2022;" horiz-adv-x="579" d="M291 401q-76 0 -132.5 58.5t-56.5 136.5q0 79 56 135.5t133 56.5t131.5 -56.5t54.5 -135.5t-55 -137t-131 -58z" />
<glyph unicode="&#x2026;" horiz-adv-x="1173" d="M233 -14q-49 0 -84.5 37t-35.5 88t35 86.5t85 35.5t84.5 -35.5t34.5 -86.5t-35 -88t-84 -37zM522 111q0 51 35.5 86.5t85.5 35.5t84.5 -35.5t34.5 -86.5t-35 -88t-84 -37t-85 37t-36 88zM932 111q0 51 35.5 86.5t85.5 35.5q49 0 83.5 -35.5t34.5 -86.5t-34.5 -88 t-83.5 -37t-85 37t-36 88z" />
<glyph unicode="&#x202f;" horiz-adv-x="356" />
<glyph unicode="&#x2039;" horiz-adv-x="825" d="M655 49l-542 463l542 463l21 -25l-514 -438l514 -438z" />
<glyph unicode="&#x203a;" horiz-adv-x="825" d="M135 49l-20 25l514 438l-514 438l20 25l543 -463z" />
<glyph unicode="&#x205f;" horiz-adv-x="446" />
<glyph unicode="&#x20ac;" horiz-adv-x="1419" d="M752 -16q-164 0 -307 64t-245 189.5t-134 292.5h-113l14 35h92q-8 49 -8 115q0 104 25 199h-123l14 34h119q53 163 174 286t279.5 186t332.5 63q134 0 248 -26.5t170 -61.5l23 -268l-25 -9q-147 322 -479 322q-117 0 -213.5 -39t-162 -107.5t-106.5 -156t-57 -189.5h758 l-14 -34h-748q-6 -43 -6 -84q0 -124 33 -230h612l-14 -35h-588q63 -170 206 -274t363 -104q42 0 85 5t101.5 22.5t109.5 45.5t104 79t92 118l27 -12q-98 -203 -260 -314.5t-379 -111.5z" />
<glyph unicode="&#x2122;" horiz-adv-x="1724" d="M725 571v17q30 10 39.5 40t9.5 99v551q0 69 -9.5 99t-39.5 40v17h205l260 -580l258 580h199v-17q-30 -10 -40 -40t-10 -99v-551q0 -69 10 -99t40 -40v-17h-246v17q30 10 39.5 40t9.5 99v643l-313 -704h-21l-315 700v-565q0 -109 21 -153t73 -60v-17h-170zM25 1270l18 164 h590l16 -164h-16q-29 73 -82.5 106t-116.5 33h-20v-682q0 -69 9.5 -99t39.5 -40v-17h-250v17q30 10 39.5 40t9.5 99v682h-20q-62 0 -116.5 -33t-84.5 -106h-16z" />
<glyph unicode="&#x25fc;" horiz-adv-x="1024" d="M0 1024h1024v-1024h-1024v1024z" />
<glyph horiz-adv-x="581" d="M-162 -246q-52 0 -75 11t-23 45q0 41 35.5 75.5t93.5 34.5q14 0 28.5 -1t26 -2.5t33.5 -6t35.5 -7.5t48.5 -10t57 -12q19 13 31.5 27t27.5 42.5t23 79t8 120.5v1024q0 115 -16.5 164.5t-65.5 66.5v29h379v-29q-49 -17 -65.5 -66.5t-16.5 -164.5v-676q0 -157 -47 -297 t-125 -237t-180.5 -153.5t-212.5 -56.5zM10 1548l207 178q41 37 60 47.5t42 10.5q38 0 84 -26t46 -48q0 -23 -15 -39.5t-63 -30.5l-353 -106z" />
<glyph horiz-adv-x="1320" d="M96 0v29q49 17 65.5 66.5t16.5 164.5v914q0 115 -16.5 164.5t-65.5 66.5v29h381v-29q-49 -17 -65.5 -66.5t-16.5 -164.5v-482l498 510q186 189 49 211v21h322v-29q-54 -15 -88.5 -28t-89.5 -47t-103 -83l-262 -268l315 -590q91 -169 136 -241.5t72 -95.5t63 -23 q18 0 30 2v-31q-55 -14 -139 -14q-46 0 -76 3.5t-61.5 18t-54.5 35.5t-53.5 63.5t-60.5 94.5t-73 135l-254 485l-170 -176v-385q0 -115 16.5 -164.5t65.5 -66.5v-29h-381z" />
<glyph horiz-adv-x="1480" d="M836 -20q-105 0 -207 27t-196 84.5t-165.5 139t-114 199.5t-42.5 256q0 219 91.5 393t258.5 272.5t381 98.5q131 0 265.5 -33.5t213.5 -87.5l6 -258l-24 -8q-37 71 -84 130t-110.5 109.5t-148.5 79t-182 27.5q-155 -1 -262 -77.5t-155 -214t-35 -322.5 q21 -286 188.5 -464t433.5 -177q298 0 463 206l25 -20q-232 -360 -600 -360z" />
<glyph horiz-adv-x="1529" d="M840 -16q-147 0 -279 49t-232 137t-159 220.5t-59 289.5q0 171 64.5 317.5t171.5 244t246 152t288 54.5q121 0 222 -35.5t165 -90t108.5 -122.5t63 -129.5t18.5 -114.5h-1120q-14 -86 -14 -151q-1 -97 19.5 -190t69.5 -181.5t120.5 -155t180.5 -107t242 -40.5 q298 0 476 229l22 -18q-101 -163 -254 -260.5t-360 -97.5zM346 989h885q-2 42 -16 92.5t-46.5 108.5t-79 104.5t-120 77.5t-162.5 31q-182 0 -300.5 -114.5t-160.5 -299.5z" />
<glyph horiz-adv-x="1529" d="M840 -16q-147 0 -279 49t-232 137t-159 220.5t-59 289.5q0 171 64.5 317.5t171.5 244t246 152t288 54.5q121 0 222 -35.5t165 -90t108.5 -122.5t63 -129.5t18.5 -114.5h-1120q-14 -86 -14 -151q-1 -97 19.5 -190t69.5 -181.5t120.5 -155t180.5 -107t242 -40.5 q298 0 476 229l22 -18q-101 -163 -254 -260.5t-360 -97.5zM346 989h885q-2 42 -16 92.5t-46.5 108.5t-79 104.5t-120 77.5t-162.5 31q-182 0 -300.5 -114.5t-160.5 -299.5zM528 1548l207 178q41 36 60.5 47t42.5 11q38 0 83.5 -26t45.5 -48q0 -23 -15 -39.5t-63 -30.5 l-352 -106z" />
<glyph horiz-adv-x="1316" d="M-43 0v29q102 38 172 213l383 950q22 57 -4 111l-27 57l201 90l508 -1210q71 -168 158 -211v-29h-373v29q23 8 33 19.5t5 37.5t-13 47.5t-30 73.5q-9 21 -14 33l-401 960l-387 -958q-40 -103 -33 -152t60 -61v-29h-238zM403 532v25q74 0 113 50t39 114h25 q0 -64 38.5 -114t106.5 -50v-25q-69 0 -107 -46t-38 -111h-25q0 66 -38.5 111.5t-113.5 45.5z" />
<glyph horiz-adv-x="1198" d="M96 0v29q49 17 65.5 66.5t16.5 164.5v914q0 115 -16.5 164.5t-65.5 66.5v29h983l23 -248l-27 -6q-46 121 -136.5 171t-262.5 50h-281v-1266q0 -49 26.5 -75.5t76.5 -26.5h207q158 0 246.5 49.5t148.5 179.5l26 -4l-14 -258h-1016zM635 754v24q74 0 112.5 49.5t38.5 114.5 h25q0 -64 38.5 -114t106.5 -50v-24q-69 0 -107 -46.5t-38 -111.5h-25q0 66 -38 112t-113 46z" />
<glyph horiz-adv-x="1198" d="M96 0v29q49 17 65.5 66.5t16.5 164.5v914q0 115 -16.5 164.5t-65.5 66.5v29h983l23 -248l-27 -6q-46 121 -136.5 171t-262.5 50h-281v-1266q0 -49 26.5 -75.5t76.5 -26.5h207q158 0 246.5 49.5t148.5 179.5l26 -4l-14 -258h-1016zM317 1548l207 178q41 36 60.5 47 t42.5 11q38 0 83.5 -26t45.5 -48q0 -23 -15 -39.5t-63 -30.5l-352 -106zM635 754v24q74 0 112.5 49.5t38.5 114.5h25q0 -64 38.5 -114t106.5 -50v-24q-69 0 -107 -46.5t-38 -111.5h-25q0 66 -38 112t-113 46z" />
<glyph horiz-adv-x="1087" d="M96 0v29q49 17 65.5 66.5t16.5 164.5v914q0 115 -16.5 164.5t-65.5 66.5v29h928l14 -228l-26 -6q-58 109 -139.5 153t-231.5 44h-246v-1137q0 -115 16.5 -164.5t65.5 -66.5v-29h-381zM557 819v25q74 0 113 50t39 114h24q0 -63 38.5 -113.5t107.5 -50.5v-25 q-70 0 -108 -46t-38 -111h-24q0 66 -38.5 111.5t-113.5 45.5z" />
<glyph horiz-adv-x="1503" d="M96 0v29q49 17 65.5 66.5t16.5 164.5v914q0 115 -16.5 164.5t-65.5 66.5v29h381v-29q-49 -17 -65.5 -66.5t-16.5 -164.5v-914q0 -115 16.5 -164.5t65.5 -66.5v-29h-381zM592 737v25q74 0 112.5 49.5t38.5 114.5h25q0 -64 38.5 -114t106.5 -50v-25q-69 0 -107 -46 t-38 -111h-25q0 66 -38 111.5t-113 45.5zM1026 0v29q49 17 65.5 66.5t16.5 164.5v914q0 115 -16.5 164.5t-65.5 66.5v29h381v-29q-49 -17 -65.5 -66.5t-16.5 -164.5v-914q0 -115 16.5 -164.5t65.5 -66.5v-29h-381z" />
<glyph horiz-adv-x="1679" d="M844 -20q-107 0 -210 27.5t-198 87t-167 144.5t-115 210t-43 274q0 151 54 284.5t149 231.5t232.5 154.5t297.5 56.5q106 0 209 -28t197.5 -88t166.5 -145.5t115 -208.5t43 -269q0 -145 -43 -267.5t-115 -206.5t-167 -143t-198 -86.5t-208 -27.5zM324 848 q9 -122 43.5 -240.5t93 -220t133.5 -179t170 -121.5t197 -44q91 0 164 27t120 73.5t77 111t41 138t5 156.5q-16 221 -97 412.5t-222 313.5t-312 122q-208 0 -319 -149.5t-94 -399.5zM686 725v25q74 0 113 49.5t39 113.5h24q0 -63 38.5 -113t107.5 -50v-25 q-69 0 -107.5 -46.5t-38.5 -111.5h-24q0 66 -38.5 112t-113.5 46z" />
<glyph horiz-adv-x="2295" d="M1485 -20q-91 0 -168.5 27t-133.5 72.5t-104.5 104.5t-86.5 124t-74.5 130t-74 124t-79 104.5t-96.5 72.5t-119 27h-37l-117 -121v-385q0 -115 16.5 -164.5t65.5 -66.5v-29h-381v29q49 17 65.5 66.5t16.5 164.5v914q0 115 -16.5 164.5t-65.5 66.5v29h381v-29 q-49 -17 -65.5 -66.5t-16.5 -164.5v-482l498 510q186 189 49 211v21h322v-29q-54 -15 -88.5 -28t-89.5 -47t-103 -83l-438 -448l53 4q102 8 187.5 -12.5t146.5 -62.5t112.5 -99t92 -121.5t78.5 -129.5t79 -125t86.5 -106.5t107.5 -74t136 -27.5q76 0 143.5 41.5t106.5 108.5 l20 -17q-59 -91 -162 -144.5t-247 -53.5zM1393 389v29q49 17 65.5 66.5t16.5 164.5v525q0 115 -16.5 164.5t-65.5 66.5v29h788l19 -201l-27 -4q-46 102 -111 138t-204 36h-166v-430h45q110 0 176 16t96 44.5t45 78.5h27v-309h-27q-15 50 -45 78.5t-96 44.5t-176 16h-45v-420 q0 -50 26 -76t76 -26h98q117 0 184 40.5t122 141.5l26 -4l-16 -209h-815z" />
<glyph horiz-adv-x="2295" d="M1485 -20q-91 0 -168.5 27t-133.5 72.5t-104.5 104.5t-86.5 124t-74.5 130t-74 124t-79 104.5t-96.5 72.5t-119 27h-37l-117 -121v-385q0 -115 16.5 -164.5t65.5 -66.5v-29h-381v29q49 17 65.5 66.5t16.5 164.5v914q0 115 -16.5 164.5t-65.5 66.5v29h381v-29 q-49 -17 -65.5 -66.5t-16.5 -164.5v-482l498 510q186 189 49 211v21h322v-29q-54 -15 -88.5 -28t-89.5 -47t-103 -83l-438 -448l53 4q102 8 187.5 -12.5t146.5 -62.5t112.5 -99t92 -121.5t78.5 -129.5t79 -125t86.5 -106.5t107.5 -74t136 -27.5q76 0 143.5 41.5t106.5 108.5 l20 -17q-59 -91 -162 -144.5t-247 -53.5zM1393 389v29q49 17 65.5 66.5t16.5 164.5v525q0 115 -16.5 164.5t-65.5 66.5v29h788l19 -201l-27 -4q-46 102 -111 138t-204 36h-166v-430h45q110 0 176 16t96 44.5t45 78.5h27v-309h-27q-15 50 -45 78.5t-96 44.5t-176 16h-45v-420 q0 -50 26 -76t76 -26h98q117 0 184 40.5t122 141.5l26 -4l-16 -209h-815zM1454 1540l207 178q41 37 60 47.5t42 10.5q38 0 83.5 -26t45.5 -48q0 -15 -4 -25.5t-22 -23t-51 -21.5l-353 -106z" />
<glyph horiz-adv-x="2484" d="M1485 -20q-91 0 -168.5 27t-133.5 72.5t-104.5 104.5t-86.5 124t-74.5 130t-74 124t-79 104.5t-96.5 72.5t-119 27h-37l-117 -121v-385q0 -115 16.5 -164.5t65.5 -66.5v-29h-381v29q49 17 65.5 66.5t16.5 164.5v914q0 115 -16.5 164.5t-65.5 66.5v29h381v-29 q-49 -17 -65.5 -66.5t-16.5 -164.5v-482l498 510q186 189 49 211v21h322v-29q-54 -15 -88.5 -28t-89.5 -47t-103 -83l-438 -448l53 4q102 8 187.5 -12.5t146.5 -62.5t112.5 -99t92 -121.5t78.5 -129.5t79 -125t86.5 -106.5t107.5 -74t136 -27.5q76 0 143.5 41.5t106.5 108.5 l20 -17q-59 -91 -162 -144.5t-247 -53.5zM1288 895q0 121 46 226t122 175.5t175 111t204 40.5q78 0 154 -18t147.5 -58t125 -98.5t86 -145t32.5 -190.5q0 -126 -51 -232.5t-131 -174t-175 -105t-188 -37.5q-82 0 -159.5 19t-148 59.5t-123.5 98.5t-84.5 143t-31.5 186z M1493 1049q0 -94 27.5 -198.5t77.5 -199t131.5 -156t177.5 -61.5q72 0 125.5 29.5t83 80t43.5 110t14 128.5q0 99 -32.5 211t-88.5 208.5t-141.5 156t-179.5 49.5q-64 -7 -111.5 -38.5t-74.5 -82t-39.5 -109.5t-12.5 -128z" />
<glyph horiz-adv-x="2471" d="M1919 389q-75 0 -142 14t-130.5 48t-109.5 86t-73.5 133t-27.5 184v320q0 115 -16.5 164.5t-65.5 66.5v29h344v-29q-49 -17 -65.5 -66.5t-16.5 -164.5v-330q0 -414 360 -414q46 0 90.5 13t88 44t76.5 77.5t53 120.5t20 165v201q0 123 -17.5 196t-50 106.5t-88.5 51.5v29 h269v-29q-49 -17 -65.5 -66.5t-16.5 -164.5v-320q0 -238 -112 -351.5t-304 -113.5zM96 0v29q49 17 65.5 66.5t16.5 164.5v914q0 115 -16.5 164.5t-65.5 66.5v29h381v-29q-49 -17 -65.5 -66.5t-16.5 -164.5v-482l498 510q186 189 49 211v21h322v-29q-54 -15 -88.5 -28 t-89.5 -47t-103 -83l-438 -448l53 4q102 8 187.5 -12.5t146.5 -62.5t112.5 -99t92 -121.5t78.5 -129.5t79 -125t86.5 -106.5t107.5 -74t136 -27.5q76 0 143.5 41.5t106.5 108.5l20 -17q-59 -91 -162 -144.5t-247 -53.5q-91 0 -168.5 27t-133.5 72.5t-104.5 104.5t-86.5 124 t-74.5 130t-74 124t-79 104.5t-96.5 72.5t-119 27h-37l-117 -121v-385q0 -115 16.5 -164.5t65.5 -66.5v-29h-381z" />
<glyph horiz-adv-x="1685" d="M96 0v29q49 17 65.5 66.5t16.5 164.5v914q0 115 -16.5 164.5t-65.5 66.5v29h381v-29q-49 -17 -65.5 -66.5t-16.5 -164.5v-1035q0 -49 26.5 -75.5t76.5 -26.5h434q159 0 247 48t148 177l27 -4l-17 -258h-1241zM596 387v29q49 19 90 67.5t80 145.5l244 610q16 41 0 82 l-25 57l166 66l330 -815q66 -170 153 -213v-29h-338v29q24 8 33 21.5t6.5 36t-13.5 53.5t-29 76q-3 5 -4 8.5t-3 8.5t-4 9l-47 121h-385l-47 -121q-40 -103 -33 -152t61 -61v-29h-235zM862 780h361l-181 455z" />
<glyph horiz-adv-x="1646" d="M96 0v29q49 17 65.5 66.5t16.5 164.5v914q0 115 -16.5 164.5t-65.5 66.5v29h381v-29q-49 -17 -65.5 -66.5t-16.5 -164.5v-1035q0 -49 26.5 -75.5t76.5 -26.5h270q159 0 247 48t148 177l27 -4l-16 -258h-1078zM743 387v29q49 17 65.5 66.5t16.5 164.5v524q0 115 -16.5 165 t-65.5 67v29h789l18 -201l-26 -4q-46 102 -111.5 138t-204.5 36h-166v-430h45q110 0 176 16t96.5 44.5t45.5 78.5h27v-309h-27q-15 50 -45.5 78.5t-96.5 44.5t-176 16h-45v-420q0 -49 26.5 -75.5t76.5 -26.5h98q117 0 183.5 40.5t121.5 141.5l27 -4l-16 -209h-816z" />
<glyph horiz-adv-x="1646" d="M96 0v29q49 17 65.5 66.5t16.5 164.5v914q0 115 -16.5 164.5t-65.5 66.5v29h381v-29q-49 -17 -65.5 -66.5t-16.5 -164.5v-1035q0 -49 26.5 -75.5t76.5 -26.5h270q159 0 247 48t148 177l27 -4l-16 -258h-1078zM743 387v29q49 17 65.5 66.5t16.5 164.5v524q0 115 -16.5 165 t-65.5 67v29h789l18 -201l-26 -4q-46 102 -111.5 138t-204.5 36h-166v-430h45q110 0 176 16t96.5 44.5t45.5 78.5h27v-309h-27q-15 50 -45.5 78.5t-96.5 44.5t-176 16h-45v-420q0 -49 26.5 -75.5t76.5 -26.5h98q117 0 183.5 40.5t121.5 141.5l27 -4l-16 -209h-816zM956 1540 l207 178q41 36 60.5 47t42.5 11q38 0 83.5 -26t45.5 -48q0 -23 -15 -39.5t-63 -30.5l-352 -106z" />
<glyph horiz-adv-x="1275" d="M96 0v29q49 17 65.5 66.5t16.5 164.5v914q0 115 -16.5 164.5t-65.5 66.5v29h381v-29q-49 -17 -65.5 -66.5t-16.5 -164.5v-1035q0 -49 26.5 -75.5t76.5 -26.5h168q159 0 247 48t148 177l26 -4l-16 -258h-975zM788 389v29q49 17 65.5 66.5t16.5 164.5v525 q0 115 -16.5 164.5t-65.5 66.5v29h367v-29q-49 -17 -65.5 -66.5t-16.5 -164.5v-525q0 -115 16.5 -164.5t65.5 -66.5v-29h-367z" />
<glyph horiz-adv-x="1511" d="M96 0v29q49 17 65.5 66.5t16.5 164.5v914q0 115 -16.5 164.5t-65.5 66.5v29h381v-29q-49 -17 -65.5 -66.5t-16.5 -164.5v-1035q0 -49 26.5 -75.5t76.5 -26.5h434q159 0 249 48t162 177l27 -4l-33 -258h-1241zM670 389v29q49 17 65.5 66.5t16.5 164.5v525 q0 115 -16.5 164.5t-65.5 66.5v29h370v-29q-49 -17 -65.5 -66.5t-16.5 -164.5v-666q0 -42 22 -62t71 -20h34q146 0 230 45.5t129 163.5h31l-25 -246h-780z" />
<glyph horiz-adv-x="1837" d="M96 0v29q49 17 65.5 66.5t16.5 164.5v914q0 115 -16.5 164.5t-65.5 66.5v29h381v-29q-49 -17 -65.5 -66.5t-16.5 -164.5v-1035q0 -49 26.5 -75.5t76.5 -26.5h434q159 0 247 48t148 177l27 -4l-17 -258h-1241zM641 893q0 121 46 226t122 175.5t175 111t204 40.5 q78 0 154 -18t147.5 -58t125 -98.5t86 -145t32.5 -190.5q0 -126 -51 -232.5t-131 -174t-175 -105t-188 -37.5q-82 0 -159.5 19t-148 59.5t-123.5 98.5t-84.5 143t-31.5 186zM846 1047q0 -94 27.5 -198.5t77.5 -199t131.5 -156t177.5 -61.5q72 0 125.5 29.5t83 80t43.5 110 t14 128.5q0 99 -33 211t-89 208.5t-141.5 156t-179.5 49.5q-124 -13 -180.5 -112t-56.5 -246z" />
<glyph horiz-adv-x="1513" d="M96 0v29q49 17 65.5 66.5t16.5 164.5v914q0 115 -16.5 164.5t-65.5 66.5v29h381v-29q-49 -17 -65.5 -66.5t-16.5 -164.5v-1035q0 -49 26.5 -75.5t76.5 -26.5h434q159 0 247 48t148 177l27 -8l-17 -254h-1241zM678 754l20 4q68 -153 177 -244t241 -92q92 -1 150.5 51 t58.5 125q0 92 -67 142t-216 96q-92 28 -147 51t-105.5 58.5t-73 84t-22.5 115.5q0 127 101.5 213t298.5 86q86 0 171.5 -14.5t139.5 -36.5l10 -226l-24 -4q-55 113 -146.5 182.5t-200.5 69.5q-95 0 -154 -44t-59 -111q0 -81 67 -128t220 -98q8 -3 24 -8q35 -12 53 -18 t50.5 -18.5t50 -22t44 -25t41.5 -30t32.5 -35.5t26.5 -43.5t15.5 -51.5t6.5 -61q0 -49 -12 -94.5t-41.5 -89.5t-73.5 -76.5t-113 -52t-155 -19.5q-107 0 -207 27.5t-162 68.5z" />
<glyph horiz-adv-x="1753" d="M96 0v29q49 17 65.5 66.5t16.5 164.5v914q0 115 -16.5 164.5t-65.5 66.5v29h381v-29q-49 -17 -65.5 -66.5t-16.5 -164.5v-1035q0 -49 26.5 -75.5t76.5 -26.5h393q159 0 247 48t148 177l27 -6l-17 -256h-1200zM635 1405v29h344v-29q-49 -17 -65.5 -66.5t-16.5 -164.5v-330 q0 -414 360 -414q46 0 90.5 13t88 44t76.5 77.5t53 120.5t20 165v201q0 123 -17.5 196t-49.5 106.5t-88 51.5v29h268v-29q-49 -17 -65.5 -66.5t-16.5 -164.5v-320q0 -238 -112 -351.5t-304 -113.5q-75 0 -142 14t-130.5 48t-109.5 86t-73.5 133t-27.5 184v320 q0 115 -16.5 164.5t-65.5 66.5z" />
<glyph horiz-adv-x="2172" d="M844 -20q-107 0 -210 27.5t-198 87t-167 144.5t-115 210t-43 274q0 151 54 284.5t149 231.5t232.5 154.5t297.5 56.5q187 0 354 -86q182 84 399 84q130 0 262.5 -25t206.5 -75l9 -271l-25 -6q-62 155 -203 246.5t-303 91.5q-168 0 -295 -74q149 -94 237.5 -251.5 t88.5 -372.5q0 -198 -76 -346.5t-207 -243.5q145 -98 326 -98q167 0 285.5 94t175.5 258l26 -4l-32 -293q-218 -98 -514 -98q-222 0 -392 69q-153 -69 -323 -69zM324 848q9 -122 43.5 -240.5t93 -220t133.5 -179t170 -121.5t197 -44q91 0 161 27q-171 84 -262.5 242 t-91.5 380q0 174 74.5 325.5t208.5 256.5q-142 123 -314 123q-208 0 -319 -149.5t-94 -399.5zM985 784q0 -192 70 -360t198 -272q132 134 115 397q-14 194 -81 370t-175 295q-127 -165 -127 -430z" />
<glyph horiz-adv-x="2222" d="M844 -20q-107 0 -210 27.5t-198 87t-167 144.5t-115 210t-43 274q0 151 54 284.5t149 231.5t232.5 154.5t297.5 56.5q176 0 338 -78q161 76 356 76q112 0 241.5 -25.5t202.5 -74.5l9 -271l-25 -6q-61 154 -203.5 246t-300.5 92q-138 0 -239 -59q161 -90 256.5 -252 t95.5 -387q0 -194 -72.5 -340t-197.5 -240q139 -102 303 -102q100 0 180 40t117 115v187q0 123 -21 173t-86 68v29h318v-377q-73 -95 -179.5 -161.5t-206 -94.5t-190.5 -28q-209 0 -366 71q-157 -71 -330 -71zM324 848q9 -122 43.5 -240.5t93 -220t133.5 -179t170 -121.5 t197 -44q93 0 169 29q-172 92 -267 260.5t-95 390.5q0 167 71 314t199 247q-135 113 -301 113q-208 0 -319 -149.5t-94 -399.5zM983 858q-2 -197 73 -387t208 -307q120 135 104 385q-14 203 -86.5 385t-189.5 301q-106 -145 -109 -377z" />
<glyph horiz-adv-x="2336" d="M844 -20q-107 0 -210 27.5t-198 87t-167 144.5t-115 210t-43 274q0 151 54 284.5t149 231.5t232.5 154.5t297.5 56.5q166 0 325 -72q157 72 332 72q106 0 209 -28t197.5 -88t166.5 -145.5t115 -208.5t43 -269q0 -145 -43 -267.5t-115 -206.5t-167 -143t-198 -86.5 t-208 -27.5q-179 0 -330 71q-151 -71 -327 -71zM324 848q9 -122 43.5 -240.5t93 -220t133.5 -179t170 -121.5t197 -44q90 0 169 29q-165 89 -263.5 252.5t-98.5 398.5q0 172 69 320t193 249q-137 105 -293 105q-208 0 -319 -149.5t-94 -399.5zM981 848q14 -196 93 -374.5 t206 -291.5q104 136 88 367q-15 210 -91.5 396.5t-199.5 303.5q-114 -145 -96 -401zM1210 1358q165 -89 265 -252.5t100 -394.5q0 -185 -67.5 -327.5t-184.5 -238.5q142 -102 295 -102q91 0 164 27t120 73.5t77 111t41 138t5 156.5q-9 131 -43 255.5t-90.5 231.5t-130 188 t-168.5 127t-198 46q-102 0 -185 -39z" />
<glyph horiz-adv-x="2146" d="M1393 -20q-91 0 -169.5 23.5t-135.5 64t-105.5 93.5t-84.5 112.5t-67.5 119.5t-60 117t-56 103t-61.5 79t-71 43h-45h-142v-475q0 -115 16.5 -164.5t65.5 -66.5v-29h-381v29q49 17 65.5 66.5t16.5 164.5v914q0 115 -16.5 164.5t-65.5 66.5v29h430q129 0 226.5 -18.5 t156 -48.5t94.5 -74t49 -88.5t13 -98.5q0 -141 -95 -237t-282 -124q74 -24 141 -75t118.5 -112.5t102 -130.5t101 -133t105.5 -116t126 -83.5t152 -31.5q75 0 142.5 34.5t107.5 86.5l20 -16q-62 -78 -170.5 -133t-240.5 -55zM395 768h131q165 0 243.5 80t78.5 209 q0 65 -21.5 124.5t-63.5 109.5t-114 80t-164 30q-43 0 -90 -6v-627zM1155 389v29q49 19 90 67.5t80 145.5l244 610q16 41 0 82l-25 57l166 66l330 -815q66 -170 153 -213v-29h-338v29q24 8 33 21.5t6.5 36t-13.5 53.5t-29 76q-3 5 -4 8.5t-3 8.5t-4 9l-47 121h-385l-47 -121 q-40 -103 -32.5 -152t61.5 -61v-29h-236zM1421 782h361l-180 455z" />
<glyph horiz-adv-x="2347" d="M1661 -20q-102 0 -193.5 26t-161.5 69.5t-133 100t-116 119.5t-103.5 125.5t-101 119t-102.5 100t-114.5 69.5t-131.5 26h-109v-475q0 -115 16.5 -164.5t65.5 -66.5v-29h-381v29q49 17 65.5 66.5t16.5 164.5v914q0 115 -16.5 164.5t-65.5 66.5v29h430q129 0 226.5 -18.5 t156 -48.5t94.5 -74t49 -88.5t13 -98.5q0 -141 -95 -237t-282 -124q116 -21 218 -70.5t176.5 -110.5t143.5 -130.5t132 -135t127.5 -118.5t144.5 -85t170 -32q75 0 142.5 34.5t107.5 86.5l21 -16q-62 -78 -170.5 -133t-239.5 -55zM395 768h131q165 0 243.5 80t78.5 209 q0 65 -21.5 124.5t-63.5 109.5t-114 80t-164 30q-43 0 -90 -6v-627zM1307 903q0 236 164.5 389.5t433.5 153.5q107 0 195 -17.5t138 -42.5l17 -231l-25 -4q-46 131 -149 199t-230 63q-171 -7 -252 -130.5t-83 -328.5q-1 -66 9 -133t37.5 -141t70 -130t115 -93t165.5 -37 q70 0 125 21t95.5 62t68 86t55.5 109l18 -4l-12 -202q-181 -108 -397 -103q-120 2 -220.5 35t-177 95t-119 160t-42.5 224z" />
<glyph horiz-adv-x="2248" d="M1454 -20q-112 0 -202.5 38t-151 100t-111 137t-95 153.5t-89 146t-106 117t-134.5 63.5h-28h-142v-475q0 -115 16.5 -164.5t65.5 -66.5v-29h-381v29q49 17 65.5 66.5t16.5 164.5v914q0 115 -16.5 164.5t-65.5 66.5v29h430q129 0 226.5 -18.5t156 -48.5t94.5 -74 t49 -88.5t13 -98.5q0 -139 -93.5 -234.5t-275.5 -123.5q80 -19 149.5 -54.5t121.5 -79.5t98.5 -95.5t85 -104t76 -104t76 -96t80.5 -78.5t95.5 -53.5t114.5 -19.5q75 0 142.5 34.5t107.5 86.5l21 -16q-62 -78 -170 -133t-240 -55zM395 768h131q165 0 243.5 80t78.5 209 q0 65 -21.5 124.5t-63.5 109.5t-114 80t-164 30q-43 0 -90 -6v-627zM1346 389v29q49 17 65 66.5t16 164.5v525q0 115 -16 164.5t-65 66.5v29h788l18 -201l-26 -4q-46 102 -111.5 138t-204.5 36h-165v-430h45q110 0 176 16t96 44.5t45 78.5h27v-309h-27q-15 50 -45 78.5 t-96 44.5t-176 16h-45v-420q0 -50 26.5 -76t75.5 -26h98q117 0 183.5 40.5t121.5 141.5l27 -4l-16 -209h-815z" />
<glyph horiz-adv-x="2248" d="M1454 -20q-112 0 -202.5 38t-151 100t-111 137t-95 153.5t-89 146t-106 117t-134.5 63.5h-28h-142v-475q0 -115 16.5 -164.5t65.5 -66.5v-29h-381v29q49 17 65.5 66.5t16.5 164.5v914q0 115 -16.5 164.5t-65.5 66.5v29h430q129 0 226.5 -18.5t156 -48.5t94.5 -74 t49 -88.5t13 -98.5q0 -139 -93.5 -234.5t-275.5 -123.5q80 -19 149.5 -54.5t121.5 -79.5t98.5 -95.5t85 -104t76 -104t76 -96t80.5 -78.5t95.5 -53.5t114.5 -19.5q75 0 142.5 34.5t107.5 86.5l21 -16q-62 -78 -170 -133t-240 -55zM395 768h131q165 0 243.5 80t78.5 209 q0 65 -21.5 124.5t-63.5 109.5t-114 80t-164 30q-43 0 -90 -6v-627zM1346 389v29q49 17 65 66.5t16 164.5v525q0 115 -16 164.5t-65 66.5v29h788l18 -201l-26 -4q-46 102 -111.5 138t-204.5 36h-165v-430h45q110 0 176 16t96 44.5t45 78.5h27v-309h-27q-15 50 -45 78.5 t-96 44.5t-176 16h-45v-420q0 -50 26.5 -76t75.5 -26h98q117 0 183.5 40.5t121.5 141.5l27 -4l-16 -209h-815zM1571 1540l207 178q41 37 60 47.5t42 10.5q38 0 83.5 -26t45.5 -48q0 -23 -15 -39.5t-63 -30.5l-352 -106z" />
<glyph horiz-adv-x="1789" d="M1372 -20q-116 0 -211 38t-157.5 100t-113 137.5t-87.5 154t-70 146t-71.5 117t-81.5 62.5h-43h-142v-475q0 -115 16.5 -164.5t65.5 -66.5v-29h-381v29q49 17 65.5 66.5t16.5 164.5v914q0 115 -16.5 164.5t-65.5 66.5v29h430q129 0 226.5 -18.5t156 -48.5t94.5 -74 t49 -88.5t13 -98.5q0 -141 -95 -237t-280 -124q75 -24 141.5 -75t115 -112.5t95.5 -130.5t93 -133t96.5 -116t117 -83.5t144.5 -31.5q75 0 142.5 34.5t107.5 86.5l20 -16q-61 -77 -167 -132.5t-224 -55.5zM395 768h131q165 0 243.5 80t78.5 209q0 65 -21.5 124.5 t-63.5 109.5t-114 80t-164 30q-43 0 -90 -6v-627zM1313 389v29q49 17 65.5 66.5t16.5 164.5v525q0 115 -16.5 164.5t-65.5 66.5v29h366v-29q-49 -17 -65.5 -66.5t-16.5 -164.5v-525q0 -115 16.5 -164.5t65.5 -66.5v-29h-366z" />
<glyph horiz-adv-x="2502" d="M1853 389q-81 0 -158.5 19t-148.5 59.5t-123.5 98.5t-84 143t-31.5 186q0 121 46 226t122 175.5t174.5 111t203.5 40.5q78 0 154 -18t147.5 -58t125 -98.5t86 -145t32.5 -190.5q0 -126 -51 -232.5t-131 -174t-175 -105t-188 -37.5zM96 0v29q49 17 65.5 66.5t16.5 164.5 v914q0 115 -16.5 164.5t-65.5 66.5v29h430q129 0 226.5 -18.5t156 -48.5t94.5 -74t49 -88.5t13 -98.5q0 -141 -95 -237t-282 -124q116 -21 218 -70.5t176.5 -110.5t143.5 -130.5t132 -135t127.5 -118.5t144.5 -85t170 -32q75 0 142.5 34.5t107.5 86.5l21 -16 q-62 -78 -170.5 -133t-239.5 -55q-102 0 -193.5 26t-161.5 69.5t-133 100t-116 119.5t-103.5 125.5t-101 119t-102.5 100t-114.5 69.5t-131.5 26h-109v-475q0 -115 16.5 -164.5t65.5 -66.5v-29h-381zM395 768h131q165 0 243.5 80t78.5 209q0 65 -21.5 124.5t-63.5 109.5 t-114 80t-164 30q-43 0 -90 -6v-627zM1511 1049q0 -94 27.5 -198.5t77.5 -199t131.5 -156t177.5 -61.5q72 0 125.5 29.5t83 80t43.5 110t14 128.5q0 99 -32.5 211t-88.5 208.5t-141.5 156t-179.5 49.5q-64 -7 -111.5 -38.5t-74.5 -82t-39.5 -109.5t-12.5 -128z" />
<glyph horiz-adv-x="2164" d="M1454 -20q-112 0 -202.5 38t-151 100t-111 137t-95 153.5t-89 146t-106 117t-134.5 63.5h-28h-142v-475q0 -115 16.5 -164.5t65.5 -66.5v-29h-381v29q49 17 65.5 66.5t16.5 164.5v914q0 115 -16.5 164.5t-65.5 66.5v29h430q129 0 226.5 -18.5t156 -48.5t94.5 -74 t49 -88.5t13 -98.5q0 -139 -93.5 -234.5t-275.5 -123.5q80 -19 149.5 -54.5t121.5 -79.5t98.5 -95.5t85 -104t76 -104t76 -96t80.5 -78.5t95.5 -53.5t114.5 -19.5q75 0 142.5 34.5t107.5 86.5l21 -16q-62 -78 -170 -133t-240 -55zM395 768h131q165 0 243.5 80t78.5 209 q0 65 -21.5 124.5t-63.5 109.5t-114 80t-164 30q-43 0 -90 -6v-627zM1331 758l21 4q68 -153 176.5 -244t240.5 -92q92 -1 150.5 51t58.5 125q0 92 -67 142t-215 96q-92 28 -147 51t-105.5 58.5t-73 84t-22.5 115.5q0 127 101 213t298 86q86 0 171.5 -14.5t139.5 -36.5 l10 -226l-24 -4q-55 113 -146 182.5t-200 69.5q-95 0 -154 -44t-59 -111q0 -81 67 -128t220 -98q8 -3 24 -8q35 -12 53 -18t50.5 -18.5t50 -22t44 -25t41.5 -30t32.5 -35.5t26.5 -43.5t15.5 -51.5t6.5 -61q0 -49 -12.5 -94.5t-42 -89.5t-73.5 -76.5t-113 -52t-155 -19.5 q-107 0 -206 27.5t-162 68.5z" />
<glyph horiz-adv-x="2467" d="M1915 389q-75 0 -142 14t-130.5 48t-109.5 86t-73.5 133t-27.5 184v320q0 115 -16.5 164.5t-65.5 66.5v29h344v-29q-49 -17 -65.5 -66.5t-16.5 -164.5v-330q0 -414 360 -414q46 0 90.5 13t88 44t76.5 77.5t53 120.5t20 165v201q0 123 -17.5 196t-50 106.5t-88.5 51.5v29 h269v-29q-49 -17 -65.5 -66.5t-16.5 -164.5v-320q0 -238 -112 -351.5t-304 -113.5zM96 0v29q49 17 65.5 66.5t16.5 164.5v914q0 115 -16.5 164.5t-65.5 66.5v29h430q129 0 226.5 -18.5t156 -48.5t94.5 -74t49 -88.5t13 -98.5q0 -141 -95 -237t-282 -124q116 -21 218 -70.5 t176.5 -110.5t143.5 -130.5t132 -135t127.5 -118.5t144.5 -85t170 -32q75 0 142.5 34.5t107.5 86.5l21 -16q-62 -78 -170.5 -133t-239.5 -55q-102 0 -193.5 26t-161.5 69.5t-133 100t-116 119.5t-103.5 125.5t-101 119t-102.5 100t-114.5 69.5t-131.5 26h-109v-475 q0 -115 16.5 -164.5t65.5 -66.5v-29h-381zM395 768h131q165 0 243.5 80t78.5 209q0 65 -21.5 124.5t-63.5 109.5t-114 80t-164 30q-43 0 -90 -6v-627z" />
<glyph horiz-adv-x="2066" d="M371 0v29q49 17 65.5 66.5t16.5 164.5v1137h-50q-138 0 -216 -47t-134 -168l-24 4l12 248h1452l12 -248l-24 -4q-56 121 -134.5 168t-216.5 47h-458v-1137q0 -115 16.5 -164.5t65.5 -66.5v-29h-383zM870 485q0 121 46 226t122 175.5t175 111t204 40.5q78 0 154 -18 t147.5 -58t125 -98.5t86 -145t32.5 -190.5q0 -126 -51 -232.5t-131.5 -173.5t-175 -104.5t-187.5 -37.5q-103 0 -198.5 31t-174.5 90.5t-126.5 159t-47.5 224.5zM1075 639q0 -94 27.5 -198.5t77.5 -198.5t131.5 -155.5t177.5 -61.5q72 0 125.5 29.5t83 80t43.5 110t14 128.5 q0 79 -20 167.5t-60 172.5t-92 150.5t-123 104t-147 29.5q-64 -7 -111.5 -38.5t-74.5 -82t-39.5 -109.5t-12.5 -128z" />
<glyph horiz-adv-x="491" d="M57 0v29q49 17 65.5 66.5t16.5 164.5v471q0 83 -18.5 113.5t-63.5 50.5v29l271 118l20 -16v-766q0 -115 16.5 -164.5t65.5 -66.5v-29h-373zM92 1251q0 60 40 101t99 41q61 0 100.5 -40.5t39.5 -101.5q0 -58 -40.5 -98.5t-99.5 -40.5t-99 40t-40 99z" />
<glyph horiz-adv-x="497" d="M-199 -569q-57 0 -93 14t-36 43q0 36 39 80.5t90 44.5q25 0 61.5 -4.5t58.5 -8.5t78 -15.5t71 -14.5q17 13 30.5 26.5t23 31.5t16.5 30t11 38t6.5 39.5t3.5 48.5t1 51.5v62.5v32v801q0 83 -18.5 113.5t-63.5 50.5v29l270 118l21 -16v-938q0 -103 -50 -220t-128.5 -213.5 t-184 -160t-207.5 -63.5zM68 1200l206 219q36 37 56.5 47.5t46.5 10.5q38 0 83.5 -26t45.5 -48q0 -20 -15.5 -34.5t-62.5 -35.5l-352 -147z" />
<glyph horiz-adv-x="1046" d="M811 0q-82 0 -82 82v326q-27 -120 -77 -214t-132 -154t-182 -60q-119 0 -199 71.5t-80 196.5q0 44 12 82t30.5 66.5t52.5 54.5t66.5 44t83.5 37.5t92.5 32.5t105.5 31l227 66v6v26v54t-3 50t-9.5 50t-19 43t-31 41t-46.5 32.5t-65 28.5q-167 -126 -219 -157 q-75 -45 -119 -45q-36 0 -53 22t-17 55q0 43 13.5 73t36 48t61 28t78.5 13.5t98 3.5q59 0 125 -13.5t133 -44t120.5 -73t87.5 -107.5t34 -141v-395q0 -115 16.5 -164.5t65.5 -66.5v-29h-205zM250 319q0 -94 56 -142t134 -48q71 0 129 46.5t91 119t50.5 150.5t18.5 151v37 l-219 -64q-38 -11 -65 -20.5t-67 -30.5t-65 -45.5t-44 -64.5t-19 -89z" />
<glyph horiz-adv-x="944" d="M57 0v29q49 17 65.5 66.5t16.5 164.5v471q0 83 -18.5 113.5t-63.5 50.5v29l271 118l20 -16v-238q39 96 96 156q85 92 174 92q50 0 132.5 -25.5t115.5 -25.5q31 0 52.5 11.5t48.5 43.5l18 -10q-37 -54 -56 -80t-48 -57t-55.5 -43t-57.5 -12q-70 0 -305 82 q-35 -34 -73 -108.5t-42 -143.5v-408q0 -115 16.5 -164.5t65.5 -66.5v-29h-373z" />
<glyph horiz-adv-x="1822" d="M1184 -18q-107 0 -201.5 42t-153.5 109l-84 -133h-22v1407l-221 76q-58 -30 -103 -107t-45 -192v-160h203l-12 -31h-191v-733q0 -115 16.5 -164.5t65.5 -66.5v-29h-373v29q49 17 65.5 66.5t16.5 164.5v715v18h-92l13 31h81q12 107 71 212.5t144 184.5t193 128.5t213 49.5 l27 -2l118 56l19 -13v-722q185 120 340 120q140 0 248.5 -71t163.5 -182t55 -240q0 -157 -67 -284.5t-194.5 -203t-293.5 -75.5zM932 360q0 -78 50 -156.5t128 -128.5t154 -50q63 0 111.5 20.5t79 54t49.5 81.5t26.5 98.5t7.5 109.5q0 50 -8 106.5t-25 122t-48.5 124.5 t-72.5 107.5t-102.5 77.5t-134.5 29q-103 0 -215 -71v-525z" />
<glyph horiz-adv-x="1781" d="M641 0v29q49 17 65.5 66.5t16.5 164.5v1147l-221 76q-58 -30 -103 -107t-45 -192v-160h203l-12 -31h-191v-733q0 -115 16.5 -164.5t65.5 -66.5v-29h-373v29q49 17 65.5 66.5t16.5 164.5v715v18h-92l13 31h81q12 107 71 212.5t144 184.5t193 128.5t213 49.5l27 -2l118 56 l19 -13v-792q228 190 428 190q148 0 231.5 -82.5t83.5 -255.5v-440q0 -115 16.5 -164.5t65.5 -66.5v-29h-373v29q49 17 65.5 66.5t16.5 164.5v404q0 140 -59 216t-172 76q-71 0 -141.5 -34.5t-159.5 -106.5l-2 2v-557q0 -115 16.5 -164.5t65.5 -66.5v-29h-373z" />
<glyph horiz-adv-x="978" d="M72 0v29q49 17 65.5 66.5t16.5 164.5v717v16h-101l13 31h90q11 107 70 211.5t144.5 183.5t195.5 127.5t218 48.5q71 0 119.5 -17.5t48.5 -51.5q0 -63 -47 -115.5t-110 -52.5q-104 0 -299 123q-27 -15 -46 -31t-41.5 -48.5t-34.5 -87.5t-12 -130v-160h277l-12 -31h-265 v-733q0 -115 16.5 -164.5t65.5 -66.5v-29h-372zM240 -512q0 36 39 80.5t90 44.5q25 0 61 -4.5t58.5 -8.5t77 -15.5t71.5 -14.5q17 13 30.5 26.5t23 31.5t16.5 30t11 38t6.5 39.5t3.5 48.5t1 51.5v62.5v32v801q0 83 -18.5 113.5t-63.5 50.5v29l271 118l20 -16v-938 q0 -138 -82 -291.5t-216.5 -259.5t-270.5 -106q-57 0 -93 14t-36 43z" />
<glyph horiz-adv-x="1683" d="M641 0v29q49 17 65.5 66.5t16.5 164.5v1147l-221 76q-58 -30 -103 -107t-45 -192v-160h203l-12 -31h-191v-733q0 -115 16.5 -164.5t65.5 -66.5v-29h-373v29q49 17 65.5 66.5t16.5 164.5v715v18h-92l13 31h81q12 107 71 212.5t144 184.5t193 128.5t213 49.5l27 -2l118 56 l19 -13v-1175l319 317q61 61 89 112t24.5 77.5t-25.5 34.5v18h260v-29q-63 -19 -121 -52t-128 -103l-131 -131l243 -441q69 -124 121.5 -181.5t120.5 -57.5v-29h-164q-79 0 -151 57t-142 189l-170 323l-145 -145v-164q0 -115 16.5 -164.5t65.5 -66.5v-29h-373z" />
<glyph horiz-adv-x="1239" d="M610 -20q-103 0 -198.5 31t-174.5 90.5t-126.5 159t-47.5 224.5q0 121 46 226t122 175.5t175 111t204 40.5q78 0 154 -18t147.5 -58t125 -98.5t86 -145t32.5 -190.5q0 -126 -51 -232.5t-131.5 -173.5t-175 -104.5t-187.5 -37.5zM268 639q0 -94 27.5 -198.5t77.5 -198.5 t131.5 -155.5t177.5 -61.5q72 0 125.5 29.5t83 80t43.5 110t14 128.5q0 79 -20 167.5t-60 172.5t-92 150.5t-123 104t-147 29.5q-64 -7 -111.5 -38.5t-74.5 -82t-39.5 -109.5t-12.5 -128z" />
<glyph horiz-adv-x="643" d="M127 0v29q59 17 78.5 66.5t19.5 164.5v567l-180 -75l-4 14l385 268h16v-774q0 -115 20 -164.5t79 -66.5v-29h-414z" />
<glyph horiz-adv-x="858" d="M20 29q214 185 264 231q187 176 243 314q30 74 30 149q0 104 -51.5 155.5t-145.5 51.5q-138 0 -258 -129l-16 16q78 104 178.5 162.5t216.5 58.5q124 0 200.5 -69.5t76.5 -180.5q0 -41 -11.5 -82.5t-28.5 -78t-47.5 -77t-58.5 -72t-71 -70.5t-74.5 -65.5t-81.5 -63.5 t-79.5 -58t-78.5 -55h275q104 0 156.5 9.5t78 32t45.5 71.5l23 -3l-31 -276h-754v29z" />
<glyph horiz-adv-x="923" d="M51 -512q286 122 429 284t143 337q0 145 -64.5 211.5t-167.5 66.5q-71 0 -131 -25l-10 23q142 68 213.5 151.5t71.5 194.5q0 85 -55 136t-150 51q-73 0 -149.5 -37.5t-141.5 -108.5l-19 19q102 122 206.5 184.5t234.5 62.5q123 0 197.5 -69t74.5 -166q0 -122 -84 -210 t-231 -157q50 8 90 8q44 0 88.5 -8.5t91 -30t82 -54t58 -85.5t22.5 -119q0 -100 -43.5 -190t-114 -159.5t-176 -133.5t-212 -111t-238.5 -94z" />
<glyph horiz-adv-x="1046" d="M31 0l-11 20l752 1018h39v-895h193l2 -4l-15 -108q-3 -29 -49 -29h-131v-152q0 -115 16.5 -164.5t65.5 -66.5v-29h-377v29q49 17 65.5 66.5t16.5 164.5v150h-567zM154 143h444v605z" />
<glyph horiz-adv-x="886" d="M20 -512q143 63 269.5 173t206 248t79.5 267q0 123 -76.5 187t-213.5 61q-99 -2 -205 -23l-21 15l111 608h315q129 0 192 33t91 100l27 -12q-20 -46 -34.5 -74.5t-46.5 -72.5t-67.5 -70t-92.5 -46t-126 -20h-256l-51 -305q116 35 270 35q102 0 181.5 -28t127.5 -75 t72.5 -105t24.5 -122q0 -239 -193.5 -437.5t-568.5 -365.5z" />
<glyph horiz-adv-x="1101" d="M557 -20q-215 0 -350 151t-135 404q0 96 27.5 202t88 219.5t147 218.5t213.5 202t279 167l19 -26q-100 -47 -182.5 -112t-137.5 -133t-96.5 -148t-64 -149.5t-37.5 -144.5q149 107 313 107q180 0 289.5 -118.5t109.5 -325.5q0 -105 -31 -193t-80.5 -146t-114 -98.5 t-129.5 -58.5t-128 -18zM305 592q0 -116 18.5 -217.5t54 -182t94.5 -127.5t134 -47q116 0 172 93t56 254q0 233 -76.5 360t-227.5 127q-108 0 -208 -59q-17 -97 -17 -201z" />
<glyph horiz-adv-x="892" d="M182 -410q0 188 135 484q46 103 117 231.5t170.5 299t145.5 253.5l-455 6q-83 3 -130 1t-71 -21.5t-49 -77.5l-25 2l39 256h813v-16q-136 -239 -239 -503t-154 -446q-35 -127 -46.5 -255.5t3.5 -213.5h-254z" />
<glyph horiz-adv-x="1079" d="M524 -20q-81 0 -159 21t-144.5 60.5t-107.5 106t-41 149.5q0 233 276 418q-95 67 -148 150.5t-53 199.5q0 63 28.5 127t79.5 117t130.5 86t173.5 33q162 0 261.5 -83t99.5 -200q0 -191 -242 -360q62 -35 100.5 -59.5t87 -62.5t76 -73.5t47 -84t19.5 -101.5 q0 -197 -139 -320.5t-345 -123.5zM279 410q0 -103 27.5 -180.5t74 -120.5t98.5 -63.5t109 -20.5q65 0 116 22.5t80 59.5t43.5 79.5t14.5 87.5q0 55 -21.5 103.5t-53 83t-82.5 70.5t-96 61t-108 60.5t-104 62.5q-98 -98 -98 -305zM303 1198q0 -37 10 -71t25.5 -62t42.5 -56.5 t51.5 -49t63 -46.5t66.5 -42.5t73 -41.5q38 62 63 144.5t25 156.5q0 51 -9 95.5t-30.5 89t-66 70.5t-107.5 26q-100 0 -153.5 -61.5t-53.5 -151.5z" />
<glyph horiz-adv-x="1101" d="M545 1040q215 0 350 -151t135 -404q0 -96 -27.5 -202t-88 -219.5t-147 -218.5t-214 -202t-279.5 -167l-18 26q100 47 182.5 112t137.5 133t96.5 147.5t64 149t37.5 144.5q-148 -106 -313 -106q-180 0 -290 118.5t-110 325.5q0 105 31 193t81 146t114 98.5t129.5 58.5 t128.5 18zM268 655q0 -233 76 -360t227 -127q109 0 209 59q17 97 17 201q0 116 -18.5 217t-54 182t-94.5 127.5t-134 46.5q-116 0 -172 -92.5t-56 -253.5z" />
<glyph horiz-adv-x="296" d="M139 2q0 66 -38 112t-113 46v24q74 0 112.5 49.5t38.5 114.5h25q0 -64 38.5 -114t106.5 -50v-24q-69 0 -107 -46.5t-38 -111.5h-25z" />
</font>
</defs>
</svg>
