<?xml version="1.0" standalone="no"?>
<!DOCTYPE svg PUBLIC "-//W3C//DTD SVG 1.1//EN" "http://www.w3.org/Graphics/SVG/1.1/DTD/svg11.dtd" >
<svg xmlns="http://www.w3.org/2000/svg" xmlns:xlink="http://www.w3.org/1999/xlink" version="1.1">
<metadata></metadata>
<defs>
<font id="the_seasonsregular" horiz-adv-x="485" >
<font-face units-per-em="2048" ascent="1638" descent="-410" />
<missing-glyph horiz-adv-x="430" />
<glyph horiz-adv-x="0" />
<glyph horiz-adv-x="682" />
<glyph unicode=" "  horiz-adv-x="430" />
<glyph unicode="&#x09;" horiz-adv-x="430" />
<glyph unicode="&#xa0;" horiz-adv-x="430" />
<glyph unicode="!" horiz-adv-x="456" d="M217 326l-92 983l186 112l13 -8l-82 -1087h-25zM123 96q0 44 31.5 76.5t74.5 32.5t74 -32.5t31 -76.5t-31 -77t-74 -33t-74.5 33t-31.5 77z" />
<glyph unicode="&#x22;" horiz-adv-x="569" d="M78 1327q-8 55 9 88t56 33q38 0 56 -33.5t10 -87.5l-57 -405h-17zM344 1327q-8 55 9.5 88t56.5 33q38 0 55.5 -33t9.5 -88l-57 -405h-17z" />
<glyph unicode="#" horiz-adv-x="1656" d="M1071 -2v442h-496v-442h-32v442h-437v27h437v504h-437v26h437v437h32v-437h496v437h33v-437h438v-26h-438v-504h438v-27h-438v-442h-33zM575 467h496v504h-496v-504z" />
<glyph unicode="$" horiz-adv-x="1105" d="M539 -20q-121 0 -238.5 29t-179.5 81l-23 322l21 2q55 -203 160 -296.5t274 -99.5v590q-14 6 -41 19q-46 21 -70 32.5t-67 33t-66.5 36.5t-58.5 39t-54.5 44.5t-43 48.5t-35.5 56.5t-20.5 63t-8.5 72.5q0 70 28.5 136.5t83.5 123t146.5 93t206.5 42.5v190h33v-190h8 q210 0 362 -86l23 -236l-18 -4q-43 99 -103 162.5t-125.5 90.5t-146.5 32v-604q61 -27 91.5 -41t84.5 -42.5t83 -49t67 -53.5t57 -64t33 -72.5t14 -87.5q0 -171 -117.5 -284.5t-312.5 -126.5v-248h-33v246h-14zM207 1155q0 -49 20 -93t49 -75.5t79 -64.5t91.5 -54.5 t106.5 -50.5v592h-18q-156 0 -242 -76.5t-86 -177.5zM586 18q148 3 223.5 77t75.5 190q0 55 -22.5 100.5t-68 83.5t-92 65t-116.5 60v-576z" />
<glyph unicode="%" horiz-adv-x="1591" d="M186 -10l-20 20l1218 1434l21 -21zM47 1071q0 87 33.5 159t88.5 118t122.5 71t138.5 25q67 0 129 -22t111.5 -63t79.5 -105.5t30 -143.5q0 -95 -35 -171.5t-92 -121.5t-121.5 -68.5t-130.5 -23.5q-65 0 -127 22t-113.5 63t-82.5 109t-31 152zM154 1153q0 -155 88 -270 t215 -115q100 0 159.5 66.5t59.5 185.5q0 153 -84 269t-215 116q-99 0 -162.5 -67t-60.5 -185zM815 324q0 87 34 160t89 118.5t123 70.5t139 25q91 0 168.5 -37t128.5 -114.5t51 -181.5q0 -95 -35 -171.5t-91 -121.5t-120.5 -68.5t-130.5 -23.5q-65 0 -127.5 22t-114 63 t-83 108.5t-31.5 150.5zM922 408q0 -155 88 -270t215 -115q102 0 161.5 65t59.5 184q0 153 -85 270t-216 117q-99 0 -161.5 -66.5t-61.5 -184.5z" />
<glyph unicode="&#x26;" horiz-adv-x="1755" d="M1290 -14q-68 0 -179.5 77.5t-240.5 204.5q-73 -139 -178.5 -213.5t-230.5 -74.5q-176 0 -289 116.5t-113 280.5q0 141 92 253t273 175q-105 173 -105 299q0 60 24.5 118.5t74.5 110t138 83.5t202 32q168 0 284 -66l23 -237l-18 -4q-35 82 -78.5 138t-91 82.5t-90 37 t-91.5 10.5q-117 0 -178 -68t-61 -153q0 -60 27 -132t78.5 -149t98 -137.5t111.5 -136.5q197 -228 384.5 -391.5t275.5 -163.5q116 0 116 321q0 100 -33.5 210t-78.5 126h-449l10 29h740l-11 -29h-237q86 -40 138 -121t52 -178q0 -84 -36.5 -167.5t-93 -144.5t-126 -99.5 t-133.5 -38.5zM203 451q0 -67 23.5 -131.5t65.5 -115.5t107.5 -82.5t143.5 -31.5q83 0 167.5 52.5t139.5 146.5q-98 98 -205 227q-143 168 -207 268q-235 -93 -235 -333z" />
<glyph unicode="'" horiz-adv-x="299" d="M86 1327q-8 55 9.5 88t56.5 33q38 0 55.5 -33t9.5 -88l-57 -405h-17z" />
<glyph unicode="(" horiz-adv-x="819" d="M731 -555q-164 109 -291.5 288.5t-195.5 386.5t-68 408q0 203 68 406t204 388t322 316l14 -18q-125 -90 -219.5 -218t-150.5 -273t-83.5 -295.5t-27.5 -305.5q0 -153 25.5 -302t77 -291t138.5 -265.5t201 -208.5z" />
<glyph unicode=")" horiz-adv-x="819" d="M92 -539q114 85 201.5 208.5t139 265.5t77 291t25.5 302q0 154 -27.5 305t-83.5 296t-151 273t-220 218l15 18q186 -131 322 -316t204 -388t68 -406q0 -307 -154 -612.5t-402 -470.5z" />
<glyph unicode="*" horiz-adv-x="718" d="M354 776q-34 0 -50.5 29t-6.5 74l51 225l-170 -156q-33 -32 -67 -32t-52 30q-16 29 2 58.5t62 42.5l219 67l-219 70q-45 13 -62 42t-2 58q18 30 52 30t67 -32l170 -156l-51 226q-10 44 6.5 73t50.5 29t51 -29t7 -73l-52 -226l170 156q33 32 67 32t52 -30q16 -29 -1.5 -58 t-61.5 -42l-219 -70l219 -67q44 -13 61.5 -42.5t1.5 -58.5q-18 -30 -52 -30t-67 32l-170 156l52 -225q10 -45 -7 -74t-51 -29z" />
<glyph unicode="+" horiz-adv-x="1142" d="M555 322v346h-350l12 28h338v338l29 13v-351h346l-12 -28h-334v-334z" />
<glyph unicode="," d="M113 -260q76 38 115 106.5t44 151.5q-27 -10 -49 -10q-41 0 -70.5 29.5t-29.5 70.5q0 51 30.5 84t79.5 33q61 0 95.5 -42t33.5 -116q0 -108 -72.5 -200t-168.5 -126z" />
<glyph unicode="-" horiz-adv-x="747" d="M106 498v28h535v-28h-535z" />
<glyph unicode="." horiz-adv-x="456" d="M229 -14q-43 0 -74.5 33t-31.5 77t31.5 76.5t74.5 32.5t74 -32.5t31 -76.5t-31 -77t-74 -33z" />
<glyph unicode="/" horiz-adv-x="798" d="M-45 -559l-29 12l918 2192l28 -13z" />
<glyph unicode="0" horiz-adv-x="1396" d="M707 -20q-89 0 -177.5 28.5t-170.5 89t-145 146t-100.5 209t-37.5 268.5q0 162 52 301t138 231t197 143.5t229 51.5q89 0 177 -28.5t170 -89t144.5 -146t100 -209t37.5 -268.5q0 -162 -52 -301t-138 -231t-196 -143.5t-228 -51.5zM242 844q-1 -154 37.5 -301.5 t106.5 -264t170.5 -187.5t221.5 -71q180 0 277.5 154.5t99.5 407.5q1 155 -37 303t-105.5 264t-169 187t-218.5 71q-123 0 -210 -73t-129.5 -198.5t-43.5 -291.5z" />
<glyph unicode="1" horiz-adv-x="618" d="M137 0v27q58 14 78.5 61t20.5 172v1004l-181 -76l-4 14l336 242h16v-1184q0 -125 20.5 -172t78.5 -61v-27h-365z" />
<glyph unicode="2" horiz-adv-x="1017" d="M10 29q219 210 298 294q315 334 384 590q21 80 21 154q0 127 -71.5 200.5t-190.5 73.5q-175 0 -301 -141l-17 19q192 229 430 229q140 0 235.5 -89t96.5 -241q0 -57 -14 -116.5t-36 -112.5t-59.5 -112.5t-72 -107t-87 -105t-92 -97.5t-98 -94.5t-94 -85.5t-92.5 -80 t-80 -70h467q101 0 156.5 15.5t81 45.5t45.5 91l20 -2l-31 -287h-899v29z" />
<glyph unicode="3" horiz-adv-x="964" d="M63 -260q191 98 337 233.5t221 276.5t75 268q0 68 -15 120.5t-39 84.5t-58 52.5t-68 28t-74 7.5q-71 0 -139 -35l-8 21q151 70 225 154.5t74 199.5q0 91 -59 143t-158 52q-158 0 -287 -132l-18 19q95 106 192.5 160.5t216.5 54.5q124 0 199.5 -71t75.5 -169 q0 -53 -17 -99.5t-44 -81.5t-72 -70.5t-90.5 -61.5t-110.5 -59q53 16 117 16q43 0 86.5 -8.5t89.5 -30.5t81.5 -54.5t58 -86t22.5 -119.5q0 -100 -42.5 -197.5t-113 -180.5t-177 -167t-217.5 -152.5t-251 -142.5z" />
<glyph unicode="4" horiz-adv-x="1048" d="M31 362l-11 21l771 1065h34v-981h168l2 -4l-14 -70q-7 -28 -49 -28h-107v-105q0 -125 17 -172t65 -61v-27h-329v27q47 14 64 61.5t17 171.5v102h-628zM121 467h538v747z" />
<glyph unicode="5" horiz-adv-x="952" d="M37 -262q288 182 457.5 396.5t169.5 416.5q0 139 -90 211t-246 69q-73 -1 -219 -30l-21 14l105 619h315q130 0 194.5 32.5t92.5 98.5l22 -11q-18 -41 -34 -70.5t-47 -66t-67 -59.5t-92.5 -39t-125.5 -16h-252l-58 -369q112 37 262 37q115 0 202.5 -32t137.5 -86 t74.5 -116.5t24.5 -130.5q0 -219 -198 -436t-589 -457z" />
<glyph unicode="6" horiz-adv-x="1073" d="M545 -20q-213 0 -341 150t-128 405q0 122 43 259t128 281.5t229.5 289.5t330.5 261l16 -24q-102 -66 -186.5 -147t-141.5 -160.5t-101 -168t-68.5 -163.5t-40.5 -152q70 59 153 92t166 33q179 0 291.5 -118t112.5 -324q0 -105 -29 -193t-75.5 -146t-108 -98.5 t-124.5 -58.5t-126 -18zM260 592q0 -116 20 -217t59 -182t105 -128t152 -47q112 0 184 90.5t72 268.5q0 217 -91.5 349t-248.5 132q-126 0 -233 -80q-19 -103 -19 -186z" />
<glyph unicode="7" horiz-adv-x="837" d="M188 0q0 185 136 483q38 84 97.5 200.5t95.5 184t125.5 232.5t107.5 198l-471 7q-131 2 -175.5 -23.5t-83.5 -126.5l-18 2l41 277h809v-17q-139 -245 -252 -516.5t-158 -431.5q-37 -135 -48 -260.5t5 -208.5h-211z" />
<glyph unicode="8" horiz-adv-x="1069" d="M502 -20q-74 0 -147 21t-136.5 60.5t-103 106t-39.5 149.5q0 224 291 431q-102 67 -158.5 149.5t-56.5 196.5q0 63 27 125.5t76.5 113.5t127.5 83t172 32q157 0 253.5 -83t96.5 -200q0 -195 -254 -377q64 -35 102.5 -58t89.5 -61.5t79 -73.5t48.5 -84.5t20.5 -104.5 q0 -187 -136.5 -306.5t-352.5 -119.5zM229 391q0 -82 24 -148t61.5 -105.5t86 -66t92.5 -36.5t87 -10q126 0 206 74t80 186q0 57 -22 106.5t-54 84.5t-84.5 72t-97.5 61.5t-110.5 60t-106.5 61.5q-76 -63 -119 -153.5t-43 -186.5zM268 1188q0 -46 12.5 -86.5t40.5 -76 t55.5 -63t75 -58t80.5 -50t89 -49.5q55 65 93 153t38 175q0 49 -12.5 95t-39.5 88.5t-77.5 68.5t-118.5 26q-113 0 -174.5 -66t-61.5 -157z" />
<glyph unicode="9" horiz-adv-x="1073" d="M528 1448q213 0 341 -150t128 -405q0 -122 -43 -259t-128 -282t-229.5 -290t-330.5 -261l-16 25q102 66 186.5 147t141.5 160.5t101 167.5t68.5 163t40.5 152q-69 -59 -152.5 -91.5t-166.5 -32.5q-179 0 -291 118t-112 324q0 105 28.5 193t75.5 146t108 98.5t124 58.5 t126 18zM221 1051q0 -217 91.5 -349.5t248.5 -132.5q127 0 234 80q18 98 18 187q0 116 -20 217t-59 182t-105 127.5t-152 46.5q-112 0 -184 -90t-72 -268z" />
<glyph unicode=":" horiz-adv-x="354" d="M229 -14q-43 0 -74.5 33t-31.5 77t31.5 76.5t74.5 32.5t74 -32.5t31 -76.5t-31 -77t-74 -33zM123 772q0 44 31.5 76.5t74.5 32.5t74 -32.5t31 -76.5t-31 -77t-74 -33t-74.5 33t-31.5 77z" />
<glyph unicode=";" horiz-adv-x="354" d="M135 -260q76 38 115.5 106.5t44.5 151.5q-27 -10 -49 -10q-41 0 -71 29.5t-30 70.5q0 51 31 84t80 33q61 0 95.5 -42t33.5 -116q0 -107 -73 -199.5t-169 -126.5zM123 772q0 44 31.5 76.5t74.5 32.5t74 -32.5t31 -76.5t-31 -77t-74 -33t-74.5 33t-31.5 77z" />
<glyph unicode="&#x3c;" horiz-adv-x="1142" d="M887 399l-602 269v37l602 268l12 -25l-580 -262l580 -262z" />
<glyph unicode="=" horiz-adv-x="1142" d="M205 829l12 29h713l-12 -29h-713zM205 502l12 28h713l-12 -28h-713z" />
<glyph unicode="&#x3e;" horiz-adv-x="1142" d="M297 399l-12 25l579 262l-579 262l12 25l602 -268v-37z" />
<glyph unicode="?" horiz-adv-x="804" d="M313 311l-12 6l-2 402q109 54 178.5 126.5t94 138t24.5 134.5q0 63 -20.5 112t-55 77.5t-75 42.5t-85.5 14q-99 0 -182.5 -58t-130.5 -163l-27 12q58 129 167.5 211t256.5 82q131 0 221.5 -76.5t90.5 -208.5q0 -236 -322 -403l12 -377zM264 96q0 44 32 76.5t75 32.5 t73.5 -32.5t30.5 -76.5t-30.5 -77t-73.5 -33t-75 33t-32 77z" />
<glyph unicode="@" horiz-adv-x="1953" d="M688 -406q-94 0 -176 14.5t-163 52.5t-138.5 96.5t-93 154.5t-35.5 219q0 130 48.5 270t131.5 268t199.5 244t248 201.5t281.5 135.5t295 50q126 0 228 -27.5t168 -72.5t110 -105.5t63 -123.5t19 -129q0 -111 -37.5 -223t-99.5 -205.5t-142.5 -175.5t-166 -139 t-171.5 -89.5t-157 -32.5q-59 0 -90 35t-31 84q0 132 170 510q-65 -100 -115.5 -173.5t-119.5 -163.5t-124 -147t-114 -96.5t-105 -39.5q-58 0 -95.5 57t-37.5 133q0 85 40 200t109.5 229t153.5 212t181.5 159.5t183.5 61.5q57 0 115 -34.5t102 -100.5l109 133l20 -10 q-119 -207 -231 -485q-131 -312 -131 -416q0 -18 1 -27t7.5 -27.5t25 -28t47.5 -9.5q79 0 155 36t136.5 96t111.5 138.5t85 164t53 171t19 160.5q0 68 -12 127.5t-45 121t-86 105t-142 71t-205 27.5q-144 0 -281.5 -46.5t-249 -126t-206 -186.5t-158.5 -226.5t-99.5 -246.5 t-35.5 -247q0 -95 20.5 -173.5t54 -131t80.5 -92t94.5 -61.5t102.5 -36t97 -18t85 -4q188 0 382.5 76.5t340.5 195.5l13 -18q-63 -52 -143 -103t-183.5 -101t-226.5 -81t-240 -31zM596 211q0 -63 18 -98t50 -35q27 0 67 31t89.5 89t96 118.5t103 144t93 138.5t83.5 128 q8 12 12 18.5t10 16t11 16.5q4 4 4 6q-102 186 -227 183q-62 -1 -125.5 -56.5t-113 -143t-89 -189t-61 -199t-21.5 -168.5z" />
<glyph unicode="A" horiz-adv-x="1312" d="M-35 0v27q48 15 88 61t84 154l404 999q19 49 -4 96l-19 43l154 70l504 -1210q43 -105 80 -151t75 -62v-27h-317v27q24 7 33.5 17.5t4.5 39.5t-16.5 58.5t-40.5 97.5l-125 301h-577l-121 -299q-78 -194 25 -215v-27h-232zM305 571h553l-280 674z" />
<glyph unicode="B" horiz-adv-x="1253" d="M104 0v27q47 14 64.5 62t17.5 171v914q0 123 -17.5 171t-64.5 62v27h480q444 0 444 -271q0 -112 -78.5 -195t-244.5 -114q122 -6 215.5 -38t151 -84.5t86.5 -118t30 -142.5q1 -71 -19.5 -137t-70.5 -127.5t-125 -107t-191 -72.5t-260 -27h-418zM354 209q0 -110 20.5 -144 t86.5 -34h80q239 0 349.5 104t110.5 285q0 186 -108.5 296.5t-329.5 110.5h-209v-618zM354 858h191q146 0 221.5 74.5t75.5 193.5q0 129 -87.5 203t-244.5 74h-156v-545z" />
<glyph unicode="C" horiz-adv-x="1517" d="M879 -20q-356 0 -564.5 188t-208.5 520q0 162 61 302.5t168 241t260.5 158.5t330.5 58q128 0 263 -31t197 -71l9 -244l-21 -4q-61 142 -199.5 226.5t-318.5 84.5q-123 0 -227.5 -41t-183 -119t-122.5 -200t-44 -275q-1 -116 26 -226t82 -206t132.5 -167.5t185 -113 t231.5 -41.5q167 0 290.5 87t182.5 251l23 -2l-33 -266q-81 -45 -221 -77.5t-299 -32.5z" />
<glyph unicode="D" horiz-adv-x="1484" d="M104 0v27q47 14 64.5 62t17.5 171v914q0 123 -17.5 171t-64.5 62v27h490q137 0 253.5 -28t200.5 -77.5t149 -115t104 -144t58.5 -160t20.5 -166.5q1 -215 -89 -383.5t-259 -264t-391 -95.5h-537zM354 180q0 -79 26.5 -114t106.5 -35h150q272 0 414.5 157t142.5 474 q0 155 -46 289t-132 235t-220.5 159t-301.5 58h-140v-1223z" />
<glyph unicode="E" horiz-adv-x="1206" d="M104 0v27q47 14 64.5 62t17.5 171v914q0 123 -17.5 171t-64.5 62v27h953l22 -267l-22 -6q-53 132 -147.5 187t-254.5 55h-301v-621h262q86 0 144 8.5t93 27.5t53 43t28 61h24v-310h-24q-10 37 -28 61t-53 43t-93 27.5t-144 8.5h-262v-629q0 -44 24 -68t68 -24h267 q155 0 248.5 54t146.5 191l22 -4l-16 -272h-1010z" />
<glyph unicode="F" horiz-adv-x="1144" d="M104 0v27q47 14 64.5 62t17.5 171v914q0 123 -17.5 171t-64.5 62v27h965l18 -215l-22 -7q-53 104 -129 146.5t-219 42.5h-363v-600h244q113 -1 180 15.5t94.5 44.5t42.5 77h25v-311h-25q-15 50 -43 78.5t-94.5 45.5t-179.5 17h-244v-508q0 -125 17 -172t65 -61v-27h-332z " />
<glyph unicode="G" horiz-adv-x="1519" d="M860 -20q-343 0 -548.5 198.5t-205.5 528.5q0 153 55.5 289.5t152.5 236t237 157.5t301 58q131 0 262 -32.5t195 -74.5l8 -241l-21 -4q-59 138 -194 226.5t-309 88.5q-111 0 -205.5 -38t-164 -110t-110 -183t-41.5 -249q-1 -117 26 -233t83 -220t133 -184t183.5 -127 t226.5 -47q112 0 205 53t133 132l-2 209q0 99 -20.5 140t-84.5 58v25h268v-385q-88 -122 -246.5 -197t-316.5 -75z" />
<glyph unicode="H" horiz-adv-x="1486" d="M104 0v27q47 14 64.5 62t17.5 171v914q0 123 -17.5 171t-64.5 62v27h332v-27q-48 -14 -65 -61t-17 -172v-398h781v398q0 123 -17.5 171t-64.5 62v27h331v-27q-48 -14 -64.5 -61t-16.5 -172v-914q0 -125 16.5 -172t64.5 -61v-27h-331v27q47 14 64.5 62t17.5 171v483h-781 v-483q0 -125 17 -172t65 -61v-27h-332z" />
<glyph unicode="I" horiz-adv-x="540" d="M104 0v27q47 14 64.5 62t17.5 171v914q0 123 -17.5 171t-64.5 62v27h332v-27q-48 -14 -65 -61t-17 -172v-914q0 -125 17 -172t65 -61v-27h-332z" />
<glyph unicode="J" horiz-adv-x="565" d="M-131 -246q-44 0 -63 9t-19 36q0 35 31 65t82 30q52 0 204 -31q23 14 38.5 30t33.5 47.5t27.5 84.5t9.5 127v1022q0 125 -17 172t-65 61v27h330v-27q-48 -14 -65 -61t-17 -172v-773q0 -143 -42.5 -266t-113.5 -205.5t-163 -129t-191 -46.5z" />
<glyph unicode="K" horiz-adv-x="1310" d="M104 0v27q47 14 64.5 62t17.5 171v914q0 123 -17.5 171t-64.5 62v27h332v-27q-48 -14 -65 -61t-17 -172v-521l537 549q189 195 67 213v19h285v-27q-36 -10 -55.5 -16.5t-57 -24t-76 -47t-79.5 -72.5l-436 -446l47 2q92 6 156 -7.5t107 -35.5t84.5 -89t67 -124t76.5 -185 q78 -197 122 -265t93 -68q23 0 35 2v-27q-49 -14 -123 -14q-23 0 -41.5 2t-36 9.5t-31 13.5t-28 21.5t-24.5 26.5t-24 36t-22.5 41t-24 51.5t-24.5 57.5t-28 68q-11 28 -32 79q-35 86 -51 124.5t-43 93t-47 75t-51 44.5t-66 30t-83 5h-41l-152 -156v-352q0 -125 17 -172 t65 -61v-27h-332z" />
<glyph unicode="L" horiz-adv-x="1112" d="M104 0v27q47 14 64.5 62t17.5 171v914q0 123 -17.5 171t-64.5 62v27h332v-27q-48 -14 -65 -61t-17 -172v-1049q0 -44 24 -68t68 -24h244q148 0 226.5 44t132.5 159l22 -5l-14 -231h-953z" />
<glyph unicode="M" horiz-adv-x="1701" d="M102 0v27q48 14 65 61t17 172v832q0 113 -15 179.5t-40.5 94t-69.5 41.5v27h248l535 -883l524 883h231v-27q-44 -13 -69.5 -41t-40 -94t-14.5 -180v-832q0 -125 16.5 -172t64.5 -61v-27h-331v27q47 14 64.5 62t17.5 171v1008l-521 -879h-39l-524 862v-909 q0 -113 17 -179.5t45 -94t77 -41.5v-27h-258z" />
<glyph unicode="N" horiz-adv-x="1376" d="M1186 -16l-965 1255v-897q0 -113 17 -179.5t45.5 -94t78.5 -41.5v-27h-256v27q47 14 64.5 62t17.5 171v914q0 125 -22 172t-84 61v27h201l895 -1160v818q0 113 -17.5 179.5t-46 94t-78.5 41.5v27h258v-27q-48 -14 -65 -61t-17 -172v-1190h-26z" />
<glyph unicode="O" horiz-adv-x="1665" d="M836 -20q-107 0 -210 27.5t-197.5 87t-166 144.5t-114 209t-42.5 271q0 208 91 374.5t258.5 261.5t380.5 95q106 0 208.5 -28t196 -88t165 -145.5t113.5 -208.5t42 -269q0 -147 -42.5 -270t-113.5 -206.5t-165.5 -142t-196 -85.5t-207.5 -27zM270 838q4 -123 37.5 -242 t93 -220.5t137 -179t177.5 -121.5t207 -44q120 0 214 41.5t152.5 115.5t87.5 172.5t25 214.5q-7 215 -91 403.5t-232 306.5t-326 118q-231 0 -361 -156t-121 -409z" />
<glyph unicode="P" horiz-adv-x="1130" d="M104 0v27q47 14 64.5 62t17.5 171v914q0 123 -17.5 171t-64.5 62v27h416q123 0 220.5 -23t160 -61.5t103.5 -91.5t58 -109t17 -119q0 -210 -150 -336.5t-429 -126.5h-146v-307q0 -125 17 -172t65 -61v-27h-332zM354 598h142q195 0 299 101t104 284q0 85 -26 158.5 t-79 133t-144 94t-210 34.5q-36 0 -86 -4v-801z" />
<glyph unicode="Q" horiz-adv-x="1665" d="M1425 -358q-198 0 -462 348q-72 -10 -127 -10q-107 0 -210 27.5t-197.5 87t-166 144.5t-114 209t-42.5 271q0 208 91 374.5t258.5 261.5t380.5 95q106 0 208.5 -28t196 -88t165 -145.5t113.5 -208.5t42 -269q0 -124 -30.5 -231.5t-83 -187t-125 -141t-153 -99 t-170.5 -56.5q141 -107 258 -165t232 -58q130 0 213 86l16 -15q-85 -100 -152.5 -151t-140.5 -51zM270 838q4 -123 37.5 -242t93 -220.5t137 -179t177.5 -121.5t207 -44q120 0 214 41.5t152.5 115.5t87.5 172.5t25 214.5q-7 215 -91 403.5t-232 306.5t-326 118 q-231 0 -361 -156t-121 -409z" />
<glyph unicode="R" horiz-adv-x="1253" d="M1147 -14q-53 0 -89 13t-69.5 61.5t-47 77.5t-53.5 124q-14 33 -22 51q-16 37 -36.5 88.5t-31.5 80t-28.5 67t-30.5 59t-32.5 46t-40 38.5t-47.5 25.5t-60 17t-74 4.5h-131v-479q0 -125 17 -172t65 -61v-27h-332v27q48 14 65 61t17 172v914q0 125 -17 172t-65 61v27h404 q122 0 215.5 -16t154 -44t99 -69t54.5 -87.5t16 -103.5q0 -148 -105.5 -247t-300.5 -122q72 -9 124.5 -30.5t87.5 -49.5t64.5 -77t50.5 -97.5t52 -127.5l3 -9t3 -8.5t4 -9.5q75 -187 116 -250t93 -63q23 0 33 2v-25q-43 -14 -125 -14zM354 770h172q171 0 258.5 80.5 t87.5 216.5q0 148 -103.5 242t-317.5 94q-31 0 -97 -4v-629z" />
<glyph unicode="S" horiz-adv-x="1128" d="M584 -20q-149 0 -279.5 42.5t-212.5 102.5l-10 285l22 4q32 -85 76 -153.5t106.5 -125.5t149 -88t189.5 -31q127 0 216 76t89 197q0 56 -28 107t-62 84t-99.5 69.5t-102.5 53t-110 45.5q-15 6 -22 9q-81 32 -135 58t-107.5 61.5t-84 74t-49.5 90.5t-19 116q0 179 136 285 t363 106q225 0 400 -94l8 -238l-21 -6q-61 142 -173 223.5t-279 81.5q-130 0 -218.5 -72t-88.5 -198q0 -53 22.5 -98.5t54.5 -77t84.5 -62.5t94.5 -50t104 -44q17 -7 25 -10q60 -24 97 -39.5t89 -41t83.5 -47t68 -53.5t56 -64.5t33 -75.5t13.5 -91q0 -75 -26.5 -141 t-72.5 -114.5t-106.5 -84t-130.5 -53.5t-143 -18z" />
<glyph unicode="T" horiz-adv-x="1146" d="M408 0v27q48 14 64.5 61t16.5 172v1141h-100q-137 0 -209 -43t-125 -154l-22 4l12 226h1055l12 -226l-22 -4q-53 111 -125 154t-209 43h-97v-1141q0 -125 17 -172t65 -61v-27h-333z" />
<glyph unicode="U" horiz-adv-x="1390" d="M739 -20q-116 0 -215 28.5t-183 90t-132.5 171.5t-48.5 258v646q0 125 -17 172t-65 61v27h332v-27q-47 -14 -64.5 -62t-17.5 -171v-633q0 -139 36.5 -241t103 -161.5t150 -87.5t187.5 -28q56 0 110.5 15t110 52.5t97.5 94.5t68 149t26 207v551q0 165 -33 230t-107 85v27 h254v-27q-47 -14 -64.5 -62t-17.5 -171v-627q0 -150 -39 -261.5t-109.5 -177t-161 -97t-200.5 -31.5z" />
<glyph unicode="V" horiz-adv-x="1302" d="M145 1192q-42 107 -78.5 153t-74.5 62v27h319v-27q-23 -7 -32.5 -17.5t-5 -40t15 -59t37.5 -98.5l395 -1014l389 1012q38 101 31.5 154t-58.5 63v27h230v-27q-47 -15 -86 -61t-80 -154l-465 -1202h-57z" />
<glyph unicode="W" horiz-adv-x="1857" d="M731 1192q-42 107 -79 153t-77 62v27h314v-27q-23 -7 -32.5 -17.5t-4 -40t16 -58t38.5 -97.5l111 -270l98 266q38 101 32.5 154t-56.5 63v27h225v-27q-48 -15 -86 -61.5t-78 -155.5l-115 -313l277 -670l356 983q72 196 -33 217v27h232v-27q-48 -15 -86 -61.5t-78 -155.5 l-428 -1190h-57l-285 694l-283 -694h-57l-453 1190q-41 109 -76.5 155t-74.5 62v27h317v-27q-24 -7 -34 -17.5t-6 -40t14 -59.5t36 -100l379 -987l220 536z" />
<glyph unicode="X" horiz-adv-x="1173" d="M868 0v27q37 11 34 37q-3 23 -61 119v1l-1 1l-1 1v1l-1 1l-1 1l-20 34l-278 459l-310 -465q-41 -62 -55 -100.5t-2 -60.5t53 -29v-27h-233v27q47 15 90.5 54.5t107.5 135.5l330 496l-301 497q-59 99 -99 140.5t-79 56.5v27h317v-27q-37 -11 -33 -37q3 -24 62 -119 q19 -31 25 -41l227 -379l256 386q41 62 55 100.5t2 60.5t-53 29v27h236v-27q-48 -15 -92.5 -54t-108.5 -136l-275 -416l349 -578q59 -99 99 -139.5t79 -56.5v-27h-318z" />
<glyph unicode="Y" horiz-adv-x="1126" d="M387 0v27q47 14 64 62t16 171v385l-309 561q-89 162 -183 201v27h324v-27q-37 -11 -34 -40q3 -27 65 -136q2 -4 6 -11q5 -9 8 -14l285 -508l286 508q53 94 52.5 142.5t-58.5 58.5v27h244v-27q-50 -16 -97.5 -59t-103.5 -142l-313 -557v-389q0 -125 17 -172t65 -61v-27 h-334z" />
<glyph unicode="Z" horiz-adv-x="1081" d="M43 0v27l788 1374h-354q-155 0 -237 -56t-138 -198h-22l33 287h913v-27l-795 -1374h369q128 0 204.5 26.5t123.5 83t90 164.5h20l-37 -307h-958z" />
<glyph unicode="[" horiz-adv-x="757" d="M213 -551v2189h502v-24h-391v-2140h391v-25h-502z" />
<glyph unicode="\" horiz-adv-x="729" d="M815 -559l-917 2191l28 13l918 -2192z" />
<glyph unicode="]" horiz-adv-x="755" d="M545 -551h-502v25h391v2140h-391v24h502v-2189z" />
<glyph unicode="^" horiz-adv-x="811" d="M182 956l-28 15l229 463h33l229 -463l-29 -15l-217 441z" />
<glyph unicode="_" horiz-adv-x="1024" d="M-57 -195v29h1149v-29h-1149z" />
<glyph unicode="a" horiz-adv-x="1085" d="M858 0q-61 0 -61 61v369q-49 -194 -169.5 -322t-269.5 -128q-121 0 -203.5 71t-82.5 197q0 62 25.5 113t64 86t103 66.5t122.5 51t143 43.5l267 72q-15 291 -287 291q-195 0 -344 -183l-19 17q188 233 445 233q182 0 272 -95.5t90 -272.5v-410q0 -125 17 -172t65 -61v-27 h-178zM225 305q0 -97 59 -151t150 -54q79 0 148.5 46.5t115 119t72 158.5t27.5 168v57v4l-258 -69q-52 -15 -92 -29.5t-84 -39t-72.5 -52.5t-47.5 -68.5t-18 -89.5z" />
<glyph unicode="b" horiz-adv-x="1220" d="M600 -18q-110 0 -210 43.5t-159 107.5l-67 -133h-21v1346q0 69 -10 107t-25 52t-47 29v22l224 99l18 -15v-741q205 139 383 139q195 0 321 -141t126 -358q0 -86 -22 -167t-67 -151.5t-108 -123.5t-149.5 -83.5t-186.5 -31.5zM303 346q0 -54 30.5 -112t80 -104.5 t117 -76.5t135.5 -30q155 0 235 106.5t80 290.5q0 72 -12.5 145t-42.5 147t-73.5 130.5t-111.5 92.5t-151 36q-135 0 -287 -103v-522z" />
<glyph unicode="c" horiz-adv-x="1083" d="M559 -20q-91 0 -176.5 32.5t-155 93.5t-111.5 158.5t-42 216.5q0 158 77 287t204 199.5t276 70.5q144 0 246 -33.5t102 -76.5q0 -37 -40.5 -74t-88.5 -37q-71 0 -311 189q-143 -25 -231.5 -142t-88.5 -282q0 -212 120.5 -342.5t319.5 -130.5q207 0 365 178l18 -19 q-209 -288 -483 -288z" />
<glyph unicode="d" horiz-adv-x="1187" d="M526 -23q-191 2 -321.5 148t-130.5 362q0 108 36.5 206t104 174.5t173 122t233.5 46.5q150 0 278 -80v390q0 69 -10 107t-25 52t-47 29v22l225 99l17 -15v-1380q0 -125 17 -172t65 -61v-27h-180q-29 0 -45.5 16t-16.5 45v117q-196 -203 -373 -201zM227 610 q0 -75 13.5 -148t44 -143t75 -123t111 -85.5t147.5 -32.5q147 0 281 137v502q-14 104 -116 192t-226 88q-157 0 -243.5 -108.5t-86.5 -278.5z" />
<glyph unicode="e" horiz-adv-x="1099" d="M559 -20q-69 0 -137 19t-131 60t-111 99t-77 141.5t-29 181.5q0 162 75 291t197 197.5t266 68.5q186 0 297.5 -104.5t116.5 -257.5h-801q-6 -46 -6 -94q0 -212 120.5 -342.5t319.5 -130.5q207 0 365 178l18 -19q-209 -288 -483 -288zM231 702h631q-11 72 -49 138.5 t-109 113.5t-159 47q-126 1 -207 -81.5t-107 -217.5z" />
<glyph unicode="f" horiz-adv-x="622" d="M80 0v27q47 14 64.5 62t17.5 171v721h-119l10 29h109q8 151 94.5 286t230 218t306.5 83q139 0 139 -53q0 -34 -39 -76.5t-96 -42.5q-63 0 -127.5 16.5t-169.5 53.5q-28 -16 -46 -28t-46 -41.5t-44.5 -65t-29 -94.5t-12.5 -133v-123h268l-12 -29h-256v-721 q0 -125 16.5 -172t64.5 -61v-27h-323z" />
<glyph unicode="g" horiz-adv-x="1071" d="M365 -567q-62 0 -118.5 14t-106.5 42.5t-79.5 79t-29.5 116.5q0 92 69 172.5t201 160.5q-73 18 -111 54.5t-38 99.5q0 52 37.5 92t111.5 88q-180 94 -180 299q0 105 57 194.5t150.5 141t197.5 51.5q83 0 150 -20q34 46 72 74q102 92 233 92q48 0 77 -13t29 -36 q0 -32 -33 -68.5t-83 -36.5q-54 0 -203 47q-35 -25 -66 -69q102 -37 165 -117.5t63 -204.5q0 -84 -39.5 -159t-100 -123t-130.5 -75.5t-134 -27.5q-107 0 -198 39q-28 -19 -40.5 -29t-23 -26t-10.5 -35q3 -85 225 -96l258 -17q68 -4 114 -10t90 -19.5t69 -34.5t40 -55 t15 -81q0 -114 -103.5 -232t-268 -195t-328.5 -77zM168 -240q0 -109 84.5 -172t228.5 -63q128 0 245.5 47t188 122.5t70.5 155.5q0 69 -58.5 98.5t-191.5 37.5l-286 14q-61 3 -117 12q-164 -110 -164 -252zM270 741q0 -93 33.5 -184.5t103 -157t158.5 -65.5 q108 0 162.5 73.5t54.5 186.5q0 56 -13.5 115t-40.5 113.5t-63 97t-85 67t-103 21.5q-103 -4 -155 -78t-52 -189z" />
<glyph unicode="h" horiz-adv-x="1185" d="M55 0v27q48 14 65 61t17 172v1086q0 69 -10 107t-25 52t-47 29v22l224 99l18 -15v-790q233 188 434 188q154 0 239 -89.5t85 -266.5v-422q0 -125 17 -172t65 -61v-27h-324v27q48 14 65 61t17 172v381q0 161 -68 245.5t-202 84.5q-142 0 -328 -154v-557q0 -125 17 -172 t65 -61v-27h-324z" />
<glyph unicode="i" horiz-adv-x="460" d="M66 0v27q48 14 64.5 61t16.5 172v471q0 70 -9.5 107.5t-24.5 52.5t-47 29v22l225 98l16 -14v-766q0 -123 17.5 -171t64.5 -62v-27h-323zM102 1278q0 49 32.5 82t80.5 33q49 0 81 -32.5t32 -82.5q0 -46 -33 -79.5t-80 -33.5t-80 33.5t-33 79.5z" />
<glyph unicode="j" d="M-172 -569q-44 0 -72 12.5t-28 36.5q0 32 34.5 70t81.5 38q25 0 59.5 -4.5t88 -13t78.5 -12.5q70 53 92 129t22 223v821q0 69 -10 107.5t-25 53t-47 28.5v22l224 98l18 -14v-977q0 -120 -49.5 -236t-125.5 -198.5t-167.5 -133t-173.5 -50.5zM131 1278q0 49 32.5 82 t80.5 33q49 0 80.5 -32.5t31.5 -82.5q0 -46 -32.5 -79.5t-79.5 -33.5t-80 33.5t-33 79.5z" />
<glyph unicode="k" horiz-adv-x="1085" d="M76 0v27q48 14 65 61t17 172v1086q0 69 -10 107t-25 52t-47 29v22l223 99l18 -15v-1196l357 342q39 38 66 71.5t40.5 58.5t17 44.5t-2 31.5t-19.5 18v14h242v-27q-42 -12 -67 -22t-76 -44t-107 -87l-147 -144l239 -432q68 -122 120 -180.5t116 -62.5v-25h-133 q-75 0 -134.5 54t-134.5 192l-186 346l-191 -184v-148q0 -125 17 -172t65 -61v-27h-323z" />
<glyph unicode="l" d="M78 0v27q47 14 64.5 62t17.5 171v1086q0 69 -10 107t-25 52t-47 29v22l223 99l18 -15v-1380q0 -125 17 -172t65 -61v-27h-323z" />
<glyph unicode="m" horiz-adv-x="1875" d="M66 0v27q48 14 64.5 61t16.5 172v471q0 69 -10 107.5t-24.5 53t-46.5 28.5v22l223 98l18 -14v-174q233 186 424 186q231 0 285 -192q241 192 434 192q301 0 301 -340v-438q0 -123 17.5 -171t64.5 -62v-27h-324v27q48 14 65 61t17 172v402q0 309 -233 309 q-82 0 -161.5 -39t-174.5 -113q12 -52 12 -121v-438q0 -125 17 -172t65 -61v-27h-323v27q47 14 64 61.5t17 171.5v402q0 309 -233 309q-81 0 -160 -38t-174 -110v-563q0 -125 17 -172t65 -61v-27h-323z" />
<glyph unicode="n" horiz-adv-x="1196" d="M66 0v27q48 14 64.5 61t16.5 172v471q0 70 -9.5 107.5t-24.5 52.5t-47 29v22l225 98l16 -14v-176q233 188 434 188q154 0 239 -89.5t85 -266.5v-422q0 -125 17 -172t65 -61v-27h-324v27q48 14 65 61t17 172v381q0 161 -68 245.5t-202 84.5q-142 0 -328 -154v-557 q0 -123 17.5 -171t64.5 -62v-27h-323z" />
<glyph unicode="o" horiz-adv-x="1232" d="M610 -20q-80 0 -156 19.5t-145 61t-121 101t-83 146.5t-31 190q0 155 75.5 280t197.5 192.5t263 67.5q99 0 191.5 -31t170.5 -91.5t125.5 -163.5t47.5 -234q0 -101 -32.5 -189.5t-86.5 -151.5t-123.5 -108t-144 -67t-148.5 -22zM231 614q0 -99 31.5 -202.5t86.5 -190.5 t140 -142.5t183 -55.5q105 0 178.5 53t106 135.5t32.5 185.5q0 100 -34 207.5t-92 197.5t-145 146t-183 51q-149 -6 -226.5 -113.5t-77.5 -271.5z" />
<glyph unicode="p" horiz-adv-x="1236" d="M621 -18q-159 0 -297 90v-365q0 -125 17 -172t65 -61v-27h-324v27q47 14 64.5 62t17.5 171v1024q0 69 -10 107.5t-25 53t-47 28.5v22l223 98l19 -14v-149q218 161 409 161q181 0 298.5 -137.5t117.5 -361.5q0 -109 -35.5 -208t-100.5 -177t-166.5 -124.5t-225.5 -47.5z M324 338q0 -51 31 -108t80.5 -103t116.5 -76.5t134 -30.5q156 0 235.5 107.5t79.5 292.5q0 72 -11 144.5t-39 146.5t-69.5 130.5t-107.5 92t-149 35.5q-81 0 -153 -33t-148 -92v-506z" />
<glyph unicode="q" horiz-adv-x="1183" d="M526 -23q-191 2 -321.5 148t-130.5 362q0 108 36.5 206t104 174.5t173 122t233.5 46.5q107 0 196.5 -38t151.5 -97l78 123h14v-1317q0 -125 17 -172t65 -61v-27h-324v27q47 14 64.5 62t17.5 171v473q-194 -205 -375 -203zM227 610q0 -75 13.5 -148t44 -143t75 -123 t111 -85.5t147.5 -32.5q151 0 283 139v471q0 110 -106 209.5t-242 99.5q-156 0 -241 -108.5t-85 -278.5z" />
<glyph unicode="r" horiz-adv-x="860" d="M66 0v27q48 14 64.5 61t16.5 172v471q0 69 -10 107.5t-24.5 53t-46.5 28.5v22l223 98l18 -14v-256q50 121 150 195q98 73 233 73q62 0 97.5 -14.5t35.5 -40.5q0 -39 -33.5 -78t-84.5 -39q-55 0 -256 58q-48 -35 -92 -111t-48 -145h-2v-408q0 -125 17 -172t65 -61v-27 h-323z" />
<glyph unicode="s" horiz-adv-x="911" d="M463 -18q-114 0 -215 28t-158 66l-18 248l18 4q65 -148 172.5 -230.5t245.5 -83.5q96 0 158.5 53t62.5 138q0 31 -9 57.5t-22 46.5t-38.5 39t-46 31t-57.5 27t-61 23t-67 22q-57 18 -93 31t-79 32.5t-69 40.5t-49 49.5t-33.5 65t-10.5 82.5q0 125 99.5 205.5t273.5 80.5 q93 0 178.5 -16t138.5 -39l9 -209l-21 -4q-50 111 -142 176.5t-200 65.5q-104 0 -166.5 -47t-62.5 -125q0 -38 16 -69.5t40 -54t65 -44t78.5 -36t93.5 -32.5q137 -45 180 -65q136 -66 159 -183q5 -26 5 -55q0 -136 -99 -227t-276 -92z" />
<glyph unicode="t" horiz-adv-x="704" d="M387 -20q-101 0 -154 69t-53 223v723h-131v29l262 252h29v-252h311l-10 -29h-301v-723q0 -192 145 -192q107 0 197 106l18 -18q-165 -188 -313 -188z" />
<glyph unicode="u" horiz-adv-x="1159" d="M446 -20q-158 0 -235.5 95.5t-77.5 276.5v379q0 69 -10 107.5t-25 53t-47 28.5v22l223 98l19 -14v-637q0 -177 53.5 -257.5t175.5 -80.5q161 0 324 174v506q0 69 -10 107.5t-25 53t-47 28.5v22l223 98l19 -14v-766q0 -125 16.5 -172t64.5 -61v-27h-174q-34 0 -50.5 19 t-16.5 63v104q-197 -206 -400 -206z" />
<glyph unicode="v" horiz-adv-x="987" d="M133 784q-45 109 -76.5 153.5t-66.5 59.5v27h295v-27q-23 -7 -32.5 -18t-4.5 -39t16.5 -58.5t40.5 -97.5l268 -634l242 630q38 101 31.5 154t-60.5 63v27h211v-27q-44 -14 -75 -58t-74 -159l-301 -780h-86z" />
<glyph unicode="w" horiz-adv-x="1445" d="M106 774q-35 118 -59 163.5t-57 59.5v27h295v-27q-46 -13 -47 -58t36 -165l175 -608l294 858h78l297 -856l176 606q60 202 -47 223v27h209v-27q-43 -14 -69.5 -58.5t-61.5 -164.5l-225 -774h-92l-293 850l-293 -850h-90z" />
<glyph unicode="x" horiz-adv-x="950" d="M639 0v27q36 10 32 35q-3 21 -62 108q-20 31 -31 47l-164 248l-187 -256q-34 -46 -49 -69t-24.5 -46.5t0 -34t30.5 -18.5t62 -14v-27h-264v27q48 16 94.5 53.5t113.5 128.5l207 283l-209 315q-64 96 -107 135.5t-89 54.5v27h317v-27q-36 -10 -32 -34q4 -23 62 -108 l32 -48l139 -213l154 217q33 47 47.5 71t23.5 47.5t-0.5 34.5t-31 19t-62.5 14v27h262v-27q-48 -16 -93.5 -54t-111.5 -132l-170 -244l230 -350q64 -96 107 -135.5t89 -54.5v-27h-315z" />
<glyph unicode="y" horiz-adv-x="1032" d="M61 -395q-59 -1 -99 15.5t-40 41.5q0 34 37.5 73.5t89.5 39.5q23 0 65 -8t100 -20.5t93 -18.5q98 83 187 268l-336 788q-43 105 -81 151t-77 62v27h309v-27q-23 -7 -32.5 -17.5t-4 -39.5t17 -58.5t40.5 -97.5l252 -585l252 585q43 100 39 151.5t-58 61.5v27h227v-27 q-48 -15 -89.5 -60.5t-88.5 -152.5l-317 -733q-50 -115 -105.5 -199.5t-102.5 -130.5t-101 -73t-92.5 -34.5t-84.5 -8.5z" />
<glyph unicode="z" horiz-adv-x="886" d="M55 0v23l574 970h-269q-99 0 -158 -50t-110 -179l-18 4l37 256h696v-23l-569 -970h299q233 0 270 272h18l-6 -303h-764z" />
<glyph unicode="{" horiz-adv-x="911" d="M723 -608q-178 0 -297 96t-119 266q0 62 19 140t42.5 139.5t42.5 132.5t19 121q0 93 -49.5 153t-130.5 60v26q81 0 130.5 60t49.5 153q0 52 -19 123t-42.5 131.5t-42.5 138t-19 140.5q0 85 42.5 155.5t108.5 113.5t140.5 66t144.5 23v-22q-149 -5 -243 -83.5t-94 -209.5 q0 -82 30.5 -180.5t61 -195.5t30.5 -173q0 -82 -61.5 -153t-151.5 -99q95 -31 154 -101.5t59 -152.5q0 -77 -30 -174.5t-60 -196.5t-30 -178q0 -145 79 -217t238 -78z" />
<glyph unicode="|" horiz-adv-x="546" d="M268 -553v2191h33v-2191h-33z" />
<glyph unicode="}" horiz-adv-x="911" d="M195 -584q159 6 238 78t79 217q0 63 -19 140t-41.5 137t-41.5 135.5t-19 136.5q0 82 59 152.5t154 101.5q-90 28 -151.5 99t-61.5 153q0 61 19 136t42.5 134.5t42.5 136.5t19 142q0 131 -94 209.5t-244 83.5v22q70 0 144.5 -23t140.5 -66t108.5 -113.5t42.5 -155.5 q0 -63 -19 -140.5t-42.5 -138t-42.5 -131.5t-19 -123q0 -93 50 -153t131 -60v-26q-81 0 -131 -60t-50 -153q0 -62 30.5 -157t61.5 -196.5t31 -179.5q0 -170 -118.5 -266t-296.5 -96z" />
<glyph unicode="~" horiz-adv-x="954" d="M688 633q-52 0 -228.5 52t-232.5 52q-36 0 -63.5 -12.5t-57.5 -50.5l-14 8q6 10 24.5 38t25 37.5t22 30t25 28.5t24.5 19t29.5 15t31.5 4q52 0 223.5 -52t239.5 -52q71 0 113 73l16 -6q-42 -88 -84 -136t-94 -48z" />
<glyph unicode="&#xa2;" horiz-adv-x="1083" d="M559 -266v450q-96 4 -184 39.5t-156.5 98t-109.5 158t-41 210.5q0 141 66 262t178 196t247 91v399h33v-397q12 2 37 2q168 0 273.5 -50.5t105.5 -111.5q0 -37 -24 -70.5t-56 -33.5q-21 0 -44 22t-47.5 54.5t-55.5 65.5t-80 58.5t-109 30.5v-895q38 -6 76 -6 q101 0 190.5 37t149.5 113l20 -17q-38 -52 -77 -91.5t-92.5 -79t-121.5 -62t-145 -23.5v-450h-33zM227 782q0 -190 89 -311t243 -154v891q-105 -2 -182 -63t-113.5 -155.5t-36.5 -207.5z" />
<glyph unicode="&#xa3;" horiz-adv-x="1312" d="M899 -55q-63 0 -140 26.5t-138 59.5t-134 68.5t-122 47.5q-11 -22 -25 -43q-34 -55 -71.5 -82.5t-86.5 -27.5t-80.5 24.5t-31.5 71.5t37 79t104 32q31 0 131 -15q18 125 45 473h-291l15 29h278l8 96q18 194 84 342.5t180.5 235t262.5 86.5q40 0 85 -7.5t87 -21t69 -37.5 t27 -53q0 -41 -22 -68.5t-50 -27.5q-24 0 -48.5 17.5t-47 42t-48.5 49t-62 42t-78 17.5q-37 0 -67 -10t-54.5 -36t-42.5 -50.5t-34 -74t-26 -84.5t-21.5 -104t-18 -111t-17.5 -126q-14 -86 -20 -117h432l-15 -29h-424q-60 -286 -149 -479q18 -3 82 -14.5t85.5 -15t74.5 -12 t81.5 -11.5t71.5 -8t79 -6.5t73 -1.5q117 0 192.5 37.5t134.5 123.5l17 -8q-172 -319 -371 -319z" />
<glyph unicode="&#xa5;" horiz-adv-x="1069" d="M117 639l12 29h326l-297 538q-89 162 -183 201v27h324v-27q-37 -11 -34 -40q3 -27 65 -136q2 -4 6 -11q5 -9 8 -14l285 -508l286 508q53 94 52.5 142.5t-58.5 58.5v27h244v-27q-50 -16 -97.5 -59t-103.5 -142l-303 -538h316l-13 -29h-313v-252h326l-13 -29h-313v-98 q0 -125 17 -172t65 -61v-27h-334v27q47 14 64 62t16 171v98h-350l12 29h338v252h-350z" />
<glyph unicode="&#xa9;" horiz-adv-x="1671" d="M793 -27q-146 0 -276.5 52t-226 143t-151 223t-55.5 285q0 126 44.5 244t122.5 210.5t178 162.5t216 107.5t232 37.5q141 0 269 -50t225.5 -138.5t155.5 -222t58 -290.5q0 -135 -46 -257.5t-124 -213t-179 -158t-215 -101.5t-228 -34zM158 698q0 -142 53 -268.5 t144 -216.5t218 -142.5t269 -52.5q141 0 265 53.5t212.5 146t140 223t51.5 278.5q0 145 -53 271.5t-144 215t-215.5 139t-264.5 50.5t-265 -53.5t-215.5 -145.5t-143 -222t-52.5 -276zM424 684q0 104 41 190.5t109 142t155 86t182 30.5q65 0 130.5 -17t97.5 -37l18 -159 l-14 -2q-43 88 -119.5 132t-169.5 44q-140 0 -220.5 -94.5t-82.5 -247.5q-3 -168 93 -271.5t247 -103.5q208 0 317 188l17 -8q-58 -130 -158 -205.5t-236 -75.5q-174 0 -290.5 113t-116.5 295z" />
<glyph unicode="&#xaa;" horiz-adv-x="944" d="M686 711q-46 0 -68 27.5t-22 86.5v58q-146 -172 -291 -172q-79 0 -134.5 50t-55.5 132q0 91 73.5 154t227.5 106l180 49q-6 98 -50.5 143.5t-129.5 45.5q-109 0 -230 -103l-16 19q162 139 303 139q123 0 185.5 -66.5t62.5 -189.5v-338q0 -22 1.5 -36t10.5 -27t25 -13 q25 0 61 33l15 -16q-91 -82 -148 -82zM115 502v28h690v-28h-690zM240 938q0 -65 39 -105t108 -40q51 0 106 31t103 91v263l-174 -52q-182 -51 -182 -188z" />
<glyph unicode="&#xab;" horiz-adv-x="1126" d="M655 49l-542 463l542 463l21 -25l-514 -438l514 -438zM461 512l543 463l20 -25l-514 -438l514 -438l-20 -25z" />
<glyph unicode="&#xad;" horiz-adv-x="747" d="M106 498v28h535v-28h-535z" />
<glyph unicode="&#xae;" horiz-adv-x="1646" d="M793 -27q-146 0 -276.5 52t-226 143t-151 223t-55.5 285q0 126 44.5 244t122.5 210.5t178 162.5t216 107.5t232 37.5q141 0 269 -50t225.5 -138.5t155.5 -222t58 -290.5q0 -135 -46 -257.5t-124 -213t-179 -158t-215 -101.5t-228 -34zM158 698q0 -142 53 -268.5 t144 -216.5t218 -142.5t269 -52.5q141 0 265 53.5t212.5 146t140 223t51.5 278.5q0 145 -53 271.5t-144 215t-215.5 139t-264.5 50.5t-265 -53.5t-215.5 -145.5t-143 -222t-52.5 -276zM518 303v14q28 9 37.5 37.5t9.5 100.5v536q0 72 -9.5 100t-37.5 37v15h203 q197 0 299 -61t102 -179q0 -101 -78.5 -179.5t-232.5 -100.5q165 -19 231 -144l29 -53q22 -41 56 -72.5t67 -40.5v-10h-94q-53 0 -89 27.5t-67 83.5l-29 51q-26 47 -40 68t-37.5 43.5t-52.5 30.5t-72 9h-4h-21v-161q0 -71 10 -100t37 -38v-14h-217zM688 637h27 q86 0 146.5 21t91 59t43 80t12.5 96q0 112 -65 170.5t-222 58.5h-33v-485z" />
<glyph unicode="&#xb2;" horiz-adv-x="718" d="M10 518q51 49 73 71t74 74.5t79 85.5t69.5 85t66 93.5t48.5 91.5t36 98t11 95q0 92 -41.5 138.5t-114.5 46.5q-105 0 -202 -82l-15 20q67 57 131.5 87t143.5 30q96 0 168 -60t73 -161q0 -55 -19.5 -114t-60.5 -117.5t-80.5 -107t-101.5 -106t-99 -90.5t-97 -83l-9 -7.5 t-7.5 -6.5t-8.5 -7h309q67 0 101.5 10t52 32.5t31.5 70.5l20 -3l-20 -206h-611v22z" />
<glyph unicode="&#xb3;" horiz-adv-x="704" d="M63 328q189 96 301.5 239t112.5 273q0 186 -155 186q-53 0 -97 -29l-10 25q107 49 152 103.5t45 134.5q0 63 -35 100t-94 39q-99 0 -189 -78l-16 20q131 111 262 111q88 0 143.5 -50.5t55.5 -121.5q0 -79 -45.5 -125t-143.5 -94q10 2 35 2q38 0 75.5 -10.5t74 -32 t59 -62.5t22.5 -96q0 -82 -41.5 -160t-120 -148t-168.5 -129t-210 -122z" />
<glyph unicode="&#xb9;" horiz-adv-x="477" d="M102 496v16q37 9 50.5 41t13.5 113v661l-105 -53l-10 20l219 156h27v-784q0 -82 13 -113.5t50 -40.5v-16h-258z" />
<glyph unicode="&#xba;" horiz-adv-x="968" d="M485 711q-70 0 -134.5 22t-118.5 64.5t-86.5 113.5t-32.5 160q0 107 52.5 194t137 134t182.5 47q54 0 106.5 -13t101 -42t85 -70t58.5 -102t22 -134q0 -88 -34.5 -161t-89.5 -118t-119.5 -70t-129.5 -25zM160 502v28h690v-28h-690zM242 1151q0 -68 19 -138t53.5 -130 t90.5 -97.5t123 -37.5q101 0 149 72t48 184q0 69 -20.5 141.5t-56.5 134t-92.5 99.5t-121.5 34q-98 -4 -145 -76.5t-47 -185.5z" />
<glyph unicode="&#xbb;" horiz-adv-x="1126" d="M483 49l-20 25l514 438l-514 438l20 25l543 -463zM115 74l514 438l-514 438l20 25l543 -463l-543 -463z" />
<glyph unicode="&#xc9;" horiz-adv-x="1206" d="M104 0v27q47 14 64.5 62t17.5 171v914q0 123 -17.5 171t-64.5 62v27h953l22 -267l-22 -6q-53 132 -147.5 187t-254.5 55h-301v-621h262q86 0 144 8.5t93 27.5t53 43t28 61h24v-310h-24q-10 37 -28 61t-53 43t-93 27.5t-144 8.5h-262v-629q0 -44 24 -68t68 -24h267 q155 0 248.5 54t146.5 191l22 -4l-16 -272h-1010zM389 1538l205 166q34 28 51 36.5t37 8.5q33 0 68.5 -20.5t35.5 -40.5q0 -19 -13 -32t-50 -24l-326 -106z" />
<glyph unicode="&#xe9;" horiz-adv-x="1099" d="M559 -20q-69 0 -137 19t-131 60t-111 99t-77 141.5t-29 181.5q0 162 75 291t197 197.5t266 68.5q186 0 297.5 -104.5t116.5 -257.5h-801q-6 -46 -6 -94q0 -212 120.5 -342.5t319.5 -130.5q207 0 365 178l18 -19q-209 -288 -483 -288zM231 702h631q-11 72 -49 138.5 t-109 113.5t-159 47q-126 1 -207 -81.5t-107 -217.5zM412 1200l206 205q30 30 48 38.5t39 8.5q32 0 67 -20t35 -39q0 -17 -13.5 -30t-48.5 -30l-325 -147z" />
<glyph unicode="&#x131;" horiz-adv-x="460" d="M66 0v27q48 14 64.5 61t16.5 172v471q0 70 -9.5 107.5t-24.5 52.5t-47 29v22l225 98l16 -14v-766q0 -123 17.5 -171t64.5 -62v-27h-323z" />
<glyph unicode="&#x237;" d="M-172 -569q-44 0 -72 12.5t-28 36.5q0 32 34.5 70t81.5 38q25 0 59.5 -4.5t88 -13t78.5 -12.5q70 53 92 129t22 223v821q0 69 -10 107.5t-25 53t-47 28.5v22l224 98l18 -14v-977q0 -120 -49.5 -236t-125.5 -198.5t-167.5 -133t-173.5 -50.5z" />
<glyph unicode="&#x2000;" horiz-adv-x="874" />
<glyph unicode="&#x2001;" horiz-adv-x="1749" />
<glyph unicode="&#x2002;" horiz-adv-x="874" />
<glyph unicode="&#x2003;" horiz-adv-x="1749" />
<glyph unicode="&#x2004;" horiz-adv-x="583" />
<glyph unicode="&#x2005;" horiz-adv-x="437" />
<glyph unicode="&#x2006;" horiz-adv-x="291" />
<glyph unicode="&#x2007;" horiz-adv-x="291" />
<glyph unicode="&#x2008;" horiz-adv-x="218" />
<glyph unicode="&#x2009;" horiz-adv-x="349" />
<glyph unicode="&#x200a;" horiz-adv-x="97" />
<glyph unicode="&#x2010;" horiz-adv-x="747" d="M106 498v28h535v-28h-535z" />
<glyph unicode="&#x2011;" horiz-adv-x="747" d="M106 498v28h535v-28h-535z" />
<glyph unicode="&#x2012;" horiz-adv-x="747" d="M106 498v28h535v-28h-535z" />
<glyph unicode="&#x2013;" horiz-adv-x="1157" d="M106 498v28h945v-28h-945z" />
<glyph unicode="&#x2014;" horiz-adv-x="1976" d="M106 498v28h1764v-28h-1764z" />
<glyph unicode="&#x2018;" horiz-adv-x="413" d="M352 1485q-76 -38 -115 -106.5t-44 -151.5q27 10 49 10q41 0 70.5 -29.5t29.5 -70.5q0 -51 -31 -84t-80 -33q-61 0 -95.5 42t-33.5 116q0 107 73 199t169 126z" />
<glyph unicode="&#x2019;" horiz-adv-x="413" d="M61 1020q76 38 115.5 106.5t44.5 151.5q-27 -10 -49 -10q-41 0 -70.5 29.5t-29.5 70.5q0 51 30.5 84t79.5 33q61 0 95.5 -42t33.5 -116q0 -108 -72.5 -200t-168.5 -126z" />
<glyph unicode="&#x201a;" d="M113 -260q76 38 115 106.5t44 151.5q-27 -10 -49 -10q-41 0 -70.5 29.5t-29.5 70.5q0 51 30.5 84t79.5 33q61 0 95.5 -42t33.5 -116q0 -108 -72.5 -200t-168.5 -126z" />
<glyph unicode="&#x201c;" horiz-adv-x="720" d="M618 1485q-76 -38 -115 -106.5t-44 -151.5q27 10 49 10q41 0 70.5 -29.5t29.5 -70.5q0 -51 -30.5 -84t-79.5 -33q-61 0 -95.5 42t-33.5 116q0 108 72.5 199.5t168.5 125.5zM61 1178q0 107 73 199t169 126l8 -18q-76 -38 -115 -106.5t-44 -151.5q27 10 49 10 q41 0 70.5 -29.5t29.5 -70.5q0 -51 -31 -84t-80 -33q-61 0 -95.5 42t-33.5 116z" />
<glyph unicode="&#x201d;" horiz-adv-x="720" d="M61 1028q76 38 115.5 106.5t44.5 151.5q-27 -10 -49 -10q-41 0 -70.5 29.5t-29.5 70.5q0 51 30.5 84t79.5 33q61 0 95.5 -42t33.5 -116q0 -108 -72.5 -199.5t-168.5 -125.5zM367 1028q76 38 115 106.5t44 151.5q-27 -10 -49 -10q-41 0 -70.5 29.5t-29.5 70.5 q0 51 30.5 84t79.5 33q61 0 95.5 -42t33.5 -116q0 -108 -72.5 -199.5t-168.5 -125.5z" />
<glyph unicode="&#x201e;" horiz-adv-x="720" d="M102 -260q76 38 115.5 106.5t44.5 151.5q-27 -10 -49 -10q-41 0 -70.5 29.5t-29.5 70.5q0 51 30.5 84t79.5 33q61 0 95.5 -42t33.5 -116q0 -108 -72.5 -200t-168.5 -126zM408 -260q76 38 115 106.5t44 151.5q-27 -10 -49 -10q-41 0 -70.5 29.5t-29.5 70.5q0 51 30.5 84 t79.5 33q61 0 95.5 -42t33.5 -116q0 -108 -72.5 -200t-168.5 -126z" />
<glyph unicode="&#x2022;" horiz-adv-x="595" d="M301 377q-73 0 -127.5 56.5t-54.5 133.5q0 76 54 131.5t128 55.5q73 0 125.5 -55t52.5 -132t-52.5 -133.5t-125.5 -56.5z" />
<glyph unicode="&#x2026;" horiz-adv-x="1173" d="M229 -14q-43 0 -74.5 33t-31.5 77t31.5 76.5t74.5 32.5t74 -32.5t31 -76.5t-31 -77t-74 -33zM532 96q0 44 32 76.5t75 32.5t73.5 -32.5t30.5 -76.5t-30.5 -77t-73.5 -33t-75 33t-32 77zM942 96q0 44 32 76.5t75 32.5t73.5 -32.5t30.5 -76.5t-30.5 -77t-73.5 -33t-75 33 t-32 77z" />
<glyph unicode="&#x202f;" horiz-adv-x="349" />
<glyph unicode="&#x2039;" horiz-adv-x="825" d="M655 49l-542 463l542 463l21 -25l-514 -438l514 -438z" />
<glyph unicode="&#x203a;" horiz-adv-x="825" d="M135 49l-20 25l514 438l-514 438l20 25l543 -463z" />
<glyph unicode="&#x205f;" horiz-adv-x="437" />
<glyph unicode="&#x20ac;" horiz-adv-x="1419" d="M756 -16q-164 0 -305.5 65t-241 191.5t-131.5 294.5h-123l12 30h107q-8 49 -8 117q0 106 24 201h-135l12 30h131q75 245 290 390t480 145q134 0 247.5 -27.5t170.5 -62.5l23 -238l-21 -6q-141 291 -487 291q-119 0 -218.5 -38.5t-168.5 -106.5t-113.5 -156t-62.5 -191 h790l-12 -30h-783q-6 -43 -6 -88q0 -126 29 -230h649l-12 -30h-629q62 -187 211 -299.5t377 -112.5q63 0 127 14t134 46t135.5 93.5t113.5 145.5l24 -12q-97 -202 -258 -314t-372 -112z" />
<glyph unicode="&#x2122;" horiz-adv-x="1671" d="M725 571v17q28 8 38.5 36.5t10.5 102.5v551q0 74 -10.5 102.5t-38.5 36.5v17h164l280 -625l279 625h160v-17q-29 -7 -39 -35.5t-10 -103.5v-551q0 -75 10 -103.5t39 -35.5v-17h-207v17q28 8 38.5 36.5t10.5 102.5v649l-315 -710h-19l-317 706v-596q0 -99 20 -138t64 -50 v-17h-158zM27 1280l16 154h590l14 -154h-14q-57 131 -178 131h-62v-684q0 -74 10.5 -102.5t38.5 -36.5v-17h-209v17q28 8 39 36.5t11 102.5v684h-62q-123 0 -180 -131h-14z" />
<glyph unicode="&#x25fc;" horiz-adv-x="1024" d="M0 1024h1024v-1024h-1024v1024z" />
<glyph horiz-adv-x="565" d="M-131 -246q-44 0 -63 9t-19 36q0 35 31 65t82 30q52 0 204 -31q23 14 38.5 30t33.5 47.5t27.5 84.5t9.5 127v1022q0 125 -17 172t-65 61v27h330v-27q-48 -14 -65 -61t-17 -172v-773q0 -143 -42.5 -266t-113.5 -205.5t-163 -129t-191 -46.5zM70 1538l204 166 q34 28 51 36.5t37 8.5q33 0 69 -20.5t36 -40.5q0 -19 -13.5 -32t-50.5 -24l-325 -106z" />
<glyph horiz-adv-x="1310" d="M104 0v27q47 14 64.5 62t17.5 171v914q0 123 -17.5 171t-64.5 62v27h332v-27q-48 -14 -65 -61t-17 -172v-521l537 549q189 195 67 213v19h285v-27q-36 -10 -55.5 -16.5t-57 -24t-76 -47t-79.5 -72.5l-273 -280l322 -605q73 -138 121 -210.5t80 -97.5t67 -25q23 0 35 2 v-27q-49 -14 -123 -14q-110 0 -177 67.5t-165 259.5l-274 533l-234 -238v-352q0 -125 17 -172t65 -61v-27h-332z" />
<glyph horiz-adv-x="1468" d="M825 -20q-104 0 -205.5 27.5t-194.5 86t-164 141.5t-113 203t-42 262q0 162 53.5 301.5t148.5 238t229.5 154.5t291.5 56q136 0 269.5 -36.5t208.5 -86.5l8 -233l-21 -7q-69 139 -204 231t-322 91q-158 0 -273.5 -76t-172.5 -211.5t-50 -312.5q6 -195 88 -353t227.5 -250 t327.5 -91q302 0 478 211l22 -19q-53 -72 -109.5 -127t-128.5 -102.5t-161 -72.5t-191 -25z" />
<glyph horiz-adv-x="1513" d="M834 -18q-141 0 -270.5 47t-232 134.5t-164 225.5t-61.5 307q0 222 101.5 395t271.5 265t377 92q126 0 233.5 -40t181.5 -108.5t118.5 -158t52.5 -189.5h-1159q-13 -73 -13 -137q-1 -109 26 -212.5t82 -194t132 -159t184.5 -108t231.5 -39.5q142 0 268.5 58t220.5 170 l21 -19q-238 -329 -602 -329zM289 985h968q-8 76 -42.5 149.5t-91 135t-143 99.5t-187.5 38q-197 0 -328.5 -116t-175.5 -306z" />
<glyph horiz-adv-x="1513" d="M834 -18q-141 0 -270.5 47t-232 134.5t-164 225.5t-61.5 307q0 222 101.5 395t271.5 265t377 92q126 0 233.5 -40t181.5 -108.5t118.5 -158t52.5 -189.5h-1159q-13 -73 -13 -137q-1 -109 26 -212.5t82 -194t132 -159t184.5 -108t231.5 -39.5q142 0 268.5 58t220.5 170 l21 -19q-238 -329 -602 -329zM289 985h968q-8 76 -42.5 149.5t-91 135t-143 99.5t-187.5 38q-197 0 -328.5 -116t-175.5 -306zM580 1538l204 166q34 28 51 36.5t37 8.5q33 0 69 -20.5t36 -40.5q0 -19 -13.5 -32t-50.5 -24l-325 -106z" />
<glyph horiz-adv-x="1312" d="M-35 0v27q48 15 88 61t84 154l404 999q19 49 -4 96l-19 43l154 70l504 -1210q43 -105 80 -151t75 -62v-27h-317v27q24 7 33.5 17.5t4.5 39.5t-16.5 58.5t-40.5 97.5l-417 1005l-406 -1003q-78 -194 25 -215v-27h-232zM440 545v22q67 0 102.5 44.5t35.5 101.5h22 q0 -57 36 -101.5t99 -44.5v-22q-64 0 -99.5 -42.5t-35.5 -99.5h-22q0 58 -35.5 100t-102.5 42z" />
<glyph horiz-adv-x="1173" d="M104 0v27q47 14 64.5 62t17.5 171v914q0 123 -17.5 171t-64.5 62v27h953l22 -226l-22 -6q-45 109 -134 155t-247 46h-322v-1280q0 -44 24 -68t68 -24h252q150 0 236 45.5t141 159.5l23 -5l-15 -231h-979zM625 756v22q67 0 102 44t35 102h22q0 -56 36.5 -101t99.5 -45v-22 q-64 0 -100 -42.5t-36 -99.5h-22q0 58 -35 100t-102 42z" />
<glyph horiz-adv-x="1173" d="M104 0v27q47 14 64.5 62t17.5 171v914q0 123 -17.5 171t-64.5 62v27h953l22 -226l-22 -6q-45 109 -134 155t-247 46h-322v-1280q0 -44 24 -68t68 -24h252q150 0 236 45.5t141 159.5l23 -5l-15 -231h-979zM356 1538l205 166q34 28 51 36.5t37 8.5q33 0 69 -20.5t36 -40.5 q0 -19 -13.5 -32t-50.5 -24l-325 -106zM625 756v22q67 0 102 44t35 102h22q0 -56 36.5 -101t99.5 -45v-22q-64 0 -100 -42.5t-36 -99.5h-22q0 58 -35 100t-102 42z" />
<glyph horiz-adv-x="1083" d="M104 0v27q47 14 64.5 62t17.5 171v914q0 123 -17.5 171t-64.5 62v27h904l18 -215l-22 -7q-53 104 -129.5 146.5t-219.5 42.5h-301v-1141q0 -125 17 -172t65 -61v-27h-332zM547 819v23q67 0 102 44t35 101h23q0 -56 36 -100.5t99 -44.5v-23q-64 0 -99.5 -42t-35.5 -99h-23 q0 58 -35 99.5t-102 41.5z" />
<glyph horiz-adv-x="1486" d="M104 0v27q47 14 64.5 62t17.5 171v914q0 123 -17.5 171t-64.5 62v27h332v-27q-48 -14 -65 -61t-17 -172v-914q0 -125 17 -172t65 -61v-27h-332zM588 717v22q67 0 102 44t35 102h23q0 -57 36 -101.5t99 -44.5v-22q-64 0 -99.5 -42.5t-35.5 -99.5h-23q0 58 -35 100t-102 42 zM1051 0v27q47 14 64.5 62t17.5 171v914q0 123 -17.5 171t-64.5 62v27h331v-27q-48 -14 -65 -61t-17 -172v-914q0 -125 17 -172t65 -61v-27h-331z" />
<glyph horiz-adv-x="1665" d="M836 -20q-107 0 -210 27.5t-197.5 87t-166 144.5t-114 209t-42.5 271q0 208 91 374.5t258.5 261.5t380.5 95q106 0 208.5 -28t196 -88t165 -145.5t113.5 -208.5t42 -269q0 -147 -42.5 -270t-113.5 -206.5t-165.5 -142t-196 -85.5t-207.5 -27zM270 838q4 -123 37.5 -242 t93 -220.5t137 -179t177.5 -121.5t207 -44q120 0 214 41.5t152.5 115.5t87.5 172.5t25 214.5q-7 215 -91 403.5t-232 306.5t-326 118q-231 0 -361 -156t-121 -409zM711 725v23q67 0 102 44t35 101h22q0 -56 36.5 -100.5t99.5 -44.5v-23q-64 0 -100 -42t-36 -99h-22 q0 58 -35 99.5t-102 41.5z" />
<glyph horiz-adv-x="2232" d="M1536 -25q-90 0 -166.5 27.5t-132 74t-104 106.5t-88 126.5t-78 132.5t-81 125.5t-89.5 105t-111 71.5t-139 24h-41l-152 -156v-352q0 -125 17 -172t65 -61v-27h-332v27q47 14 64.5 62t17.5 171v914q0 123 -17.5 171t-64.5 62v27h332v-27q-48 -14 -65 -61t-17 -172v-521 l537 549q189 195 67 213v19h285v-27q-36 -10 -55.5 -16.5t-56.5 -24t-75.5 -47t-80.5 -72.5l-438 -448l49 4q101 8 186.5 -13t147 -63.5t114.5 -100t95.5 -123t83 -131.5t84.5 -126.5t93 -107.5t115 -75t144 -28q76 0 139.5 35t107.5 92l19 -17q-62 -76 -158 -123t-221 -47z M1360 389v27q48 14 65 61t17 172v525q0 125 -17 172t-65 61v27h749l19 -183l-23 -4q-42 88 -105 123t-185 35h-207v-432h96q102 0 162.5 15.5t85 41t37.5 70.5h22v-281h-22q-12 44 -37 69.5t-85 40.5t-163 15h-96v-434q0 -44 24 -68t68 -24h131q123 0 188.5 38.5 t114.5 131.5l23 -2l-17 -197h-780z" />
<glyph horiz-adv-x="2232" d="M1536 -25q-90 0 -166.5 27.5t-132 74t-104 106.5t-88 126.5t-78 132.5t-81 125.5t-89.5 105t-111 71.5t-139 24h-41l-152 -156v-352q0 -125 17 -172t65 -61v-27h-332v27q47 14 64.5 62t17.5 171v914q0 123 -17.5 171t-64.5 62v27h332v-27q-48 -14 -65 -61t-17 -172v-521 l537 549q189 195 67 213v19h285v-27q-36 -10 -55.5 -16.5t-56.5 -24t-75.5 -47t-80.5 -72.5l-438 -448l49 4q101 8 186.5 -13t147 -63.5t114.5 -100t95.5 -123t83 -131.5t84.5 -126.5t93 -107.5t115 -75t144 -28q76 0 139.5 35t107.5 92l19 -17q-62 -76 -158 -123t-221 -47z M1360 389v27q48 14 65 61t17 172v525q0 125 -17 172t-65 61v27h749l19 -183l-23 -4q-42 88 -105 123t-185 35h-207v-432h96q102 0 162.5 15.5t85 41t37.5 70.5h22v-281h-22q-12 44 -37 69.5t-85 40.5t-163 15h-96v-434q0 -44 24 -68t68 -24h131q123 0 188.5 38.5 t114.5 131.5l23 -2l-17 -197h-780zM1450 1530l205 166q34 28 51 36.5t37 8.5q33 0 68.5 -21t35.5 -41q0 -19 -13 -31.5t-50 -23.5l-326 -106z" />
<glyph horiz-adv-x="2441" d="M1536 -25q-90 0 -166.5 27.5t-132 74t-104 106.5t-88 126.5t-78 132.5t-81 125.5t-89.5 105t-111 71.5t-139 24h-41l-152 -156v-352q0 -125 17 -172t65 -61v-27h-332v27q47 14 64.5 62t17.5 171v914q0 123 -17.5 171t-64.5 62v27h332v-27q-48 -14 -65 -61t-17 -172v-521 l537 549q189 195 67 213v19h285v-27q-36 -10 -55.5 -16.5t-56.5 -24t-75.5 -47t-80.5 -72.5l-438 -448l49 4q101 8 186.5 -13t147 -63.5t114.5 -100t95.5 -123t83 -131.5t84.5 -126.5t93 -107.5t115 -75t144 -28q76 0 139.5 35t107.5 92l19 -17q-62 -76 -158 -123t-221 -47z M1286 907q0 116 44.5 218.5t118.5 172.5t171.5 110t202.5 40q78 0 153 -18.5t144.5 -59.5t121.5 -100.5t83.5 -147.5t31.5 -194q0 -101 -32.5 -190t-86 -151.5t-123 -108t-144 -67.5t-148.5 -22q-101 0 -194.5 31.5t-171 93t-124.5 163.5t-47 230zM1444 1024 q0 -79 19.5 -161.5t57.5 -159.5t90 -137.5t123 -97t150 -36.5q105 0 178.5 53t106.5 136t33 186q0 79 -21 165t-62 165t-95.5 142t-127 98.5t-149.5 31.5q-149 -6 -226 -113.5t-77 -271.5z" />
<glyph horiz-adv-x="2418" d="M1864 389q-74 0 -140 14t-127.5 46.5t-105.5 82t-70 126.5t-26 173v343q0 125 -17 172t-65 61v27h307v-27q-48 -14 -65 -61t-17 -172v-330q0 -113 28 -195.5t79.5 -131t117.5 -71t148 -22.5q47 0 92 12.5t90.5 43t79 77t55 120t21.5 165.5v250q0 165 -33 230t-107 85v27 h250v-27q-48 -14 -65 -61t-17 -172v-326q0 -121 -32 -211.5t-89 -143.5t-130 -78.5t-162 -25.5zM104 0v27q47 14 64.5 62t17.5 171v914q0 123 -17.5 171t-64.5 62v27h332v-27q-48 -14 -65 -61t-17 -172v-521l537 549q189 195 67 213v19h285v-27q-36 -10 -55.5 -16.5 t-56.5 -24t-75.5 -47t-80.5 -72.5l-438 -448l49 4q101 8 186.5 -13t147 -63.5t114.5 -100t95.5 -123t83 -131.5t84.5 -126.5t93 -107.5t115 -75t144 -28q76 0 139.5 35t107.5 92l19 -17q-62 -76 -158 -123t-221 -47q-90 0 -166.5 27.5t-132 74t-104 106.5t-88 126.5 t-78 132.5t-81 125.5t-89.5 105t-111 71.5t-139 24h-41l-152 -156v-352q0 -125 17 -172t65 -61v-27h-332z" />
<glyph horiz-adv-x="1644" d="M104 0v27q47 14 64.5 62t17.5 171v914q0 123 -17.5 171t-64.5 62v27h332v-27q-48 -14 -65 -61t-17 -172v-1049q0 -44 24 -68t68 -24h482q148 0 225 44t131 159l23 -5l-15 -231h-1188zM571 387v27q44 16 82 61.5t80 153.5l258 641q14 34 -2 69l-20 50l133 53l330 -813 q43 -108 78.5 -153.5t72.5 -61.5v-27h-291v27q23 7 32.5 18t5 39.5t-15.5 59t-38 98.5l-53 131h-404l-53 -131q-78 -195 8 -215v-27h-203zM829 786h383l-192 478z" />
<glyph horiz-adv-x="1609" d="M104 0v27q47 14 64.5 62t17.5 171v914q0 123 -17.5 171t-64.5 62v27h332v-27q-48 -14 -65 -61t-17 -172v-1049q0 -44 24 -68t68 -24h338q147 0 225 44t132 159l22 -5l-14 -231h-1045zM735 387v27q48 14 65 61t17 172v524q0 125 -17 172.5t-65 61.5v27h750l18 -183l-22 -4 q-41 88 -105 123t-186 35h-207v-432h96q102 0 162.5 15.5t85 41t37.5 70.5h22v-281h-22q-12 44 -37 69.5t-85 40.5t-163 15h-96v-434q0 -44 24 -68t68 -24h131q123 0 188.5 38.5t114.5 131.5l23 -2l-16 -197h-781z" />
<glyph horiz-adv-x="1609" d="M104 0v27q47 14 64.5 62t17.5 171v914q0 123 -17.5 171t-64.5 62v27h332v-27q-48 -14 -65 -61t-17 -172v-1049q0 -44 24 -68t68 -24h338q147 0 225 44t132 159l22 -5l-14 -231h-1045zM735 387v27q48 14 65 61t17 172v524q0 125 -17 172.5t-65 61.5v27h750l18 -183l-22 -4 q-41 88 -105 123t-186 35h-207v-432h96q102 0 162.5 15.5t85 41t37.5 70.5h22v-281h-22q-12 44 -37 69.5t-85 40.5t-163 15h-96v-434q0 -44 24 -68t68 -24h131q123 0 188.5 38.5t114.5 131.5l23 -2l-16 -197h-781zM877 1530l204 166q34 28 51 36.5t37 8.5q33 0 69 -21 t36 -41q0 -19 -13 -31.5t-51 -23.5l-325 -106z" />
<glyph horiz-adv-x="1261" d="M104 0v27q47 14 64.5 62t17.5 171v914q0 123 -17.5 171t-64.5 62v27h332v-27q-48 -14 -65 -61t-17 -172v-1049q0 -44 24 -68t68 -24h244q148 0 226.5 44t132.5 159l22 -5l-14 -231h-953zM793 389v27q48 14 64.5 61t16.5 172v525q0 125 -16.5 172t-64.5 61v27h319v-27 q-48 -14 -65 -61t-17 -172v-525q0 -125 17 -172t65 -61v-27h-319z" />
<glyph horiz-adv-x="1454" d="M104 0v27q47 14 64.5 62t17.5 171v914q0 123 -17.5 171t-64.5 62v27h332v-27q-48 -14 -65 -61t-17 -172v-1049q0 -44 24 -68t68 -24h494q148 0 226.5 43.5t138.5 159.5l22 -5l-22 -231h-1201zM639 389v27q48 14 65 61t17 172v525q0 125 -17 172t-65 61v27h324v-27 q-48 -14 -65 -61t-17 -172v-670q0 -82 86 -82h92q136 0 211 43.5t119 146.5h24l-22 -223h-752z" />
<glyph horiz-adv-x="1787" d="M104 0v27q47 14 64.5 62t17.5 171v914q0 123 -17.5 171t-64.5 62v27h332v-27q-48 -14 -65 -61t-17 -172v-1049q0 -44 24 -68t68 -24h508q148 0 225.5 44t131.5 159l22 -5l-14 -231h-1215zM631 905q0 116 44.5 218.5t118 172.5t171 110t202.5 40q99 0 191.5 -31 t170.5 -91.5t125.5 -163.5t47.5 -234q0 -101 -32.5 -190t-86.5 -151.5t-123.5 -108t-144 -67.5t-148.5 -22q-80 0 -156 19.5t-145 61t-121 101t-83 146.5t-31 190zM788 1022q0 -99 31.5 -202.5t86.5 -191t140 -143t183 -55.5q80 0 141.5 30.5t99.5 83t57 119t19 142.5 q0 100 -34 207.5t-92 197.5t-145 146t-183 51q-149 -6 -226.5 -113.5t-77.5 -271.5z" />
<glyph horiz-adv-x="1495" d="M104 0v27q47 14 64.5 62t17.5 171v914q0 123 -17.5 171t-64.5 62v27h332v-27q-48 -14 -65 -61t-17 -172v-1049q0 -44 24 -68t68 -24h508q148 0 225.5 44t131.5 159l22 -7l-14 -229h-1215zM676 729l18 4q65 -148 172.5 -230t245.5 -83q96 0 158.5 52.5t62.5 137.5 q0 31 -9 57.5t-22 46.5t-38.5 39t-46 31t-57.5 27t-61 23t-67 22q-57 18 -93 31t-79 32.5t-69 40.5t-49 49.5t-33.5 65t-10.5 82.5q0 125 99.5 206t273.5 81q93 0 179.5 -16.5t138.5 -38.5l8 -209l-21 -4q-50 111 -142 176t-200 65q-104 0 -166.5 -47t-62.5 -125 q0 -38 16 -69.5t39.5 -53.5t65 -43.5t78.5 -36t94 -32.5q137 -45 180 -65q136 -66 159 -183q5 -26 5 -55q0 -136 -99 -227.5t-276 -92.5q-114 0 -215 28t-158 66z" />
<glyph horiz-adv-x="1726" d="M104 0v27q47 14 64.5 62t17.5 171v914q0 123 -17.5 171t-64.5 62v27h332v-27q-48 -14 -65 -61t-17 -172v-1049q0 -44 24 -68t68 -24h467q148 0 225.5 44t131.5 159l22 -5l-14 -231h-1174zM621 1407v27h307v-27q-48 -14 -65 -61t-17 -172v-330q0 -113 28 -195.5t79.5 -131 t117.5 -71t148 -22.5q47 0 92 12.5t90 43t79 77t55 120t21 165.5v250q0 113 -17 179.5t-45 94t-77 41.5v27h250v-27q-48 -14 -65 -61t-17 -172v-326q0 -121 -32 -211.5t-89.5 -143.5t-130.5 -78.5t-162 -25.5q-74 0 -140 14t-127.5 46.5t-105.5 82t-70 126.5t-26 173v343 q0 125 -16.5 172t-64.5 61z" />
<glyph horiz-adv-x="2172" d="M836 -20q-107 0 -210 27.5t-197.5 87t-166 144.5t-114 209t-42.5 271q0 208 91 374.5t258.5 261.5t380.5 95q187 0 354 -86q179 84 393 84q128 0 263.5 -31t197.5 -71l8 -244l-20 -4q-61 142 -199.5 226.5t-319.5 84.5q-159 0 -286 -68q152 -92 243 -251.5t91 -378.5 q0 -206 -79.5 -357t-215.5 -245q149 -89 327 -89q167 0 290.5 87t182.5 251l23 -2l-33 -266q-81 -45 -221 -77.5t-299 -32.5q-210 0 -377 69q-150 -69 -323 -69zM270 838q4 -123 37.5 -242t93 -220.5t137 -179t177.5 -121.5t207 -44q110 0 200 35q-172 86 -265 244.5 t-93 377.5q0 188 80 344.5t223 259.5q-146 111 -315 111q-231 0 -361 -156t-121 -409zM936 774q-2 -196 75.5 -368.5t219.5 -274.5q88 73 131.5 188t38.5 256q-6 200 -83.5 382.5t-205.5 299.5q-176 -168 -176 -483z" />
<glyph horiz-adv-x="2213" d="M836 -20q-107 0 -210 27.5t-197.5 87t-166 144.5t-114 209t-42.5 271q0 208 91 374.5t258.5 261.5t380.5 95q177 0 335 -76q154 74 338 74q131 0 262 -32.5t195 -74.5l8 -241l-20 -4q-59 137 -194.5 226t-309.5 89q-136 0 -246 -55q162 -90 259.5 -253.5t97.5 -391.5 q0 -204 -77.5 -354.5t-211.5 -243.5q144 -93 309 -93q112 0 205 53t133 132l-2 209q0 99 -20.5 140t-84.5 58v25h269v-385q-88 -122 -246.5 -197t-316.5 -75q-201 0 -357 69q-150 -69 -325 -69zM270 838q4 -123 37.5 -242t93 -220.5t137 -179t177.5 -121.5t207 -44 q115 0 202 37q-172 88 -266 253.5t-94 385.5q0 183 76.5 338.5t214.5 257.5q-143 100 -303 100q-231 0 -361 -156t-121 -409zM930 831q-2 -202 79.5 -392.5t227.5 -301.5q85 73 127 186.5t37 251.5q-8 210 -90.5 397.5t-218.5 301.5q-159 -159 -162 -443z" />
<glyph horiz-adv-x="2359" d="M836 -20q-107 0 -210 27.5t-197.5 87t-166 144.5t-114 209t-42.5 271q0 208 91 374.5t258.5 261.5t380.5 95q173 0 323 -72q150 72 334 72q106 0 208.5 -28t196 -88t165 -145.5t113.5 -208.5t42 -269q0 -147 -42.5 -270t-113.5 -206.5t-165.5 -142t-196 -85.5t-207.5 -27 q-180 0 -328 71q-151 -71 -329 -71zM270 838q4 -123 37.5 -242t93 -220.5t137 -179t177.5 -121.5t207 -44q114 0 206 39q-166 87 -265 251t-99 398q0 186 73.5 339.5t206.5 252.5q-142 92 -292 92q-231 0 -361 -156t-121 -409zM928 838q8 -207 94.5 -394t228.5 -297 q159 153 150 428q-8 214 -93.5 404.5t-226.5 302.5q-78 -75 -117.5 -189.5t-35.5 -254.5zM1196 1360q166 -89 265.5 -253.5t99.5 -395.5q0 -198 -74 -346.5t-201 -241.5q139 -92 293 -92q120 0 214 41.5t152.5 115.5t87.5 172.5t25 214.5q-7 215 -91 403.5t-232 306.5 t-326 118q-123 0 -213 -43z" />
<glyph horiz-adv-x="2129" d="M1417 -25q-90 0 -167.5 24t-134.5 65.5t-106.5 95.5t-88 114.5t-73.5 121.5t-68.5 118.5t-68 104t-77 79t-90.5 41.5h-11h-178v-479q0 -125 17 -172t65 -61v-27h-332v27q48 14 65 61t17 172v914q0 125 -17 172t-65 61v27h404q122 0 215.5 -16t154 -44t99 -69t54.5 -87.5 t16 -103.5q0 -146 -103 -245.5t-295 -123.5q81 -23 152 -74.5t123.5 -114.5t103 -134t101.5 -137t107 -119.5t131.5 -86t164.5 -32.5q81 0 149 33.5t115 83.5l19 -17q-65 -72 -168.5 -122t-229.5 -50zM354 770h172q171 0 258.5 80.5t87.5 216.5q0 148 -103.5 242t-317.5 94 q-31 0 -97 -4v-629zM1151 389v27q44 16 82 61.5t80 153.5l258 641q14 34 -2 69l-21 50l133 53l330 -813q43 -107 78.5 -153t73.5 -62v-27h-291v27q23 7 32.5 17.5t4.5 40t-15.5 59t-38.5 98.5l-53 131h-403l-53 -131q-78 -195 8 -215v-27h-203zM1409 788h383l-193 478z" />
<glyph horiz-adv-x="2328" d="M1616 -25q-100 0 -188.5 26t-155 70.5t-126 101.5t-110 120.5t-98 127t-97.5 120.5t-102.5 101.5t-119 70.5t-140.5 26h-125v-479q0 -125 17 -172t65 -61v-27h-332v27q48 14 65 61t17 172v914q0 125 -17 172t-65 61v27h404q122 0 215.5 -16t154 -44t99 -69t54.5 -87.5 t16 -103.5q0 -146 -102.5 -244.5t-293.5 -124.5q111 -21 206.5 -71t164.5 -112.5t132.5 -134t123 -138.5t123.5 -121.5t147.5 -87.5t180.5 -33q153 0 266 117l16 -17q-63 -72 -166 -122t-229 -50zM354 770h172q171 0 258.5 80.5t87.5 216.5q0 148 -103.5 242t-317.5 94 q-31 0 -97 -4v-629zM1286 897q0 162 77.5 288.5t209.5 193.5t295 67q101 0 199 -20.5t141 -45.5l20 -209l-22 -4q-49 127 -150 188t-227 58q-98 -2 -172 -37.5t-120.5 -98.5t-69.5 -146.5t-23 -184.5q-1 -70 13 -141t46.5 -142t80.5 -125t122.5 -88t165.5 -34q257 0 360 276 l17 -2l-13 -198q-67 -44 -173.5 -75t-229.5 -30q-242 2 -394.5 135.5t-152.5 374.5z" />
<glyph horiz-adv-x="2191" d="M1460 -25q-84 0 -156 24t-124.5 65.5t-98 95.5t-83.5 114.5t-74 121.5t-75.5 118.5t-82.5 104t-100 79t-123 41.5h-11h-178v-479q0 -125 17 -172t65 -61v-27h-332v27q48 14 65 61t17 172v914q0 125 -17 172t-65 61v27h404q122 0 215.5 -16t154 -44t99 -69t54.5 -87.5 t16 -103.5q0 -143 -99.5 -241t-285.5 -125q105 -22 191.5 -73.5t145.5 -115t110.5 -135.5t98.5 -139t97.5 -121.5t118.5 -87.5t151 -33q73 0 137 32.5t109 82.5l18 -17q-63 -71 -161.5 -118.5t-217.5 -47.5zM354 770h172q171 0 258.5 80.5t87.5 216.5q0 148 -103.5 242 t-317.5 94q-31 0 -97 -4v-629zM1317 389v27q48 14 65 61t17 172v525q0 125 -17 172t-65 61v27h749l19 -183l-23 -4q-42 88 -105 123t-185 35h-207v-432h96q102 0 162.5 15.5t85 41t37.5 70.5h22v-281h-22q-12 44 -37 69.5t-85 40.5t-163 15h-96v-434q0 -44 24 -68t68 -24 h131q123 0 188.5 38.5t114.5 131.5l23 -2l-17 -197h-780z" />
<glyph horiz-adv-x="2191" d="M1460 -25q-84 0 -156 24t-124.5 65.5t-98 95.5t-83.5 114.5t-74 121.5t-75.5 118.5t-82.5 104t-100 79t-123 41.5h-11h-178v-479q0 -125 17 -172t65 -61v-27h-332v27q48 14 65 61t17 172v914q0 125 -17 172t-65 61v27h404q122 0 215.5 -16t154 -44t99 -69t54.5 -87.5 t16 -103.5q0 -143 -99.5 -241t-285.5 -125q105 -22 191.5 -73.5t145.5 -115t110.5 -135.5t98.5 -139t97.5 -121.5t118.5 -87.5t151 -33q73 0 137 32.5t109 82.5l18 -17q-63 -71 -161.5 -118.5t-217.5 -47.5zM354 770h172q171 0 258.5 80.5t87.5 216.5q0 148 -103.5 242 t-317.5 94q-31 0 -97 -4v-629zM1317 389v27q48 14 65 61t17 172v525q0 125 -17 172t-65 61v27h749l19 -183l-23 -4q-42 88 -105 123t-185 35h-207v-432h96q102 0 162.5 15.5t85 41t37.5 70.5h22v-281h-22q-12 44 -37 69.5t-85 40.5t-163 15h-96v-434q0 -44 24 -68t68 -24 h131q123 0 188.5 38.5t114.5 131.5l23 -2l-17 -197h-780zM1589 1530l205 166q34 28 51 36.5t37 8.5q33 0 69 -21t36 -41q0 -19 -13 -31.5t-51 -23.5l-326 -106z" />
<glyph horiz-adv-x="1746" d="M1358 -25q-85 0 -158.5 24t-128 65.5t-101 95.5t-83 114.5t-69 121.5t-64 118.5t-63 104t-70.5 79t-82 41.5h-7h-178v-479q0 -125 17 -172t65 -61v-27h-332v27q48 14 65 61t17 172v914q0 125 -17 172t-65 61v27h404q122 0 215.5 -16t154 -44t99 -69t54.5 -87.5t16 -103.5 q0 -146 -104 -245.5t-298 -123.5q79 -24 147 -75.5t117 -114.5t95.5 -134t92.5 -136.5t96.5 -119t119 -86t149.5 -32.5q74 0 141 34t113 83l19 -17q-66 -73 -163 -122.5t-214 -49.5zM354 770h172q171 0 258.5 80.5t87.5 216.5q0 148 -103.5 242t-317.5 94q-31 0 -97 -4v-629 zM1298 389v27q48 14 65 61t17 172v525q0 125 -17 172t-65 61v27h320v-27q-48 -14 -65 -61t-17 -172v-525q0 -125 17 -172t65 -61v-27h-320z" />
<glyph horiz-adv-x="2480" d="M1843 389q-80 0 -156 19.5t-145 61t-121 101t-83 146.5t-31 190q0 116 44.5 218.5t118 172.5t171 110t202.5 40q99 0 191.5 -31t170.5 -91.5t125.5 -163.5t47.5 -234q0 -101 -32.5 -190t-86.5 -151.5t-123.5 -108t-144 -67.5t-148.5 -22zM104 0v27q48 14 65 61t17 172 v914q0 125 -17 172t-65 61v27h404q122 0 215.5 -16t154 -44t99 -69t54.5 -87.5t16 -103.5q0 -146 -102.5 -244.5t-293.5 -124.5q111 -21 206.5 -71t164.5 -112.5t132.5 -134t123 -138.5t123.5 -121.5t147.5 -87.5t180.5 -33q153 0 266 117l16 -17q-63 -72 -166 -122 t-229 -50q-100 0 -188.5 26t-155 70.5t-126 101.5t-110 120.5t-98 127t-97.5 120.5t-102.5 101.5t-119 70.5t-140.5 26h-125v-479q0 -125 17 -172t65 -61v-27h-332zM354 770h172q171 0 258.5 80.5t87.5 216.5q0 148 -103.5 242t-317.5 94q-31 0 -97 -4v-629zM1464 1024 q0 -99 31.5 -202.5t86.5 -191t140 -143t183 -55.5q80 0 141.5 30.5t99.5 83t57 119t19 142.5q0 79 -21 165t-62 165t-95.5 142t-127 98.5t-149.5 31.5q-149 -6 -226 -113.5t-77 -271.5z" />
<glyph horiz-adv-x="2123" d="M1470 -25q-84 0 -156 24t-124.5 65.5t-98 95.5t-83.5 114.5t-74 121.5t-75.5 118.5t-82.5 104t-100 79t-123 41.5h-10h-178v-479q0 -125 16.5 -172t64.5 -61v-27h-331v27q48 14 65 61t17 172v914q0 125 -17 172t-65 61v27h403q122 0 215.5 -16t154 -44t99 -69t54.5 -87.5 t16 -103.5q0 -143 -99.5 -241t-285.5 -125q105 -22 191.5 -73.5t145.5 -115t110.5 -135.5t98.5 -139t97.5 -121.5t118.5 -87.5t151 -33q73 0 137 32.5t109 82.5l18 -17q-63 -71 -161.5 -118.5t-217.5 -47.5zM365 770h172q171 0 258.5 80.5t87.5 216.5q0 148 -104 242 t-318 94q-30 0 -96 -4v-629zM1300 733l19 4q65 -148 172.5 -230t245.5 -83q96 0 158.5 52.5t62.5 137.5q0 31 -9 57.5t-22 46.5t-38.5 39t-46 31t-57.5 27t-61 23t-67 22q-57 18 -93 31t-79 32.5t-69 40.5t-49 49.5t-33.5 65t-10.5 82.5q0 125 99.5 206t273.5 81 q93 0 178.5 -16t138.5 -39l8 -209l-20 -4q-50 111 -142 176t-200 65q-104 0 -166.5 -47t-62.5 -125q0 -38 15.5 -69.5t39.5 -53.5t65 -43.5t78.5 -36t93.5 -32.5q137 -45 180 -65q136 -66 159 -183q5 -26 5 -55q0 -136 -98.5 -227.5t-275.5 -92.5q-114 0 -215 28t-158 66z " />
<glyph horiz-adv-x="2410" d="M1858 389q-74 0 -140 14t-127.5 46.5t-105.5 82t-70 126.5t-26 173v343q0 125 -17 172t-65 61v27h307v-27q-48 -14 -65 -61t-17 -172v-330q0 -113 28 -195.5t79.5 -131t117.5 -71t148 -22.5q47 0 92 12.5t90.5 43t79 77t55 120t21.5 165.5v250q0 165 -33 230t-107 85v27 h250v-27q-48 -14 -65 -61t-17 -172v-326q0 -121 -32 -211.5t-89 -143.5t-130 -78.5t-162 -25.5zM104 0v27q48 14 65 61t17 172v914q0 125 -17 172t-65 61v27h404q122 0 215.5 -16t154 -44t99 -69t54.5 -87.5t16 -103.5q0 -146 -102.5 -244.5t-293.5 -124.5 q111 -21 206.5 -71t164.5 -112.5t132.5 -134t123 -138.5t123.5 -121.5t147.5 -87.5t180.5 -33q153 0 266 117l16 -17q-63 -72 -166 -122t-229 -50q-100 0 -188.5 26t-155 70.5t-126 101.5t-110 120.5t-98 127t-97.5 120.5t-102.5 101.5t-119 70.5t-140.5 26h-125v-479 q0 -125 17 -172t65 -61v-27h-332zM354 770h172q171 0 258.5 80.5t87.5 216.5q0 148 -103.5 242t-317.5 94q-31 0 -97 -4v-629z" />
<glyph horiz-adv-x="2050" d="M391 0v27q47 14 64.5 62t17.5 171v1141h-84q-137 0 -209 -43t-125 -154l-22 4l12 226h1434l12 -226l-23 -4q-51 111 -123.5 154t-209.5 43h-492v-1141q0 -125 17 -172t65 -61v-27h-334zM877 498q0 155 75.5 280t197.5 192.5t263 67.5q99 0 191.5 -31t170.5 -91.5 t125.5 -163.5t47.5 -234q0 -101 -32.5 -189.5t-86.5 -151.5t-123.5 -108t-144 -67t-148.5 -22q-80 0 -156 19.5t-145 61t-121 101t-83 146.5t-31 190zM1034 614q0 -99 31.5 -202.5t86.5 -190.5t140 -142.5t183 -55.5q105 0 178.5 53t106 135.5t32.5 185.5q0 79 -21 165 t-62 165t-95.5 142t-127 98.5t-149.5 31.5q-149 -6 -226 -113.5t-77 -271.5z" />
<glyph horiz-adv-x="460" d="M66 0v27q48 14 64.5 61t16.5 172v471q0 70 -9.5 107.5t-24.5 52.5t-47 29v22l225 98l16 -14v-766q0 -123 17.5 -171t64.5 -62v-27h-323zM102 1278q0 49 32.5 82t80.5 33q49 0 81 -32.5t32 -82.5q0 -46 -33 -79.5t-80 -33.5t-80 33.5t-33 79.5z" />
<glyph d="M-172 -569q-44 0 -72 12.5t-28 36.5q0 32 34.5 70t81.5 38q25 0 59.5 -4.5t88 -13t78.5 -12.5q70 53 92 129t22 223v821q0 69 -10 107.5t-25 53t-47 28.5v22l224 98l18 -14v-977q0 -120 -49.5 -236t-125.5 -198.5t-167.5 -133t-173.5 -50.5zM86 1200l207 205 q30 30 47.5 38.5t38.5 8.5q32 0 67 -20t35 -39q0 -17 -13 -30t-48 -30l-326 -147z" />
<glyph horiz-adv-x="1050" d="M831 0q-63 0 -63 61v349q-47 -190 -159.5 -310t-260.5 -120q-114 0 -196 69t-82 193q0 46 12.5 85t32.5 68.5t54.5 56t68 45t85 38.5t92.5 32.5t103 30.5l250 72v12q0 45 -2 72.5t-11.5 67.5t-28 66.5t-54 53t-86.5 43.5q-21 -12 -63 -35t-63 -35t-55 -30t-55 -27.5 t-45.5 -19.5t-42.5 -14.5t-33 -4.5q-31 0 -46 21t-15 51q0 46 19.5 75.5t59 43.5t81 19t104.5 5q80 0 164 -25t159 -71t123 -123.5t48 -171.5v-383q0 -123 17.5 -171t64.5 -62v-27h-177zM223 303q0 -95 60 -149t151 -54q72 0 134 40.5t103 106t66 143t31 157.5v96l-242 -70 q-57 -16 -92 -27.5t-80.5 -34.5t-70.5 -48.5t-43 -67t-17 -92.5z" />
<glyph horiz-adv-x="909" d="M66 0v27q48 14 64.5 61t16.5 172v471q0 69 -10 107.5t-24.5 53t-46.5 28.5v22l223 98l18 -14v-252q45 113 121 182q80 74 154 74q42 0 122 -28.5t113 -28.5q31 0 54.5 12t50.5 49l16 -10q-31 -45 -42 -61t-36 -47t-40.5 -42t-38.5 -21.5t-48 -10.5q-18 0 -39.5 4 t-57.5 15.5t-55 18t-71.5 26t-67.5 24.5q-43 -31 -86 -111.5t-47 -150.5h-2v-408q0 -125 17 -172t65 -61v-27h-323z" />
<glyph horiz-adv-x="1794" d="M1169 -18q-109 0 -209 43.5t-157 107.5l-68 -133h-22v1434l-211 63q-33 -17 -62.5 -43.5t-58.5 -68t-46.5 -103.5t-17.5 -137v-121h211l-12 -29h-199v-735q0 -125 17 -172t65 -61v-27h-323v27q48 14 65 61t17 172v719v16h-105l13 29h94q10 118 67 226t139 182.5 t180 118.5t191 44h6l115 56l14 -11v-743q202 141 373 141q202 0 331.5 -141t129.5 -358q0 -108 -36 -207t-102.5 -177t-170 -125t-228.5 -48zM872 346q0 -113 113.5 -218t249.5 -105q156 0 236.5 106.5t80.5 290.5q0 71 -14.5 144.5t-47 146t-78.5 129.5t-115 92t-150 35 q-130 0 -275 -101v-520z" />
<glyph horiz-adv-x="1757" d="M631 0v27q48 14 65 61t17 172v1174l-211 63q-33 -17 -62.5 -43.5t-58.5 -68t-46.5 -103.5t-17.5 -137v-121h211l-12 -29h-199v-735q0 -125 17 -172t65 -61v-27h-323v27q48 14 65 61t17 172v719v16h-105l13 29h94q10 118 67 226t139 182.5t180 118.5t191 44h6l115 56 l14 -11v-792q236 190 439 190q154 0 238.5 -89.5t84.5 -266.5v-422q0 -125 17 -172t65 -61v-27h-323v27q48 14 65 61t17 172v381q0 161 -68.5 245.5t-202.5 84.5q-146 0 -330 -156l-2 2v-557q0 -123 17.5 -171t64.5 -62v-27h-323z" />
<glyph horiz-adv-x="946" d="M78 0v27q48 14 65 61t17 172v719v16h-107l13 29h96q9 110 62.5 214.5t135 182.5t190 125t220.5 47q152 0 152 -63q0 -50 -41 -98t-99 -48q-98 0 -284 109q-29 -16 -46 -28t-45.5 -42t-45 -64.5t-29.5 -93.5t-13 -132v-109h281l-12 -29h-269v-735q0 -125 17 -172t65 -61 v-27h-323zM260 -520q0 32 35 70t82 38q25 0 59 -4.5t87.5 -13t78.5 -12.5q70 53 92.5 129.5t22.5 222.5v821q0 69 -10 107.5t-25 53t-47 28.5v22l223 98l19 -14v-977q0 -120 -50 -236t-125.5 -198.5t-167.5 -133t-174 -50.5q-44 0 -72 12.5t-28 36.5z" />
<glyph horiz-adv-x="1634" d="M631 0v27q48 14 65 61t17 172v1174l-211 63q-33 -17 -62.5 -43.5t-58.5 -68t-46.5 -103.5t-17.5 -137v-121h211l-12 -29h-199v-735q0 -125 17 -172t65 -61v-27h-323v27q48 14 65 61t17 172v719v16h-105l13 29h94q10 118 67 226t139 182.5t180 118.5t191 44h6l115 56 l14 -11v-1187l349 333q39 38 66.5 71.5t41 58.5t17 44.5t-2.5 31.5t-20 18v14h244v-27q-41 -12 -67.5 -22.5t-76.5 -43.5t-106 -87l-150 -144l240 -432q68 -122 120.5 -180.5t117.5 -62.5v-25h-136q-74 0 -131 53.5t-133 192.5l-186 348l-187 -180v-154q0 -123 17.5 -171 t64.5 -62v-27h-323z" />
<glyph horiz-adv-x="1228" d="M610 -20q-80 0 -156 19.5t-145 61t-121 101t-83 146.5t-31 190q0 155 75.5 280t197.5 192.5t263 67.5q99 0 191.5 -31t170.5 -91.5t125.5 -163.5t47.5 -234q0 -101 -32.5 -189.5t-86.5 -151.5t-123.5 -108t-144 -67t-148.5 -22zM233 614q0 -79 19 -161.5t57.5 -159 t90 -137t122.5 -97t150 -36.5q155 0 235 106.5t80 267.5q0 100 -33.5 207.5t-91 197.5t-144.5 146t-183 51q-149 -6 -225.5 -113.5t-76.5 -271.5z" />
<glyph horiz-adv-x="612" d="M137 0v27q58 14 78.5 61t20.5 172v594l-181 -76l-4 15l336 241h16v-774q0 -125 20.5 -172t78.5 -61v-27h-365z" />
<glyph horiz-adv-x="856" d="M31 27q33 30 93.5 83t97.5 86t90.5 84t87 88.5t72 87.5t60 92.5t36 92t14.5 96.5q0 107 -56 160t-147 53q-143 0 -252 -123l-16 15q154 196 362 196q120 0 194 -68t74 -182q0 -41 -13 -84t-30.5 -80t-51.5 -81.5t-60.5 -76t-74.5 -75.5t-76.5 -68.5t-83.5 -67.5 t-78.5 -60.5t-77.5 -57.5h329q92 0 137.5 9.5t69.5 32.5t41 73l21 -2l-27 -250h-735v27z" />
<glyph horiz-adv-x="917" d="M63 -506q280 109 435 267.5t155 347.5q0 80 -21.5 138t-59 89t-79.5 45t-92 14q-73 0 -139 -28l-10 20q153 69 227 153.5t74 200.5q0 92 -58.5 145.5t-158.5 53.5q-157 0 -289 -135l-16 18q93 106 191 160.5t216 54.5q126 0 201.5 -70.5t75.5 -168.5q0 -64 -23 -118.5 t-68 -98.5t-98.5 -78.5t-126.5 -69.5q48 10 99 10q46 0 90.5 -8.5t90 -30.5t79 -55t55 -85.5t21.5 -119.5q0 -72 -22 -138.5t-59 -121.5t-94 -106.5t-119.5 -93t-142 -82t-155.5 -72t-166 -63.5z" />
<glyph horiz-adv-x="1017" d="M31 0l-11 20l742 1018h35v-934h168l2 -4l-15 -69q-8 -29 -49 -29h-106v-152q0 -125 17 -172t65 -61v-27h-330v27q47 14 64.5 62t17.5 171v150h-600zM121 104h510v701z" />
<glyph horiz-adv-x="897" d="M31 -506q254 116 416.5 315t162.5 388q0 131 -83 198t-224 62q-84 -2 -213 -27l-20 14l102 580h315q129 0 193 32.5t92 98.5l25 -10q-18 -41 -34 -70.5t-47 -66.5t-67.5 -60t-93 -39t-125.5 -16h-252l-57 -338q112 37 264 37q196 1 299.5 -94t103.5 -230 q0 -230 -189.5 -432.5t-555.5 -367.5z" />
<glyph horiz-adv-x="1073" d="M545 -20q-213 0 -341 150t-128 405q0 97 26 202t83.5 219t141.5 218.5t208.5 201.5t275.5 166l16 -24q-102 -47 -187 -114.5t-142.5 -138t-102 -152.5t-69.5 -153.5t-41 -146.5q70 58 153.5 90.5t165.5 32.5q179 0 291.5 -118t112.5 -324q0 -105 -29 -193t-75.5 -146 t-108 -98.5t-124.5 -58.5t-126 -18zM260 592q0 -116 20 -217t59 -182t105 -128t152 -47q112 0 184 90.5t72 268.5q0 217 -91.5 349t-248.5 132q-124 0 -233 -80q-19 -100 -19 -186z" />
<glyph horiz-adv-x="886" d="M207 -410q0 188 135 484q38 84 97.5 200.5t95.5 184t125.5 232.5t107.5 198l-471 6q-131 2 -175 -23t-83 -127l-19 3l41 276h809v-16q-139 -244 -251.5 -515.5t-157.5 -433.5q-37 -135 -48 -260.5t5 -208.5h-211z" />
<glyph horiz-adv-x="1069" d="M502 -20q-74 0 -147 21t-136.5 60.5t-103 106t-39.5 149.5q0 224 291 431q-102 67 -158.5 149.5t-56.5 196.5q0 63 27 125.5t76.5 113.5t127.5 83t172 32q157 0 253.5 -83t96.5 -200q0 -195 -254 -377q64 -35 102.5 -58t89.5 -61.5t79 -73.5t48.5 -84.5t20.5 -104.5 q0 -187 -136.5 -306.5t-352.5 -119.5zM229 391q0 -82 24 -148t61.5 -105.5t86 -66t92.5 -36.5t87 -10q126 0 206 74t80 186q0 57 -22 106.5t-54 84.5t-84.5 72t-97.5 61.5t-110.5 60t-106.5 61.5q-76 -63 -119 -153.5t-43 -186.5zM268 1188q0 -46 12.5 -86.5t40.5 -76 t55.5 -63t75 -58t80.5 -50t89 -49.5q55 65 93 153t38 175q0 49 -12.5 95t-39.5 88.5t-77.5 68.5t-118.5 26q-113 0 -174.5 -66t-61.5 -157z" />
<glyph horiz-adv-x="1073" d="M528 1040q213 0 341 -150t128 -405q0 -97 -26 -202t-83.5 -219t-141.5 -218.5t-208.5 -201.5t-275.5 -166l-16 24q102 47 187 114.5t142.5 138t102 152.5t69.5 153.5t41 146.5q-70 -58 -153.5 -90.5t-165.5 -32.5q-179 0 -291 118t-112 324q0 105 28.5 193t75.5 146 t108 98.5t124 58.5t126 18zM221 643q0 -217 91.5 -349t248.5 -132q125 0 234 80q18 95 18 186q0 116 -20 217t-59 182t-105 127.5t-152 46.5q-112 0 -184 -90t-72 -268z" />
<glyph horiz-adv-x="296" d="M139 2q0 58 -35 99.5t-102 41.5v23q67 0 102 44t35 101h23q0 -56 36 -100.5t99 -44.5v-23q-64 0 -99.5 -42t-35.5 -99h-23z" />
</font>
</defs>
</svg>
